/* XPM */
static char *cherry[] = {
/* columns rows colors chars-per-pixel */
"64 64 79 1",
"  c black",
". c #7D0101",
"X c #7E0E0E",
"o c #7F1313",
"O c #5F5F5F",
"+ c #800000",
"@ c #810E0E",
"# c #8B0000",
"$ c #831212",
"% c #871F1F",
"& c #8B1C1C",
"* c #970000",
"= c #9D0000",
"- c #852222",
"; c #8B2222",
": c #902F2F",
"> c #963535",
", c #9B3939",
"< c #A60000",
"1 c #A04949",
"2 c #A55555",
"3 c #A65858",
"4 c #A85555",
"5 c #AD5D5D",
"6 c #AC6363",
"7 c #B26D6D",
"8 c #B77373",
"9 c #B67878",
"0 c #B87474",
"q c #B97878",
"w c #F70000",
"e c #FE0000",
"r c #FE0B0B",
"t c #FE1212",
"y c #FE1E1E",
"u c #FE2121",
"i c #FE2B2B",
"p c #FE3636",
"a c #FF3B3B",
"s c #FE4747",
"d c #FE4A4A",
"f c #FE5454",
"g c #FD5D5D",
"h c #E46969",
"j c #FE6363",
"k c #FF6B6B",
"l c #FD7070",
"z c #FD7D7D",
"x c #BE8080",
"c c #C18888",
"v c #CF9F9F",
"b c #D1A3A3",
"n c #DDBDBD",
"m c #FD8282",
"M c #FD8D8D",
"N c #FC9191",
"B c #FC9D9D",
"V c #E1BABA",
"C c #F8A0A0",
"Z c #FDABAB",
"A c #FFB2B2",
"S c #FEBABA",
"D c #DFC2C2",
"F c #E1C3C3",
"G c #E4CACA",
"H c #E7D2D2",
"J c #EAD5D5",
"K c #EEDDDD",
"L c #FEC4C4",
"P c #FDCDCD",
"I c #F0DCDC",
"U c #FDD2D2",
"Y c #FFDADA",
"T c #F2E4E4",
"R c #F5ECEC",
"E c #FDE6E6",
"W c #FCF4F4",
"Q c #FEFEFE",
"! c None",
/* pixels */
"!!!!!!!!!!!!!!!!!!!!!!!!!!!!!!!!!!!!!!!!!!!!!!!!!!!!!!!!!!!!!!!!",
"!!!!!!!!!!!!!!!!!!!!!!!!!!!!!!!!!!!!!!!!!!!!!!!!!!!!!!!!!!!!!!!!",
"!!!!!!!!!!!!!!!!!!!!!!!!!!!!!!!!!!!!!!!!!!!!!!!!!!!!!!!!!!!!!!!!",
"!!!!!!!!!!!!!!!!!!!!!!!!!!!!!!!!!!!!!!!!!!!!!!!!!!!!!!!!!!!!!!!!",
"!!!!!!!!!!!!!!!!!!!!!!!!!!!!!!!!!!!!!!!!!!!!!!!!!!!!!!!!!!!!!!!!",
"!!!!!!!!!!!!!!!!!!!!!!!!!!!!!!!!!!!!!!!!!!!!!!!!!!!!!!!!!!!!!!!!",
"!!!!!!!!!!!!!!!!!!!!!!!!!!!!!!!!!!!!!!!!!!!!!!!!!!!!!!!!!!!!!!!!",
"!!!!!!!!!!!!!!!!!!!!!!!!!!!!!!!!!!!!!!!!!!!!!!!QQQQQQ!!!!!!!!!!!",
"!!!!!!!!!!!!!!!!!!!!!!!!!!!!!!!!!!!!!!!!!!!!!Q;........!!!!!!!!!",
"!!!!!!!!!!!!!!!!!!!!!!!!!!!!!!!!!!!!!!!!!!!!!Q;+.....+..!!!!!!!!",
"!!!!!!!!!!!!!!!!!!!!!!!!!!!!!!!!!!!!!!!!!!!!!Q;+++++.+.RQ!!!!!!!",
"!!!!!!!!!!!!!!!!!!!!!!!!!!!!!!!!!!!!!!QQQQQQQQb.++++++.RQ!!!!!!!",
"!!!!!!!!!!!!!!!!!!!!!!!!!!!!!!!!!!!!!QRKIIIIIIv.++++++.RQ!!!!!!!",
"!!!!!!!!!!!!!!!!!!!!!!!!!!!!!!!!!!!!!Qqo$$$$$$$..+++.+.RQ!!!!!!!",
"!!!!!!!!!!!!!!!!!!!!!!!!!!!!!!!!!!!!!Q0.++++.++++++.++.RQ!!!!!!!",
"!!!!!!!!!!!!!!!!!!!!!!!!!!!!!!!!!!!!!Q0.+.++++++++++++.RQ!!!!!!!",
"!!!!!!!!!!!!!!!!!!!!!!!!!!!!!QTGGGGGGG6.....+++........RQ!!!!!!!",
"!!!!!!!!!!!!!!!!!!!!!!!!!!!!!Qc$$$$$$$$7996.++.6q9q9q99WQ!!!!!!!",
"!!!!!!!!!!!!!!!!!!!!!!!!!!!!!Qx.++.+++@JQQb.++.VQQQQQQQQ!!!!!!!!",
"!!!!!!!!!!!!!!!!!!!!!!!!!!QQQQx.++++++@JQQb.++..!!!!!!!!!!!!!!!!",
"!!!!!!!!!!!!!!!!!!!!!!!!!QD244&.......XJQQv.++..!!!!!!!!!!!!!!!!",
"!!!!!!!!!!!!!!!!!!!!!!!!!QV....nQQQQQQQ!!Qb.+...!!!!!!!!!!!!!!!!",
"!!!!!!!!!!!!!!!!!!!!!!!!!QV.++.nQQQQQQQ!!Qb.++..!!!!!!!!!!!!!!!!",
"!!!!!!!!!!!!!!!!!!!!QQQQQQn.++.nQ!!!!!QQQQb.+...!!!!!!!!!!!!!!!!",
"!!!!!!!!!!QQQQQQQQQQQQQ...:....nQ!!!!Q8..@,.....!!!!!!!!!!!!!!!!",
"!!!!!!!!!!Upssuuyteeeee*...5JJHWQ!!!!Q8.+..7JHJJ!!!!!!!!!!!!!!!!",
"!!!!!!!!!!Pteeeeeeeeeee*++.bQ!!!!!!!!Q8.+..DQ!!!!!!!!!!!!!!!!!!!",
"!!!!!!!!!!Pteeeeeeeeeee*+..bQQQQ!!!QQQ8....DQ!!!!!!!!!!!!!!!!!!!",
"!!!!!!!PLLjreeeeeeeeeee=###hMjszQ!T311>;;;-GQ!!!!!!!!!!!!!!!!!!!",
"!!!!!!QartreeeeeeeeeeeewwwweeeefQ!T;..XHTTTWQ!!!!!!!!!!!!!!!!!!!",
"!!!!!!QeeeeeeeeeeeeeeeeeeeeeeeefQ!T;++XJQ!!!!!!!!!!!!!!!!!!!!!!!",
"!!!QQQQjeeeeeeeeeeeeeeeeeeeeeerfQQT;+.$JQQQQQQQQ!!!!!!!!!!!!!!!!",
"!!QAAAZdeeeeeeeeeeeeeeeeeeetuyujZAC&.+@ZAAAAAAAA!!!!!!!!!!!!!!!!",
"!!QeeeeeeeeeeeeeeeeeeeeeeeeMQQQMeew*++#weeeeeeeeQQ!!!!!!!!!!!!!!",
"!!QeeeeeeeeeeeeeeeeeeeeeeeeMQQQMeew#+++eeeeeeeeeQQQQ!!!!!!!!!!!!",
"!!QeeeeeeeeeeeeeeeeeeeeeeewMQQQMree#+++eeeeeeeerkSAYQ!!!!!!!!!!!",
"!!QeeeeeeeeeeeeeeeeeeeeeeerMQQQMeew#++#weeeeeeeeereNQ!!!!!!!!!!!",
"!!QeeeeeeeeeeeeeeeeeeeepASSziiiyeew#+.#eeeeeeeeeeeeNQ!!!!!!!!!!!",
"!!QeeertmmmmeeeeeeeeeeesQQQjeeeeeew#+.+weeeeeeeeeeeeQ!!!!!!!!!!!",
"!!QeeewuQQQWeeeeeeeeeeesQ!Qjeeeeeew#+.#eeeeeeeeeeeekQ!!!!!!!!!!!",
"!!QeeeeuQQQWeeeeeeeeeeesQ!Qjeeeeeew<==<eeeeeeeeeeeekQ!!!!!!!!!!!",
"!!QeeeeiQQQWeeeeeeeeeeesQ!QjeeeeeeeeeeeeeeeeeeeeeeekQ!!!!!!!!!!!",
"!!QeeeeyLLLPlllfeeeeeeesQ!QjeeeeeeeeeeeeeeeeeeeeeeedQ!!!!!!!!!!!",
"!!QeeeeerwrjQQQSeeeeeeesQ!QjeeeeeeeeeeeeeeeeeeeeeeeiQ!!!!!!!!!!!",
"!!QeeeeeeeegQQQSeeeeeeesQ!QjeeeeeeeeeeeeeeeeeeeeeeeiQ!!!!!!!!!!!",
"!!QeeeeeeeegQQQSeeeeeeesQ!QjreeeeeeeeeeeeeeeeeeeeeeiQ!!!!!!!!!!!",
"!!!eeeeeeeedUUPBeeeeeeesQ!QkeeeujjjfeeeeeeeeeeeeeeeiQ!!!!!!!!!!!",
"!!!QQQQLeeeerrrreeeeeeesQ!QMeeedQQQPeeeeeeeeeeeeeeeiQ!!!!!!!!!!!",
"!!!!!!!SeeeeeeeeeeeeeeesQ!QeeeedQQQPreeeeeeeeeeeeeeiQ!!!!!!!!!!!",
"!!!!!!!SeeeeeeeeeeeeeeesQ!QeeeedQQQUeeeeeeeeeeeeeeeiQ!!!!!!!!!!!",
"!!!!!!!LuyuuuyuuuyyuuuujQ!QmeeesEEEUfffpeeeeeeeeeeriQ!!!!!!!!!!!",
"!!!!!!!QQQQQQQQQQQQQQQQQ!!QmeeeeeewzQQQBeeeeeeeeeeeiQ!!!!!!!!!!!",
"!!!!!!!!!!!!!!!!!!!!!!!!!!QMeeeeeeezQQQBeeeeeeeereriQ!!!!!!!!!!!",
"!!!!!!!!!!!!!!!!!!!!!!!!!!QLggdreewzQQQBeeeeeeeezQQW!!!!!!!!!!!!",
"!!!!!!!!!!!!!!!!!!!!!!!!!!!QQQEreeemWQQBeeeeeeereQ!!!!!!!!!!!!!!",
"!!!!!!!!!!!!!!!!!!!!!!!!!!!!!QYreeeeereeeeeeeeeeeQ!!!!!!!!!!!!!!",
"!!!!!!!!!!!!!!!!!!!!!!!!!!!!!QYreeeeeeeeeeereeeefQ!!!!!!!!!!!!!!",
"!!!!!!!!!!!!!!!!!!!!!!!!!!!!!QUreeeeeeeeyiiidkkkzQ!!!!!!!!!!!!!!",
"!!!!!!!!!!!!!!!!!!!!!!!!!!!!!!!QQQQQQQQQQQQQQQQQQ!!!!!!!!!!!!!!!",
"!!!!!!!!!!!!!!!!!!!!!!!!!!!!!!!!!!!!!!!!!!!!!!!!!!!!!!!!!!!!!!!!",
"!!!!!!!!!!!!!!!!!!!!!!!!!!!!!!!!!!!!!!!!!!!!!!!!!!!!!!!!!!!!!!!!",
"!!!!!!!!!!!!!!!!!!!!!!!!!!!!!!!!!!!!!!!!!!!!!!!!!!!!!!!!!!!!!!!!",
"!!!!!!!!!!!!!!!!!!!!!!!!!!!!!!!!!!!!!!!!!!!!!!!!!!!!!!!!!!!!!!!!",
"!!!!!!!!!!!!!!!!!!!!!!!!!!!!!!!!!!!!!!!!!!!!!!!!!!!!!!!!!!!!!!!!"
};
