/* XPM */
static char *coin[] = {
/* columns rows colors chars-per-pixel */
"64 64 6 1",
"  c black",
". c #25131A",
"X c #C09344",
"o c #FFD569",
"O c #FFF1CC",
"+ c None",
/* pixels */
"++++++++++++++++++++++++++++++++++++++++++++++++++++++++++++++++",
"++++++++++++++++++++++++++++++++++++++++++++++++++++++++++++++++",
"++++++++++++++++++++++++++++++++++++++++++++++++++++++++++++++++",
"++++++++++++++++++++++++++++++++++++++++++++++++++++++++++++++++",
"++++++++++++++++++++++++++++++++++++++++++++++++++++++++++++++++",
"++++++++++++++++++++++++++++++++++++++++++++++++++++++++++++++++",
"++++++++++++++++++++++++++++++++++++++++++++++++++++++++++++++++",
"++++++++++++++++++++++++++++++++++++++++++++++++++++++++++++++++",
"++++++++++++++++++++++++++++++++++++++++++++++++++++++++++++++++",
"++++++++++++++++++++++++++++++++++++++++++++++++++++++++++++++++",
"++++++++++++++++++++++++++++++++++++++++++++++++++++++++++++++++",
"++++++++++++++++++++++++++++++++++++++++++++++++++++++++++++++++",
"++++++++++++++++++++++++................++++++++++++++++++++++++",
"++++++++++++++++++++++++................++++++++++++++++++++++++",
"++++++++++++++++++++++++................++++++++++++++++++++++++",
"++++++++++++++++++++++++................++++++++++++++++++++++++",
"++++++++++++++++++++....XXXXXXXXXXXXXXXX....++++++++++++++++++++",
"++++++++++++++++++++....XXXXXXXXXXXXXXXX....++++++++++++++++++++",
"++++++++++++++++++++....XXXXXXXXXXXXXXXX....++++++++++++++++++++",
"++++++++++++++++++++....XXXXXXXXXXXXXXXX....++++++++++++++++++++",
"++++++++++++++++....XXXXOOOOOOOOOOOOooooXXXX....++++++++++++++++",
"++++++++++++++++....XXXXOOOOOOOOOOOOooooXXXX....++++++++++++++++",
"++++++++++++++++....XXXXOOOOOOOOOOOOooooXXXX....++++++++++++++++",
"++++++++++++++++....XXXXOOOOOOOOOOOOooooXXXX....++++++++++++++++",
"++++++++++++....XXXXOOOOOOOOXXXXXXXXooooOOOOXXXX....++++++++++++",
"++++++++++++....XXXXOOOOOOOOXXXXXXXXooooOOOOXXXX....++++++++++++",
"++++++++++++....XXXXOOOOOOOOXXXXXXXXooooOOOOXXXX....++++++++++++",
"++++++++++++....XXXXOOOOOOOOXXXXXXXXooooOOOOXXXX....++++++++++++",
"++++++++++++....XXXXOOOOXXXXOOOOooooXXXXooooXXXX....++++++++++++",
"++++++++++++....XXXXOOOOXXXXOOOOooooXXXXooooXXXX....++++++++++++",
"++++++++++++....XXXXOOOOXXXXOOOOooooXXXXooooXXXX....++++++++++++",
"++++++++++++....XXXXOOOOXXXXOOOOooooXXXXooooXXXX....++++++++++++",
"++++++++++++....XXXXooooXXXXooooooooXXXXooooXXXX....++++++++++++",
"++++++++++++....XXXXooooXXXXooooooooXXXXooooXXXX....++++++++++++",
"++++++++++++....XXXXooooXXXXooooooooXXXXooooXXXX....++++++++++++",
"++++++++++++....XXXXooooXXXXooooooooXXXXooooXXXX....++++++++++++",
"++++++++++++....XXXXOOOOooooXXXXXXXXooooooooXXXX....++++++++++++",
"++++++++++++....XXXXOOOOooooXXXXXXXXooooooooXXXX....++++++++++++",
"++++++++++++....XXXXOOOOooooXXXXXXXXooooooooXXXX....++++++++++++",
"++++++++++++....XXXXOOOOooooXXXXXXXXooooooooXXXX....++++++++++++",
"++++++++++++++++....XXXXooooooooooooooooXXXX....++++++++++++++++",
"++++++++++++++++....XXXXooooooooooooooooXXXX....++++++++++++++++",
"++++++++++++++++....XXXXooooooooooooooooXXXX....++++++++++++++++",
"++++++++++++++++....XXXXooooooooooooooooXXXX....++++++++++++++++",
"++++++++++++++++++++....XXXXXXXXXXXXXXXX....++++++++++++++++++++",
"++++++++++++++++++++....XXXXXXXXXXXXXXXX....++++++++++++++++++++",
"++++++++++++++++++++....XXXXXXXXXXXXXXXX....++++++++++++++++++++",
"++++++++++++++++++++....XXXXXXXXXXXXXXXX....++++++++++++++++++++",
"++++++++++++++++++++++++................++++++++++++++++++++++++",
"++++++++++++++++++++++++................++++++++++++++++++++++++",
"++++++++++++++++++++++++................++++++++++++++++++++++++",
"++++++++++++++++++++++++................++++++++++++++++++++++++",
"++++++++++++++++++++++++++++++++++++++++++++++++++++++++++++++++",
"++++++++++++++++++++++++++++++++++++++++++++++++++++++++++++++++",
"++++++++++++++++++++++++++++++++++++++++++++++++++++++++++++++++",
"++++++++++++++++++++++++++++++++++++++++++++++++++++++++++++++++",
"++++++++++++++++++++++++++++++++++++++++++++++++++++++++++++++++",
"++++++++++++++++++++++++++++++++++++++++++++++++++++++++++++++++",
"++++++++++++++++++++++++++++++++++++++++++++++++++++++++++++++++",
"++++++++++++++++++++++++++++++++++++++++++++++++++++++++++++++++",
"++++++++++++++++++++++++++++++++++++++++++++++++++++++++++++++++",
"++++++++++++++++++++++++++++++++++++++++++++++++++++++++++++++++",
"++++++++++++++++++++++++++++++++++++++++++++++++++++++++++++++++",
"++++++++++++++++++++++++++++++++++++++++++++++++++++++++++++++++"
};
