/* XPM */
static char *big_demon_idle_anim_f3_resized[] = {
/* columns rows colors chars-per-pixel */
"64 64 162 2 ",
"   c None",
".  c #131919",
"X  c #1C1D1D",
"o  c #201E1F",
"O  c #1C211F",
"+  c #37231F",
"@  c #1A1F20",
"#  c #171F21",
"$  c #201F20",
"%  c #1E2121",
"&  c #222222",
"*  c #2C2325",
"=  c #2A2B2B",
"-  c #272A2A",
";  c #322524",
":  c #392725",
">  c #3C2825",
",  c #352329",
"<  c #3D232B",
"1  c #322B2A",
"2  c #2E302F",
"3  c #333434",
"4  c #3A3F3F",
"5  c #5D1F33",
"6  c #661E37",
"7  c #4E2D27",
"8  c #42242D",
"9  c #4B252E",
"0  c #462829",
"q  c #4B2A29",
"w  c #552E28",
"e  c #5A2E2B",
"r  c #5F2F27",
"t  c #5C352E",
"y  c #4B2431",
"u  c #4F2C34",
"i  c #452731",
"p  c #542336",
"a  c #5B2437",
"s  c #5D2932",
"d  c #5D2438",
"f  c #62332B",
"g  c #7A362A",
"h  c #75362C",
"j  c #642639",
"k  c #6C253D",
"l  c #6D283A",
"z  c #722635",
"x  c #74273F",
"c  c #76293A",
"v  c #3D413E",
"b  c #41413F",
"n  c #7C2742",
"m  c #792740",
"M  c #663D4B",
"N  c #4C4C4A",
"B  c #414443",
"V  c #504D4B",
"C  c #53524F",
"Z  c #555452",
"A  c #595957",
"S  c #5E5D5A",
"D  c #575856",
"F  c #6A404D",
"G  c #7E4C43",
"H  c #734F48",
"J  c #745049",
"K  c #6B4250",
"L  c #73706D",
"P  c #7B7F7B",
"I  c #8C392C",
"U  c #923D2F",
"Y  c #9E3C2D",
"T  c #863531",
"R  c #863830",
"E  c #943C32",
"W  c #9C3C34",
"Q  c #9E393A",
"!  c #97343C",
"~  c #A03D2D",
"^  c #A83C3A",
"/  c #B93E3D",
"(  c #9E4030",
")  c #A44231",
"_  c #AE4433",
"`  c #B04533",
"'  c #BC413C",
"]  c #BB4F3D",
"[  c #BC503E",
"{  c #CC4A35",
"}  c #CC453E",
"|  c #C4453A",
" . c #D94731",
".. c #DC4C35",
"X. c #D0463E",
"o. c #D44A3B",
"O. c #DB4E38",
"+. c #D44D37",
"@. c #DD5037",
"#. c #DF5038",
"$. c #E14E36",
"%. c #E24F38",
"&. c #E15038",
"*. c #E05137",
"=. c #822744",
"-. c #892747",
";. c #842A43",
":. c #8A2945",
">. c #9C274F",
",. c #932949",
"<. c #9E294D",
"1. c #9B3043",
"2. c #A22A4E",
"3. c #A92F4B",
"4. c #A53343",
"5. c #AC3346",
"6. c #AD314A",
"7. c #B43646",
"8. c #BB3A44",
"9. c #B13348",
"0. c #B43744",
"q. c #A32950",
"w. c #AA2A52",
"e. c #C43E43",
"r. c #804E45",
"t. c #825047",
"y. c #8A4057",
"u. c #BA4B5D",
"i. c #AD4A69",
"p. c #8B7D77",
"a. c #83787A",
"s. c #C44040",
"d. c #CB4143",
"f. c #D14D44",
"g. c #DC6C5A",
"h. c #E26C5C",
"j. c #E37764",
"k. c #E57966",
"l. c #E77C68",
"z. c #7E817A",
"x. c #8D807F",
"c. c #92837D",
"v. c #8B8081",
"b. c #B49A9D",
"n. c #A6A39D",
"m. c #B5B1AA",
"M. c #B8B3AD",
"N. c #D2ACA1",
"B. c #D6B0A4",
"V. c #E5A5A3",
"C. c #C7C5BE",
"Z. c #C9C4BC",
"A. c #CCCCC5",
"S. c #D3CFC7",
"D. c #D5D1C9",
"F. c #E6C4C8",
"G. c #F5CFC2",
"H. c #F7D3C5",
"J. c #FAD4C6",
"K. c #FDD8CA",
"L. c #FFFEF4",
"P. c #FFFFFA",
/* pixels */
"                                                                                                                                ",
"                                                                                                                                ",
"                                                                                                                                ",
"                                                                                                                                ",
"                                                                                                                                ",
"                                                                                                                                ",
"                                                                                                                                ",
"                                                                                                                                ",
"                                                                                                                                ",
"                                                                                                                                ",
"                                                                                                                                ",
"                                                                                                                                ",
"                                                                                                                                ",
"                                                                                                                                ",
"                                                                & &                                                             ",
"                                                                & &                                                             ",
"                                                        & &     & &             & &                                             ",
"                                                      & & &     & &             & &                                             ",
"                                                    & & & &     & &     & &     & &                                             ",
"                                                    & & & % # % % % O % % % % % % %                                             ",
"                                                    & & * ; ; * * * * * * ; ; * * *                                             ",
"                                                    % > h U U T z 6 6 z T E U R z 5 <                                           ",
"                                                    % 7 _ @...o.u.i.i.u.f.@.@.f.u.,.i %                                         ",
"                                                    % 7 _ $.$.h.V.F.F.V.g...@.j.V.b.N X                                         ",
"                                                    % 7 ^ $...j.H.L.P.H.j. . .l.J.A.Z X                                         ",
"                                                    % 7 _ ....j.G.L.L.G.j. . .l.J.C.Z X                                         ",
"                                                    % 7 _ .. .j.G.L.L.G.j. . .l.H.C.Z X                                         ",
"                    & &             & &             % q _ ....j.G.L.L.G.j. . .l.H.A.Z X                                         ",
"                    & & &           & & &           % q _ ....j.G.L.L.G.j. . .l.J.C.Z X                                         ",
"                    & & & &         & & & &         % 7 _ ....j.G.L.L.G.j. . .j.J.C.Z X         & &                             ",
"                      & & & &       & & & & & & & % % 7 _ ....k.J.P.P.J.k. . .l.K.A.D X       & & &                             ",
"                        & & & &     & & & & & & & % % 7 _ $...g.N.A.A.N.g.....g.B.n.N X     & & & &                             ",
"                        & & & & & & % % % % & % % @ % 7 ` &.*.[ J N N J ] %.%.] H B = $ % & & & & &                             ",
"                        & & & & & * 8 y y < * * 7 t 9 s I ( ( g : . . + g ( ( g : $ < y y < * % % %                             ",
"                        & & & & % < x ,.,.m < q ( ' 4.m 9 : : ; * & & * ; : : ; & < m ,.,.x 8 & & &     & &                     ",
"                        % , y y - 0 1.e.e.0.g ( { O.d.4.l p p p p a a a p p p p p c 4.e.e.5.c p d p , & & &                     ",
"                & &     % 8 n n 8 w _ O.@.o.+.o.O.O.O.} 5.<.<.<.<.2.<.<.<.<.<.<.<.5.} @.@.} 5.<.2.;.8 % & &                     ",
"                & & & & % 8 -.3.Q ) { ..@.@.@.@.O.O.O.o.d.s.s.s.| s.s.s.s.d.s.| s.} o.@.@.o.d.d.d.Q q % % &                     ",
"                & & & & & < x 1.| o.o.X.o.o.@.o.@...O.O.O.O.O.O.O.O.O.O.O.O.O.O.@.o.@.@.O.o.O.@.@._ 7 % & &                     ",
"                    & & & & , s 1.7.6.6.6.7.X.O.@.o.O.O.O.O.O.@.O.O.@.O.O.O.O.O.@.o.@.o.@.@.O.O.@._ 7 % % &                     ",
"                    & & & * , a -.q.6.6.9.8.} @.O.O.O.O.O.O.O.O.O.O.O.O.O.O.O.O.O.O.O.O.@.O.O.&.%.` 7 % % &                     ",
"                    & & & , x ,.,.6.s.{ o.o.o.O.O...O.O.O.O.O.O.O.O.O.O.O.O.O.O.O.O.O.O.O.@.O.@.O._ 7 %                         ",
"                    & & & , d ;.>.<.E ( U ) o.{ ) ) { { ~ Y { { Y Y { { Y Y { { Y ~ { { ~ I U U E h > &                         ",
"                    & & & & & i =.=.9 * * t _ _ w w _ ` t t _ ` t t _ ` t t ` _ t t ` ` f 1 * * ; * & &                         ",
"                      & & & & * 9 p * O O ; f f : * r t.c.p.r.G p.p.G r.c.c.r.G p.p.G r.c.P 4 X O % & &                         ",
"                        & & & & & & & & O & & & & o o C M.m.V Z Z.Z.Z V m.m.V Z Z.Z.Z N m.M.C X X & & &                         ",
"                & & & &         & & & & & & $ $ & @ % 3 S S - Z D.D.A = A A 2 D D.S.Z - A S 3 & & & &                           ",
"                & & & &         & & & & & & & & & & & @ X * B L m.n.N X X X X N n.m.L B * X o & & &                             ",
"                    & & & & & & & & & & & & & & & & X X X N n.m.L b - o X X X - u L M.n.N X X $ & &                             ",
"                    & & & & & & & & & % % & & & & 3 S A 2 A S.S.C - A A 3 3 S A - Z S.D.D 2 A S 3 & &                           ",
"                    & & & & & & & & & & & & & @ o Z M.m.V Z Z.Z.Z V m.m.N V m.m.C D Z.Z.Z V m.m.C X X &         & &             ",
"                  & & & % % % & & * p d d y * * y K v.c.r.G p.p.G r.c.c.r.r.c.c.G H p.a.M M x.P v X O & &     & & &             ",
"            & & & & & & * * * & & < =.2.2.;.0 9 T -.u f ` _ t t ` _ t t _ _ t t ` ` t u ;.;.u 1 * * $ * $ & & & & &             ",
"              & & & & , a x x p * 0 Q d.d.' W ~ / 0.E ~ { { Y Y { { Y Y { { W Y { { ~ U ' 0.c j k k m a , % & & &               ",
"                & & % 8 ;.q.q.-.y e _ o.o.o.X.o.o.O.O.O.O.O.O.O.O.O...O.O.O.O.O.O.O.@.@.@.X.7.3.3.6.6.T i % & &                 ",
"                    % 8 =.w.q.,.=.-.4.9.9.6.6.8.X...@.O.O.O.@.@.O.O.O.@.O.O.O.@.O.O.@...@.o.X.s.} d.d.^ i %     & &             ",
"                    & , j -.,.2.q.q.>.<.>.2.3.8.X.@.O.@.@.o.X.X.o.@.@.O.O.o.@.@...@.+.@.@.O.@.@.@.&.&._ 7 %     & &             ",
"            & &     & & * p -.2.2.2.<.>.>.6.e.o.o.O.O.O.@.} 7.7.} @.O.O.O.O.@.o.@.@.@.+.@.o.@.@.O.O.O._ 7 % % & & &             ",
"            & & & & & * 8 j :.2.<.>.<.2.<.3.8.| | s.s.s.| 7.3.2.8.s.s.} o.@.@.o.} 8.8.} o.@.@.@.O.@.&._ 7 % & & &               ",
"            & & & & % < m >.<.<.<.q.<.>.2.2.2.2.2.2.2.2.3.2.<.<.2.2.2.5.} +.@.} 7.2.2.6.} @.o.o.O.O.O._ 7 % % &                 ",
"              & & & % 8 :.w.q.q.2.<.<.2.2.>.2.>.<.<.q.q.<.q.q.<.q.>.<.3.8.8.8.7.2.<.>.3.7.8.8.8.8.e.e.1.9 % %                   ",
"                & & % < m ,.,.,.>.<.2.>.>.2.<.>.<.>.,.,.,.,.,.,.,.,.,.,.,.,.<.2.q.<.<.<.<.2.<.>.,.,.,.m < %                     ",
"                    & * < y y d -.2.q.2.2.>.<.2.2.-.d i y y y y y y y y y d -.q.<.<.q.<.<.<.q.-.a y y < * &                     ",
"                    & & & % % < =.2.>.<.<.2.>.2.2.=.< % % % % % % % % % % < n 2.q.<.<.<.<.q.q.n < % % % & &                     "
};
