/* XPM */
static char *big_demon_idle_anim_f2_resized[] = {
/* columns rows colors chars-per-pixel */
"64 64 176 2 ",
"   c None",
".  c #1C1D1D",
"X  c #151B1A",
"o  c #1A211F",
"O  c #2C211F",
"+  c #161F21",
"@  c #181F21",
"#  c #2B1E24",
"$  c #321E25",
"%  c #3C1F29",
"&  c #371E28",
"*  c #162020",
"=  c #1D2121",
"-  c #222222",
";  c #2B2225",
":  c #2A2B2A",
">  c #252929",
",  c #332426",
"<  c #3F2925",
"1  c #362329",
"2  c #3D232C",
"3  c #392624",
"4  c #2F3130",
"5  c #353433",
"6  c #3D3D3C",
"7  c #363D3C",
"8  c #441D2C",
"9  c #691F38",
"0  c #701F3A",
"q  c #422424",
"w  c #422A26",
"e  c #4D2C26",
"r  c #42242D",
"t  c #48272C",
"y  c #4C2B29",
"u  c #482826",
"i  c #542E27",
"p  c #512D29",
"a  c #582D2A",
"s  c #52322D",
"d  c #4E2432",
"f  c #442E35",
"g  c #542434",
"h  c #5B2536",
"j  c #51363E",
"k  c #5E3E38",
"l  c #6B332B",
"z  c #7E392C",
"x  c #77372C",
"c  c #642439",
"v  c #6B253C",
"b  c #6D2936",
"n  c #71263E",
"m  c #7A273A",
"M  c #7C2A3B",
"N  c #743033",
"B  c #66292E",
"V  c #772740",
"C  c #7C2742",
"Z  c #7E2B44",
"A  c #793449",
"S  c #763448",
"D  c #454543",
"F  c #484745",
"G  c #474847",
"H  c #484846",
"J  c #4B4B4A",
"K  c #504D4C",
"L  c #5D4D4F",
"P  c #4D504E",
"I  c #5D4D50",
"U  c #565653",
"Y  c #575956",
"T  c #595956",
"R  c #63454E",
"E  c #724E47",
"W  c #745049",
"Q  c #664E53",
"!  c #655155",
"~  c #695357",
"^  c #72706C",
"/  c #757976",
"(  c #8A372A",
")  c #83342D",
"_  c #973E2E",
"`  c #852C3E",
"'  c #932E3D",
"]  c #8B3932",
"[  c #8E313D",
"{  c #903733",
"}  c #9D383A",
"|  c #9C3839",
" . c #A93E35",
".. c #AE393F",
"X. c #A93B3A",
"o. c #B33B3F",
"O. c #9D4030",
"+. c #A64535",
"@. c #AD4333",
"#. c #B24533",
"$. c #BE4735",
"%. c #BC403B",
"&. c #B24039",
"*. c #C64834",
"=. c #CC453D",
"-. c #CC4B35",
";. c #D84731",
":. c #D44D37",
">. c #DC4D36",
",. c #D2473E",
"<. c #D44A3A",
"1. c #DB4E38",
"2. c #DD5037",
"3. c #DF5038",
"4. c #E24E36",
"5. c #E25038",
"6. c #812644",
"7. c #832944",
"8. c #8B2945",
"9. c #8F274A",
"0. c #9B274F",
"q. c #94284A",
"w. c #9D294E",
"e. c #962C46",
"r. c #963140",
"t. c #A32B4D",
"y. c #A92F4B",
"u. c #A53343",
"i. c #AB3544",
"p. c #AB3049",
"a. c #AD3940",
"s. c #B53646",
"d. c #BB3A44",
"f. c #B3334A",
"g. c #B33942",
"h. c #A02750",
"j. c #A22950",
"k. c #A82A51",
"l. c #C13E42",
"z. c #90495F",
"x. c #BF5363",
"c. c #B45573",
"v. c #C64041",
"b. c #CC4241",
"n. c #D45146",
"m. c #CE604D",
"M. c #D0624F",
"N. c #E16D5D",
"B. c #C25565",
"V. c #E57A66",
"C. c #E47865",
"Z. c #AA847B",
"A. c #8B8984",
"S. c #978E8D",
"D. c #94928C",
"F. c #9D928B",
"G. c #9D9693",
"H. c #949692",
"J. c #A29791",
"K. c #A8A59F",
"L. c #ADA9A3",
"P. c #B4ACA7",
"I. c #B8AAA7",
"U. c #E7ADA8",
"Y. c #ECB1AC",
"T. c #C6C2BB",
"R. c #F2CCBF",
"E. c #CFCBC3",
"W. c #D1CDC5",
"Q. c #CDD1C8",
"!. c #D5D1C9",
"~. c #FBD7C9",
"^. c #FBD7C9",
"/. c #EBD0D1",
"(. c #FFFFFE",
"). c #FBFBF1",
/* pixels */
"                                                                                                                                ",
"                                                                                                                                ",
"                                                                                                                                ",
"                                                                                                                                ",
"                                                                                                                                ",
"                                                                                                                                ",
"                                                                                                                                ",
"                                                                                                                                ",
"                                                                                                                                ",
"                                                                    - -                                                         ",
"                                                                    -                                                           ",
"                                                        - -     - -                 - -                                         ",
"                                  - - - o o -         - = = * = = = o   o + o o o =                                             ",
"                                - - - - ; , - -     - - , , , , , , ; , , , 3 3 , ;                                             ",
"                              - - - - 1 c c 1 o = = = w ) +._ ( m 0 0 m { O.O.{ m 9 1 o = o - - -                               ",
"                            - - - = = t [ 8.r > , 1 - y #.4.4.n.x.c.c.x.n.4.2.n.B.z.f - 1 1 ; - - -                             ",
"                        - - - - - = = t +.X.u 1 V v 1 y @.>.4.N.U././.U.N.>.>.N.Y.I.K & v v 2 - - - - -                         ",
"                        - - - - - ; 2 N $.*.z b q.7.2 y @.>.>.C.~.(.(.~.C.;.;.V.~.Q.Y q ' r.u = = - - -                         ",
"                    - -         = 2 V u.=.1.-.%.p.C 2 e @.4.>.C.R.).).R.C.;.;.C.^.T.U u  .@.e =     - -                         ",
"                              - - , d M u.v.2.,.p.V 1 e @.5.4.m.Z.H.H.Z.n.4.4.m.Z./ 7 u #.#.p = =                               ",
"                            - - - - > d 7.d.,.,.f.6.r y O.:.:.+.s > > s +.:.:.+.s > - a #.#.p - - -                             ",
"                          - - - - , h 7.g.b.:.<.b.a.` b l l l s O X X O i l l i ; # g ' *.#.p o = - -                           ",
"                        - - - - = 2 V r.&.*.1.2.5.,.f.C 2 # , , ; - , , # - , ; # 2 6.p.%.O.u - - - - -                         ",
"                    - - - - - - - ; 2 t y x $.5.4.,.f.6.& # c c $ $ c v $ $ c c $ % 6.e.B q ; -     - -                         ",
"                    - - - - - - - - = = . < ) @.@.| [ S ~ ~ A A Q Q A A ~ ~ A A ! ! S S ! P 5 o     - -                         ",
"                    - - - -     - - - = - > 3 < < 3 , I P.P.I I P.P.L L P.P.I L P.P.I I P.P.J .                                 ",
"                    - - -       - - - - - - = = = X o D A.A.6 Y !.!.Y 6 A.A.6 T !.!.Y f A.H.U                                   ",
"                    - -         - - - - - - - - = = O > 4 4 - Y T.T.U - : : - T T.T.Y - : 5                                     ",
"                                  - - - - - - - - - - - . . @ f ^ ^ 6 . . X . 6 ^ ^ 6 . . .                                     ",
"                                    - - - - - - - - - - - - - - - > - - O = - - - > - - - -                                     ",
"                                    - -     - - - - - - - - - = . . - - - - - - . . - - -                                       ",
"                                    - -     - - - - - - - - - - - - - - - - - - - - - -                                         ",
"                                    - -     - - - - - - - - - - - - - - - - - - - - - -                                         ",
"                                    - -     - - - - - - - - - - - - - - - - - - - - - -                                         ",
"                                            - -     - - - - - - - - - -     - -     - -                                         ",
"                                            - -     - - - - - - - - -                                                           ",
"                                            - -     - >     - - - -                                                             ",
"                                                            - - - -                                                             ",
"                                                            - - - -                 - -                                         ",
"                                            - -         - - - - - - - -     - -                                                 ",
"                                            - -         - - - - - - - -     - -                                                 ",
"                                    - -     - - - - - - - - - - - - - - - - - -     - -                                         ",
"                                    - - - - - - - - - - - - - - - - - - - - - - - - - -                                         ",
"                        - -         - - - - - - - - - - - - - - - - - - - - - - - - - -             - -                         ",
"                        - - -       - - - - - - = = - - - @ . . - - - - - - - - - - . . . - -       - -                         ",
"                        - - - -     - - - - - - O # - = - : 5 5 : - - . - - - o - > 5 5 : - = O     - -                         ",
"                            - - - - - - - - - - - - . X . F D.D.F . . . # - . . . D D.S.D . X . . - - -                         ",
"                            - - - - - - - - - - - : F D : T W.W.T : D D : : F D : T W.W.T : D D 4 - - -                         ",
"                        - - - - - - - - - - - = . J L.L.G U E.E.U H K.L.J G K.K.F U E.E.U F L.L.K . - -                         ",
"                        - - - - = - - ; r 2 ; - % Q G.J.W E F.F.E W G.J.W W J.J.E E F.S.R R G.F.F . O                           ",
"                        - - - - - - - 2 C V 2 2 V C j k +.+.k k +.+.k k +.+.k k +.+.k j Z 7.j 5 > -                             ",
"                          - - , d d ; u } g.] ] g...) ( *.*.( ( *.*.( ( *.*.( ( *.*.( ) ..u.b r ; -                             ",
"                            = r Z C r p @.,.<.-.<.:.<.:.1.1.:.:.:.:.:.:.:.1.<.<.1.:.:.:.:.b.f.C 2 =                             ",
"                            = r 7.w.C C u.d.d.l.<.>.3.3.1.1.3.3.2.3.3.3.1.1.3.3.1.1.3.5.3.:.b.| y = = - -                       ",
"                            = 2 V 9.w.t.0.t.t.s.,.1.1.1.1.1.<.<.:.1.1.1.1.1.1.1.1.1.1.1.1.2.5.@.e - - - - -                     ",
"                    - - - = O > 1 g 8.j.0.y.l.,.1.1.>.2.2.=.g.d.,.2.2.2.1.1.1.:.2.1.2.2.2.3.3.@.p @ = -                         ",
"                    - - - - - - 2 g 8.j.w.p.v.=.=.=.=.=.=.d.y.y.d.=.=.=.:.2.2.<.=.=.=.=.1.>.3.@.y = - -                         ",
"                        - - - 2 v q.w.0.0.t.t.p.y.y.y.y.y.y.w.t.t.p.y.s.,.2.2.=.s.y.t.s.,.3.3.@.e =                             ",
"                          = = r 8.k.j.t.w.0.0.0.0.0.0.h.0.t.t.h.t.0.0.y.d.v.v.g.t.0.0.t.d.v.b.| y =                             ",
"                            - 2 C w.w.w.t.w.t.t.t.w.w.q.w.w.w.w.w.w.w.w.w.t.t.t.w.t.w.t.t.t.t.C 2 =                             ",
"                              2 g v q.j.j.w.w.j.h.q.v h h h h h h h h h g v 9.t.t.0.w.t.j.9.v g 1                               ",
"                                - r V q.w.t.w.w.q.m 2 - - - - > - - - - - r C q.0.t.t.0.q.V 2 -                                 ",
"                                    r h 8.j.j.8.h r                         r h 8.j.j.8.c r                                     ",
"                                    = 2 C j.k.C r =                         = r Z j.j.C 2 =                                     "
};
