/* XPM */
static char *demon_r1_resized[] = {
/* columns rows colors chars-per-pixel */
"64 64 176 2 ",
"   c None",
".  c #1D1D1D",
"X  c #201F1F",
"o  c #28221F",
"O  c #25221F",
"+  c #1E1F20",
"@  c #2A1F24",
"#  c #391E28",
"$  c #311F25",
"%  c #1E2121",
"&  c #222222",
"*  c #2A2225",
"=  c #272827",
"-  c #2C2C2C",
";  c #312525",
":  c #3E2925",
">  c #352329",
",  c #3D232B",
"<  c #332B2A",
"1  c #343433",
"2  c #3A3F3F",
"3  c #2E3635",
"4  c #452A26",
"5  c #4C2C26",
"6  c #43242D",
"7  c #4B2B28",
"8  c #46252B",
"9  c #522E27",
"0  c #552E29",
"q  c #5D2D2B",
"w  c #4D2431",
"e  c #512532",
"r  c #5C2536",
"t  c #5C2636",
"y  c #403F3E",
"u  c #46343A",
"i  c #583230",
"p  c #6D2C2C",
"a  c #62332B",
"s  c #793327",
"d  c #783228",
"f  c #75362C",
"g  c #602534",
"h  c #63253A",
"j  c #6C263C",
"k  c #74263F",
"l  c #7F263C",
"z  c #742B3A",
"x  c #763330",
"c  c #762641",
"v  c #7A2741",
"b  c #7E2841",
"n  c #783148",
"m  c #763047",
"M  c #3F4241",
"N  c #444543",
"B  c #4E4D4B",
"V  c #474846",
"C  c #504D4B",
"Z  c #5E494E",
"A  c #5A464D",
"S  c #53514F",
"D  c #5F4B50",
"F  c #4F5351",
"G  c #565552",
"H  c #585755",
"J  c #595A57",
"K  c #5A5B58",
"L  c #654C47",
"P  c #674E49",
"I  c #684F48",
"U  c #7F4D42",
"Y  c #68514B",
"T  c #624E53",
"R  c #5E6360",
"E  c #7E7B77",
"W  c #777B77",
"Q  c #923C2F",
"!  c #872C38",
"~  c #8E2C3E",
"^  c #902C3F",
"/  c #863633",
"(  c #963C32",
")  c #993B34",
"_  c #96333E",
"`  c #9A353B",
"'  c #8B382B",
"]  c #A13D2D",
"[  c #A53C37",
"{  c #A0323F",
"}  c #A7383E",
"|  c #9B4739",
" . c #9C483A",
".. c #A54231",
"X. c #AC4333",
"o. c #B34533",
"O. c #C14734",
"+. c #C24835",
"@. c #CB4A36",
"#. c #C3433C",
"$. c #CC453E",
"%. c #D84731",
"&. c #D54D37",
"*. c #DC4C35",
"=. c #D0463E",
"-. c #D3493B",
";. c #DB4E38",
":. c #DE5037",
">. c #DF5038",
",. c #E34E36",
"<. c #E64F38",
"1. c #E15038",
"2. c #E15137",
"3. c #822644",
"4. c #892747",
"5. c #862944",
"6. c #8B2946",
"7. c #8F2848",
"8. c #972F43",
"9. c #9C274F",
"0. c #94284A",
"q. c #9E294E",
"w. c #962A49",
"e. c #963041",
"r. c #9D3044",
"t. c #9F2850",
"y. c #9F2750",
"u. c #A22A4E",
"i. c #AA2F4B",
"p. c #A43443",
"a. c #AC3444",
"s. c #AD3149",
"d. c #B53647",
"f. c #B43B40",
"g. c #BC3B44",
"h. c #B13349",
"j. c #A52950",
"k. c #C23D44",
"l. c #814F44",
"z. c #835147",
"x. c #9A5C6E",
"c. c #936E66",
"v. c #8D7E76",
"b. c #C44040",
"n. c #C94142",
"m. c #D24541",
"M. c #C85947",
"N. c #C95A48",
"B. c #DA574C",
"V. c #E0715F",
"C. c #DF7360",
"Z. c #CB6773",
"A. c #E57966",
"S. c #93847C",
"D. c #C16F87",
"F. c #95938E",
"G. c #999691",
"H. c #ABA59E",
"J. c #ACA7A1",
"K. c #B1A7A0",
"L. c #B1A8A2",
"P. c #B5B1AA",
"I. c #B8B3AD",
"U. c #BDB8B3",
"Y. c #EDBDB4",
"T. c #CAC5BD",
"R. c #EAC4B8",
"E. c #F2C1B8",
"W. c #CFD2C9",
"Q. c #D4D0C8",
"!. c #D4D0C7",
"~. c #FDD9CB",
"^. c #FFDFD0",
"/. c #EEEDE5",
"(. c #F4E6E2",
"). c white",
/* pixels */
"                                                                                                                                ",
"                                                                                                                                ",
"                                                                                                                                ",
"                                                                                                                                ",
"                                                                                                                                ",
"                                                                                                                                ",
"                                                                                                                                ",
"                                                                                                                                ",
"                                                                                                                                ",
"                                                                    & &                                                         ",
"                                                                    &                                                           ",
"                                                        & &     & &                 & &                                         ",
"                                                      & & &     & &               & &                                           ",
"                                                    & & & %     & &     & &     & &                                             ",
"                            & & & & & & & & &       & & % % % % % % % . % % + % % %                                             ",
"                            & & & & & & & & & &     & * : 5 4 4 , , > 4 4 7 4 4 , ,                                             ",
"                                & & & & & & & & % % % 4 Q o.o.[ ~ 3.3.~ [ o.o.[ ^ j , % % & & & & &                             ",
"                                & % & * 6 , * * 6 6 * 5 o.1.,.B.Z.D.D.Z.B.,.<.B.Z.x.u @ , , * % & & &                           ",
"                        & & & & & & % , v c , , v c , 5 X.,.*.V.Y.(.(.Y.V.%.*.V.E.U.F > c v , & & & & &                         ",
"                  &   & & & & ; e w * 6 ` f./ / w.3., 7 X.:.*.A.~.).).~.A.%.%.A.^.!.H 8 ` a.k w * & &                           ",
"                & & & & & & & , b b 8 0 X.:.&.$.s.b , 7 X.*.*.C.R././.Y.C.*.%.A.R.U.G 4 X.=.h.! , &                             ",
"                          % % 6 4.i.) ..@.:.>.m.h.v > 7 o.<.<.M.c.W W c.M.<.<.M.c.R 3 5 X.;.m.` 7 % %                           ",
"                            % , c 8.b.-.-.-.;.-.d.5.w 0 ( +.O.( : . . : Q +.+.Q 4 + * q o.1.2.o.7 % % &                         ",
"                        & & & & < t e.h.s.d.-.&.-.g.6.j q 9 9 4 O . . O 4 9 9 4 O $ h 8.#.*.2.X.7 & & & & &                     ",
"                        & & & * > r 4.j.s.g.m.;.:.-.k.8.r , , 6 6 6 6 6 6 6 , , 6 g 8.g.-.1.2.o.7 % % & & &                     ",
"                        & & % , c 7.9.i.b.-.;.;.;.;.-.k.8.4.4.4.6.6.4.4.4.4.4.4.4.8.b.-.;.1.2.X.9 %                             ",
"                        & & & > r 3.9.r.) ..@.@.....@.@.! l a.a.l l a.s.l b s.a.! ! #.@.[ ' Q f : %                             ",
"                        & & & & * 6 b b 8 0 o.X.0 0 X.X.i i X.X.i i X.X.i i X.X.i i X.o.a - * * * &                             ",
"                        & & & & % * w w * ; a a ; * a l.S.S.l.l.v.v.l.l.S.S.l.U v.v.U l.F.W 2 . % &                             ",
"                        & & & & & & & * & & & * & O % S I.P.C G T.T.G C P.P.C G T.T.G B L.P.S . . &                             ",
"                        & & &       & % & & % % & % % 1 K J - J Q.Q.J - K J - J Q.Q.J - J K 1 & &                               ",
"                        & &         & & & & & & & & & & X . X C J.H.C . . . . B H.H.C X X X & &                                 ",
"                                    & & & & * & & & & & O % & - N N - % . . & - N V - X X &                                     ",
"                                    & & & & % & & & & & & & & % . . @ & & & & & . . & & &                                       ",
"                                    & &     & & & & & & & & & & & & & & & & & & & & & &                                         ",
"                                            & & & & & & & & & & & & & & & & & & & & & &                                         ",
"                                            & &     & & & & & & & & & & & & & &     & &                                         ",
"                                            & &       & & & & * & & & & & & &                                                   ",
"                                            & &         & & & & & & & & & &                                                     ",
"                                            & &     & & & & & & & & & & & & & &     & &                                         ",
"                                            & &     & & & & & & & & & & & & & &     & &                                         ",
"                        & &         & &     & & & & & & & & & & & * & & & & & & & & & & & &             & &                     ",
"                        & & &       & & & & & & & & & & & % . . & & & & & & & & & & . . & & &         & & &                     ",
"                        & & & &     & & & & % * & & & & & * = = * & & & & & & % & * = = & & & O     & & & &                     ",
"                          & & & & & & & & & & & & % . . . y E E 2 . . . % % . . % 2 E E M X . . @ & & & &                       ",
"                            & & & & & & & & & & % = 1 1 & J T.T.J & 1 1 = * 1 1 & H T.T.H & 1 1 = % & &                         ",
"                          & & & & & & & % % & % . V G.F.N G !.!.G M F.F.M N F.F.M H !.!.H M F.G.V O % &                         ",
"                        & & & & & & & * > > * & $ T L.K.Y Y H.H.Y Y K.K.Y Y K.K.Y Y H.H.Z Z K.J.B . . &                         ",
"                        & & & & % % % , c j < $ j n Z P  . .L L | | P P  . .P P  .| L A m n Z N - &                             ",
"                          & & * 6 , = 4 _ p.x x p.r.p d O.+.d d O.O.d d O.O.d d O.O.d p { r.g # * %                             ",
"                            & , c c , 5 ..-.@.@.=.-.@.@.&.&.@.@.&.&.@.@.&.&.@.@.&.&.@.@.-.#.i.k , %                             ",
"                            % 6 4.0.c z p.b.k.n.&.:.1.;.;.:.:.1.;.;.1.;.;.;.1.;.;.;.1.1.*.&.n._ 4 % %                           ",
"                            % , v w.t.w.q.u.i.h.$.:.;.;.;.;.&.;.;.;.;.;.;.;.;.&.;.;.;.;.;.;.;.X.7 & % &                         ",
"                          & & * 6 h 7.j.t.u.f.$.&.:.:.:.;.-.g.g.-.;.:.;.;.;.;.;.;.:.:.;.;.;.1.X.7 % & & &                       ",
"                        & & & & * e 5.j.q.s.b.-.-.-.-.-.-.b.i.s.#.-.-.-.&.;.;.&.-.-.=.-.;.;.:.X.9 % & & & &                     ",
"                    & & & & % , h 4.w.q.q.u.s.h.s.s.s.a.s.s.q.u.s.s.s.g.-.:.;.-.g.s.s.f.-.:.1.X.7 %                             ",
"                    & & & & % 6 5.j.j.q.q.t.q.t.q.t.t.t.t.t.q.j.y.y.t.s.k.n.$.g.s.9.9.i.g.$.m.[ 7 %                             ",
"                            % , 3.j.j.q.q.q.q.q.q.q.q.q.q.u.q.t.q.t.q.q.i.i.i.i.u.q.t.q.i.s.i.5.6 %                             ",
"                              , t v w.u.j.q.q.j.j.w.v j j j j j j j j j j v 0.q.t.q.q.u.t.0.c r >                               ",
"                                * 6 b q.q.q.q.q.t.b 6 * * * * * * * * * * 6 b q.u.q.q.q.q.b 6 *                                 ",
"                                  > e j 0.j.j.0.j e >                     > e j 0.j.j.0.j w >                                   ",
"                                    & , c w.0.v , &                         & , c w.w.c 6 &                                     ",
"                                    % * , w w 6                             % * , w w 6                                         ",
"                                    & & % % & %                             & & & % & %                                         "
};
