/* XPM */
static char *demon[] = {
/* columns rows colors chars-per-pixel */
"57 64 196 2",
"   c black",
".  c #222222",
"X  c #242222",
"o  c #252223",
"O  c #272223",
"+  c #252525",
"@  c #2A2224",
"#  c #2C2225",
"$  c #2D2225",
"%  c #2F2226",
"&  c #2D2423",
"*  c #282828",
"=  c #292929",
"-  c #2B2B2B",
";  c #2C2C2B",
":  c #2F2F2E",
">  c #312227",
",  c #322227",
"<  c #342328",
"1  c #352328",
"2  c #362329",
"3  c #392527",
"4  c #392625",
"5  c #39232A",
"6  c #3D232B",
"7  c #3E2825",
"8  c #353433",
"9  c #363535",
"0  c #3A3938",
"q  c #40232C",
"w  c #42242C",
"e  c #442729",
"r  c #402925",
"t  c #432926",
"y  c #442A26",
"u  c #452828",
"i  c #4A2B26",
"p  c #4A2B27",
"a  c #4B2430",
"s  c #532D27",
"d  c #552E28",
"f  c #58292E",
"g  c #502432",
"h  c #532433",
"j  c #542433",
"k  c #562434",
"l  c #592535",
"z  c #5B2536",
"x  c #5E2537",
"c  c #602538",
"v  c #652539",
"b  c #67253A",
"n  c #6C263C",
"m  c #613129",
"M  c #65322A",
"N  c #67322A",
"B  c #6C332A",
"V  c #70263D",
"C  c #72263E",
"Z  c #75263F",
"A  c #73352B",
"S  c #7E382D",
"D  c #7D2742",
"F  c #7F2743",
"G  c #7A2F46",
"H  c #444341",
"J  c #464543",
"K  c #4B4948",
"L  c #4D4C4A",
"P  c #4F4E4C",
"I  c #5A4A4D",
"U  c #52514F",
"Y  c #53524F",
"T  c #58504D",
"R  c #5E5D5A",
"E  c #5F5D5B",
"W  c #6D4D47",
"Q  c #654A50",
"!  c #764C44",
"~  c #794C43",
"^  c #6B6965",
"/  c #6E6B68",
"(  c #74716E",
")  c #797773",
"_  c #7A7874",
"`  c #7D7A76",
"'  c #892D3F",
"]  c #882E3D",
"[  c #80382D",
"{  c #85392D",
"}  c #883A2E",
"|  c #8F3C2F",
" . c #923C2F",
".. c #953D2F",
"X. c #822744",
"o. c #832744",
"O. c #842744",
"+. c #872745",
"@. c #812844",
"#. c #842A41",
"$. c #8F2946",
"%. c #912849",
"&. c #932849",
"*. c #97284B",
"=. c #9B284C",
"-. c #9D284D",
";. c #9E284D",
":. c #9F294E",
">. c #A32B4C",
",. c #A52C4B",
"<. c #A52D4B",
"1. c #A62E4B",
"2. c #A42C4C",
"3. c #A82E4A",
"4. c #A82F4A",
"5. c #A92F4A",
"6. c #AA2F49",
"7. c #AC3445",
"8. c #AD3544",
"9. c #AC3149",
"0. c #AD3148",
"q. c #B23546",
"w. c #B63845",
"e. c #B83944",
"r. c #B93944",
"t. c #BC3B43",
"y. c #BF3D41",
"u. c #8A4338",
"i. c #96473A",
"p. c #9F4031",
"a. c #9E4638",
"s. c #A24637",
"d. c #A44131",
"f. c #A64131",
"g. c #AB4534",
"h. c #AC4332",
"j. c #B24235",
"k. c #B14433",
"l. c #BA4534",
"z. c #BB4634",
"x. c #BD4734",
"c. c #814A41",
"v. c #C23E40",
"b. c #C3403F",
"n. c #C6413F",
"m. c #C34835",
"M. c #C54935",
"N. c #C9433E",
"B. c #CA443D",
"V. c #CB443D",
"C. c #CF473B",
"Z. c #CC453C",
"A. c #CD463C",
"S. c #CE463C",
"D. c #CE473C",
"F. c #CE4B36",
"G. c #CD4938",
"H. c #D14B36",
"J. c #D1483A",
"K. c #D2493A",
"L. c #D3493A",
"P. c #D04C38",
"I. c #D54A39",
"U. c #D64B39",
"Y. c #D74C38",
"T. c #D84C38",
"R. c #D84D38",
"E. c #DA4E38",
"W. c #D8513D",
"Q. c #C34040",
"!. c #DC5843",
"~. c #D3625A",
"^. c #D16966",
"/. c #E78D7B",
"(. c #888581",
"). c #8F8C87",
"_. c #94908B",
"`. c #9B9892",
"'. c #9C9993",
"]. c #A4A09A",
"[. c #AAA7A0",
"{. c #ACA8A2",
"}. c #B1ADA7",
"|. c #BFBBB3",
" X c #C88494",
".X c #C1BDB6",
"XX c #EBA292",
"oX c #C6C1BA",
"OX c #C7C2BA",
"+X c #CCC7BF",
"@X c #D3CFC6",
"#X c #DAD5CD",
"$X c #EFE9E0",
"%X c #F6F0E6",
"&X c #FDF7ED",
"*X c None",
/* pixels */
"*X*X*X*X*X*X*X*X*X*X*X*X*X*X*X*X*X*X*X*X*X*X*X*X*X*X*X*X*X*X*X*X*X*X*X*X*X*X*X*X*X*X*X*X*X*X*X*X*X*X*X*X*X*X*X*X*X",
"*X*X*X*X*X*X*X*X*X*X*X*X*X*X*X*X*X*X*X*X*X*X*X*X*X*X*X*X*X*X*X*X*X*X*X*X*X*X*X*X*X*X*X*X*X*X*X*X*X*X*X*X*X*X*X*X*X",
"*X*X*X*X*X*X*X*X*X*X*X*X*X*X*X*X*X*X*X*X*X*X*X*X*X*X*X*X*X*X*X*X*X*X*X*X*X*X*X*X*X*X*X*X*X*X*X*X*X*X*X*X*X*X*X*X*X",
"*X*X*X*X*X*X*X*X*X*X*X*X*X*X*X*X*X*X*X*X*X*X*X*X*X*X*X*X*X*X*X*X*X*X*X*X*X*X*X*X*X*X*X*X*X*X*X*X*X*X*X*X*X*X*X*X*X",
"*X*X*X*X*X*X*X*X*X*X*X*X*X*X*X*X*X*X*X*X*X*X*X*X*X*X*X*X*X*X*X*X*X*X*X*X*X*X*X*X*X*X*X*X*X*X*X*X*X*X*X*X*X*X*X*X*X",
"*X*X*X*X*X*X*X*X*X*X*X*X*X*X*X*X*X*X*X*X*X*X*X*X*X*X*X*X*X*X*X*X*X*X*X*X*X*X*X*X*X*X*X*X*X*X*X*X*X*X*X*X*X*X*X*X*X",
"*X*X*X*X*X*X*X*X*X*X*X*X*X*X*X*X*X*X*X*X*X*X*X*X*X*X*X*X*X*X*X*X*X*X*X*X*X*X*X*X*X*X*X*X*X*X*X*X*X*X*X*X*X*X*X*X*X",
"*X*X*X*X*X*X*X*X*X*X*X*X*X*X*X*X*X*X*X*X*X*X*X*X*X*X*X*X*X*X*X*X*X*X*X*X*X*X*X*X*X*X*X*X*X*X*X*X*X*X*X*X*X*X*X*X*X",
"*X*X*X*X*X*X*X*X*X*X*X*X*X*X*X*X*X*X*X*X*X*X*X*X*X*X*X*X*X*X*X*X*X*X*X*X*X*X*X*X*X*X*X*X*X*X*X*X*X*X*X*X*X*X*X*X*X",
"*X*X*X*X*X*X*X*X*X*X*X*X*X*X*X*X*X*X*X*X*X*X*X*X*X*X*X*X*X*X*X*X*X*X*X*X*X*X*X*X*X*X*X*X*X*X*X*X*X*X*X*X*X*X*X*X*X",
"*X*X*X*X*X*X*X*X*X*X*X*X*X*X*X*X*X*X*X*X*X*X*X*X*X*X*X*X*X*X. . . *X*X*X*X*X*X*X*X*X*X*X*X*X*X*X*X*X*X*X*X*X*X*X*X",
"*X*X*X*X*X*X*X*X*X*X*X*X*X*X*X*X*X*X*X*X*X*X*X*X*X*X*X*X*X*X. . . *X*X*X*X*X*X*X*X*X*X*X*X*X*X*X*X*X*X*X*X*X*X*X*X",
"*X*X*X*X*X*X*X*X*X*X*X*X*X*X*X*X*X*X*X*X*X*X*X*X. . . *X. . . . . *X*X*X*X. . . *X*X*X*X*X*X*X*X*X*X*X*X*X*X*X*X*X",
"*X*X*X*X*X*X*X*X*X*X*X*X*X*X*X*X*X*X*X*X*X*X*X*X. . . *X. . . *X*X*X*X*X*X. . . *X*X*X*X*X*X*X*X*X*X*X*X*X*X*X*X*X",
"*X*X*X*X*X*X*X*X*X*X*X*X*X*X*X*X*X*X*X*X*X*X*X. . . . *X. . . *X. . *X. . . . . *X*X*X*X*X*X*X*X*X*X*X*X*X*X*X*X*X",
"*X*X*X*X*X*X*X*X*X*X*X*X*X*X*X*X*X*X*X*X*X*X*X. . . . *X. . . *X. . *X. . . *X*X*X*X*X*X*X*X*X*X*X*X*X*X*X*X*X*X*X",
"*X*X*X*X*X*X*X*X*X*X*X*X*X*X. . . . . . *X*X*X. . . . . . . . . . . . . . . *X*X*X*X*X*X*X*X*X*X*X*X*X*X*X*X*X*X*X",
"*X*X*X*X*X*X*X*X*X*X*X*X*X*X. . . . . . . . . . o i i i e 6 6 5 p i i u 6 % . . *X*X. . . . . *X*X*X*X*X*X*X*X*X*X",
"*X*X*X*X*X*X*X*X*X*X*X*X*X*X*X*X. . . . . . . . & E.E.E.y.:.:.:.Y.T.E.n.:.h . . *X*X. . . . . *X*X*X*X*X*X*X*X*X*X",
"*X*X*X*X*X*X*X*X*X*X*X*X*X*X. . . . . . . . . . & E.E.E.^. X X XW.T.T.~. XQ . . . . . . . . . *X*X*X*X*X*X*X*X*X*X",
"*X*X*X*X*X*X*X*X*X*X*X*X*X*X. . . . . . . . . . & E.E.E.XX&X&X&X!.E.E./.&X_ . . . . . . . *X*X*X*X*X*X*X*X*X*X*X*X",
"*X*X*X*X*X*X*X*X. . . . . . . . . > Z h . k Z % & E.E.E.XX&X&X&X!.E.E./.&X_ . b C . . . . *X*X*X*X*X*X*X*X*X*X*X*X",
"*X*X*X*X*X*X*X*X. . . . . . . . . 5 :.n . n :.2 & E.E.E.XX&X&X&X!.E.E./.&X_ . +.=.. . . . *X*X*X*X*X*X*X*X*X*X*X*X",
"*X*X*X*X*X*X*X*X. . . . . . Z %.o t I.G.M.7.:.2 & E.E.T.u.0 0 0 H.E.E.a.0 - . j.J.%.Z . . *X. . . *X*X*X*X*X*X*X*X",
"*X*X*X*X*X*X*X*X*X*X. . . . F :.4 d T.E.E.e.<.w 4 M.M.M.A . . . z.M.M.} . @ % z.T.<.#.. . . . . . *X*X*X*X*X*X*X*X",
"*X*X*X*X*X*X*X*X*X*X*X*X. . F :.T.T.E.E.E.E.E.1.*.. . . . . . . . . . . . n :.D.E.E.h.. . . . . . *X*X*X*X*X*X*X*X",
"*X*X*X*X*X*X*X*X*X*X. . . . c Z n.n.N.S.E.E.E.e.7.a a a a a a a a a a a a ] q.J.E.E.h.. . . . . . *X*X*X*X*X*X*X*X",
"*X*X*X*X*X*X*X*X*X*X. . . . . . =.:.:.w.E.E.E.E.Y.:.:.:.:.:.:.:.:.:.:.:.:.b.W.T.E.E.h.. . . . *X*X*X*X*X*X*X*X*X*X",
"*X*X*X*X*X*X*X*X*X*X. . . . k b :.>.v.V.T.T.E.E.T.y.v.y.y.y.v.y.y.y.y.y.y.C.E.E.E.E.h.. . . . *X*X*X*X*X*X*X*X*X*X",
"*X*X*X*X*X*X*X*X*X*X. . . . F :.:.9.T.T.E.E.E.E.E.E.E.E.E.T.E.E.E.E.E.E.E.E.E.E.E.T.h.. . *X*X*X*X*X*X*X*X*X*X*X*X",
"*X*X*X*X*X*X*X*X. . . . . . 2 6 =.$.p { E.[ i M.H.p A E. .p k.E.d m E.d.p p.E.M p i t . . *X*X*X*X*X*X*X*X*X*X*X*X",
"*X*X*X*X*X*X*X*X. . . . . . . . =.O.. B E.N o x.F.. d E.S . f.E.& 7 E.... | E.y . . . . . *X*X*X*X*X*X*X*X*X*X*X*X",
"*X*X*X*X*X*X*X*X*X*X*X*X. . . . . . . . . . . . : %X|.. ).&XE . $X#X. ( &X_ . @X%X. . . . *X*X*X*X*X*X*X*X*X*X*X*X",
"*X*X*X*X*X*X*X*X*X*X*X*X. . . . . . . . . . . . - @X'.. ).&XE . .X}.. ( &X) . {.oX. . . . *X*X*X*X*X*X*X*X*X*X*X*X",
"*X*X*X*X*X*X*X*X*X*X*X*X*X*X*X*X. . . . . . . . . . . . ).&XR . . . . ( &X_ . . . . . *X*X*X*X*X*X*X*X*X*X*X*X*X*X",
"*X*X*X*X*X*X*X*X*X*X*X*X*X*X*X*X. . . . . . . . . . . . R `.H . . . . P `.Y . . . . . *X*X*X*X*X*X*X*X*X*X*X*X*X*X",
"*X*X*X*X*X*X*X*X*X*X*X*X*X*X*X*X*X. . . . . . . . . . . . . . . . . . . . . . . . *X*X*X*X*X*X*X*X*X*X*X*X*X*X*X*X",
"*X*X*X*X*X*X*X*X*X*X*X*X*X*X*X*X*XX . . . . . . . . . . . . . . . . . . . . . . . *X*X*X*X*X*X*X*X*X*X*X*X*X*X*X*X",
"*X*X*X*X*X*X*X*X*X*X*X*X*X*X*X*X*X. . . . . . . . . . . . . . . . . . . . . . . . *X*X*X*X*X*X*X*X*X*X*X*X*X*X*X*X",
"*X*X*X*X*X*X*X*X*X*X*X*X*X*X*X*X*X. . . . . . . . . . . . . . . . . . . . . . . . *X*X*X*X*X*X*X*X*X*X*X*X*X*X*X*X",
"*X*X*X*X*X*X*X*X*X*X. . . . . *X. . . . . . . . . . . . . . . . . . . . . . . . . . . *X*X*X. . . . *X*X*X*X*X*X*X",
"*X*X*X*X*X*X*X*X*X*X. . . . . *X. . . . . . . . . . . . . . . . . . . . . . . . . . . *X*X*X. . . . *X*X*X*X*X*X*X",
"*X*X*X*X*X*X*X*X*X*X. . . . . . . . . . . . . . . . 9 ^ H X X . . . . . . L ^ : . . . . . . . . . . *X*X*X*X*X*X*X",
"*X*X*X*X*X*X*X*X*X*X*X*X. . . . . . . . . . . . . . R &X).X . . . . . . . ].&XK . . . . . . . . . *X*X*X*X*X*X*X*X",
"*X*X*X*X*X*X*X*X*X*X. . . . . . . . . . . . . (._.. R &X).. ) `.= 8 `./ . ].&XK + `.` . . . . . . *X*X*X*X*X*X*X*X",
"*X*X*X*X*X*X*X*X*X*X. . . . . . . . . . . . . #X$X. R &X).. .X&X: H &X{.. ].&XK * &XoX. . . . *X*X*X*X*X*X*X*X*X*X",
"*X*X*X*X*X*X*X*X*X*X. . . . . . . 2 @.l . x @.I T k.i.Y u.g.W Y h.s.Y ! k.~ Y G @.Y H . . . . *X*X*X*X*X*X*X*X*X*X",
"*X*X*X*X*X*X*X*X*X*X. . . . . . . 5 :.n . C :.1 & E.f.. S W.d . F.x.. M E.B . O.:.. . . . *X*X*X*X*X*X*X*X*X*X*X*X",
"*X*X*X*X*X*X*X*X*X*X*X*X. . F :.o y E.T.E.E.E.E.E.E.E.E.E.E.E.E.E.E.E.E.E.E.E.E.T.:.F . . *X*X*X*X*X*X*X*X*X*X*X*X",
"*X*X*X*X*X*X*X*X*X*X*X*X. . F :.6 f S.S.S.I.E.E.E.E.E.E.E.E.E.E.E.E.E.E.E.E.E.E.T.9.' . . *X*X*X*X*X*X*X*X*X*X*X*X",
"*X*X*X*X*X*X*X*X*X*X*X*X. . F :.:.:.:.:.:.b.T.E.E.E.E.E.T.E.E.E.E.E.E.E.E.E.E.E.T.E.h.. . *X*X*X*X*X*X*X*X*X*X*X*X",
"*X*X*X*X*X*X*X*X*X*X*X*X. . k b :.:.:.9.w.S.T.E.E.T.J.v.S.E.E.E.E.E.E.E.E.E.E.E.E.E.h.. . . . *X*X*X*X*X*X*X*X*X*X",
"*X*X*X*X*X*X*X*X*X*X*X*X. . . . :.:.:.w.E.E.E.T.E.E.S.:.t.T.E.E.E.E.E.E.T.E.E.T.E.E.h.. . . . *X*X*X*X*X*X*X*X*X*X",
"*X*X*X*X*X*X*X*X*X*X. . . . c Z :.:.:.<.q.q.q.q.q.q.9.:.1.q.q.q.T.T.T.S.q.q.q.I.E.E.h.. . . . . . *X*X*X*X*X*X*X*X",
"*X*X*X*X*X*X*X*X*X*X. . . . F :.:.:.:.:.:.:.:.:.:.:.:.:.:.:.:.:.T.E.T.n.:.:.:.C.E.E.h.. . . . . . *X*X*X*X*X*X*X*X",
"*X*X*X*X*X*X*X*X. . . . . . F :.:.:.:.:.:.:.:.:.:.:.:.:.:.:.:.:.<.<.1.:.:.:.:.<.<.<.#.. . . . . . *X*X*X*X*X*X*X*X",
"*X*X*X*X*X*X*X*X. . . . . . Z %.:.:.:.:.:.:.:.%.%.%.%.%.%.%.%.%.%.*.:.:.:.:.:.:.:.$.D . . *X. . . *X*X*X*X*X*X*X*X",
"*X*X*X*X*X*X*X*X. . . *X*X*X. . =.:.:.:.:.:.:.2 . . . . . . . . . 2 :.:.:.:.:.:.:.. . *X*X*X*X*X*X*X*X*X*X*X*X*X*X",
"*X*X*X*X*X*X*X*X. . . *X*X*X. . C F :.:.:.O.Z % . . . . . . . . . % Z O.:.:.:.F C . . *X*X*X*X*X*X*X*X*X*X*X*X*X*X",
"*X*X*X*X*X*X*X*X*X*X*X*X*X*X*X*X. 5 :.:.:.a . . *X*X*X*X*X*X*X*X*X. . a :.:.:.5 . *X*X*X*X*X*X*X*X*X*X*X*X*X*X*X*X",
"*X*X*X*X*X*X*X*X*X*X*X*X*X*X*X*X. 5 :.O.l 5 . . *X*X*X*X*X*X*X*X*X. . a :.Z l % . *X*X*X*X*X*X*X*X*X*X*X*X*X*X*X*X",
"*X*X*X*X*X*X*X*X*X*X*X*X*X*X*X*X. 5 :.n . . *X*X*X*X*X*X*X*X*X*X*X. . h :.h . . *X*X*X*X*X*X*X*X*X*X*X*X*X*X*X*X*X",
"*X*X*X*X*X*X*X*X*X*X*X*X*X*X*X*X. o 6 > . . *X*X*X*X*X*X*X*X*X*X*X. . @ 6 % . . *X*X*X*X*X*X*X*X*X*X*X*X*X*X*X*X*X",
"*X*X*X*X*X*X*X*X*X*X*X*X*X*X*X*X. . . . . . *X*X*X*X*X*X*X*X*X*X*X. . . . . . . *X*X*X*X*X*X*X*X*X*X*X*X*X*X*X*X*X"
};
