/* XPM */
static char *door1[] = {
/* columns rows colors chars-per-pixel */
"64 64 13 1",
"  c black",
". c #412320",
"X c #59302C",
"o c #5C322D",
"O c #6D3B36",
"+ c #434F65",
"@ c #6F7F9F",
"# c #9A544C",
"$ c gray55",
"% c #8895AF",
"& c gray68",
"* c #A6B0C4",
"= c None",
/* pixels */
"================================================================",
"================================================================",
"================================================================",
"================================================================",
"================================================================",
"================================================================",
"================================================================",
"================================================================",
"==========================%%%%%%%%%%%%==========================",
"==========================%%%%%%%%%%%%==========================",
"==========================%%%%%%%%%%%%==========================",
"==========================%%%%%%%%%%%%==========================",
"==============%%%%%%%%%%++%%%%%%%%%%%%++%%%%%%%%%%==============",
"==============%%%%%%%%%%++%%%%%%%%%%%%++%%%%%%%%%%==============",
"==============%%%%%%%%%%++************++%%%%%%%%%%==============",
"==============%%%%%%%%%%++************++%%%%%%%%%%==============",
"++%%%%%%%%%%++%%%%%%%%%%++@@@@@@@@@@@@++%%%%%%%%%%++%%%%%%%%%%++",
"++%%%%%%%%%%++%%%%%%%%%%++@@@@@@@@@@@@++%%%%%%%%%%++%%%%%%%%%%++",
"++%%%%%%%%%%++**********++@@@@@@@@@@@@++**********++%%%%%%%%%%++",
"++%%%%%%%%%%++**********++@@@@@@@@@@@@++**********++%%%%%%%%%%++",
"++%%%%%%%%%%++@@@@@@@@@@++@@@@@@@@@@@@++@@@@@@@@@@++%%%%%%%%%%++",
"++%%%%%%%%%%++@@@@@@@@@@++@@@@@@@@@@@@++@@@@@@@@@@++%%%%%%%%%%++",
"++**********++@@@@@@@@@@++@@@@@@@@@@@@++@@@@@@@@@@++**********++",
"++**********++@@@@@@@@@@++@@@@@@@@@@@@++@@@@@@@@@@++**********++",
"++@@@@@@@@@@++@@@@@@@@@@XX..XXXXXXXX..XX@@@@@@@@@@++@@@@@@@@@@++",
"++@@@@@@@@@@++@@@@@@@@@@XX..XXXXXXXX..XX@@@@@@@@@@++@@@@@@@@@@++",
"++@@@@@@@@@@XXXXXX..XXXXXX..XXXXXXXX..XXXXXX..XXXXXX@@@@@@@@@@++",
"++@@@@@@@@@@XXXXXX..XXXXXX..XXXXXXXX..XXXXXX..XXXXXX@@@@@@@@@@++",
"++@@@@@@@@@@XXXXXX..OOOOOOooOOOOOOOOooOOOOOO..XXXXXX@@@@@@@@@@++",
"++@@@@@@@@@@XXXXXX..OOOOOOooOOOOOOOOooOOOOOO..XXXXXX@@@@@@@@@@++",
"++++++++++++OOOOOOooOOOOOOooOOOOOOOOooOOOOOOooOOOOOO++++++++++++",
"++++++++++++OOOOOOooOOOOOOooOOOOOOOOooOOOOOOooOOOOOO++++++++++++",
"++**********$$$$&&ooOOOOOOooOOOOOOOOooOOOOOOooOOOOOO**********++",
"++**********$$$$&&ooOOOOOOooOOOOOOOOooOOOOOOooOOOOOO**********++",
"++@@@@@@@@@@$$&&&&ooOOOOOOooOOOOOOOOooOOOOOOooOOOOOO@@@@@@@@@@++",
"++@@@@@@@@@@$$&&&&ooOOOOOOooOOOOOOOOooOOOOOOooOOOOOO@@@@@@@@@@++",
"++@@@@@@@@@@OOOOOOooOOOO&&ooOOOOOOOOoo&&OOOOooOOOOOO@@@@@@@@@@++",
"++@@@@@@@@@@OOOOOOooOOOO&&ooOOOOOOOOoo&&OOOOooOOOOOO@@@@@@@@@@++",
"++@@@@@@@@@@OOOOOOooOOOOOO&&OOOOOOOO&&OOOOOOooOOOOOO@@@@@@@@@@++",
"++@@@@@@@@@@OOOOOOooOOOOOO&&OOOOOOOO&&OOOOOOooOOOOOO@@@@@@@@@@++",
"++@@@@@@@@@@OOOOOOooOOOOOOooOOOOOOOOooOOOOOOooOO&&OO@@@@@@@@@@++",
"++@@@@@@@@@@OOOOOOooOOOOOOooOOOOOOOOooOOOOOOooOO&&OO@@@@@@@@@@++",
"++++++++++++OOOOOOooOOOOOOooOO&&OOOOooOOOOOOooOO&&OO++++++++++++",
"++++++++++++OOOOOOooOOOOOOooOO&&OOOOooOOOOOOooOO&&OO++++++++++++",
"++**********OOOOOOooOOOOOOooOOOO&&OOooOOOOOOooOO&&OO**********++",
"++**********OOOOOOooOOOOOOooOOOO&&OOooOOOOOOooOO&&OO**********++",
"++@@@@@@@@@@OOOOOOooOOOOOOooOOOOOOOOooOOOOOOooOO&&OO@@@@@@@@@@++",
"++@@@@@@@@@@OOOOOOooOOOOOOooOOOOOOOOooOOOOOOooOO&&OO@@@@@@@@@@++",
"++@@@@@@@@@@OOOOOOooOOOOOO&&OOOOOOOOoo&&OOOOooOO&&OO@@@@@@@@@@++",
"++@@@@@@@@@@OOOOOOooOOOOOO&&OOOOOOOOoo&&OOOOooOO&&OO@@@@@@@@@@++",
"++@@@@@@@@@@OOOOOOooOOOO&&ooOOOOOOOOooOO&&OOooOOOOOO@@@@@@@@@@++",
"++@@@@@@@@@@OOOOOOooOOOO&&ooOOOOOOOOooOO&&OOooOOOOOO@@@@@@@@@@++",
"++@@@@@@@@@@OOOOOOooOOOOOOooOOOOOOOOooOOOOOOooOOOOOO@@@@@@@@@@++",
"++@@@@@@@@@@OOOOOOooOOOOOOooOOOOOOOOooOOOOOOooOOOOOO@@@@@@@@@@++",
"++++++++++++OOOOOOooOOOOOOooOOOOOOOOooOOOOOOooOOOOOO++++++++++++",
"++++++++++++OOOOOOooOOOOOOooOOOOOOOOooOOOOOOooOOOOOO++++++++++++",
"++**********$$$$&&ooOOOOOOooOOOOOOOOooOOOOOOooOOOOOO**********++",
"++**********$$$$&&ooOOOOOOooOOOOOOOOooOOOOOOooOOOOOO**********++",
"++@@@@@@@@@@$$&&&&ooOOOOOOooOOOOOOOOooOOOOOOooOOOOOO@@@@@@@@@@++",
"++@@@@@@@@@@$$&&&&ooOOOOOOooOOOOOOOOooOOOOOOooOOOOOO@@@@@@@@@@++",
"++@@@@@@@@@@OOOOOOooOOOOOOooOOOOOOOOooOOOOOOooOOOOOO@@@@@@@@@@++",
"++@@@@@@@@@@OOOOOOooOOOOOOooOOOOOOOOooOOOOOOooOOOOOO@@@@@@@@@@++",
"++@@@@@@@@@@######oo######oo########oo######oo######@@@@@@@@@@++",
"++@@@@@@@@@@######oo######oo########oo######oo######@@@@@@@@@@++"
};
