/* XPM */
static char *feet[] = {
/* columns rows colors chars-per-pixel */
"32 32 145 2",
"   c #005555",
".  c #005D5D",
"X  c #006060",
"o  c #006363",
"O  c #006C6C",
"+  c #006D6D",
"@  c #007171",
"#  c #007474",
"$  c #007575",
"%  c #007676",
"&  c #007777",
"*  c #047877",
"=  c #007D7D",
"-  c #067978",
";  c #087978",
":  c #097978",
">  c #0B7978",
",  c #0D7A78",
"<  c #0E7A78",
"1  c #117B78",
"2  c #127B78",
"3  c #167C78",
"4  c #187C79",
"5  c #1A7C79",
"6  c #1C7D79",
"7  c #1E7D79",
"8  c #1F7D79",
"9  c #236E6E",
"0  c #237272",
"q  c #247676",
"w  c #227E79",
"e  c #247979",
"r  c #247A7A",
"t  c #267F79",
"y  c #277F79",
"u  c #247F7F",
"i  c #297171",
"p  c #2B7575",
"a  c #287F79",
"s  c #357E7E",
"d  c #2B807A",
"f  c #2C807A",
"g  c #2D807A",
"h  c #2E807A",
"j  c #31817A",
"k  c #36827A",
"l  c #37827A",
"z  c #38827A",
"x  c #39837A",
"c  c #3A837A",
"v  c #3C837A",
"b  c #3C837B",
"n  c #3D847B",
"m  c #48867B",
"M  c #49867B",
"N  c #4C867B",
"B  c #51877C",
"V  c #59897C",
"C  c #5E8A7C",
"Z  c #618B7D",
"A  c #678C7D",
"S  c #6C8D7D",
"D  c #728E7D",
"F  c #748E7E",
"G  c #788F7E",
"H  c #798F7E",
"J  c #7E907E",
"K  c #7F917E",
"L  c #008080",
"P  c #008181",
"I  c #008B8B",
"U  c #118481",
"Y  c #198682",
"T  c #248383",
"R  c #238882",
"E  c #2B8983",
"W  c #2C8983",
"Q  c #2E8A83",
"!  c #378282",
"~  c #348B83",
"^  c #368B83",
"/  c #398C84",
"(  c #3B8C84",
")  c #3C8D84",
"_  c #3D8D84",
"`  c #408D84",
"'  c #458E84",
"]  c #4D9085",
"[  c #4E9085",
"{  c #539185",
"}  c #579285",
"|  c #609486",
" . c #82917E",
".. c #89937F",
"X. c #8D937F",
"o. c #92947F",
"O. c #93957F",
"+. c #95957F",
"@. c #979680",
"#. c #989680",
"$. c #9A9680",
"%. c #9C9680",
"&. c #9DA089",
"*. c #A09780",
"=. c #A29880",
"-. c #A39880",
";. c #A49880",
":. c #AA9981",
">. c #AB9981",
",. c #B09A81",
"<. c #B29B81",
"1. c #B49B81",
"2. c #B79C81",
"3. c #BA9C81",
"4. c #BC9D82",
"5. c #A3A18A",
"6. c #A6A28A",
"7. c #B0A48A",
"8. c #B8A58B",
"9. c #C09E82",
"0. c #C29E82",
"q. c #C59F82",
"w. c #C89F82",
"e. c #C0A78B",
"r. c #C2A78B",
"t. c #CAA082",
"y. c #CBA082",
"u. c #CDA082",
"i. c #CFA183",
"p. c #C8A98B",
"a. c #CAA98C",
"s. c #D0A183",
"d. c #D1A183",
"f. c #D2A183",
"g. c #D3A183",
"h. c #D6A283",
"j. c #D1AA8C",
"k. c #D2AB8C",
"l. c #D5AB8C",
"z. c #D9A383",
"x. c #DBA383",
"c. c #DBAC8D",
"v. c #E3AE8D",
"b. c #ECB08D",
"n. c #FFBE99",
/* pixels */
"                                                                ",
"  p ! s s ! s s ! s s ! s s ! s s ! s s ! s s ! s s ! s s ! i   ",
"  T I P P I P P I P P I P P I P P I P P I P P I P P I P P I e   ",
"  u P & & P & & P & b r.1.K P & & P X.1.r.h & P & & P & & P q   ",
"  u P & & P & 3 ` * M b.x.+.P & & P :.x.b.l : ` 2 & P & & P q   ",
"  T I P P I P } n.Y [ n.b.6.I P P I 8.b.n.( Q n.' P I P P I e   ",
"  u P & & P -.K Q * < Q h 8 P & & P w h Q : : Q ..+.P & & P q   ",
"  u P & 3 ( %.A P j l ( l y P & & P d l ( l h P D +.( 2 & P q   ",
"  T I P | n.U P I l.b.n.b.6.I P P I 8.b.n.b.e.I P R n.] P I e   ",
"  u P ;.G ~ -.:.8.g.x.b.x.u.8.8 h 8.s.x.b.x.f.8.>.+.^  .+.P q   ",
"  u P -.G ^ u.x.b.x.x.b.x.x.b.y z b.x.x.b.x.x.b.x.0.^  .+.P q   ",
"  T I P | n.b.b.n.b.b.n.b.b.n.E ( n.b.b.n.b.b.n.b.b.n.] P I e   ",
"  u P -.3.b.x.x.b.x.x.b.x.:.( : < ( 1.x.b.x.x.b.x.x.b.3.+.P q   ",
"  u P g.x.b.x.x.b.x.x.b.x.+.P & & P >.x.b.x.x.b.x.z.b.x.0.P q   ",
"  T I v.b.n.b.b.n.b.b.n.b.6.I P P I 8.b.n.b.b.n.b.b.n.b.j.I e   ",
"  u P g.x.b.x.x.b.x.x.b.B d P & & P h C b.x.x.b.x.x.b.x.0.= q   ",
"  u P g.x.b.x.x.b.c.f.8.4 & P & & P & d r.s.z.b.x.x.b.z.0.P q   ",
"  T I v.b.n.b.b.n.b.%.I P P I P P I P P I 7.b.n.b.b.n.b.j.I e   ",
"  u P b K b.x.x.b.x.@.P & & P & & P & & P ;.x.b.x.x.b.D z P q   ",
"  u P & V b.x.x.b.x.@.P & & P & & P & & P -.x.b.x.x.b.M & P q   ",
"  T I P | n.b.b.n.b.%.I P P I P P I P P I 7.b.n.b.b.n.] P I e   ",
"  u P & V b.x.x.b.x.r.6.3 & P & & P & w 6.w.x.b.x.x.b.M & P q   ",
"  u P & N a.z.x.b.x.x.b.c 3 P & & P 4 M b.x.x.b.x.g.a.b & P q   ",
"  T I P P I c.b.n.b.b.n.b.6.I P P I 8.b.n.b.b.n.b.a.I P P I e   ",
"  u P & & P u.z.b.x.x.b.x.+.P & & P >.x.b.x.x.b.x.3.P & & P q   ",
"  u P & & P 1.w.b.x.x.b.x.%.P & & P >.x.b.x.x.b.w.;.P & & P q   ",
"  T I = P I P } n.b.b.n.b.6.I P P I 8.b.n.b.b.n.' P I P P I e   ",
"  u & & & = # 8 [ u.x.b.A l P & & P b S b.x.0.[ 3 & P & & P q   ",
"  e O o @ O . X P ,.q.l.8 & P & & P & h l.0.-.P & & P & & P q   ",
"  T I P P I P P I P P I P P I P P I P P I P P I P P I P P I e   ",
"  0 e q q e q q e q q e q q e q q e q q e q q e q q e q q e 9   ",
"                                                                "
};
