/* XPM */
static char *floor2[] = {
/* columns rows colors chars-per-pixel */
"64 64 6 1",
"  c #59413E",
". c #514047",
"X c #77514C",
"o c #8D5D57",
"O c #966F5F",
"+ c #AA8779",
/* pixels */
"....XXXXXXXXXXXXXXXXXXXX............OOOOOOOOOOOOOOOOOOOO........",
"....XXXXXXXXXXXXXXXXXXXX............OOOOOOOOOOOOOOOOOOOO........",
"....XXXXXXXXXXXXXXXXXXXX............OOOOOOOOOOOOOOOOOOOO........",
"....XXXXXXXXXXXXXXXXXXXX............OOOOOOOOOOOOOOOOOOOO........",
"XXXXXXXXXXXXXXXXXXXXXXXXoooo....OOOOOOOOOOOOOOOOOOOOOOOO++++....",
"XXXXXXXXXXXXXXXXXXXXXXXXoooo....OOOOOOOOOOOOOOOOOOOOOOOO++++....",
"XXXXXXXXXXXXXXXXXXXXXXXXoooo....OOOOOOOOOOOOOOOOOOOOOOOO++++....",
"XXXXXXXXXXXXXXXXXXXXXXXXoooo....OOOOOOOOOOOOOOOOOOOOOOOO++++....",
"XXXXXXXXXXXXXXXXXXXXXXXXoooo....OOOOOOOOOOOOOOOOOOOOOOOO++++....",
"XXXXXXXXXXXXXXXXXXXXXXXXoooo....OOOOOOOOOOOOOOOOOOOOOOOO++++....",
"XXXXXXXXXXXXXXXXXXXXXXXXoooo....OOOOOOOOOOOOOOOOOOOOOOOO++++....",
"XXXXXXXXXXXXXXXXXXXXXXXXoooo....OOOOOOOOOOOOOOOOOOOOOOOO++++....",
"XXXXXXXXXXXXXXXXXXXXXXXXoooo....OOOOOOOOOOOOOOOOOOOOOOOO++++....",
"XXXXXXXXXXXXXXXXXXXXXXXXoooo....OOOOOOOOOOOOOOOOOOOOOOOO++++....",
"XXXXXXXXXXXXXXXXXXXXXXXXoooo....OOOOOOOOOOOOOOOOOOOOOOOO++++....",
"XXXXXXXXXXXXXXXXXXXXXXXXoooo....OOOOOOOOOOOOOOOOOOOOOOOO++++....",
"XXXXXXXXXXXXXXXXXXXXXXXXoooo....OOOOOOOOOOOOOOOOOOOOOOOO++++....",
"XXXXXXXXXXXXXXXXXXXXXXXXoooo....OOOOOOOOOOOOOOOOOOOOOOOO++++....",
"XXXXXXXXXXXXXXXXXXXXXXXXoooo....OOOOOOOOOOOOOOOOOOOOOOOO++++....",
"XXXXXXXXXXXXXXXXXXXXXXXXoooo....OOOOOOOOOOOOOOOOOOOOOOOO++++....",
"XXXXXXXXXXXXXXXXXXXXoooooooo....OOOOOOOOOOOOOOOOOOOO++++++++....",
"XXXXXXXXXXXXXXXXXXXXoooooooo....OOOOOOOOOOOOOOOOOOOO++++++++....",
"XXXXXXXXXXXXXXXXXXXXoooooooo....OOOOOOOOOOOOOOOOOOOO++++++++....",
"XXXXXXXXXXXXXXXXXXXXoooooooo....OOOOOOOOOOOOOOOOOOOO++++++++....",
"    oooooooooooooooooooo    ....    ++++++++++++++++++++    ....",
"    oooooooooooooooooooo    ....    ++++++++++++++++++++    ....",
"    oooooooooooooooooooo    ....    ++++++++++++++++++++    ....",
"    oooooooooooooooooooo    ....    ++++++++++++++++++++    ....",
"....                    ............                    ........",
"....                    ............                    ........",
"....                    ............                    ........",
"....                    ............                    ........",
"....XXXXXXXXXXXXXXXXXXXX............XXXXXXXXXXXXXXXXXXXX........",
"....XXXXXXXXXXXXXXXXXXXX............XXXXXXXXXXXXXXXXXXXX........",
"....XXXXXXXXXXXXXXXXXXXX............XXXXXXXXXXXXXXXXXXXX........",
"....XXXXXXXXXXXXXXXXXXXX............XXXXXXXXXXXXXXXXXXXX........",
"XXXXXXXXXXXXXXXXXXXXXXXXoooo....XXXXXXXXXXXXXXXXXXXXXXXXoooo....",
"XXXXXXXXXXXXXXXXXXXXXXXXoooo....XXXXXXXXXXXXXXXXXXXXXXXXoooo....",
"XXXXXXXXXXXXXXXXXXXXXXXXoooo....XXXXXXXXXXXXXXXXXXXXXXXXoooo....",
"XXXXXXXXXXXXXXXXXXXXXXXXoooo....XXXXXXXXXXXXXXXXXXXXXXXXoooo....",
"XXXXXXXXXXXXXXXXXXXXXXXXoooo....XXXXXXXXXXXXXXXXXXXXXXXXoooo....",
"XXXXXXXXXXXXXXXXXXXXXXXXoooo....XXXXXXXXXXXXXXXXXXXXXXXXoooo....",
"XXXXXXXXXXXXXXXXXXXXXXXXoooo....XXXXXXXXXXXXXXXXXXXXXXXXoooo....",
"XXXXXXXXXXXXXXXXXXXXXXXXoooo....XXXXXXXXXXXXXXXXXXXXXXXXoooo....",
"XXXXXXXXXXXXXXXXXXXXXXXXoooo....XXXXXXXXXXXXXXXXXXXXXXXXoooo....",
"XXXXXXXXXXXXXXXXXXXXXXXXoooo....XXXXXXXXXXXXXXXXXXXXXXXXoooo....",
"XXXXXXXXXXXXXXXXXXXXXXXXoooo....XXXXXXXXXXXXXXXXXXXXXXXXoooo....",
"XXXXXXXXXXXXXXXXXXXXXXXXoooo....XXXXXXXXXXXXXXXXXXXXXXXXoooo....",
"XXXXXXXXXXXXXXXXXXXXXXXXoooo....XXXXXXXXXXXXXXXXXXXXXXXXoooo....",
"XXXXXXXXXXXXXXXXXXXXXXXXoooo....XXXXXXXXXXXXXXXXXXXXXXXXoooo....",
"XXXXXXXXXXXXXXXXXXXXXXXXoooo....XXXXXXXXXXXXXXXXXXXXXXXXoooo....",
"XXXXXXXXXXXXXXXXXXXXXXXXoooo....XXXXXXXXXXXXXXXXXXXXXXXXoooo....",
"XXXXXXXXXXXXXXXXXXXXoooooooo....XXXXXXXXXXXXXXXXXXXXoooooooo....",
"XXXXXXXXXXXXXXXXXXXXoooooooo....XXXXXXXXXXXXXXXXXXXXoooooooo....",
"XXXXXXXXXXXXXXXXXXXXoooooooo....XXXXXXXXXXXXXXXXXXXXoooooooo....",
"XXXXXXXXXXXXXXXXXXXXoooooooo....XXXXXXXXXXXXXXXXXXXXoooooooo....",
"    oooooooooooooooooooo    ....    oooooooooooooooooooo    ....",
"    oooooooooooooooooooo    ....    oooooooooooooooooooo    ....",
"    oooooooooooooooooooo    ....    oooooooooooooooooooo    ....",
"    oooooooooooooooooooo    ....    oooooooooooooooooooo    ....",
"....                    ............                    ........",
"....                    ............                    ........",
"....                    ............                    ........",
"....                    ............                    ........"
};
