/* XPM */
static char *ghost2[] = {
/* columns rows colors chars-per-pixel */
"61 64 85 1",
"  c #000000",
". c #0B0B0B",
"X c #121212",
"o c #1D1D1D",
"O c #002500",
"+ c #003C00",
"@ c #252525",
"# c #272827",
"$ c #2E2E2E",
"% c #2E352E",
"& c #323532",
"* c #353A35",
"= c #4D4D4D",
"- c #455745",
"; c #555555",
": c #5F605F",
"> c #676767",
", c #6B6B6B",
"< c #707270",
"1 c #777877",
"2 c #797979",
"3 c #009000",
"4 c #009F00",
"5 c #00B400",
"6 c #238423",
"7 c #2A842A",
"8 c #02C302",
"9 c #07C907",
"0 c #00DA00",
"q c #00EE00",
"w c #00FE00",
"e c #0BFE0B",
"r c #15FE15",
"t c #1BFE1B",
"y c #23FE23",
"u c #2CFE2C",
"i c #35F835",
"p c #3AFE3A",
"a c #4F844F",
"s c #5F845F",
"d c #7B847B",
"f c #7DA77D",
"g c #42FE42",
"h c #4DFF4D",
"j c #53FE53",
"k c #5DFF5D",
"l c #65FE65",
"z c #6EFE6E",
"x c #7BE17B",
"c c #71FE71",
"v c #7EFC7E",
"b c #868686",
"n c #929A92",
"m c #B2B2B2",
"M c #BDBDBD",
"N c #82FC82",
"B c #8BF68B",
"V c #8CFC8C",
"C c #92FD92",
"Z c #9DFB9D",
"A c #A4EEA4",
"S c #A1FEA1",
"D c #AAFDAA",
"F c #B4FEB4",
"G c #BCF6BC",
"H c #BCFBBC",
"J c #C8C8C8",
"K c #CFDECF",
"L c #D6D6D6",
"P c #D8D8D8",
"I c #C4FBC4",
"U c #CCFACC",
"Y c #D5E2D5",
"T c #DCE2DC",
"R c #D3F9D3",
"E c #DCFBDC",
"W c #E2E1E2",
"Q c #EDEEED",
"! c #E6F9E6",
"~ c #EBFAEB",
"^ c #F6F6F6",
"/ c #F6F9F6",
"( c #F8F7F8",
") c #FBFCFB",
"_ c None",
/* pixels */
"_____________X>4wwqwwwwwqwwwwwwqwwwwwwqwwwwwwO2______________",
"_____________))wwwwwwwwwwwwwwwwwwwwwwwwwwwwwww)______________",
"_____________))wwwwwwwwwwwwwwwwwwwwwwwwwwwwwww)______________",
"__________))))~gwwwwwwwwwwwwwwwwwwwwwwwwwwwwwF))))___________",
"__________EEEEIpwwwwwwwwwwwwwwwwwwwwwwwwwwwwwSEEEE___________",
"_________)uiiuuewwwwwwwwwwwwwwwwwwwwwwwwwwwwwuuiuu)__________",
"_________)wwwwwwwwwwwwwwwwwwwwwwwwwwwwwwwwwwwwwwww)__________",
"_________)wwwwwwwwwwwwwwwwwwwwwwwwwwwwwwwwwwwwwwww)__________",
"_____)))))wwwwwwwwwwwwwwwwwwwwwwwwwwwwwwwwwwwwwwww))))))_____",
"_____)))))wwwwwwwwwwwwwwwwwwwwwwwwwwwwwetttttttttt))))))_____",
"___#srwwwwwwwwwVEEEERtwwwwwwwwwwwwwwwwwt!/(//////Zwwwww+2____",
"___)HtwwwwwwwwwZ(/^/!twwwwwwwwwwwwwwwwwtE/)((((((SwwwwwV)____",
"___#srwwwwwwwwwC((((!twwwwwwwwwwwwwwwwwrE/(()/((/Swwwwea&____",
"))))HrwwwwwwwwwV(((/QtwwwwwwwwwwwwwwwwwrE/(((/()/SwwwwrD)))).",
"SSSSgrwwwwewewexLLLLYywewewwwwwwwwwwwwwtE//(/QQQQAuyyyipSSSS7",
"wwwwwwwwwwDHHGG-XXXX>HIIHFwwwwwwwwwwwwwrE/((M&&&&&K!!!Euwwww6",
"wwwwwwwwwwE(((^=    ;)((/~wwwwwwwwwwwwwrE/((m.   .P(//~uwwww7",
"wwwwwwwwwwR()(^=    ;)((/~wwwwwwwwwwwwwtE()(m    .P(((~uwwww6",
"wwwwwwwwwwR(/(/=    ;))((/wwwwwwwwwwwwwrE()(m    .P^((Quwwww6",
"wwwwwwwwwwR(((^=    ;))((/wwwwwwwwwwwwwrE/))m    .JWWWTuwwww6",
"wwwwwwwwwwR((^^=    @,,>,dewwwwwwwwwwwwtE/((m     .....9wwww6",
"wwwwwwwwwwU((^^=         &rwwwwwwwwwwwwrE/((m.         8wwww6",
"wwwwwwwwwwI(((^=         &rwwwwwwwwwwwwtE/((m          8wwww6",
"wwwwwwwwwwI(((^=         %rwwwwwwwwwwwwrE/()m          9wwww6",
"wwwwwwwwwwI(((^=        .%rwwwwwwwwwwwwrE((/moooooooooo9wwww6",
"wwwwwwwwwwvZSSZfbbbbbbbbbnewwwwwwwwwwwwezvzlBWWWWWWWWWWiwwww6",
"wwwwwwwwwwwwwwwN(())(/^((~wwwwwwwwwwwwwwwwwwj(((^^((^((gwwwe6",
"wwwwwwwwwwwwwwwN()(((((((/wwwwwwwwwwwwwwwwwwj)(((((((()pwwww6",
"wwwwwwwwwwwwwwwv((////(^/~wwwwwwwwwwwwwwwwwwj(((/((((()pwwwe6",
"wwwwwwwwwwwwwwwv~~~~~~~!~Ewwwwwwwwwwwwwwwwwwj))()))))()gwwww6",
"wwwwwwwwwwwwwwwerrrrrrrrrrwwwwwwwwwwwwwwwwwweyyytyyyyyyewwww6",
"wwwwwwwwwwwwwwwwwwwwwwwwwwwwwwwwwwwwwwwwwwwwwwwwwwwwwwwwwwww6",
"wwwwwwwwwwwwwwwwwwwwwwwwwwwwwwwwwwwwwwwwwwwwwwwwwwwwwwwwwwww7",
"wwwwwwwwwwwwwwwwwwwwwwwwwwwwwwwwwwwwwwwwwwwwwwwwwwwwwwwwwwww6",
"wwwwwwwwwwwwwwwwwwwwwwwwwwwwwwwwwwwwwwwwwwwwwwwwwwwwwwwwwwww6",
"wwwwwwwwwwwwwwwwwwwwwwwwwwwwwwwwwwwwwwwwwwwwwwwwwwwwwwwwwwww6",
"wwwwwwwwwwwwwwwwwwwwwwwwwwwwwwwwwwwwwwwwwwwwwwwwwwwwwwwwwwww6",
"wwwwwwwwwwwwwwwwwwwwwwwwwwwwwwwwwwwwwwwwwwwwwwwwwwwwwwwwwwww6",
"wwwwwwwwwwwwwwwwwwwwwwwwwwwwwwwwwwwwwwwwwwwwwwwwwwwwwwwwwwww6",
"wwwwwwwwwwwwwwwwwwwwwwwwwwwwwwwwwwwwwwwwwwwwwwwwwwwwwwwwwwww6",
"wwwwwwwwwwwwwwwwwwwwwwwwwwwwwwwwwwwwwwwwwwwwwwwwwwwwwwwwwwwe6",
"wwwwwwwwwwwwwwwwwwwwwwwwwwwwwwwwwwwwwwwwwwwwwwwwwwwwwwwwwwww6",
"wwwwwwwwwwwwwwwwwwwwwwwwwwwwwwwwwwwwwwwwwwwwwwwwwwwwwwwwwwww6",
"wwwwwwwwwwwwwwwwwwwwwwwwwwwwwwwwwwwwwwwwwwwwwwwwwwwwwwwwwwww6",
"wwwwwwwwwwwwwwwwwwwwwwwwwwwwwwwwwwwwwwwwwwwwwwwwwwwwwwwwwwww6",
"wwwwwwwwwwwwwwwwwwwwwwwwwwwwwwwwwwwwwwwwwwwwwwwwwwwwwwwwwwww6",
"wwwwwwwwwwwwwwwwwwwwwwwwwwwwwwwwwwwwwwwwwwwwwwwwwwwwwwwwwwww6",
"wwwwwwwwwwwwwwwwwwwwwwwwwwwwwwwwwwwwwwwwwwwwwwwwwwwwwwwwwwww6",
"wwwwwwwwwwwwwwwwwwwwwwwwwwwwwwwwwwwwwwwwwwwwwwwwwwwwwwwwwwww7",
"wwwwwwwwwwwwwwwwwwwwwwwwwwwwwwwwwwwwwwwwwwwwwwwwwwwwwwwwwwww6",
"wwwwwwwwwwtpppprwwwwwwwwwwpppppppewwwwwwwwwrppppywwwwwwwwwww6",
"wwwwwwwwwww)/)/gwwwwwwwwww)))))))wwwwwwwwwww))))jwwwwwwwwwww6",
"wwwwwwwwwww)))~gwwwwwwwwww)____))wwwwwwwwwww))_)jwwwwwwwwwww6",
"wwwwwwwwww32 Xdgwwwwwwwwwq2____=%0wwwwwwwww5;#_<7wwwwwwwwwww6",
"wwwwwwwwwww))/~gwwwwwwwwww)____))wwwwwwwwwww))_)jewwwwwwwwww6",
"wwwwwwwwwww)))~gwwwwwwwwww)____))wwwwwwwwwww))_)jwwwwwwwwwww6",
"wwwwwwwwwww)))~gwwwwwwwwww)____))wwwwwwwwwww))_)krreewwwwwwe6",
"wwwwwphzlzz)))~vlzlgtwwwww)____))wwwwwtglzll))_)EHVVCprwwwww6",
"wwwwwc)))))____)))))uwwwww)____))wwwwwu)))))____)))))Frwwwww6",
"wwwwwc)____________)uwwwww)____))wwwwwy)____________)Frwwwww6",
"wwwwwc)____________)iwwwww)____))wwwwwu)____________)Frwwwww6",
"wwwwwc)____________)uwwwww)____))wwwwwu)____________)Frwwwww6",
"wwwwwc)____________)uwwwww)____))wwwwwy)____________)Ftwwwww6",
"wwwwwz)____________)uwwwww)____))wwwwwy)____________)Zwwwwww6"
};
