/* XPM */
static char *ghost[] = {
/* columns rows colors chars-per-pixel */
"64 64 236 2",
"   c #000000",
".  c #010101",
"X  c #010102",
"o  c #020202",
"O  c #030303",
"+  c #202020",
"@  c #272727",
"#  c #282828",
"$  c #2B2B2B",
"%  c #383838",
"&  c #393939",
"*  c #3D3D3D",
"=  c #343942",
"-  c #314766",
";  c #404040",
":  c #404143",
">  c #414243",
",  c #444F57",
"<  c #465057",
"1  c #465058",
"2  c #555555",
"3  c #595959",
"4  c #5D5D5D",
"5  c #415066",
"6  c #656F78",
"7  c #7B7C7E",
"8  c #7D7D7D",
"9  c #557AAF",
"0  c #5E79A1",
"q  c #768390",
"w  c #7189AA",
"e  c #7D8BA1",
"r  c #7B8FAA",
"t  c #7F90AA",
"y  c #628CCA",
"u  c #6891C6",
"i  c #6891C7",
"p  c #72A3EA",
"a  c #7CA6E2",
"s  c #79AFFF",
"d  c #7BAFFF",
"f  c #7BB0FE",
"g  c #7BB0FF",
"h  c #7CB0FE",
"j  c #7CB0FF",
"k  c #7CB1FF",
"l  c #7DB0FE",
"z  c #7DB1FE",
"x  c #7DB1FF",
"c  c #7CB2FF",
"v  c #7EB1FF",
"b  c #7EB2FF",
"n  c #7FB2FE",
"m  c #7FB2FF",
"M  c #7FB3FF",
"N  c #949494",
"B  c #959595",
"V  c #9B9B9B",
"C  c #9D9D9D",
"Z  c #838FA1",
"A  c #8499A1",
"S  c #849BA1",
"D  c #8892A1",
"F  c #9FA1A4",
"G  c #A4A4A4",
"H  c #A5A4A4",
"J  c #A5A9B0",
"K  c #B3B3B3",
"L  c #B6B8BB",
"P  c gray75",
"I  c #8FAFDB",
"U  c #85AEE7",
"Y  c #80B2FE",
"T  c #80B2FF",
"R  c #80B3FF",
"E  c #81B3FF",
"W  c #81B4FD",
"Q  c #81B4FF",
"!  c #82B5FD",
"~  c #82B4FE",
"^  c #82B4FF",
"/  c #83B4FE",
"(  c #83B5FF",
")  c #84B5FF",
"_  c #85B6FE",
"`  c #87B7FF",
"'  c #88B7FE",
"]  c #88B8FE",
"[  c #88B8FF",
"{  c #89B8FE",
"}  c #8BBBFF",
"|  c #8CBAFE",
" . c #8CBAFF",
".. c #8EBBFE",
"X. c #90BDFD",
"o. c #90BCFE",
"O. c #90BDFE",
"+. c #91BDFE",
"@. c #92BEFF",
"#. c #95BFFD",
"$. c #94BFFE",
"%. c #95BFFF",
"&. c #9BBEF0",
"*. c #9BCBCB",
"=. c #99CCCC",
"-. c #9EC7E2",
";. c #9DC8E3",
":. c #96C0FF",
">. c #97C0FE",
",. c #97C1FE",
"<. c #97C1FF",
"1. c #98C0FD",
"2. c #98C1FD",
"3. c #98C1FE",
"4. c #98C1FF",
"5. c #99C2FD",
"6. c #99C3FF",
"7. c #9AC2FD",
"8. c #9BC2FD",
"9. c #9AC2FE",
"0. c #9BC2FE",
"q. c #9BC3FE",
"w. c #9BC3FF",
"e. c #9CC2FD",
"r. c #9CC3FC",
"t. c #9DC3FD",
"y. c #9DC6FF",
"u. c #9EC4FD",
"i. c #9EC5FF",
"p. c #B4C2C2",
"a. c #A0C5FD",
"s. c #A1C6FD",
"d. c #A0C6FF",
"f. c #A1C6FF",
"g. c #A1C7FE",
"h. c #A1C7FF",
"j. c #A2C7FD",
"k. c #A4C7FF",
"l. c #A3C8FF",
"z. c #A4C8FD",
"x. c #A5C8FD",
"c. c #A4C8FE",
"v. c #A4C8FF",
"b. c #A5C8FE",
"n. c #A5C8FF",
"m. c #A5C9FF",
"M. c #A6C9FD",
"N. c #A6C8FF",
"B. c #A7C9FF",
"V. c #A6CAFD",
"C. c #A6CAFE",
"Z. c #A4CDFF",
"A. c #A8CCFF",
"S. c #A9CCFF",
"D. c #A9CFFF",
"F. c #AACCFF",
"G. c #AACDFF",
"H. c #AACEFF",
"J. c #ADCEFF",
"K. c #AECEFD",
"L. c #AECFFD",
"P. c #ABD2FF",
"I. c #B2D0FD",
"U. c #B4D0FF",
"Y. c #B5D2FF",
"T. c #B6D4FF",
"R. c #B7D4FF",
"E. c #C3C8CD",
"W. c #CDCDCD",
"Q. c #D3D3D3",
"!. c #DADADA",
"~. c #DBDBDB",
"^. c #CED8E5",
"/. c #C0DBFF",
"(. c #C6DCFF",
"). c #C6DDFF",
"_. c #D1DBEA",
"`. c #D2E5FF",
"'. c #D3E4FF",
"]. c #D4E6FF",
"[. c #D6E6FD",
"{. c #D7E7FF",
"}. c #D7E8FF",
"|. c #D8E7FF",
" X c #D8E8FF",
".X c #DAE8FC",
"XX c #DBE9FF",
"oX c #DFEBFB",
"OX c #DCEAFF",
"+X c #DFEBFF",
"@X c #DFEDFF",
"#X c #D1F5FF",
"$X c #E1EBF9",
"%X c #E1EBFA",
"&X c #E2EBF9",
"*X c #E3ECF9",
"=X c #E1EDFF",
"-X c #E2EEFF",
";X c #E5F1FF",
":X c #E9F0FA",
">X c #EAF0F8",
",X c #EBF1F9",
"<X c #EAF1FA",
"1X c #EAF1FB",
"2X c #EBF1FB",
"3X c #EBF2FB",
"4X c #EBF3FF",
"5X c #EAF4FF",
"6X c #EBF4FF",
"7X c #ECF3F9",
"8X c #EFF5FF",
"9X c #F7F7F7",
"0X c #F1F5F9",
"qX c #F2F5F8",
"wX c #F2F6F9",
"eX c #F3F8FF",
"rX c #F5F8F9",
"tX c #F6F9FA",
"yX c #F8F8F7",
"uX c #F8F8F8",
"iX c #F8F8F9",
"pX c #F8F9F8",
"aX c #F8F9F9",
"sX c #F9F9F8",
"dX c #F9F9F9",
"fX c #F9FAF8",
"gX c #F9FAF9",
"hX c #FAF9F9",
"jX c #FAFAF8",
"kX c #FAFAF9",
"lX c #FAFAFA",
"zX c #FAFAFB",
"xX c #FAFBFB",
"cX c #FBFBFB",
"vX c gray100",
"bX c None",
/* pixels */
"bXbXbXbXbXbXbXbXbXbXbXbXbXbXbXbXbXbXbXbXbXbXbXbXbXbXbXbXbXbXbXbXbXbXbXbXbXbXbXbXbXbXbXbXbXbXbXbXbXbXbXbXbXbXbXbXbXbXbXbXbXbXbXbX",
"bXbXbXbXbXbXbXbXbXbXbXbXbXbXbXbXbXbXbXbXbXbXbXbXbXbXbXbXbXbXbXbXbXbXbXbXbXbXbXbXbXbXbXbXbXbXbXbXbXbXbXbXbXbXbXbXbXbXbXbXbXbXbXbX",
"bXbXbXbXbXbXbXbXbXbXbXbXbXbXbXbXbXbXbXbXbXP *.=.=.=.=.=.=.=.=.=.=.=.=.=.=.=.=.=.=.=.=.=.p.bXbXbXbXbXbXbXbXbXbXbXbXbXbXbXbXbXbXbX",
"bXbXbXbXbXbXbXbXbXbXbXbXbXbXbXbXbXbXbXbXbX= -.;.;.;.;.;.;.;.;.;.;.;.;.;.;.;.;.;.;.;.;.;.q * bXbXbXbXbXbXbXbXbXbXbXbXbXbXbXbXbXbX",
"bXbXbXbXbXbXbXbXbXbXbXbXbXbXbXbXbXbXbXbXvXd d Y z z z z z z n z z z n n z z z z z z z z $.vXbXbXbXbXbXbXbXbXbXbXbXbXbXbXbXbXbXbX",
"bXbXbXbXbXbXbXbXbXbXbXbXbXbXbXbXbXbXbXbX4 Z n n n n E n n n n n n n n n n n n n n E n n 0 V bXbXbXbXbXbXbXbXbXbXbXbXbXbXbXbXbXbX",
"bXbXbXbXbXbXbXbXbXbXbXbXbXbXbXbXbXvXvXvXvXP.n n n E n n n E n n n n n n n n n E n n E n $.vXvXvXbXbXbXbXbXbXbXbXbXbXbXbXbXbXbXbX",
"bXbXbXbXbXbXbXbXbXbXbXbXbXbXbXbXbXvXvXvXvXS.n ~ n n n n n n n n n n n n E n n n n n n z 4.vXvXvXbXbXbXbXbXbXbXbXbXbXbXbXbXbXbXbX",
"bXbXbXbXbXbXbXbXbXbXbXbXbXbXbXbXvXY.d z z n n n n ~ n n n n n ~ n n ~ n n n n ~ Y n n n n z z z `.bXbXbXbXbXbXbXbXbXbXbXbXbXbXbX",
"bXbXbXbXbXbXbXbXbXbXbXbXbXbXbXbXvXT.n n n n n n n n n n n n n n n n n n n Y n n Y Y n n n n n z ].bXbXbXbXbXbXbXbXbXbXbXbXbXbXbX",
"bXbXbXbXbXbXbXbXbXbXbXbXbXbXbXbXvXT.Y ~ n n n ~ n n n ~ ~ n n n n n n n Y Y n n Y Y ~ Y n n n z `.bXbXbXbXbXbXbXbXbXbXbXbXbXbXbX",
"bXbXbXbXbXbXbXbXbXbXbXbXvX8XOXOX=Xk.Y n n / ' ' ' ' n n n n n n n n n ~ ~ n n n ..r.r.r.r.r.r.4.Y.OXOXOX-XvXbXbXbXbXbXbXbXbXbXbX",
"bXbXbXbXbXbXbXbXbXbXbXbX+ e z E ~ n n n n j.qXqXqX7X` n n n n n n ~ n ~ n n n n U.hXhXhXhXhXhX2X/ E E n Z 2 bXbXbXbXbXbXbXbXbXbX",
"bXbXbXbXbXbXbXbXbXbXbXbXvX).z n n n n n n t.hXuXjXqX` n n n n ~ n n n n n n Y ~ K.uXdXdXdXdXdX2XE n n n ].bXbXbXbXbXbXbXbXbXbXbX",
"bXbXbXbXbXbXbXbXbXvXvXvXvX).g n n n n n n t.uX9XjXqX~ n n n n n n n ~ n n n n n K.dXdXdXuXuXuX2X/ E E E +XvXvXvXvXbXbXbXbXbXbXbX",
"bXbXbXbXbXbXbXbXvX4Xi.f.f.4.z n n ` +.+.+.I H H H L #.+.+...n n n n n n ~ n n ~ K.dXdXhXQ.W.W.E.&.b.b.b.i.f.f.f.-XvXbXbXbXbXbXbX",
"bXbXbXbXbXbXbXbX$ S d z z n ~ n n k.hXdXuXC     . ; vXdXdX&Xn n n / n n n n n E P.dXdXcX#     O K dXdXrX .z n z D   bXbXbXbXbXbX",
"bXbXbXbXbXbXbXbXvX#Xd n n n n n n j.hXdXuXC       ; hXdXdX&Xn n n n n n n n n E K.dXdXcX#       K dXdXrX..n n n  XvXbXbXbXbXbXbX",
"bXbXbXbXbXbXbXbXvX#Xz n n n n n n j.hXdXdXC       ; hXhXdX$Xz n n n n E E n n E K.dXdXcX#     O K dXdXrX+.n n z  XvXbXbXbXbXbXbX",
"bXbXbXbXbXbXbXbXvX#Xd n n n n n n j.hXuXdXC       & ~.~.!.^.n n n n n n n n n E K.dXdXvX#       3 8 8 8 a n E n  XvXbXbXbXbXbXbX",
"bXbXbXbXbXbXbXbXvX#Xg n n n n n z f.dXdXuXC               , ~ n n n n n n n n E K.dXdXjX#             O i E n n  XvXbXbXbXbXbXbX",
"bXbXbXbXbXbXbXbXvX#Xd n n ~ n n n i.hXdXuXC             . < / n n ~ n n n E n E K.dXhXjX#             O i n n n  XvXbXbXbXbXbXbX",
"bXbXbXbXbXbXbXbXvX#Xd n n n n n n r.dXdXdXC     . .   . . < ~ n n n n ~ n n n n K.dXdXvX#             O i n n n  XvXbXbXbXbXbXbX",
"bXbXbXbXbXbXbXbX$ S d n ~ n n / n 4.,X,X,XJ & & & & & & & 6 ~ Y ~ n n n n n n n b.$X.X].F B B B B B B B U n n n D   bXbXbXbXbXbX",
"bXbXbXbXbXbXbXbXvX#Xg n n n n n n n z z Y #.hXjXuXuXuXuXjX*XY Y n n n n n n ~ n z z z g :XrX9X9X9X9XdXdX4.n E z  XvXbXbXbXbXbXbX",
"bXbXbXbXbXbXbXbXvX#Xg n E n n n n n n n ~ #.hXjXuXjXuXuXjX*Xd Y n n ~ n n n n n z E E z ,XdXdXdXdXdXdXjX4.n E E  XvXbXbXbXbXbXbX",
"bXbXbXbXbXbXbXbXvX#Xg n n n n n n n n n n #.hXhXhXhXjXjXhX*XY n n n n n n n n n n n E z ,XdXdXdXdXdXdXjXi.z E z  XvXbXbXbXbXbXbX",
"bXbXbXbXbXbXbXbXvX#Xz n n n E n n n n n n ` t.#.t.#.t.#.#.#.Y Y n ~ n n n n n ~ n E E z f.b.b.S.b.b.b.b.] E E z  XvXbXbXbXbXbXbX",
"bXbXbXbXbXbXbXbX$ S g z E n n n n ~ n ~ n n n ~ ~ ~ n ~ Y Y Y Y n n Y Y n n n n E E z n E E E E E E E E E z E n D   bXbXbXbXbXbX",
"bXbXbXbXbXbXbXbXvX#Xz n n n E n n n n n n n n ~ n Y Y Y Y Y Y ~ n n n Y ~ n n n z E E E z E n E E E E z E E E z  XvXbXbXbXbXbXbX",
"bXbXbXbXbXbXbXbX$ S g E n n n n n n ~ n n n n n n n n Y Y n n n ~ Y n ~ n n ~ Y n n E n E n E z E z n E E z E z D O bXbXbXbXbXbX",
"bXbXbXbXbXbXbXbXvX#Xg z n E n n n n n n ~ n n n n n n ~ Y Y n n Y Y n n n Y Y Y E E z n n E n n E E E z E z E E  XvXbXbXbXbXbXbX",
"bXbXbXbXbXbXbXbXvX#Xd ~ n n ~ n n n n Y Y Y n n n n n n n n n n Y n n n n Y Y Y z E E E n n E z E n E z n n n n  XvXbXbXbXbXbXbX",
"bXbXbXbXbXbXbXbXvX#Xd n n n n n n n n Y Y ~ n n n ~ n n ~ n n ~ n n n n n ~ n n E n z E z E E z E n E E E E E z  XvXbXbXbXbXbXbX",
"bXbXbXbXbXbXbXbXvX#Xd n n ~ n n ~ Y Y Y n n n n n n n n n n n n n ~ Y Y Y Y n n E n n n E E E E E z z E E z E n  XvXbXbXbXbXbXbX",
"bXbXbXbXbXbXbXbX$ S d n n n n n Y Y ~ n n n Y Y ~ n ~ n n n n n n n Y Y Y ~ n n E z E E E z n n E E n E n n n n D   bXbXbXbXbXbX",
"bXbXbXbXbXbXbXbXvX#Xd n n n n ~ Y n n n n n n Y n n n n n n n n n n n n n n n n E z E E E z n E z E E z E E E z  XvXbXbXbXbXbXbX",
"bXbXbXbXbXbXbXbX$ S d n n ~ n n n n ~ n n n ~ Y n n n ~ n n ~ n ~ n n Y n n Y ~ n n E z E E n E n E n n E z E z D   bXbXbXbXbXbX",
"bXbXbXbXbXbXbXbXvX#Xd n n n ~ n n n Y Y Y n n n n n n n n n n n Y Y Y Y n n Y Y E E z E z E E z n E E E E E z E  XvXbXbXbXbXbXbX",
"bXbXbXbXbXbXbXbXvX#Xd n n n n n n n n Y Y Y ~ n n ~ n n n n n n n Y Y ~ n n n Y z E E n n E n n E z z E n n E z  XvXbXbXbXbXbXbX",
"bXbXbXbXbXbXbXbXvX#Xg n n n n n n ~ n n n ~ n n n n n n n n n n n n n ~ n n n ~ n n n n E n n n n n n n n n n n  XvXbXbXbXbXbXbX",
"bXbXbXbXbXbXbXbXvX#Xd n n n E n Y Y n n n n n n n n E n n ~ n n n n Y Y ~ n n n n n n ~ n E n E n ~ n n n n n n  XvXbXbXbXbXbXbX",
"bXbXbXbXbXbXbXbXvX#Xz n n n n n Y Y d z z z n n n E n E n n n z d n Y Y n n n n n n n n z z z n n n n n n n n n |.vXbXbXbXbXbXbX",
"bXbXbXbXbXbXbXbXvX#Xd n n n n n Y Y r. .G.r.n ~ n n n n n n K.g z d G.d n n E n n n n n S.g K.z n ~ ~ n n n n n  XvXbXbXbXbXbXbX",
"bXbXbXbXbXbXbXbX$ S g n n n n n n z ; + 4 w n n E n n n n y 4 bXbXbX4 9 n n n n n n n - 4 bX4 p n n ~ n n E n n D   bXbXbXbXbXbX",
"bXbXbXbXbXbXbXbXvX#Xd n n n n n n z eXvXvXS.n n n n n n n z vXbXbXbXvXg n n n n n n n d vXbXvXz n n n n n n n n  XvXbXbXbXbXbXbX",
"bXbXbXbXbXbXbXbXvX#Xz n / n n n n z eXvXvXP.n n E n n n n z vXbXbXbXvXz n E n n n n n d vXbXvXE n n n n n n n z  XvXbXbXbXbXbXbX",
"bXbXbXbXbXbXbXbXvX#Xd n n n n z z z eXvXvXk.z n z n n n n z vXbXbXbXvXz n n n n n n Y d vXbXvX .~ n n n n E n n  XvXbXbXbXbXbXbX",
"bXbXbXbXbXbXbXbX$ S g z E z l.l.b.l.; + 4 t b.l.l.] E z n y 4 bXbXbX4 9 E E E $.f.l.b.5 4 bX4 _.XXT.K.` E n n n D   bXbXbXbXbXbX",
"bXbXbXbXbXbXbXbXvX#Xz n n z 5XvXvXvXvXbXbXvXvXvXvX+.n E n z vXbXbXbXvXz z z E b.vXvXvXvXbXbXbXbXbXbXvX/ E n n z  XvXbXbXbXbXbXbX",
"bXbXbXbXbXbXbXbXvX#Xg n z z 5XvXbXbXbXbXbXbXbXbXvX@.z E n z vXbXbXbXvXg E E E l.vXbXbXbXbXbXbXbXbXbXvXz E n n n  XvXbXbXbXbXbXbX",
"bXbXbXbXbXbXbXbXvX#Xg n E g 5XvXbXbXbXbXbXbXbXbXvX@.z E n z vXbXbXbXvXz E z E b.vXbXbXbXbXbXbXbXbXbXvXz n n n n  XvXbXbXbXbXbXbX",
"bXbXbXbXbXbXbXbXvX#Xz E E z 4XvXbXbXbXbXbXbXbXbXvX+.E E E z vXbXbXbXvXz / E E b.vXbXbXbXbXbXbXbXbXbXvXz E E n n  XvXbXbXbXbXbXbX",
"bXbXbXbXbXbXbXbXvX+Xb.k.b.b.;XvXbXbXbXbXbXbXbXbXvXY.k.k.k.b.vXbXbXbXvXb.k.k.k.).vXbXbXbXbXbXbXbXbXbXvXb.b.Z.S.i.4.bXbXbXbXbXbXbX",
"bXbXbXbXbXbXbXbXbXvXvXvXvXvXbXbXbXbXbXbXbXbXbXbXbXvXvXvXvXvXbXbXbXbXbXvXvXvXvXvXbXbXbXbXbXbXbXbXbXbXbXvXvXvXvXvXbXbXbXbXbXbXbXbX",
"bXbXbXbXbXbXbXbXbXbXbXbXbXbXbXbXbXbXbXbXbXbXbXbXbXbXbXbXbXbXbXbXbXbXbXbXbXbXbXbXbXbXbXbXbXbXbXbXbXbXbXbXbXbXbXbXbXbXbXbXbXbXbXbX",
"bXbXbXbXbXbXbXbXbXbXbXbXbXbXbXbXbXbXbXbXbXbXbXbXbXbXbXbXbXbXbXbXbXbXbXbXbXbXbXbXbXbXbXbXbXbXbXbXbXbXbXbXbXbXbXbXbXbXbXbXbXbXbXbX",
"bXbXbXbXbXbXbXbXbXbXbXbXbXbXbXbXbXbXbXbXbXbXbXbXbXbXbXbXbXbXbXbXbXbXbXbXbXbXbXbXbXbXbXbXbXbXbXbXbXbXbXbXbXbXbXbXbXbXbXbXbXbXbXbX",
"bXbXbXbXbXbXbXbXbXbXbXbXbXbXbXbXbXbXbXbXbXbXbXbXbXbXbXbXbXbXbXbXbXbXbXbXbXbXbXbXbXbXbXbXbXbXbXbXbXbXbXbXbXbXbXbXbXbXbXbXbXbXbXbX",
"bXbXbXbXbXbXbXbXbXbXbXbXbXbXbXbXbXbXbXbXbXbXbXbXbXbXbXbXbXbXbXbXbXbXbXbXbXbXbXbXbXbXbXbXbXbXbXbXbXbXbXbXbXbXbXbXbXbXbXbXbXbXbXbX",
"bXbXbXbXbXbXbXbXbXbXbXbXbXbXbXbXbXbXbXbXbXbXbXbXbXbXbXbXbXbXbXbXbXbXbXbXbXbXbXbXbXbXbXbXbXbXbXbXbXbXbXbXbXbXbXbXbXbXbXbXbXbXbXbX",
"bXbXbXbXbXbXbXbXbXbXbXbXbXbXbXbXbXbXbXbXbXbXbXbXbXbXbXbXbXbXbXbXbXbXbXbXbXbXbXbXbXbXbXbXbXbXbXbXbXbXbXbXbXbXbXbXbXbXbXbXbXbXbXbX",
"bXbXbXbXbXbXbXbXbXbXbXbXbXbXbXbXbXbXbXbXbXbXbXbXbXbXbXbXbXbXbXbXbXbXbXbXbXbXbXbXbXbXbXbXbXbXbXbXbXbXbXbXbXbXbXbXbXbXbXbXbXbXbXbX",
"bXbXbXbXbXbXbXbXbXbXbXbXbXbXbXbXbXbXbXbXbXbXbXbXbXbXbXbXbXbXbXbXbXbXbXbXbXbXbXbXbXbXbXbXbXbXbXbXbXbXbXbXbXbXbXbXbXbXbXbXbXbXbXbX"
};
