/* XPM */
static char *assets__4__removebg_preview_resized[] = {
/* columns rows colors chars-per-pixel */
"140 42 243 2 ",
"   c None",
".  c #010104",
"X  c #0B0101",
"o  c #040902",
"O  c #00020C",
"+  c #090A0A",
"@  c #090909",
"#  c #140101",
"$  c #1B0000",
"%  c #18060A",
"&  c #000311",
"*  c #060A14",
"=  c #060B1A",
"-  c #0B0E11",
";  c #0F1116",
":  c #131414",
">  c #191313",
",  c #161818",
"<  c #120D0E",
"1  c #230000",
"2  c #2B0000",
"3  c #2A0C07",
"4  c #330001",
"5  c #3B0100",
"6  c #360805",
"7  c #2D1210",
"8  c #161920",
"9  c #0F1420",
"0  c #1F212B",
"q  c #1E2832",
"w  c #272829",
"e  c #232A35",
"r  c #252D39",
"t  c #2E2D39",
"y  c #2C323D",
"u  c #353539",
"i  c #392328",
"p  c #440000",
"a  c #4B0101",
"s  c #430800",
"d  c #520101",
"f  c #5A0101",
"g  c #590A03",
"h  c #481918",
"j  c #571615",
"k  c #50130A",
"l  c #6D0201",
"z  c #660704",
"x  c #780502",
"c  c #67140E",
"v  c #7B1107",
"b  c #771A18",
"n  c #6F1618",
"m  c #68221E",
"M  c #782418",
"N  c #751E2D",
"B  c #4D3131",
"V  c #672627",
"C  c #792625",
"Z  c #6E3635",
"A  c #4F1E22",
"S  c #694539",
"D  c #5D4231",
"F  c #2E394D",
"G  c #2D3546",
"H  c #313C4D",
"J  c #373B46",
"K  c #2F3A50",
"L  c #343C51",
"P  c #553346",
"I  c #683B4B",
"U  c #3D414A",
"Y  c #3C465B",
"T  c #3D4862",
"R  c #434549",
"E  c #474B56",
"W  c #4E5259",
"Q  c #644558",
"!  c #654657",
"~  c #414B63",
"^  c #454E6B",
"/  c #484F6E",
"(  c #4B5465",
")  c #45536B",
"_  c #4A536D",
"`  c #4A5668",
"'  c #52576A",
"]  c #53596C",
"[  c #535665",
"{  c #4A5371",
"}  c #4F5873",
"|  c #525A73",
" . c #555B78",
".. c #554C65",
"X. c #6B5569",
"o. c #59617E",
"O. c #5B6276",
"+. c #5C626E",
"@. c #646A7C",
"#. c #78637E",
"$. c #850C08",
"%. c #86140B",
"&. c #9A160C",
"*. c #920D10",
"=. c #861716",
"-. c #9B1915",
";. c #980A07",
":. c #AD0C04",
">. c #A40A03",
",. c #B20A02",
"<. c #BA0805",
"1. c #AC140B",
"2. c #A91708",
"3. c #B5170A",
"4. c #A61B17",
"5. c #B61715",
"6. c #B00B14",
"7. c #88211B",
"8. c #942218",
"9. c #A82219",
"0. c #B9231B",
"q. c #B6210F",
"w. c #951C24",
"e. c #A91B22",
"r. c #B71820",
"t. c #9A2625",
"y. c #873739",
"u. c #923230",
"i. c #A82A23",
"p. c #BA2423",
"a. c #AD362E",
"s. c #C71707",
"d. c #C71915",
"f. c #C70D0E",
"g. c #C32416",
"h. c #D3291B",
"j. c #D62E18",
"k. c #D92E25",
"l. c #DC3123",
"z. c #D93529",
"x. c #C93733",
"c. c #D1332A",
"v. c #E53829",
"b. c #F33C2A",
"n. c #E83029",
"m. c #B14836",
"M. c #E6461F",
"N. c #CC4535",
"B. c #D84A38",
"V. c #DA523C",
"C. c #CF4C32",
"Z. c #E5432C",
"A. c #EA442B",
"S. c #EC4D2C",
"D. c #E94A27",
"F. c #F54C25",
"G. c #F4452C",
"H. c #F34C2C",
"J. c #F7482B",
"K. c #EE522C",
"L. c #E85124",
"P. c #F4542C",
"I. c #ED4D33",
"U. c #EC4D3B",
"Y. c #E94634",
"T. c #F44534",
"R. c #F44C33",
"E. c #FA4A33",
"W. c #F34C3B",
"Q. c #FD4B3A",
"!. c #FA4537",
"~. c #EC5133",
"^. c #EC5239",
"/. c #E65338",
"(. c #F45233",
"). c #FA5133",
"_. c #F4533B",
"`. c #FA533C",
"'. c #F6593C",
"]. c #883644",
"[. c #9B4E57",
"{. c #9B5458",
"}. c #924D46",
"|. c #A74E46",
" X c #B95847",
".X c #B4514E",
"XX c #B5655A",
"oX c #87666B",
"OX c #A76966",
"+X c #AF717A",
"@X c #925D64",
"#X c #C54D44",
"$X c #D84D43",
"%X c #CB554B",
"&X c #DC5A4B",
"*X c #D75848",
"=X c #C55753",
"-X c #DA5B54",
";X c #ED4A42",
":X c #FC4D42",
">X c #F54C44",
",X c #E45B45",
"<X c #E85547",
"1X c #FB5243",
"2X c #F65649",
"3X c #F35A52",
"4X c #D5624C",
"5X c #C76457",
"6X c #DA6559",
"7X c #CB614A",
"8X c #E66555",
"9X c #F96358",
"0X c #D26C68",
"qX c #E7746B",
"wX c #F7736B",
"eX c #F17573",
"rX c #D98276",
"tX c #F28477",
"yX c #5C6380",
"uX c #656C85",
"iX c #6A6E85",
"pX c #676180",
"aX c #6D7489",
"sX c #74788B",
"dX c #787D93",
"fX c #7E6E87",
"gX c #7D8192",
"hX c #8D8A96",
"jX c #A68685",
"kX c #8B90A5",
"lX c #E88684",
"zX c #FE9789",
"xX c #FCA794",
"cX c #F7A792",
"vX c #FFBBA6",
"bX c #D48484",
"nX c #FFCCB1",
"mX c #FFDDCB",
"MX c #FFE3D3",
"NX c #FFE8CD",
"BX c #EBECEC",
"VX c #EAE7E7",
"CX c #F5E7E9",
/* pixels */
"                                                                                                                                                                                                                                                                                        ",
"                                                                                                                                                                                                                                                                                        ",
"                                                                                                                                                                                                                                                                                        ",
"              % # . o # % X # % J                     o o o X o . X X X                                                                                                                                                                                                                 ",
"              7 3 # X # $ # % % P                     X X # # X X % # >                                                                                                                                                                                                                 ",
"              h 5 2 6 h 2 2 4 6 I                   oX3 6 5 5 5 5 5 2 2                                                                                                                                                                                                                 ",
"          o 7 |.5X5Xm.XXm.XX5XXXy.h # w         X 7 V XX.X=X=X.X|.u.7.V h 3 X @ @ - + + + @ @ @ + @ @ @ % @ + + * * * + @ @ @ @ @ @ @ @ @ @ + @ + + @ + @ @ + @ @ @ @ + + @ + + @ @ @ > w u w w W R w , , w R   w w             + - + + - - + - + + + ; - ; . @ ;                       ",
"        o X 1 =X%X*X4X7XV.4X7X6Xu.p 1 >       i $ 4 Z -X<X;X3X;X$Xp.=.7.5 2 $ % . . . X # X X X X o X X X X X . O & & O . O O O O . O . O . O . . O . O . O . O O . O . O . O . O . O , u u R , u E R u u R R 8 0 u E E R e + . O . . O . . . . . O O . O . O & . u                     ",
"        % 1 6 %X$X8XV.m.4XV.,X8Xi.a s 7       i 4 a 8.3XW.T.!.W.v.d.:.-.f a 2 $ % o # 1 1 $ $ # # $ $ 1 1 $ $ X O & = & & & & & & & & & & & O * & & & & O & O & = = & & O & O & O O & * ; 8 0 e w P Y E Y Y 0 0 G E E Y y 9 & O & & & & & & & O & & & & & * O O o U                     ",
"      D S {.m.*XB.,XtXnXvXtXC.C.C.m.|.! S B B Z |.m.N._.H.J.G.E.!.b.v.N.8.v M 6 $ $ A +XOXOXOX+XOXOXOXOXOXOXOXoXX.| | ] | } ] ] ] ] | | ] ] ] } ] ] ] } ] ] ] ] T yX_ ] ] ] ] _ ] ] ] [ ] [ O.+.] aXgXgXaXyX@.sXhXhXdXaXO.| ] ] ] ' ' ] ] ] ] ' ] ] ] ` ` | ] +.[ E E                   ",
"    $ s XX7X*XV.4XC.vXMXNXzXV./.,X,X4X.X6 1 2 |.6X/.S.S.K.K.F.H.F.E._./.9.-.i.a 4 4 Z lXlXlXlXlXlXlXtXlXeXrXbX+XoXfXiXiXaXuXaXuXuXuXuXuXuXuXuXuXuXuXuXuXuXuXuXuXuXuXuXuXiXuXiXaXuXiXuXuXiXiX@.iX@.aXgXaXgXgXgXkXkXhXdXaXuXuXuXuXiXiXuXuXiXuXuXuXiXiXuXaXiX@.O.+.gX+.O O @               ",
"  X 1 d 0XC.N.*X7X XvXMXMXxX&X/.R.I.<X#Xd p a a.<XD.F.L.L.P.K.D.D.G.R.~.2.>.t.d 5 2 Z eXwXwXeXeXwXwXwXwXwXeXbX+X@XfXpXuXuXyXuXyXuXuXuXuXuXuXuXuXuXuXuXuXuXuXuXuXyXuXuXuXuXuXyXuXuXuXuXuXuXuXuXyXiXuXo.@.uXgXgXgXaXiXuXuXuXuXuXyXuXuXuXuXuXuXuXuXuXuXuXo.uXuXaX@.@.] & @ =               ",
"  o 1 f &X3X&XxXcXcXcXcXxXqX/.Z.S.H._.B.9.-.-.C./.L.P.L.H.K.K.K.K.F.H.^.5.,.i.d 2 2 m qX9X9X9X9X9X9X9X2X9X9XqXOXQ pX .yXo.o.o.o.yXyX .yXyXyXyXyXyXyXyXyX .yXyX .yXyXyXyXyXyXyXyXyXyXyX .o.o.o.o.o.o.o.yXo.o.yXyXyXyXyXyXyXyXyXyXyXyXyX .o.o.o.o.yXyXyXyXyX} @.aX+.` y U U               ",
"  o # z $X<X&XnXNXmXqX.X#X$X/.'.H.G.R.^.<X9X^.3XM.P.M.E.H.S.L.L.K.H.E.S.g.5.e.d 1 1 m &XU.U.;X;X;XT.T.T.Y.V.=X{.I ..^ ) ) ^ ^ ) ^ ^ ^ ^ ) T T { T { T T / / / / { T T { T { T T ^ ^ { T ^ ) ^ ^ ) ) ) T ) ) } T ^ ^ { T { T / ^ / ^ / ^ ^ _ ^ ^ ) T { T } T Y } ' ` +.[ W ; .           ",
"  o # a -X3X&XnXNXmXrX-X<X/.A.H.F.A.I.'./.I.Z.^./.'.G.E.T.S.L.L.L.H.E.Y.s.<.r.d 2 1 m 4X^.^.U.1X>XT.E.T.W./.=X{.I } { } _ } ` } } } { ` ) } } ) } } } { { { { { yX{ { { yXT ) } { } { { ) } { } } } { } } ) } } { } } } } { } { } } { } } ` } ` } } } T } o.) _ ) Y ( ( W * .           ",
"  : # g 6XN.&XxXnXcXqXV.Y.~.H.H.E.P.S.D.I.R.(.Z.(.A.E.T.E.(.~.~.(.E.E.`.s.f.r.d 2 1 m *X~.U.R.W.T.E.E.T.I.V.-X{.Q } T } ) _ _ ` ) ` ) { } ` ) } ` ) ) { { { { { T yXT } T yX{ { { { { { ) } ) _ ) _ ) { { } ) ) { { T } { { { { { { _ _ ` _ _ _ _ _ ) yXT } ) _ +.T ] +.Y , . .         ",
"  . # s 4X/.S.B.C.V.B.~.I.(.H.E.J.E.E.T.T.T.R.H.S.H.P.F.J.E.I.(.R.R.J.).s.<.p.d 1 1 V *X/.I.R._.H.F.H.R.~./.-X[.! ] ) ` ( _ _ _ ) _ ` _ _ ` _ _ _ _ _ _ ( _ _ _ _ _ _ _ _ _ ( _ _ _ _ _ ) _ _ _ _ _ _ _ _ _ _ _ _ _ _ _ _ _ _ _ / _ _ _ _ _ _ _ _ _ _ _ ` _ ` _ ` ( _ ( ( - O .         ",
"  o $ c 7XB.Z.'.'.~.D.K.H.H.H.R.E.E.T.Q.Q.Q.E.R.H.K.K.F.H.J.T.I.I.R.E.).s.<.p.a 2 1 j 4X/.Y.R.R.F.F.K.S.^.I.&X[.! ` ) ) _ _ _ _ ` _ _ _ _ _ _ _ _ _ _ _ _ _ _ _ _ _ _ _ _ _ _ _ ) _ ( _ _ _ _ _ _ _ _ _ _ _ _ _ _ _ _ ] _ _ _ _ _ _ ( _ _ _ _ ( _ _ _ _ ` _ _ ` _ _ ` ' ( * . .         ",
"  # $ s  X,X^.(.K.l.`.K.K.K.R.~.I.R.R.W.E.R.R.R.H.H.H.H.S.E.R.I.I.I.W.b.f.f.5.a 2 2 m *X/.I.R.(.H.F.P.I.~.I.-X[.! ( ) _ _ } _ _ { _ _ _ _ _ _ _ _ _ _ { _ _ _ _ _ { _ _ } _ _ _ _ _ _ { _ _ _ _ _ _ _ _ _ _ / { _ _ _ _ _ _ _ _ _ _ } _ _ _ _ { _ _ _ ( ` _ ( _ ( _ _ ( ( - . O         ",
"  X 1 k 5X*XZ.Z.).(.'.~.S.K.K.I.~.R.(.R.R.R.H.S.H.S.S.H.H.H.H.R.R.~.>X:Xd.f.e.a 2 2 c *X^.I.R.).F.F.F.I.^.U.&X[.Q ] ) _ _ _ _ / { _ { { _ _ } _ _ { { { } _ { _ _ ] _ { _ _ _ _ { ^ _ / _ _ { _ _ _ { _ { _ { / _ { _ _ { _ _ { { _ { _ _ { _ { _ } _ _ _ ( _ _ _ _ _ _ ( = O o         ",
"  # $ 4 XX7X*XZ.(.`.A.H.K.~.I.~.I.I.I.R.R.R.H.R.R.H.(.S.S.H.S.G.J.~._.b.5.6.w.d 2 5 M ,X~.K.R.).F.F.F.(.^.I.&X[.Q ] ) ) { { { { { / { { } { _ { { / { / { { { { { / { _ _ _ _ { { { { / { { { { } _ { { { { { { { { { _ { { { { { { { { { { / { _ { { _ _ _ _ _ _ _ _ ( ( = O           ",
"  > % A {.5X4X/.I.`.R.R.H.K.K.R.R.~.I.(.~.~.R.R.R.H.R.H.S.S.G.J.b.Z.B.2Xr.-.=.z p a v /.~.S.R.).E.F.H.~.^.U.&X[.Q ' ) ) { { { { { { { { { { { { { { { { { { { { { { { { ^ { / { { { { { { / { { { { { { { { { { { { { { / { { { { { { { / { { { { { { _ } ) _ { { _ _ ( ( = O           ",
"        6 p f &.3.g.v.H.J.H.E.R.R.R.U.~.K.~.R.R.R.E.R.R.S.P.P.J.b.j.g.4.x d a C m.m.C.'.(.S.R.P.F.F.F.~.^.I.&X{.! ` ) { { { { { { { { { { { { { { { { { { { { { { { { / / { { { { { { { { { { { { { { { { { { { { { { { { { { { { { / { { { { { { { { _ { { { { _ _ _ _ ( = O           ",
"        $ 2 a 7.&.;.Z.R.E.E.E.!.R.R.R.~.~.S.~.S.R.R.R.R.R.(.).!.n.s.>.-.l 5 4 u.6X,XL.).H.H.H.).H.F.H.(.^.I.-X{.! +.T { { { { { { { { { { { { { { { { { { { { { { { { { { { / { { { { { { { { { { { { { { { { { { { { { { { { { { { { { { { { { { { { { { _ } _ _ _ _ _ ' = O           ",
"          $ 5 C 7.-.B.1Xb.Q.Q.b.Q.E.).(.D.S.~.~.(.W.b.v.2XW.S.Q.:X>.i.w.d 2 6 i.<XA.H.H.H.J.R.J.J.F.H.(.U.^.&X[.! [ ( _ _ { _ _ / { { _ { { { { { { { _ _ _ _ ^ / _ _ { { _ { _ _ { { { { { { { { { { { { { { { { { { _ { _ { _ _ _ _ _ _ _ { _ { _ { ^ }  ./ ~ ~ ` ` | ( &             ",
"              j f l 9.c.d.v.:Xb.Q.E.J.K.D.~.~.I.I.W.!.>X2Xn.d.h.g.x l c y.y.u.x.>XA.E.J.R.R.T.!.E.J.H.~.Y.U.$X[.! ..` ` _ _ ^ _ / { _ ^ { { / { / { { ^ _ _ ^ _ _ ^ _ ^ _ _ _ _ ^ _ _ ^ { / / { { / { / ^ { ^ { { { _ ^ _ _ ^ _ / _ / _ _ _ _ _ _ ^ { } / / } } } ` ( W ( *             ",
"              3 6 a v &.>.k.:X!.!.J.J.(.K.~.(.Y.I.W.W.U.;Xh.,.,.;.d 4 5 |.6X-X3XQ.T.E.H.R.T.!.T.E.G.H.1XU.U.&X[.! W ) ) ^ _ ^ _ _ ^ ^ { / / / / { ^ ^ _ _ _ _ _ _ ^ ^ _ ) _ ) ) ^ _ _ ^ / { { / / { / { / { { ^ { ) ) _ ^ _ ^ ) _ ^ ^ _ ^ _ ` ) ^ _ ^ } ^ ~ { } ( W ( W   *             ",
"              % 1 6 c t.-.x.>X>XQ.Q.).(.K.^.~.I.W.1XW.1X9Xz.5.4.b a 5 p .X&X>X:X:X1XW.`.`.1X:X:XQ.).W.1X;X>X-X[.X.[ ` } } } } } } } } } } } } } } } } } _ } } } ] _ } } } } } } } } } } } } } } } } } } } } } }  .} } } } } } } | } } } } } } } } } | | { } ] ' ( ` ] ]                 ",
"                  OXZ c x t.x.z.l.T.E.R.A.K.S.A.W.W.v.h.z.0.x z n c f x a.g.d.n.l.h.k.k.k.k.l.k.l.j.l.k.k.k.a.].P E T T T T T T ~ ~ ~ ~ ~ ~ ~ ~ ~ ~ ~ T Y ~ Y ~ ~ ~ ~ ~ ~ ~ T T ~ ~ ~ ~ ~ ~ T ~ ~ ~ ~ ~ ~ T ~ ~ T T T T T E ~ T ~ ~ ~ ~ T T ~ ~ ~ T T Y ~ ~ P T T Y J G                 ",
"                    B s a l -.1.g.!.J.E.H.(.I.I.W.T.k.:.1.$.f p 6 w.w.*.p.2.<.f.f.,.1.:.:.:.,.,.<.,.:.:.:.3.e.N B J G F U F U F F H F F K F K K K K F F F F F H F F F F F F F F F F F H K K K K F K K K K K K K F F K K K F F F H F F F F F F F F F L K L L G Y U e o @                 ",
"                    B 2 p g %.&.g.1X`.R.K.(.R.R.W.T.k.2.i.v p 2 5 w.w.4.&.1.5.f.<.>.1.3.3.5.5.5.3.3.3.2.1.1.-.N P H F U F U U F H H H H H K H K L L L H H H H H H H H H U F U U H H H H H L L K K K L K K K K K K K F U U F H U H H H H H U H H H H K L Y U G F U e = .                 ",
"                      B B V M v -.B.z.A.A.S.A.A.Y.z.0.x b j 2 $ 2 w.b =.l =.%.$.*.$.=.%.%.$.$.%.$.$.$.%.=.=.b A t r q r r q r r e r r r r r r r r r e r e e r e e r e r r r q r e r e r r r e r r r r r r r r r r r r r r r r r r r e e r r r e r e r q e r r q e y u                   ",
"                            2 a z &.:.,.(.(.`.3.,.>.l p 2 $ # X # 1 2 2 2 2 2 4 4 2 2 2 2 2 2 2 4 2 2 2 2 2 1 # X X . O . . . . . . . . . . . . . . . . . . o . . . . . . . . . o . . . . . . . O . . . O . . O . . O . . . . . o . . . . . . . . . . . . . . - . u                     ",
"                            # 1 a t.&.5.Y.I.Y.g.0.i.d 1 # # . . . . . . X X . X X . X . X . X X . X X X X . . . . . . . . . . . . . . . . . . . . . . . . . . . . . . . . . . . . . . . . . . . . . . . . . . . . . . . . . . . . . . . . . . . . . . - . . . . . u                     ",
"                            < 7 h V 7.&.z.;X;X4.-.C j 7 > , , , , , > > : : > > > > > > > > > > > > > > > > > > : : : : : : : : : : : : : : : : : : : : : : : : : : : : : : : : : : : : : : : : > : : : : : : : : : : : : : : : : : : : : : : : : : : + . : < , ,                       ",
"                                  6 a l 9.5.0.l a a +XCXCXBX  BXBXBXVXVXVXVXVXVXBXVXVXVXVXVXVXVXCXVXVXBXBXBXVXBXBXBXBXBXBXBXBXBXBXBXBXVXBXVXBXBXBXBXBXBXBXBXBXBXBXBXBXBXBXBXBXBXBXBXBXBXBXBXBXBXBXBXBXBXBXBXBXBXBXBXBXBXBXBXBXBXBXBXBXBXBXBXBXBXBXBX                                    ",
"                                  # 1 a w.*.*.a 4 1 jX                                                                                                                                                                                                                                  ",
"                                  o # 5 C u.m h $ # hX                                                                                                                                                                                                                                  ",
"                                        A 5 2 jX                                                                                                                                                                                                                                        ",
"                                        # # #                                                                                                                                                                                                                                           ",
"                                        . o o                                                                                                                                                                                                                                           ",
"                                                                                                                                                                                                                                                                                        "
};
