/* XPM */
static char *assets__1__removebg_preview_resized[] = {
/* columns rows colors chars-per-pixel */
"140 42 241 2 ",
"   c None",
".  c #010300",
"X  c #0B0201",
"o  c #040A01",
"O  c #0C0E0B",
"+  c #0A0906",
"@  c #150201",
"#  c #1B0101",
"$  c #130D03",
"%  c #180C0C",
"&  c #051002",
"*  c #0A1603",
"=  c #091804",
"-  c #0D100C",
";  c #121B02",
":  c #161608",
">  c #161614",
",  c #101110",
"<  c #230201",
"1  c #2C0201",
"2  c #290A09",
"3  c #320101",
"4  c #3C0201",
"5  c #360A07",
"6  c #211306",
"7  c #271B18",
"8  c #37170E",
"9  c #172308",
"0  c #1B2117",
"q  c #212915",
"w  c #2F2D10",
"e  c #2C2B2C",
"r  c #292924",
"t  c #3A2927",
"y  c #373928",
"u  c #342D30",
"i  c #343333",
"p  c #3B3938",
"a  c #2D352C",
"s  c #440202",
"d  c #4B0302",
"f  c #430B03",
"g  c #580503",
"h  c #461908",
"j  c #471918",
"k  c #581817",
"l  c #5C160F",
"z  c #680706",
"x  c #691A19",
"c  c #781A17",
"v  c #750F0C",
"b  c #492814",
"n  c #70231A",
"m  c #4B2C29",
"M  c #582827",
"N  c #493735",
"B  c #622624",
"V  c #792726",
"C  c #673835",
"Z  c #7A3531",
"A  c #6E3527",
"S  c #3F551B",
"D  c #374A0A",
"F  c #384227",
"G  c #3D433C",
"H  c #44561C",
"J  c #475215",
"K  c #556D0E",
"L  c #4D740A",
"P  c #51730C",
"I  c #4A6716",
"U  c #4A6816",
"Y  c #4B6619",
"T  c #546818",
"R  c #587211",
"E  c #444720",
"W  c #425A22",
"Q  c #465725",
"!  c #495737",
"~  c #4F433B",
"^  c #674439",
"/  c #4B6227",
"(  c #566832",
")  c #6B7929",
"_  c #6E7331",
"`  c #635D1E",
"'  c #454444",
"]  c #4B4946",
"[  c #54544E",
"{  c #6C4F48",
"}  c #647149",
"|  c #786A69",
" . c #58654D",
".. c #871918",
"X. c #961717",
"o. c #900F0F",
"O. c #BB0D09",
"+. c #A8130B",
"@. c #BA150A",
"#. c #B70D13",
"$. c #A81715",
"%. c #B71A17",
"&. c #A50E0A",
"*. c #91271E",
"=. c #A8261D",
"-. c #B82218",
";. c #8E1821",
":. c #842C29",
">. c #883A35",
",. c #94322C",
"<. c #B1342D",
"1. c #A81620",
"2. c #C1180B",
"3. c #C31715",
"4. c #CD2515",
"5. c #CC220F",
"6. c #C92925",
"7. c #DC3522",
"8. c #DE372A",
"9. c #D63935",
"0. c #D3312A",
"q. c #E53629",
"w. c #E83C33",
"e. c #EC3629",
"r. c #87433A",
"t. c #B44938",
"y. c #D54B39",
"u. c #DD5537",
"i. c #D5502F",
"p. c #E34B2B",
"a. c #ED4D2D",
"s. c #EB4629",
"d. c #F44629",
"f. c #F44C2D",
"g. c #FA4B2E",
"h. c #F54C25",
"j. c #E5522C",
"k. c #EB522E",
"l. c #F3522E",
"z. c #F8512B",
"x. c #ED4E32",
"c. c #EC4D3A",
"v. c #E54736",
"b. c #F44D32",
"n. c #F94A32",
"m. c #F44C39",
"M. c #FB4B3B",
"N. c #F54636",
"B. c #E45331",
"V. c #EC5133",
"C. c #E8553A",
"Z. c #F35233",
"A. c #F35239",
"S. c #955246",
"D. c #BA5749",
"F. c #B5514C",
"G. c #8C6561",
"H. c #D74A47",
"J. c #C85345",
"K. c #DD544B",
"L. c #D75646",
"P. c #CA5854",
"I. c #D75754",
"U. c #DE4E52",
"Y. c #F74C44",
"T. c #E75644",
"R. c #E25756",
"E. c #EF4E41",
"W. c #C66458",
"Q. c #D26555",
"!. c #E76D55",
"~. c #ED7A66",
"^. c #DB6B61",
"/. c #7B9D06",
"(. c #7D9D0F",
"). c #77970D",
"_. c #7E9E11",
"`. c #74991F",
"'. c #7E9D1A",
"]. c #79951D",
"[. c #6D8F1D",
"{. c #7FA00E",
"}. c #7EA007",
"|. c #7FA011",
" X c #7DA019",
".X c #7A9725",
"XX c #6E833D",
"oX c #6F8031",
"OX c #70843E",
"+X c #738436",
"@X c #79892B",
"#X c #758746",
"$X c #768654",
"%X c #6F8241",
"&X c #809E0E",
"*X c #819E12",
"=X c #819E1C",
"-X c #889718",
";X c #858F15",
":X c #81A20C",
">X c #81A111",
",X c #83A11B",
"<X c #93B41D",
"1X c #8FB118",
"2X c #819A24",
"3X c #859B2B",
"4X c #859D34",
"5X c #87973B",
"6X c #899131",
"7X c #88A524",
"8X c #95B42A",
"9X c #93B325",
"0X c #8CA138",
"qX c #ADCF3C",
"wX c #AED03C",
"eX c #9EAB4D",
"rX c #929455",
"tX c #EB876A",
"yX c #DA8B66",
"uX c #B4D445",
"iX c #BAD75A",
"pX c #BCDA5A",
"aX c #B4D05C",
"sX c #B0CC53",
"dX c #B8D363",
"fX c #BAD372",
"gX c #C2D878",
"hX c #E79A87",
"jX c #F7978D",
"kX c #F4AA99",
"lX c #EEA899",
"zX c #F6ABA2",
"xX c #BDD285",
"cX c #FFD8BD",
"vX c #FFC3A7",
"bX c #CECACD",
"nX c #D2CDD2",
"mX c #D3CFD2",
"MX c #FFDCC8",
"NX c #FFE3C9",
"BX c #E1DDE0",
/* pixels */
"                                                                                                                                                                                                                                                                                        ",
"                                                                                                                                                                                                                                                                                        ",
"                                                                                                                                                                                                                                                                                        ",
"                                                                                                                                                                                                                                                                                        ",
"                          r a                             e e e u u u u                                                                                                                                                                                                                 ",
"              # @ # @ X X X . > G                     O o X . o . X X X 7                                                                                                                                                                                                               ",
"            8 < 1 1 3 1 < # # 7 ~                   | % @ @ @ @ # @ X @ t                                                                                                                                                                                                               ",
"          M C C Z :.:.:.:.>.Z C C m t           q N ^ Z Z :.:.:.V V k k M C m t u u u e i i i p p i p i i p i i i i i i i i i i i i i i i i i i i i i p i i i i p i i i i i i i p i i p i i p i i i i i i p i i p i i i p i i i i i p i i p i i i p i i i i i p p i e e i '             ",
"      % 2 5 >.W.W.Q.I.P.P.P.P.D.>.5 5 6       p % 2 A D.Q.K.T.K.H.<.=.:.c s 5 2 % O > O O O - - - - - - - - - - - - - - - O - O - O - - O - O - - - - = - O - O - - - O - - - - - - - - O O O - - - - - - - - O O O O O - - O O O O O - - - - - - - - O O O O , , - - - - > G           ",
"      1 5 d <.J.P.I.P.P.I.U.I.J.*.d 5 h       y 2 3 n J.C.B.x.C.y.6.+.X.c d 3 # X X X X * & & & & & & & & & & & & & & & & & & & & & & & & & & & & & & & & & & & & & & & & & & & & & & & & & & & & & & & & & & & & & & & & & & & & & & = & & & & & & o & & & & & = = & = = ; F           ",
"] ] ^ A r.,.J.y.H.~.jXzXjX!.T.u.<.*.:.^ { ^ { ^ >.,.t.y.x.a.a.a.s.w.8.9.=.v x j < X % E $XXXXX#XOXXX#XXXOXOXXX%XOXOX%XOXOXOXOX%XXXXXOXOXOXOX%X%XOXOXOXOXOXOX%X%XXXXXXXXXXXXXXXOXOXOXOXOX%X%X%XXXOXOX%XXXOXOX%XXXOXOX%XXXOXOXXXXXXX%X%XOX%XXX%XXXXXXXXXXX%XXX%X#X#X#X#X#X#X$X}  .[ [     ",
"O # f S.I.U.K.L.D.hXMXNXvXtXy.B.C.L.W.S.1 % 2 r.W.U.E.N.N.b.a.x.x.N.Y.Y.9.#.1...3 # 6 ( gXiXiXpXpXiXpXiXiXpXpXpXpXpXpXpXpXpXpXpXpXpXpXpXpXpXpXpXpXpXpXpXpXpXiXiXiXiXiXaXaXpXpXpXpXpXpXpXpXpXpXpXpXpXpXpXpXpXpXiXpXpXpXpXpXpXiXiXpXpXpXpXpXpXpXpXpXiXiXiXpXpXpXaXaXdXdXfXfXxX$XO o o     ",
"+ # d J.U.H.R.^.W.hXMXNXvXtXu.p.B.u.L.t.f f g <.H.Y.N.w.n.g.b.x.x.b.M.Y.q.O.#.X.s # : _ aXuXqXuXwXqXuXqXqXqXqXqXwXwXqXqXqXqXqXqXwXwXwXwXqXqXqXqXqXqXqXuXwXwXqXqXqXqXqXuXqXuXqXqXwXwXwXwXqXqXqXqXwXwXwXwXwXwXwXwXwXwXqXqXwXwXuXqXwXwXwXwXwXwXwXwXuXqXqXqXqXuXqXuXuXuXuXuXsXsX#X; 9 q     ",
"X # d F.U.U.jXzXzXlXhXtXtXT.u.j.j.j.L.i.=.=.<.i.B.Y.d.N.n.N.a.g.g.g.d.N.q.O.#.o.s < 6 J eX8X9X8X9X9X8X9X8X9X8X9X8X8X8X8X8X8X8X9X8X8X8X8X8X9X8X8X8X8X9X9X8X8X9X9X9X8X9X8X9X8X8X9X8X8X8X8X8X8X8X8X8X8X8X8X8X8X8X8X8X8X8X8X8X8X8X9X8X8X8X8X8X8X8X8X9X8X8X8X9X9X9X9X<X1X<X<X9X9X].R / ( ! ] ",
"X @ d F.R.R.kXMXNXlXQ.y.j.B.j.k.j.j.C.C.E.E.T.C.B.V.V.A.m.x.s.d.d.g.g.f.7.2.O.o.s # $ J 4X_.)._.).)._._.)._._.(.(._.(.(.(.(.(.(.(.(.(.(.(.(.(.(._.).(.(.).(.(.).(.).).(.).).(.(.(.(._.(.(.(.)._._.(.(.)._.(.).(._.(.(.(.(.(.(.(.).(.|.(.).|.).).).).).).).).)./././././.(.>X_.2X5X} ; + ",
"O X f D.K.H.kXcXMXhXR.c.Z.z.f.k.l.Z.a.x.Y.N.N.A.j.j.B.B.B.B.x.f.h.f.h.s.7.O.2.o.s @ $ J 4X'.|.>X_._._._._.|._.(.>X:X_.(.&X>X(.>X_.>X:X(.>X{._.|.|._.{.(.|.|.{.|.{.{.(.{.(._.{._.(.{.(.(.{.{.|.|.{.|.(.{.{.|.|.{.{.|.(.(._.{.(.(.|.|.{.{.{.|.|.{.|.|.|.|.|.|.{.{.{.{.(.(.{.{./.=X0X+X; * ",
"o $ h J.L.T.yXyXtX!.u.m.m.b.a.f.Z.f.n.M.M.w.n.n.V.j.j.V.B.V.V.Z.f.f.a.x.7.O.#.X.s @ - H 4X,X_._._.(._.|.|.(.(.{.|.{.{.{.|.{.{.{.(.(.{.(.|._.{._._._._._._._._._.|._._._._._._._._._._._._._._._._._._._._._._._._._._._._._._._.|._._._._._._._._._._._._._.|._._.'.'.'._.(.(.*X2XoX; o ",
". @ h t.B.V.i.i.L.T.c.c.m.x.b.f.f.n.g.n.n.n.n.g.f.l.k.j.x.j.j.l.f.f.Z.A.8.O.#.X.4 @ $ J 4X'._._._._._.|.|.|.|.|._._._._._._._._._.|.|._._._._._._._._._._._._._.'._._._._._.'._._._._.'._._._._._._._._._._._._._._._._._._._._._._._._._._._._._.'._._.'._._.'._.'.'.'._._.(._.2X+X; . ",
"X # d t.C.A.C.u.u.B.C.b.V.x.x.x.b.f.n.n.n.n.n.n.f.b.f.b.b.Z.l.f.n.n.M.N.8.#.#.X.s # $ Q 4X,X_.*X_._.(.|.{._._._.(.|._.{.(.|._.{.(._.{._._._._._._._._._._._._._._._.|._._.|._._._.|._.|._._.|._._._._._._._.|._._._._._._._.|._.|.(._._._._._._._._._.|._._.|._._._.'.'.'._.{._.2X+X; o ",
"X # g J.E.b.j.V.V.V.b.x.b.Z.Z.x.b.b.b.n.b.n.g.g.n.g.n.n.n.b.f.a.d.n.M.Y.w.%.#.;.4 @ $ J 4X'.(.{._._.(.{._.{._._.(.{.|.{.(.{._._.{.{._.{.{._.|._.|._._._._._.|._.{._.(.{._.{.(._.{.(.{.(._._.(.{.|._.{._._._._.{._._.{._.|._.(.{._.|._._.{._.{.{._._.|.(.{.|.(.{.{._.'.'.'._.{._.2X+X; . ",
"+ # d F.L.c.p.a.A.x.a.f.z.f.f.b.b.b.b.f.Z.a.b.Z.b.n.n.g.g.n.b.j.V.m.M.Y.8.@.+...4 @ $ T 4X=X_.(.|._._.=X_._._._._._._._._._._._._._._._._._._._._._._._._._._._.|.(.|._.|._.(.|._.(.|.|.|.|._._._._._.|.|._.|.(.|._._._.(.|._._.|.(._._.|._.(.|._._.{._._.|.(.}.}.{._.'.'._.{.*X2X+X; . ",
"O # M S.D.L.T.v.A.C.b.f.f.f.f.n.b.a.V.a.l.k.a.b.b.n.n.n.f.b.Z.V.c.s.w.m.y.=.o.n h : : J 3X_.(.(.|._._.>X_._._._._._._._._._._._._._._._._._._._._._._._._._._._._._._._._._._._._._._._._.(._._._._._._._._._._._._._._._._._._._._._._._._._._._._._._._._._.}.}.{.'.'.'.(.{.&X=XoX= X ",
"      t h z X.@.2.q.f.f.f.f.f.b.V.a.V.k.x.l.b.b.b.b.b.b.f.V.V.A.v.7.4.@.o.g s h ` ) ) 6X2X*X&X&X>X_._.>X|._._._._._._._.|._.(._._._._.|._.{._._._.(.(.{.(.{.(.{.(.|._.(._._.(.{.(.>X_.(.(.|._.|.(._.(.|._.(.(._.(._.(.|.|._.>X(.|.|.(.{.(.|.(._.(.{.(._.{.{.(.{.{.(.'.'.'._.{.(.].+X; . ",
"      $ @ 3 c X.&.6.m.b.g.z.g.f.f.k.k.f.b.b.b.b.b.n.g.a.a.l.A.C.v.0.+.X.v 4 # w oX0X-X-X,X:X&X:X>X>X=X>X*X>X&X&X&X>X_._.*X&X&X:X&X*X(.*X:X*X:X(.:X&X:X&X*X:X&X&X&X&X_.:X&X&X{._.(.*X:X*X:X(.{.(.:X*X:X(.&X_.:X*X:X*X:X(.&X&X&X&X_.(.{._.{.(.:X*X&X>X_.:X*X(.{.{.{.|.'._.|.{.:X>X2X) ; o ",
"      7 7 j x ....-.H.N.e.g.g.z.h.a.a.b.n.m.b.b.f.d.g.h.z.h.x.w.v.<.X.c l 8 7 D [.3X;X*X>X>X>X|.&X&X{._.&X&X&X&X|.(.(.(.:X&X(.&X&X&X&X&X(.(.:X&X&X&X&X&X(.(.&X:X&X&X&X&X(.(.:X&X&X&X&X&X{.{.(.{.&X&X(.&X&X&X&X&X(.(.&X:X&X&X&X&X&X&X&X&X&X:X(.(.&X&X&X&X&X&X&X:X>X:X(.:X:X/.(.>X3X) 9 o ",
"            j k z o.%.3.5.7.l.l.a.f.f.f.A.b.b.n.n.b.f.g.g.e.4.@.-.o.z s b _ _ ) @X=X=X X>X>X|. X_.&X(.{._.(.(._.|.|.(._.(.(.(.(._.(.(.(.{.(.(.(.(.(.(.&X(.(.(.(.(._.(.(.(.(.(.(.(.(.(.(.|.|.(.(._.(.(._.(.(.(.(.(.(.(.(.(.(.(.(.(.(.(.(.(.(.(.(.(.(.(._.(.(._.>X,X*X(.:X:X{.(.]..X+X9 o ",
"            1 3 4 z X.+.-.i.B.V.a.d.g.g.f.Z.k.f.N.Z.b.M.Y.e.3.+.X.g 1 # E rXrX6X3X;X`. X X,X X X_. X X|.|. X_.'. X X X X X X X'. X'. X X X X X X X'. X X X X X X X'. X X X X X X X X|. X X X X X'. X X X X X|. X X X X X X'. X X X X'. X X X X X X'. X X X X'.,X2X,X=X*X{.,X7X4X5X$X* o ",
"            t t M B c c X.i.v.v.s.g.g.z.a.k.k.k.A.b.s.w.Y.9.$...x h 6 ; J 5X6X6X2X.X`.`. X`. X`..X`.`.`..X`.`.`. X`.`. X`.`.`.`.`.`.`.`.`.`.`..X`.`.`.`.`.`.`..X`.`.`.`.`.`..X`.`.`.`..X`.`..X.X`.`.`.`.`.`.`..X`.`.`..X`.`.`.`.`.`.`.`.`.`.`..X`.`.`.`.`.`..X.X.X.X2X].]..X.XoX#X( y y ",
"                  ^ j s z X.-.3.7.N.g.g.p.k.j.j.N.Y.q.3.%.X.z d 5 w H S Y ( K P R L L L L P P P P P P P L P P P L P P P P P L L P P P P P P L P P P P P P P P P P P P P P P P P P P P P P P P P P P P P P P P P P P P P P P P P P P P P P P P P P P P P L L P R K K R K R T D q q w     ",
"                    7 # s v X.#.7.w.f.g.s.l.z.j.c.w.0.#.1...d < + F ( ( / Y Y U I I L U U U U U U U U U U U U U U / U U I I I I I I U U U U U U U U U U I I U U U U U U U I U U I I U U U U U U U U U U I U U I U U I U I U U U U U U I U I I U I U U U I I U Y I I T Y Y Y D o o *     ",
"                    e 7 j B ..X.6.c.s.f.s.z.l.p.v.N.6.X.;.x 5 @ & F G ! Q E / W W / S S W W S S / S W S W S W / S W S W W W W W W W W W W W W W W W W W W W W W W W W W W W W W S W W W W W W S W W W W W S W W W W W W W W W W W W W W W W W W W W W W W W W Q W Q / Q S ! F 9 > q     ",
"                          ^ 4 g o.%.@.5.s.Z.x.4.@.$.o.g 5 1 # X o & = = * = = = = = = = = = , = = = = = = = = 9 ; = = * * & = = = & = = = = = = = = = = = = = = = = = = = = = = = = = = = = = = = = = = = = = = = = = = = = = = = = = = = = = = = = = * = = * * - ; * : = 9 G           ",
"                          N < 4 z 1.&.4.v.E.v.@.+.=.z 1 @ @ X X X . . o o . . . . . . . . . . O o . . . . . 0 e , o . . . . . . o . . o . . . o . . . . . . . . . . . . . . . . . . . . . . . . . . . . . . . . . . . . . . . . . . . . . . . . . . . . . . . . . + o o o - p           ",
"                          u % 8 M V ..=.9.v.9.=.X.c k 8 7 > % % % , , , > > 7 e i u i i u i ] [ ] p u i u p ] ] 0 + . . . . . . . . + + O O , > u i u i i u i i i u i i i u i i i u i i u i u i i i i i u u u i i i u i u u i i u i u e > O + . . . . . . . . . . . + - > >             ",
"                                { 3 d z =.1.$.z d f G.                        nXnXmXnXnXbXnXmXBXBXbXbXnXbXnX                                    nXnXnXnXnXnXnXnXbXnXnXnXbXnXnXnXbXnXnXnXnXnXnXnXnXnXnXnXnXnXnXnXnXnXnXnXnXnXnXnXnXnXbXnX                                                ",
"                                  @ < g :.1.X.g 3 # |                                                                                                                                                                                                                                   ",
"                                  r t M x V x B m u                                                                                                                                                                                                                                     ",
"                                        2 1 2                                                                                                                                                                                                                                           ",
"                                        $ X $                                                                                                                                                                                                                                           ",
"                                        ' N '                                                                                                                                                                                                                                           ",
"                                                                                                                                                                                                                                                                                        ",
"                                                                                                                                                                                                                                                                                        "
};
