/* XPM */
static char *assets__3__removebg_preview_resized[] = {
/* columns rows colors chars-per-pixel */
"140 42 251 2 ",
"   c None",
".  c #030102",
"X  c #0A0101",
"o  c #050B05",
"O  c #0C0907",
"+  c #02030A",
"@  c #050A0A",
"#  c #0B0A0B",
"$  c #0A0108",
"%  c #130101",
"&  c #1C0101",
"*  c #100807",
"=  c #140A0A",
"-  c #090B14",
";  c #0F1115",
":  c #101112",
">  c #14161D",
",  c #18181A",
"<  c #13100F",
"1  c #240101",
"2  c #2C0101",
"3  c #27070B",
"4  c #340101",
"5  c #3A0000",
"6  c #370C08",
"7  c #281717",
"8  c #351613",
"9  c #1F2014",
"0  c #2E231D",
"q  c #1A1C24",
"w  c #1B2330",
"e  c #262935",
"r  c #292B37",
"t  c #302F30",
"y  c #450302",
"u  c #4C0805",
"i  c #5B0202",
"p  c #550A08",
"a  c #46130B",
"s  c #58150C",
"d  c #481816",
"f  c #571B1A",
"g  c #520E11",
"h  c #670708",
"j  c #691B19",
"k  c #781B18",
"l  c #700808",
"z  c #4C2319",
"x  c #41221E",
"c  c #57241A",
"v  c #5A3C15",
"b  c #523B0B",
"n  c #6B251D",
"m  c #532F2E",
"M  c #6D312E",
"N  c #651C23",
"B  c #5B5936",
"V  c #5A5739",
"C  c #4D472A",
"Z  c #6C4538",
"A  c #7B6B3F",
"S  c #654818",
"D  c #333645",
"F  c #30374B",
"G  c #33394C",
"H  c #363946",
"J  c #353E56",
"K  c #2E3546",
"L  c #423B52",
"P  c #374058",
"I  c #394159",
"U  c #3E4755",
"Y  c #3A4249",
"T  c #464A57",
"R  c #544B55",
"E  c #514E59",
"W  c #515254",
"Q  c #71554F",
"!  c #7D6844",
"~  c #7A6059",
"^  c #464F6A",
"/  c #454A68",
"(  c #46526B",
")  c #4A556D",
"_  c #495667",
"`  c #54586A",
"'  c #465271",
"]  c #4A5471",
"[  c #4C5774",
"{  c #525A73",
"}  c #494E6D",
"|  c #59637E",
" . c #59667C",
".. c #5F6667",
"X. c #62677A",
"o. c #60687C",
"O. c #666B78",
"+. c #656767",
"@. c #871615",
"#. c #991717",
"$. c #92100B",
"%. c #B80E05",
"&. c #A71209",
"*. c #A61816",
"=. c #B51B19",
"-. c #B7100F",
";. c #B6231C",
":. c #AD2315",
">. c #8D1E22",
",. c #AC1A24",
"<. c #8B2526",
"1. c #9A2623",
"2. c #983C32",
"3. c #B62825",
"4. c #A52E29",
"5. c #9B241F",
"6. c #C31D0B",
"7. c #C41913",
"8. c #CF291B",
"9. c #D0332B",
"0. c #E63A28",
"q. c #E73C37",
"w. c #C71C25",
"e. c #8F4A34",
"r. c #B1573A",
"t. c #BE672A",
"y. c #BA6928",
"u. c #AB613E",
"i. c #A4673A",
"p. c #B06C36",
"a. c #B1611E",
"s. c #D37D1F",
"d. c #D87B1D",
"f. c #CC7D1E",
"g. c #D7483A",
"h. c #DD523D",
"j. c #CD4E39",
"k. c #EE4E2D",
"l. c #E94829",
"z. c #F34D2D",
"x. c #FA4C2C",
"c. c #F5472B",
"v. c #EC522C",
"b. c #E65028",
"n. c #F3512C",
"m. c #ED4D33",
"M. c #EC4D3A",
"N. c #E84636",
"B. c #F44434",
"V. c #F44C33",
"C. c #FA4B34",
"Z. c #F34C3A",
"A. c #FA4C39",
"S. c #F64638",
"D. c #EC5132",
"F. c #EA533C",
"G. c #F35132",
"H. c #F75338",
"J. c #C3652B",
"K. c #D47B22",
"L. c #C87232",
"P. c #E83E43",
"I. c #8C544F",
"U. c #B75847",
"Y. c #AE5647",
"T. c #91694D",
"R. c #AB6140",
"E. c #A76441",
"W. c #B36C4B",
"Q. c #966562",
"!. c #DB4C44",
"~. c #C95649",
"^. c #D75748",
"/. c #C85A54",
"(. c #D1534C",
"). c #E94C45",
"_. c #F44A42",
"`. c #E75547",
"'. c #EF5647",
"]. c #D06251",
"[. c #E86954",
"{. c #DD7361",
"}. c #CD822A",
"|. c #FEBF22",
" X c #FCBE2C",
".X c #F4BC28",
"XX c #F6AE36",
"oX c #F8AF36",
"OX c #F8AF39",
"+X c #F7B036",
"@X c #FCBE30",
"#X c #F7B63A",
"$X c #EDBE3E",
"%X c #D6A23A",
"&X c #FCC125",
"*X c #F5C32A",
"=X c #FBC22A",
"-X c #F6C133",
";X c #FBC032",
":X c #F2CA35",
">X c #F7C53B",
",X c #EDC535",
"<X c #9A8A5D",
"1X c #CDAD4D",
"2X c #D6AC49",
"3X c #CDA856",
"4X c #D0AF57",
"5X c #F4B545",
"6X c #EDB658",
"7X c #CE956C",
"8X c #E88C77",
"9X c #CBA162",
"0X c #C08349",
"qX c #F5C547",
"wX c #FBDB4E",
"eX c #F7DA4D",
"rX c #FBDB51",
"tX c #F4D951",
"yX c #F1C652",
"uX c #F9D76D",
"iX c #FFEC6E",
"pX c #FCE66B",
"aX c #FFEB72",
"sX c #D8C36F",
"dX c #586381",
"fX c #5F6C81",
"gX c #5F7288",
"hX c #646E8A",
"jX c #646D84",
"kX c #667089",
"lX c #9C9999",
"zX c #918A89",
"xX c #A99997",
"cX c #9CAAA3",
"vX c #A3A5A3",
"bX c #ABA3A3",
"nX c #A4A5AA",
"mX c #A3A39F",
"MX c #F2988A",
"NX c #C3BE86",
"BX c #F6A998",
"VX c #FCBBA9",
"CX c #DDD084",
"ZX c #E6DC82",
"AX c #E6DC89",
"SX c #E3DB94",
"DX c #FEEE85",
"FX c #FFCBBA",
"GX c #FFD9C4",
"HX c #FFE5D1",
"JX c white",
/* pixels */
"                                                                                                                                                                                                                                                                                        ",
"                                                                                                                                                                                                                                                                                        ",
"                                                                                                                                                                                                                                                                                        ",
"                                                                  O.                                                                                                                                                                                                                    ",
"            , * * X X X X . o 9                     R . o o o X X . $ $                                                                                                                                                                                                                 ",
"            0 & & % & % & % % 0 W                   R % & 1 & 1 1 & 3 3                                                                                                                                                                                                                 ",
"            M d c M N N c c c M e.~               Q Q f j j j j N g g d Q.                                                                                                                                                                                                              ",
"      & 1 4 I.W.]./././.].].].Y.c 2 3 t       0 % 6 e.].(.^.^.^.~.1.>.k g 2 % . o : o . + $ $ . $ . $ $ . $ $ $ . $ $ $ $ + + . $ $ $ $ $ $ $ $ $ $ . X O o X X o X X o o O o . . . o + - + + @ + + + + - + + + + + + - + + + + - + + - + + - + - + + + + + # - # + # -                 ",
"      3 2 y 2.~.^.(.(.(.h.j.h.L.k 5 & Q JX  xX8 2 u e.`.F.F.F.).0.*.$.1.i 5 2 % o o o . . . . . . . . . o . . . X X . . o o o . . . . . . . . . . . . . . . X . . . . . . . o o + + + + + + + o + + + + . + + . + + . + + + + . + + + . + + + + + + . + + . + . . . # ; t               ",
"      c j k r.^.^.[.8X8X8Xh.h.j.4.n c Q.xXxXzXM j <.9.F.G.n.V.Z.q.8.8.3.@.h p 3 % o 9 Y V B B V V V B V B B B B V B B B B B B B B B B V B B B V B B B B B B V V V V V V W C t w e r e r r e e e r r e e e e e e e e e e e e e e e e e e e e e e e e r r e r e e t e e r R               ",
", 7 d r.~.~.j.^.j.MXFXFXBX[.F.F.h.~.Y.M 6 3 m I./.^.M.z.v.v.z.C.A.q.N.N.3.#.<.g % X C sXAXAXuXZXsXCXuXAXAXZXAXaXZXZXZXZXZXZXsXaXuXAXZXZXuXAXaXZXuXAXZXZXuXZXZXZXZXAXZXSXAXNX<X.. . .fXfXfX .gX .X.X. .X.X.X.X.jXX.X.X.X.X.X. .jX .X. .jX .X.jXdX . .o.o.X.jXX. .O.O.O.O.T q q           ",
"X % y U.[.`.L.u.Y.BXHXHXFX[.N.Z.Z.`.(.M 2 1 s Y.^._.V.z.v.v.v.V.S.A._.Z.7.-.5.p & % C CXDXaXiXpXaXaXaXaXiXiXiXiXiXiXiXiXiXiXaXiXiXiXiXiXiXaXiXiXaXaXiXiXaXiXiXaXaXaXaXaXDXZXzX..kXo.gXgXkXhXgXgXkXhXhXhXhXhXhXkXhXhXhXhXhXhXhXhXhXhXhXhXhXhXhXhXhXhXhXhXhXhXhXjXkXkXkXkXI + + ;         ",
"o & p r.F.h.8X8X7XBXVXVXMX`.N.V.V.M.^.4.k j <.~.F.C.0.x.n.v.D.V.V.C.C.S.6.&.*.p & % v sXpXtXeXeXrXrXrXrXrXrXwXwXwXwXwXwXwXwXwXwXtXtXwXwXwXwXwXwXwXwXwXwXtXwXrXrXwXrXwXrXpXsXQ.`  . .fX .dX .dXdX| dXdX| | | dX{ { dXjX{ dXdXdXdXdXdXdXdXdXdXdXdXdXdXdXdXdXdXdXdXdX| {  .U w w K         ",
". % u ~.).!.BXGXGXMX{.].`.).G.C.x.m.F.F.j.!.g.F.Z.C.C.C.z.D.D.v.z.V.V.m.6.%.*.i 1 & C 4XyX,X,X,X:X:X:X:X:X:X:X:X:X:X:X:X:X:X:X:X:X:X:X:X:X:X:X:X:X:X:X:X:X:X>X>XqX:X>X>XyXsX! E ` ) ] _ [ ) ) ) [ [ ] ] ) ] ] ] [ [ ] ] ] [ [ ' ] ] ] ] ' [ [ ' ' [ ' ' ] [ } ] { [ { { ) U _ Y q - .   ",
"o % u ~.`.(.VXHXGXMX(.!.M.m.G.n.c.z.Z.Z._.).N.Z.H.c.c.x.x.m.D.z.z.G.n.k.6.%.*.i 2 1 v 4X,X,X*X*X:X*X*X*X*X*X*X*X*X*X*X*X*X*X*X*X*X*X*X*X*X*X*X*X=X*X*X*X=X;X-X-X;X;X;X$XyX1X! R ) ) ' ( ) ' ' ' ( ( ( ' ( ' ( ( ] } ) } } } } ' ' ' ' ' ' ' ' ' ' ' ' ' ' [ [ } ) ] _ _ { _ _ W + + .   ",
"o % u U.!.!.MXVXVXMX(.).M.m.k.z.b.n.V.S.S.A.S.V.C.z.x.B.V.V.D.D.m.n.k.n.6.%.*.h 2 1 v 2X>X=X=X=X*X*X*X*X&X&X&X&X&X&X&X&X*X*X&X&X*X*X&X*X&X&X&X&X&X&X=X&X=X;X@X-X;X;X;X;XyX4X! R ` [ ) ) ) ) ) ) [ ) ] ] ] ] [ ] ] ] ] ] [ [ ' [ ' [ ] ' ' [ ' [ ' [ [ [ ' [ [ } ) ) ) _ _ _ W _ - @ .   ",
"@ % y /.`.`.].].].].!.N.m.n.n.n.n.n.c.z.H.Z.Z.c.l.c.x.c.x.V.m.v.z.G.V.m.6.7.,.h 4 1 v 2X>X X&X&X|.&X|.|.|.|.|.|.|.|.|.|.|.|.&X&X&X&X|.|.|.|.|.|.|.|.|.|.&X&X X@X@X X@X@XqX3XT.R [ [ [ ) ) ) [ ' ) [ ) ) [ ) ) [ ] ] ] ] ] ] ] [ ] [ ] ] ] ] ] ] ] ] ] ' [ ] ] ' ( ] [ _ _ ` _ T o o .   ",
"o % u ~.)._.D.`.h.h.F.M.V.z.z.z.n.x.x.z.m.N.v.G.n.x.z.c.B.x.V.v.z.V.V.Z.7.%.,.h 2 & v 2X;X X&X&X.X&X|.&X|.|.|.&X|.|.|.&X|.|.|.&X|.|.|.|.|.|.|.|.|.&X|.|.&X&X X X X X X@XqX1XA R _ [ _ _ _ [ ) ) ) ) ) [ ) [ ) ) ) ) ] ) ] ] ] ) ] ] ' [ ] [ ] ] ] ] [ ' [ ' ] ] [ ) ) _ ) ` ` U @ + +   ",
"o % u ~.`._.m.F.b.D.m.m.Z.z.x.V.x.z.k.m.D.D.D.m.v.z.z.V.c.k.v.n.x.A._._.7.-.,.l 2 & v 2X>X&X|.|.&X&X&X&X|.|.&X&X&X|.&X&X&X|.&X&X&X&X&X&X&X&X&X&X&X&X&X&X|.|.|.;X=X X X@X5X1XA R [ _ ( ( _ ) ) [ ) ) ) ) ) ) ) [ ) ) ) ) ] ) [ ) ] [ ] ] [ ) ) [ ] ] ] ) ] ] ] ] [ ( ) ( ) _ ` T - + +   ",
". % u U.!.).Z.A.k.k.z.V.V.V.c.V.C.V.Z.m.D.D.D.k.z.z.C.H.G.G.G.k.x.S.q._.w.-.#.g 4 1 b 2XqX X.X&X&X&X&X*X&X&X=X=X&X&X&X&X&X&X&X=X&X&X&X&X&X&X&X&X&X&X&X*X&X|.&X=X=X=X=X@XqX1XA R _ ( _ ( ) ) ) ) ) ) ) ) ) ) ) ) ) ) ) ) ) ) ) ) ) ) ) ] ) [ ) ) ] [ ) [ ] ] ] ] ) ) ) ) _ _ _ T - + @   ",
"X % 6 U.^._.N.z.x.x.x.C.A.A.C.C.C.C.C.V.Z.V.B.V.C.z.V.m.k.k.z.z.C.A._.P.,.*.1.u 2 & b 2X;X=X*X.X=X=X=X*X=X=X=X=X=X=X=X=X=X=X=X=X=X=X=X=X&X*X*X&X=X=X=X=X&X&X=X=X=X&X X*XqX1XA W _ ) _ _ _ ) ) ) [ [ _ [ ) ) ) ) ) ) ) ) ) [ ) [ ) ) ) [ ) ) ) ) ( [ ) [ ] ) ' ] ) ) ) ) ) _ ) T - + -   ",
", % 8 e.U.(.).N.c.c.x.C.A.A.C.A.Z.V.V.V.S.C.C.C.C.Z.m.M.m.m.z.Z.A.B.q.).3.@.k s 6 6 S 2X>X=X.X&X=X=X-X=X=X=X*X=X=X=X*X=X=X=X*X=X=X=X=X&X&X&X=X*X=X=X=X=X&X&X*X=X=X=X*X-XqX1XA W ( _ _ _ _ ) ) ) ) _ _ ) ) ) ) _ ) ) ) ) ) ) ) ) [ ) ) ) ) ) ) ) _ ) ) ) [ ) _ ) ( [ ] ) ) ) ) T - + +   ",
"      z u p #.:.6.8.0.C.V.V.S.V.C.Z.Z.V.V.C.C.C.V.V.Z.m.m.H.l.B.0.=.=.5.l i u i.9X3X2X$X-X*X=X X=X*X*X*X*X-X=X=X=X*X=X=X=X-X=X=X=X=X=X:X:X*X=X=X&X=X*X&X&X&X=X*X=X=X*X=X>X1XA W _ ( ( ( _ ) _ ) ) ) ) ) ) ) ) ) ) ) _ ) ) ( ) ) ) ) ] ) ) ' ) ) [ ) ] ) ) ) ] _ ) ( ) ) ) ( ) T - + +   ",
"      = & y @.#.&.9.H.H.G.Z.m.V.V.G.n.z.z.x.x.V.C.V.m.N.m.C.B.A.l.&.#.@.u y 6 i.6XyX>X-X=X=X=X=X&X=X*X=X=X=X=X=X=X=X=X=X=X=X=X=X=X=X=X&X&X=X=X=X*X*X&X&X&X&X=X=X=X=X*X*XqX1XA T ) ' _ _ _ ) ) ) ) _ ) ) _ ) ) _ ) _ ) ) ) [ ( ) ) ] ( ) ) [ ) ' ) ) ' ] _ ) ) ' ) ( [ ) ) ) ) T - - +   ",
"      : = d N >.#.3.g.b.b.k.Z.m.m.D.v.b.v.v.k.k.z.V.m.M.Z.B.0.m.g.$.$.k s c s p.6X#X.X*X=X&X&X.X&X&X&X&X=X&X=X&X&X&X&X&X&X&X&X&X=X=X&X&X&X&X&X&X&X&X&X&X&X&X=X=X=X=X=X:XqX3XT.R } ] ] } ) ) ) ) ) _ ) ) _ ) ) ) ) ) ) ) ) ) ) ) [ ( ( ) ] ( ) ) ' ) ] ) ) ) _ ) ) ) ( ] ) ) ` T - +     ",
"            f u i @.*.:.;.l.Z.A.m.G.G.v.b.v.v.b.v.m.G.m.N.0.6.=.*.h p a E.3X0X2XqX@X;X&X X&X&X X.X X X&X=X&X&X X&X=X=X X&X X|. X=X&X=X=X X&X&X X=X X X=X&X&X=X=X-X=X=X-XyX3X! R ) ' ' ' ) ) ) ) ] ) ) ) ) ) ) ) ) ) ) ) ) ) ) ) ) ) [ ) ) ) ] ( ) ) ( ) ) ' ' ) ] ) ] ] ) ) _ T -       ",
"            3 3 4 g #.*.=.g._._.S.B.x.n.b.n.b.b.D.Z.D.Z.S.9.&.&.@.u 4 6 9XuX6X5X@XqX#X;X X@X X@X X@X;X X@X X@X@X@X@X@X X@X X@X@X@X=X=X;X X@X X X@X@X@X@X;X=X;X#X@X=X;X>X6X3XA R [ ' ' ' [ ) ) ) _ ] ) ) ) ) ) ) ` ) [ ) ) ) [ ) ) ) ( ) ) ) ( [ _ ' ) ) ] ] ' ' [ } ) { { ` ` E         ",
"            3 8 8 f <.#.:.N.N.q.S.S.n.c.c.b.k.k.G.Z.N.B.N.9.$.@.l s a s 0X2X5X5XOX#XXXXX+X+XXXXX+X+X+X+X+XXX+XXXoX+X+X+XOXoXoXoXoX+X+X+XoX+XoXoXoXoXoXoX+XOXOX5XoXoX+X5X6X9X! R } ' ' ' ) ( ( ( ) ( ( ( ( ( ( _ ^ ^ ^ ( ^ ^ ^ ^ ( ^ ( ^ ^ ^ ( ( ( ( ( ( ( ] ] ( ] ) ^ ` _ T `           ",
"                  Z g i $.=.w.8.q.Z.A.x.x.x.x.x.C.B.8.7.=.$.i u s I.e.2.L.f.}.}.K.}.}.K.f.K.K.s.s.s.s.s.K.s.s.s.s.s.s.K.K.K.K.K.K.K.K.K.K.K.}.d.d.K.s.K.K.K.K.K.d.d.s.}.}.T.Z L L / J J J J I I I I I I P I I I I I I I I I I I P P P P J P P P J J J J P P J J I / G G K w H           ",
"                  m 8 4 i $.#.*.9.'.H.x.x.x.x.C.A.q.w.-.#.l 5 2 8 W.W.].L.J.J.J.a.y.y.y.y.y.y.t.y.t.y.t.t.t.t.t.t.J.t.t.J.t.t.J.J.J.t.J.t.J.t.J.t.J.t.J.t.J.J.J.J.J.y.y.p.T.M t L L G K F G G G G G F F G F G G F F G G G F G F F F F F F F F F G F F F F F J F D G G G e q             ",
"                    0 x f k @.1.g.).l.c.C.C.A.S.S.q.=.$.>.g 2 & 8 Q.T.R.r.r.p.W.i.E.E.E.u.E.E.u.E.R.R.R.u.R.u.u.u.R.R.u.R.R.u.u.R.u.u.u.u.u.u.R.u.u.R.R.R.W.Y.U.r.r.p.u.W.T.Z m m D D D H D H K G D D D D D F H D D D D D D D D K D D D D D D D F D D D D D K G G D H D e               ",
"                        I.f g h 5.;.6.0.x.C.q.8.7.3.@.i g 4 & X = x c z f c c c c c z z z z z z z z z z z z z z z z z z z z z z z z z z z z z z z z z z z z z c c f c c z 0 7 q > ; 3 q , > > > > > > > > > > > > q > > > q > > > > > > > > > > > > > > > > ; q q > q q                 ",
"                          0 3 4 k #.&.8.H.M.q.=.$.$.i 1 & % X X X % X X O % & % % X X X X X X X X X X X X X X X X X X X X X X X X X X X X X X X X X X X X X X X % % % % X % . $ . . . . . . . . . . . . . . . . . . . . . . . . . . . . . . . . . . . . . . . . o @ - -                 ",
"                          0 < 6 j 1.&.8.'.`.!.*.@.k a < : : < < < = o o o # O O * O # O O * * O * * O * O * * * * * * * * O * * * * * * O * O * O $ O O o o o o $ * * = = # - @ @ O o o o O @ # # @ # O @ # # # # # # - # : : : : : : # # # + @ @ # # : : : : > 7 e                     ",
"                                n g l #.w.3.5.l p n ~             ..zXcXcXcXcXvXvXcXnXnXbXbXbXbXbXbXbXbXbXbXbXbXbXbXbXbXbXbXlXlXlXbXbXbXbXbXbXbXbXbXbXvXvXcXcXmXmXvXnXnXnXnXnXnXvXvXvXmXvXvXnXvXvXnXvXnXvXnXvXvXvXlXlXlXzX..                                                            ",
"                                0 2 y l #.1.@.u 4 8 xX                                                                                                                                                                                                                                  ",
"                                < & 2 g <.<.j 2 & 7                                                                                                                                                                                                                                     ",
"                                      M f u f Q.                                                                                                                                                                                                                                        ",
"                                        = & 8                                                                                                                                                                                                                                           ",
"                                        @ + 9                                                                                                                                                                                                                                           ",
"                                                                                                                                                                                                                                                                                        ",
"                                                                                                                                                                                                                                                                                        "
};
