/* XPM */
static char *pacman_up[] = {
/* columns rows colors chars-per-pixel */
"64 62 156 2",
"   c #000000",
".  c #010100",
"X  c #020200",
"o  c #040400",
"O  c #050500",
"+  c #090906",
"@  c #171707",
"#  c #10100B",
"$  c #10100C",
"%  c #11110C",
"&  c #16160A",
"*  c #16160B",
"=  c #17170B",
"-  c #1B1B00",
";  c #1A1A05",
":  c #1B1B04",
">  c #1D1D01",
",  c #1E1E09",
"<  c #1F1F09",
"1  c #202000",
"2  c #2E2E00",
"3  c #2F2F00",
"4  c #292909",
"5  c #2F2F0A",
"6  c #333300",
"7  c #3D3D00",
"8  c #3F3F0B",
"9  c #434300",
"0  c #434301",
"q  c #40400B",
"w  c #41410B",
"e  c #4C4C03",
"r  c #525200",
"t  c #535304",
"y  c #565603",
"u  c #555506",
"i  c #5F5F00",
"p  c #606000",
"a  c #616100",
"s  c #606008",
"d  c #696900",
"f  c #6A6A00",
"g  c #6B6B00",
"h  c #6A6A02",
"j  c #6D6D00",
"k  c #6E6E00",
"l  c #707000",
"z  c #717100",
"x  c #747401",
"c  c #777700",
"v  c #787800",
"b  c #7C7C00",
"n  c #838303",
"m  c #898902",
"M  c #8A8A00",
"N  c #8A8A01",
"B  c #8B8B00",
"V  c #8B8B04",
"C  c #8C8C00",
"Z  c #8D8D00",
"A  c #8D8D01",
"S  c #8D8D03",
"D  c #8D8D05",
"F  c #8E8E04",
"G  c #8F8F04",
"H  c #909003",
"J  c #909004",
"K  c #909005",
"L  c #929205",
"P  c #959505",
"I  c #959506",
"U  c #979706",
"Y  c #999900",
"T  c #9A9A00",
"R  c #9C9C06",
"E  c #9D9D07",
"W  c #99990D",
"Q  c #9A9A0D",
"!  c #9C9C0D",
"~  c #A3A300",
"^  c #A8A801",
"/  c #AEAE00",
"(  c #AEAE03",
")  c #A8A80A",
"_  c #A8A80B",
"`  c #A9A90B",
"'  c #AAAA0A",
"]  c #AAAA0B",
"[  c #ABAB0A",
"{  c #ADAD0A",
"}  c #ACAC0C",
"|  c #B7B702",
" . c #B9B900",
".. c #B8B802",
"X. c #BDBD02",
"o. c #BEBE05",
"O. c #C4C403",
"+. c #C4C404",
"@. c #C4C405",
"#. c #C9C900",
"$. c #CACA00",
"%. c #CACA01",
"&. c #CFCF05",
"*. c #D1D100",
"=. c #D1D104",
"-. c #D3D305",
";. c #DBDB04",
":. c #DCDC00",
">. c #DDDD00",
",. c #DEDE00",
"<. c #DFDF00",
"1. c #DDDD05",
"2. c #E3E300",
"3. c #E4E400",
"4. c #E6E600",
"5. c #E9E900",
"6. c #EAEA00",
"7. c #ECEC00",
"8. c #EDED00",
"9. c #EFEF00",
"0. c #F0F000",
"q. c #F1F100",
"w. c #F1F102",
"e. c #F1F103",
"r. c #F3F300",
"t. c #F3F302",
"y. c #F4F400",
"u. c #F4F402",
"i. c #F6F601",
"p. c #F7F700",
"a. c #F7F701",
"s. c #F7F703",
"d. c #F8F800",
"f. c #F9F900",
"g. c #F8F803",
"h. c #F9F902",
"j. c #F9F903",
"k. c #FAFA00",
"l. c #FAFA01",
"z. c #FBFB00",
"x. c #FBFB01",
"c. c #FAFA02",
"v. c #FBFB02",
"b. c #FBFB03",
"n. c #FCFC00",
"m. c #FCFC01",
"M. c #FDFD00",
"N. c #FDFD01",
"B. c #FCFC02",
"V. c #FCFC03",
"C. c #FDFD02",
"Z. c #FDFD03",
"A. c #FEFE00",
"S. c yellow",
"D. c #FEFE02",
"F. c None",
/* pixels */
"F.F.F.F.F.F.F.F.F.  U b.b.b.b.j   F.F.F.F.F.F.F.F.F.F.F.F.F.F.F.F.F.F.F.F.F.F.F.F.F.F.F.F.F.F.  v b.b.b.b.m   F.F.F.F.F.F.F.F.F.",
"F.F.F.F.F.F.F.F.F.  U b.b.b.d.l   F.F.F.F.F.F.F.F.F.F.F.F.F.F.F.F.F.F.F.F.F.F.F.F.F.F.F.F.F.F.  b b.b.b.b.b.  F.F.F.F.F.F.F.F.F.",
"F.F.F.F.F.F.F.F.F.  U b.b.b.d.l   F.F.F.F.F.F.F.F.F.F.F.F.F.F.F.F.F.F.F.F.F.F.F.F.F.F.F.F.F.F.  n b.b.b.b.b.  F.F.F.F.F.F.F.F.F.",
"F.F.F.F.F.F.F.F.F.  U b.b.b.d.l   F.F.F.F.F.F.F.F.F.F.F.F.F.F.F.F.F.F.F.F.F.F.F.F.F.F.F.F.F.F.  b b.b.b.b.b.  F.F.F.F.F.F.F.F.F.",
"F.F.F.F.            Y b.b.b.b.l   F.F.F.F.F.F.F.F.F.F.F.F.F.F.F.F.F.F.F.F.F.F.F.F.F.F.F.F.F.F.  b b.b.b.b.d.            F.F.F.F.",
"F.F.F.F.  t H H G G -.b.b.b.d.7   F.F.F.F.F.F.F.F.F.F.F.F.F.F.F.F.F.F.F.F.F.F.F.F.F.F.F.F.F.F.  l b.b.b.b.%.H H G G u   F.F.F.F.",
"F.F.F.F.  H b.b.b.b.b.b.b.b.d.l   F.F.F.F.F.F.F.F.F.F.F.F.F.F.F.F.F.F.F.F.F.F.F.F.F.F.F.F.F.F.  b b.b.b.b.b.b.b.b.d.P   F.F.F.F.",
"F.F.F.F.  H b.b.b.b.b.b.b.b.d.l   F.F.F.F.F.F.F.F.F.F.F.F.F.F.F.F.F.F.F.F.F.F.F.F.F.F.F.F.F.F.  b b.b.b.b.b.b.b.b.b.G   F.F.F.F.",
"F.F.F.F.  H b.b.b.b.b.b.b.b.b.l   F.F.F.F.F.F.F.F.F.F.F.F.F.F.F.F.F.F.F.F.F.F.F.F.F.F.F.F.F.F.  n b.b.b.b.b.b.b.b.b.H   F.F.F.F.",
"          U b.b.b.b.b.b.b.b.d.j           F.F.F.F.F.F.F.F.F.F.F.F.F.F.F.F.F.F.F.F.F.F.          b b.b.b.b.b.b.b.b.b.U           ",
"s ) [ ) ) ;.b.b.b.b.b.b.b.b.b.+.[ ) [ ) ;   F.F.F.F.F.F.F.F.F.F.F.F.F.F.F.F.F.F.F.F.  ) [ ) ) ( %.b.b.b.b.b.b.b.b.b.<.) [ ) { 5 ",
"G d.b.d.b.b.b.b.b.b.b.b.b.b.b.d.b.d.b.q.<   F.F.F.F.F.F.F.F.F.F.F.F.F.F.F.F.F.F.F.F.  b.b.b.b.b.b.b.b.b.b.b.b.b.b.b.b.b.d.b.d.w ",
"M b.b.b.b.b.b.b.b.b.b.b.b.b.b.b.b.b.b.i.<   F.F.F.F.F.F.F.F.F.F.F.F.F.F.F.F.F.F.F.F.  b.b.b.b.b.b.b.b.b.b.b.b.b.b.b.b.b.b.b.b.w ",
"M b.b.b.b.b.b.b.b.b.b.b.b.b.b.b.b.b.b.d.<   F.F.F.F.F.F.F.F.F.F.F.F.F.F.F.F.F.F.F.F.  b.b.b.b.b.b.b.b.b.b.b.b.b.b.b.b.b.b.b.b.w ",
"G b.b.b.b.b.b.b.b.b.b.b.b.b.b.b.b.b.b.t.<   F.F.F.F.F.F.F.F.F.F.F.F.F.F.F.F.F.F.F.F.  b.b.b.b.b.b.b.b.b.b.b.b.b.b.b.b.b.b.b.d.w ",
"G b.b.b.b.b.b.b.b.b.b.b.b.b.b.b.b.b.b.t.<   F.F.F.F.F.F.F.F.F.F.F.F.F.F.F.F.F.F.F.F.  b.b.b.b.b.b.b.b.b.b.b.b.b.b.b.b.b.b.b.b.w ",
"M b.b.b.b.b.b.b.b.b.b.b.b.b.b.b.b.b.b.i.<   F.F.F.F.F.F.F.F.F.F.F.F.F.F.F.F.F.F.F.F.  b.b.b.b.b.b.b.b.b.b.b.b.b.b.b.b.b.b.b.b.w ",
"M b.b.b.b.b.b.b.b.b.b.b.b.b.b.b.b.b.b.i.<   F.F.F.F.F.F.F.F.F.F.F.F.F.F.F.F.F.F.F.F.  b.b.b.b.b.b.b.b.b.b.b.b.b.b.b.b.b.b.b.b.w ",
"G b.b.b.b.b.b.b.b.b.b.b.b.b.b.b.b.b.b.i.<           F.F.F.F.F.F.F.F.F.F.F.F.F.        b.b.b.b.b.b.b.b.b.b.b.b.b.b.b.b.b.b.b.b.w ",
"M b.b.b.b.b.b.b.b.b.b.b.b.b.b.b.b.b.b.b...l v v x +   F.F.F.F.F.F.F.F.F.F.F.  e v v x | b.b.b.b.b.b.b.b.b.b.b.b.b.b.b.b.b.b.d.w ",
"G b.b.b.b.b.b.b.b.b.b.b.b.b.b.b.b.b.b.b.b.b.b.b.e.%   F.F.F.F.F.F.F.F.F.F.F.  ! V.b.b.b.b.b.b.b.b.b.b.b.b.b.b.b.b.b.b.b.b.b.b.w ",
"G b.b.b.b.b.b.b.b.b.b.b.b.b.b.b.b.b.b.b.b.b.b.b.q.%   F.F.F.F.F.F.F.F.F.F.F.  ~ b.b.b.b.b.b.b.b.b.b.b.b.b.b.b.b.b.b.b.b.b.b.b.w ",
"M b.b.b.b.b.b.b.b.b.b.b.b.b.b.b.b.b.b.b.b.b.b.b.e.%   F.F.F.F.F.F.F.F.F.F.F.  T b.b.b.b.b.b.b.b.b.b.b.b.b.b.b.b.b.b.b.b.b.b.b.w ",
"G b.b.b.b.b.b.b.b.b.b.b.b.b.b.b.b.b.b.b.b.b.b.b.q.%   F.F.F.F.F.F.F.F.F.F.F.  E b.b.b.b.b.b.b.b.b.b.b.b.b.b.b.b.b.b.b.b.b.b.d.w ",
"M b.b.b.b.b.b.b.b.b.b.b.b.b.b.b.b.b.b.b.b.b.b.b.i.#   F.F.F.F.F.F.F.F.F.F.F.  R b.b.b.b.b.b.b.b.b.b.b.b.b.b.b.b.b.b.b.b.b.b.b.w ",
"M b.b.b.b.b.b.b.b.b.b.b.b.b.b.b.b.b.b.b.b.b.b.b.q.#   F.F.F.F.F.F.F.F.F.F.F.  R b.b.b.b.b.b.b.b.b.b.b.b.b.b.b.b.b.b.b.b.b.b.b.w ",
"H b.b.b.b.b.b.b.b.b.b.b.b.b.b.b.b.b.b.b.b.b.b.b.q.%   F.F.F.F.F.F.F.F.F.F.F.  R b.b.b.b.b.b.b.b.b.b.b.b.b.b.b.b.b.b.b.b.b.b.b.w ",
"G b.b.b.b.b.b.b.b.b.b.b.b.b.b.b.b.b.b.b.b.b.b.b.e.%   F.F.F.F.F.F.F.F.F.F.F.  R b.b.b.b.b.b.b.b.b.b.b.b.b.b.b.b.b.b.b.b.b.b.d.w ",
"M b.b.b.b.b.b.b.b.b.b.b.b.b.b.b.b.b.b.b.b.b.b.b.q.%         F.F.F.F.          R b.b.b.b.b.b.b.b.b.b.b.b.b.b.b.b.b.b.b.b.b.b.b.w ",
"G b.b.b.b.b.b.b.b.b.b.b.b.b.b.b.b.b.b.b.b.b.b.b.d.( j x l j     F.  0 l l l ~ O.b.b.b.b.b.b.b.b.8.T T T Y Y b.b.b.b.b.b.b.b.b.w ",
"M b.b.b.b.b.b.b.b.b.b.b.b.b.b.b.b.b.b.b.b.b.b.b.b.b.b.b.b.8.    F.  H b.b.b.b.b.b.b.b.b.b.b.b.b.$.O O     O b.b.b.b.b.b.b.b.b.w ",
"M d.b.b.b.b.b.b.b.b.b.b.b.b.b.b.b.b.b.b.b.b.b.b.b.b.b.b.b.<.    F.  H b.b.b.b.b.b.b.b.b.b.b.b.b.$.O       O b.b.b.b.b.b.b.b.d.w ",
"G b.b.b.b.b.b.b.b.b.b.b.b.b.b.b.b.b.b.b.b.b.b.b.b.b.b.b.b.@.  F.F.  G d.b.b.b.b.b.b.b.b.b.b.b.b.%.O         b.b.b.b.b.b.b.b.b.w ",
"G b.b.b.b.b.b.b.b.b.b.b.b.b.b.b.b.b.b.b.b.b.b.b.b.b.b.b.d.[         G b.b.b.b.b.b.b.b.b.b.b.b.b.%.O   O     b.b.b.b.b.b.b.b.b.w ",
"G d.b.b.b.b.b.b.b.b.b.b.b.b.b.b.b.b.b.b.b.b.b.b.b.b.b.b.b.*.! ! ! ! @.b.b.b.b.b.b.b.b.b.b.b.b.b.*.3 6 3 3 3 b.b.b.b.b.b.b.b.b.w ",
"G d.b.b.b.b.b.b.b.b.b.b.b.b.b.b.b.b.b.b.b.b.b.b.b.b.b.b.b.b.b.b.b.d.b.b.b.b.b.b.b.b.b.b.b.b.b.b.b.8.q.q.q.i.b.b.b.b.b.b.b.b.d.w ",
"G d.b.b.b.b.b.b.b.b.b.b.b.b.b.b.b.b.b.b.b.b.b.b.b.b.b.b.b.b.b.b.b.b.b.b.b.b.b.b.b.b.b.b.b.b.b.b.b.b.b.b.b.b.b.b.b.b.b.b.b.b.b.w ",
"M d.b.b.b.b.b.b.b.b.b.b.b.b.b.b.b.b.b.b.b.b.b.b.b.b.b.b.b.b.b.b.b.b.b.b.b.b.b.b.b.b.b.b.b.b.b.b.b.b.b.b.b.b.b.b.b.b.b.b.b.b.b.w ",
"G b.b.b.b.b.b.b.b.b.b.b.b.b.b.b.b.b.b.b.b.b.b.b.b.b.b.b.b.b.b.b.b.b.b.b.b.b.b.b.b.b.b.b.b.b.b.b.b.b.b.b.b.b.b.b.b.b.b.b.b.b.b.w ",
"G b.b.b.b.b.b.b.b.b.b.b.b.b.b.b.b.b.b.b.b.b.b.b.b.b.b.b.b.b.b.b.b.b.b.b.b.b.b.b.b.b.b.b.b.b.b.b.b.b.b.b.b.b.b.b.b.b.b.b.b.b.d.w ",
"M d.b.b.b.b.b.b.b.b.b.b.b.b.b.b.b.b.b.b.b.b.b.b.b.b.b.b.b.b.b.b.b.b.b.b.b.b.b.b.b.b.b.b.b.b.b.b.b.b.b.b.b.b.b.b.b.b.b.b.b.b.b.w ",
"G d.b.b.b.b.b.b.b.b.b.b.b.b.b.b.b.b.b.b.b.b.b.b.b.b.b.b.b.b.b.b.b.b.b.b.b.b.b.b.b.b.b.b.b.b.b.b.b.b.b.b.b.b.b.b.b.b.b.b.b.b.b.w ",
"G d.b.b.b.b.b.b.b.b.b.b.b.b.b.b.b.b.b.b.b.b.b.b.b.b.b.b.b.b.b.b.b.b.b.b.b.b.b.b.b.b.b.b.b.b.b.b.b.b.b.b.b.b.b.b.b.b.b.b.b.b.b.w ",
"M d.b.b.b.b.b.b.b.b.b.b.b.b.b.b.b.b.b.b.b.b.b.b.b.b.b.b.b.b.b.b.b.b.b.b.b.b.b.b.b.b.b.b.b.b.b.b.b.b.b.b.b.b.b.b.b.b.b.b.b.b.d.w ",
"G b.b.b.b.b.b.b.b.b.b.b.b.b.b.b.b.b.b.b.b.b.b.b.b.b.b.b.b.b.b.b.b.b.b.b.b.b.b.b.b.b.b.b.b.b.b.b.b.b.b.b.b.b.b.b.b.b.b.b.b.b.b.w ",
"G b.b.b.b.b.b.b.b.b.b.b.b.b.b.b.b.b.b.b.b.b.b.b.b.b.b.b.b.b.b.b.b.b.b.b.b.b.b.b.b.b.b.b.b.b.b.b.b.b.b.b.b.b.b.b.b.b.b.b.b.b.b.w ",
"M q.i.q.i.b.b.b.b.b.b.b.b.b.b.b.b.b.b.b.b.b.b.b.b.b.b.b.b.b.b.b.b.b.b.b.b.b.b.b.b.b.b.b.b.b.b.b.b.b.b.b.b.b.b.b.b.b.d.i.q.i.i.w ",
"9 i a a d / b.b.b.b.b.b.b.b.b.b.b.b.b.b.b.b.b.b.b.b.b.b.b.b.b.b.b.b.b.b.b.b.b.b.b.b.b.b.b.b.b.b.b.b.b.b.b.b.b.b.b.b...j a a d - ",
"          H b.b.b.b.b.b.b.b.b.b.b.b.b.b.b.b.b.b.b.b.b.b.b.b.b.b.b.b.b.b.b.b.b.b.b.b.b.b.b.b.b.b.b.b.b.b.b.b.b.b.b.b.G           ",
"F.F.F.F.  H b.b.b.b.b.b.b.b.b.b.b.b.b.b.b.b.b.b.b.b.b.b.b.b.b.b.b.b.b.b.b.b.b.b.b.b.b.b.b.b.b.b.b.b.b.b.b.b.b.b.b.b.G   F.F.F.F.",
"F.F.F.F.  H b.b.b.b.b.b.b.b.b.b.b.b.b.b.b.b.b.b.b.b.b.b.b.b.b.b.b.b.b.b.b.b.b.b.b.b.b.b.b.b.b.b.b.b.b.b.b.b.b.b.b.b.H   F.F.F.F.",
"F.F.F.F.  U b.b.b.b.b.b.b.b.b.b.b.b.b.b.b.b.b.b.b.b.b.b.b.b.b.b.b.b.b.b.b.b.b.b.b.b.b.b.b.b.b.b.b.b.b.b.b.b.b.b.b.b.H   F.F.F.F.",
"F.F.F.F.  y b.b.8.X.b.b.b.b.b.b.b.b.b.b.b.b.b.b.b.b.b.b.b.b.b.b.b.b.b.b.b.b.b.b.b.b.b.b.b.b.b.b.b.b.b.b.8.d.b.b.b.b.r   F.F.F.F.",
"F.F.F.F.F.        ; b.b.b.b.b.b.b.b.b.b.b.b.b.b.b.b.b.b.b.b.b.b.b.b.b.b.b.b.b.b.b.b.b.b.b.b.b.b.b.b.b.b.<.1           F.F.F.F.F.",
"F.F.F.F.F.F.F.F.  & b.b.b.b.b.b.b.b.b.b.b.b.b.b.b.b.b.b.b.b.b.b.b.b.b.b.b.b.b.b.b.b.b.b.b.b.b.b.b.b.b.b.<.1   F.F.F.F.F.F.F.F.F.",
"F.F.F.F.F.F.F.F.  & b.b.b.b.b.b.b.b.b.b.b.b.b.b.b.b.b.b.b.b.b.b.b.b.b.b.b.b.b.b.b.b.b.b.b.b.b.b.b.b.b.b.<.1   F.F.F.F.F.F.F.F.F.",
"F.F.F.F.F.F.F.F.  & 8.4.4.4...d.b.b.b.b.b.b.b.b.b.b.b.b.b.b.b.b.b.b.b.b.b.b.b.b.b.b.b.b.b.b.b.b.;.4.4.4.*.>   F.F.F.F.F.F.F.F.F.",
"F.F.F.F.F.F.F.F.F.          4 d.b.b.b.b.b.b.b.b.b.b.b.b.b.b.b.b.b.b.b.b.b.b.b.b.b.b.b.b.b.b.b.b.6           F.F.F.F.F.F.F.F.F.F.",
"F.F.F.F.F.F.F.F.F.F.F.F.F.  4 b.b.b.b.b.b.b.b.b.b.b.b.b.b.b.b.b.b.b.b.b.b.b.b.b.b.b.b.b.b.b.b.b.6   F.F.F.F.F.F.F.F.F.F.F.F.F.F.",
"F.F.F.F.F.F.F.F.F.F.F.F.F.  4 d.b.b.b.b.b.b.b.b.b.b.b.b.b.b.b.b.b.b.b.b.b.b.b.b.b.b.b.b.b.b.b.b.6   F.F.F.F.F.F.F.F.F.F.F.F.F.F.",
"F.F.F.F.F.F.F.F.F.F.F.F.F.  4 j.b.b.b.b.b.b.b.b.b.b.b.b.b.b.b.b.b.b.b.b.b.b.b.b.b.b.b.b.b.b.b.b.6   F.F.F.F.F.F.F.F.F.F.F.F.F.F.",
"F.F.F.F.F.F.F.F.F.F.F.F.F.  < G H H H H H H H H H H H H H H H H H H H H H H H H H H H H H H H G >   F.F.F.F.F.F.F.F.F.F.F.F.F.F."
};
