/* XPM */
static char *pacman[] = {
/* columns rows colors chars-per-pixel */
"56 64 135 2",
"   c black",
".  c #010100",
"X  c #030300",
"o  c #050500",
"O  c #080800",
"+  c #191900",
"@  c #1F1F00",
"#  c #3C3C00",
"$  c #3C3C3B",
"%  c #434300",
"&  c #43430C",
"*  c #5F5F5E",
"=  c #5F5F5F",
"-  c #61615F",
";  c #616160",
":  c #616161",
">  c #878700",
",  c #888800",
"<  c #898900",
"1  c #9D9D00",
"2  c #9D9D1C",
"3  c #BCBC00",
"4  c #9D9D44",
"5  c #9D9D4C",
"6  c #C1C100",
"7  c #CECE01",
"8  c #D3D300",
"9  c #D4D400",
"0  c #D7D700",
"q  c #DEDE00",
"w  c #E9E900",
"e  c #FDFD00",
"r  c #FDFD01",
"t  c #FEFE00",
"y  c #FFFF00",
"u  c #FFFF01",
"i  c #FFFF02",
"p  c #FFFF03",
"a  c #FFFF04",
"s  c #FFFF06",
"d  c #FFFF07",
"f  c #FFFF09",
"g  c #FFFF0A",
"h  c #FFFF0B",
"j  c #FFFF0C",
"k  c #FFFF0D",
"l  c #FFFF0E",
"z  c #FFFF16",
"x  c #FFFF1A",
"c  c #FFFF1B",
"v  c #FCFC1D",
"b  c #FCFC1E",
"n  c #FFFF1C",
"m  c #FFFF21",
"M  c #FFFF25",
"N  c #FFFF27",
"B  c #FFFF28",
"V  c #FFFF2A",
"C  c #FFFF2B",
"Z  c #FFFF2C",
"A  c #FFFF2E",
"S  c #FDFD31",
"D  c #FFFF30",
"F  c #FFFF31",
"G  c #FFFF34",
"H  c #FFFF35",
"J  c #FFFF38",
"K  c #FFFF3C",
"L  c #FFFF3D",
"P  c #CECE44",
"I  c #FCFC41",
"U  c #FFFF44",
"Y  c #FFFF45",
"T  c #FFFF46",
"R  c #FFFF49",
"E  c #FFFF4B",
"W  c #FFFF4C",
"Q  c #FFFF50",
"!  c #FFFF53",
"~  c #FFFF54",
"^  c #FFFF55",
"/  c #FFFF56",
"(  c #FFFF59",
")  c #FFFF5F",
"_  c #FFFF62",
"`  c #FFFF64",
"'  c #FFFF65",
"]  c #FFFF66",
"[  c #FFFF69",
"{  c #FFFF6E",
"}  c #FFFF73",
"|  c #FFFF78",
" . c #FFFF7B",
".. c #FFFF7C",
"X. c #9D9D9B",
"o. c #9D9D9D",
"O. c #B4B4AF",
"+. c #B4B4B0",
"@. c #CECEA5",
"#. c #CECEB3",
"$. c #CECEBC",
"%. c #FFFF82",
"&. c #FFFF9A",
"*. c #FFFFA5",
"=. c #FFFFAD",
"-. c #FFFFB6",
";. c #FFFFB7",
":. c #FFFFB8",
">. c #FFFFB9",
",. c #FFFFBB",
"<. c #CECECC",
"1. c #FFFFD0",
"2. c #FFFFD3",
"3. c #FFFFD4",
"4. c #FFFFDD",
"5. c #FFFFDE",
"6. c #FFFFDF",
"7. c #FFFFE7",
"8. c #FFFFE9",
"9. c #FFFFEB",
"0. c #FFFFEC",
"q. c #FFFFED",
"w. c #FFFFF1",
"e. c #FFFFF2",
"r. c #FCFCF9",
"t. c #FDFDFA",
"y. c #FFFFF9",
"u. c #FFFFFA",
"i. c #FFFFFB",
"p. c #FCFCFD",
"a. c #FDFDFD",
"s. c #FFFFFD",
"d. c #FFFFFE",
"f. c gray100",
"g. c None",
/* pixels */
"g.g.g.g.g.g.g.g.g.g.g.g.g.g.g.g.g.g.g.g.g.g.g.g.g.g.g.g.g.g.g.g.g.g.g.g.g.g.g.g.g.g.g.g.g.g.g.g.g.g.g.g.g.g.g.g.",
"g.g.g.g.g.g.g.g.g.g.g.g.g.g.g.g.g.g.g.g.g.g.g.g.g.g.g.g.g.g.g.g.g.g.g.g.g.g.g.g.g.g.g.g.g.g.g.g.g.g.g.g.g.g.g.g.",
"g.g.g.g.g.g.g.g.g.g.g.g.g.g.g.g.g.g.g.g.g.g.g.g.g.g.g.g.g.g.g.g.g.g.g.g.g.g.g.g.g.g.g.g.g.g.g.g.g.g.g.g.g.g.g.g.",
"g.g.g.g.g.g.g.g.g.g.g.g.g.g.g.g.g.g.g.g.g.g.g.g.g.g.g.g.g.g.g.g.g.g.g.g.g.g.g.g.g.g.g.g.g.g.g.g.g.g.g.g.g.g.g.g.",
"g.g.g.g.g.g.g.g.g.g.g.g.g.g.g.g.g.g.g.g.g.g.g.g.g.g.g.g.g.g.g.g.g.g.g.g.g.g.g.g.g.g.g.g.g.g.g.g.g.g.g.g.g.g.g.g.",
"g.g.g.g.g.g.g.g.g.g.g.g.g.g.g.g.O.O.O.O.O.O.O.O.O.O.O.O.O.O.O.O.O.O.O.O.O.O.O.O.O.O.O.O.O.O.O.O.g.g.g.g.g.g.g.g.",
"g.g.g.g.g.g.g.g.g.g.g.g.g.g.g.p.b b b b n n v n n n b b n n b b n n b b b b n n b b b b n n b I u.g.g.g.g.g.g.g.",
"g.g.g.g.g.g.g.g.g.g.g.g.g.g.g.: 1 i i i i i i i i i i i i i i i i i i i i i i i i i i i i i i 2 - g.g.g.g.g.g.g.",
"g.g.g.g.g.g.g.g.g.g.g.g.g.g.g.p.i i i i i i i i i i i i i i i i i i i i i i i i i i i i i i i Z u.g.g.g.g.g.g.g.",
"g.g.g.g.g.g.g.g.g.g.g.g.9.9.9.9.i i i i i i i i i i i i i i i i i i i i i i i i i i i i i i i ` 9.9.9.w.p.g.g.g.",
"g.g.g.g.g.g.g.g.g.g.g.4.T G H H i i i i i i i i i i i i i i i i i i i i i i i i i i i i i i i v H H H } p.g.g.g.",
"g.g.g.g.g.g.g.g.g.g.g.u.i i i i i i i i i i i i i i i i i i i i i i i i i i i i i i i i i i i i i i i / u.g.g.g.",
"g.g.g.g.g.g.g.g.g.g.g.- 7 i i i i i i i i i i i i i i i i i i i i i i i i i i i i i i i i i i i i i i P - g.g.g.",
"g.g.g.g.g.g.g.g.g.g.g.u.i i i i i i i i i i i i i i i i i i i i i i i i i i i i i i i i i i i i i i i ! u.p.p.p.",
"g.g.g.g.g.g.g.p.>.>.;.! i i i i i i i i i i i i i i 0 @ + + + 6 i i i i i i i i i i i i i i i i i i i n i i i N ",
"g.g.g.g.g.g.g.: # i i i i i i i i i i i i i i i i i 8 o       3 i i i i i i i i i i i i i i i i i i i i i i i i ",
"g.g.g.g.g.g.g.p.i i i i i i i i i i i i i i i i i i 8 o       3 i i i i i i i i i i i i i i i i i i i i i i i i ",
"g.g.g.g.u.u.u.p.&.i i i i i i i i i i i i i i i i i 8 O o     3 i i i i i i i i i i i i i i i i i i i i i i i i ",
"g.g.g.g.1.2.2.2.%.i i i i i i i i i i i i i i i i i w , , > > q i i i i i i i i i i i i i i i s L L J L L L L L ",
"g.g.g.u./ f f f i i i i i i i i i i i i i i i i i i i i i i i i i i i i i i i i i i i i i i i Z w.w.w.w.w.w.w.w.",
"g.g.g.- P i i i i i i i i i i i i i i i i i i i i i i i i i i i i i i i i i i i i i i i i i i 2 : g.g.g.g.g.g.g.",
"g.g.g.u./ i i i i i i i i i i i i i i i i i i i i i i i i i i i i i i i i i i i i i i i i i i Z u.g.g.g.g.g.g.g.",
"g.g.g.u.! i i i i i i i i i i i i i i i i i i i i i i i i i i i i i i i i i i f i i i i i i i Z u.g.g.g.g.g.g.g.",
"g.g.g.- P i i i i i i i i i i i i i i i i i i i i i i i i i i i i i i i i i i U X.p.p.p.p.p.p.o.g.g.g.g.g.g.g.g.",
"g.g.g.u./ i i i i i i i i i i i i i i i i i i i i i i i i i i i i i i i i i i U u.g.g.g.g.g.g.g.g.g.g.g.g.g.g.g.",
"g.g.g.u.! i i i i i i i i i i i i i i i i i i i i i i i i i i i i i i i i i i U u.g.g.g.g.g.g.g.g.g.g.g.g.g.g.g.",
"g.g.g.u.! i i i i i i i i i i i i i i i i i i i i i i i i i i n B B B B B B B ) u.g.g.g.g.g.g.g.g.g.g.g.g.g.g.g.",
"g.g.g.u.! i i i i i i i i i i i i i i i i i i i i i i i i i i *.u.u.p.u.p.u.u.p.g.g.g.g.g.g.g.g.g.g.g.g.g.g.g.g.",
"g.g.g.- P i i i i i i i i i i i i i i i i i i i i i i i i i i 4 - g.g.g.g.g.g.g.g.g.g.g.g.g.g.g.g.g.g.g.g.g.g.g.",
"g.g.g.u./ i i i i i i i i i i i i i i i i i i i i i i i i i i { u.g.g.g.g.g.g.g.g.g.g.g.g.g.g.g.g.g.g.g.g.g.g.g.",
"g.g.g.u.! i i i i i i i i i i i i i i i i i i i i i i J W ! H  .u.g.g.g.g.g.g.g.g.g.g.g.g.g.g.g.g.g.g.g.g.g.g.g.",
"g.g.g.- P i i i i i i i i i i i i i i i i i i i i i i 5 u.u.u.$ g.g.g.g.g.g.g.g.g.g.g.g.g.g.g.g.g.g.g.g.g.g.g.g.",
"g.g.g.u.! i i i i i i i i i i i i i i i i i i i i i i  .p.g.g.g.g.g.g.g.g.g.g.g.g.g.g.g.g.g.g.g.g.g.g.g.g.g.g.g.",
"g.g.g.u.! i i i i i i i i i i i i i i i i i i i i i i | p.p.u.8.g.g.g.g.g.g.g.g.g.g.g.g.g.g.g.g.g.g.g.g.g.g.g.g.",
"g.g.g.u./ i i i i i i i i i i i i i i i i i i i i i i m v i s | u.g.g.g.g.g.g.g.g.g.g.g.g.g.g.g.g.g.g.g.g.g.g.g.",
"g.g.g.u.! i i i i i i i i i i i i i i i i i i i i i i i i i i { u.g.g.g.g.g.g.g.g.g.g.g.g.g.g.g.g.g.g.g.g.g.g.g.",
"g.g.g.- P i i i i i i i i i i i i i i i i i i i i i i i i i i 4 - g.g.g.g.g.g.g.g.g.g.g.g.g.g.g.g.g.g.g.g.g.g.g.",
"g.g.g.u.! i i i i i i i i i i i i i i i i i i i i i i i i i i *.u.u.u.u.u.u.u.p.g.g.g.g.g.g.g.g.g.g.g.g.g.g.g.g.",
"g.g.g.u.! i i i i i i i i i i i i i i i i i i i i i i i i i i Z T W W W W T W | p.g.g.g.g.g.g.g.g.g.g.g.g.g.g.g.",
"g.g.g.- P i i i i i i i i i i i i i i i i i i i i i i i i i i i i i i i i i i U - g.g.g.g.g.g.g.g.g.g.g.g.g.g.g.",
"g.g.g.u./ i i i i i i i i i i i i i i i i i i i i i i i i i i i i i i i i i i U u.g.g.g.g.g.g.g.g.g.g.g.g.g.g.g.",
"g.g.g.u./ i i i i i i i i i i i i i i i i i i i i i i i i i i i i i i i i i i U u.u.u.u.u.u.u.p.g.g.g.g.g.g.g.g.",
"g.g.g.u.! i i i i i i i i i i i i i i i i i i i i i i i i i i i i i i i i i i f B N N B N N B T p.g.g.g.g.g.g.g.",
"g.g.g.u.! i i i i i i i i i i i i i i i i i i i i i i i i i i i i i i i i i i i i i i i i i s Z u.g.g.g.g.g.g.g.",
"g.g.g.- P i i i i i i i i i i i i i i i i i i i i i i i i i i i i i i i i i i i i i i i i i i 2 - g.g.g.g.g.g.g.",
"g.g.g.u./ i i i i i i i i i i i i i i i i i i i i i i i i i i i i i i i i i i i i i i i i i i Z p.p.p.p.p.p.p.p.",
"g.g.g.p./ j f f f i i i i i i i i i i i i i i i i i i i i i i i i i i i i i i i i i i i i i i j N N B B N N N B ",
"g.g.g.: @.;.;.;._ i i i i i i i i i i i i i i i i i i i i i i i i i i i i i i i i i i i i i i i i i i i i i i i ",
"g.g.g.g.g.g.g.p.i i i i i i i i i i i i i i i i i i i i i i i i i i i i i i i i i i i i i i i i i i i i i i i i ",
"g.g.g.g.g.g.g.p.i i i i i i i i i i i i i i i i i i i i i i i i i i i i i i i i i i i i i i i i i i i i i i i i ",
"g.g.g.g.g.g.g.p.i i i i i i i i i i i i i i i i i i i i i i i i i i i i i i i i i i i i i i i i i i i v L L L L ",
"g.g.g.g.g.g.g.p.;.>.>.=.z i i i i i i i i i i i i i i i i i i i i i i i i i i i i i i i i i i i i i i ` 7.w.w.w.",
"g.g.g.g.g.g.g.g.$ u.u.<.7 i i i i i i i i i i i i i i i i i i i i i i i i i i i i i i i i i i i i i i P - g.g.g.",
"g.g.g.g.g.g.g.g.g.g.g.u.i i i i i i i i i i i i i i i i i i i i i i i i i i i i i i i i i i i i i i i ! u.g.g.g.",
"g.g.g.g.g.g.g.g.g.g.g.4.G v v v f i i i i i i i i i i i i i i i i i i i i i i i i i i i i i i z v v v _ u.g.g.g.",
"g.g.g.g.g.g.g.g.g.g.g.g.#.4.4.4.U i i i i i i i i i i i i i i i i i i i i i i i i i i i i i i ` 4.4.4.$.: g.g.g.",
"g.g.g.g.g.g.g.g.g.g.g.g.g.g.g.p.i i i i i i i i i i i i i i i i i i i i i i i i i i i i i i i Z u.g.g.g.g.g.g.g.",
"g.g.g.g.g.g.g.g.g.g.g.g.g.g.g.p.i i i i i i i i i i i i i i i i i i i i i i i i i i i i i i i Z u.g.g.g.g.g.g.g.",
"g.g.g.g.g.g.g.g.g.g.g.g.g.g.g.p.i i i i e e e e e e e e i e i i e e e e e e e e i i i i e e e S u.g.g.g.g.g.g.g.",
"g.g.g.g.g.g.g.g.g.g.g.g.g.g.g.: % % % % % % % % % % % % % % % % % % % % % % % % % % % % % % % & * g.g.g.g.g.g.g.",
"g.g.g.g.g.g.g.g.g.g.g.g.g.g.g.g.  o o o o o o o   o o o o o o o o o o o   o o o o o o o o o o   g.g.g.g.g.g.g.g.",
"g.g.g.g.g.g.g.g.g.g.g.g.g.g.g.g.g.g.g.g.g.g.g.g.g.g.g.g.g.g.g.g.g.g.g.g.g.g.g.g.g.g.g.g.g.g.g.g.g.g.g.g.g.g.g.g.",
"g.g.g.g.g.g.g.g.g.g.g.g.g.g.g.g.g.g.g.g.g.g.g.g.g.g.g.g.g.g.g.g.g.g.g.g.g.g.g.g.g.g.g.g.g.g.g.g.g.g.g.g.g.g.g.g.",
"g.g.g.g.g.g.g.g.g.g.g.g.g.g.g.g.g.g.g.g.g.g.g.g.g.g.g.g.g.g.g.g.g.g.g.g.g.g.g.g.g.g.g.g.g.g.g.g.g.g.g.g.g.g.g.g."
};
