/* XPM */
static char *pacman_down[] = {
/* columns rows colors chars-per-pixel */
"64 62 166 2",
"   c #000000",
".  c #010100",
"X  c #010101",
"o  c #020200",
"O  c #020202",
"+  c #030302",
"@  c #030303",
"#  c #040400",
"$  c #050500",
"%  c #040402",
"&  c #040404",
"*  c #050504",
"=  c #050505",
"-  c #060606",
";  c #070706",
":  c #070707",
">  c #080807",
",  c #141400",
"<  c #1F1F15",
"1  c #282800",
"2  c #292901",
"3  c #2E2E00",
"4  c #2F2F00",
"5  c #2C2C0A",
"6  c #202016",
"7  c #232315",
"8  c #33330A",
"9  c #383804",
"0  c #3E3E13",
"q  c #3A3A29",
"w  c #424217",
"e  c #4B4B14",
"r  c #4E4E18",
"t  c #4F4F18",
"y  c #545408",
"u  c #595900",
"i  c #5B5B07",
"p  c #5B5B13",
"a  c #5C5C13",
"s  c #5C5C18",
"d  c #5C5C19",
"f  c #414129",
"g  c #42422A",
"h  c #63630D",
"j  c #696910",
"k  c #6B6B15",
"l  c #707003",
"z  c #777703",
"x  c #747405",
"c  c #72720D",
"v  c #7B7B07",
"b  c #7F7F02",
"n  c #707018",
"m  c #808002",
"M  c #818105",
"N  c #808007",
"B  c #818107",
"V  c #808009",
"C  c #888800",
"Z  c #898900",
"A  c #8A8A00",
"S  c #8E8E00",
"D  c #8E8E01",
"F  c #8F8F00",
"G  c #8E8E07",
"H  c #909000",
"J  c #919100",
"K  c #929200",
"L  c #939300",
"P  c #929204",
"I  c #939304",
"U  c #939305",
"Y  c #949401",
"T  c #979700",
"R  c #999900",
"E  c #9A9A00",
"W  c #9C9C00",
"Q  c #9A9A0E",
"!  c #9F9F12",
"~  c #A7A702",
"^  c #A0A00E",
"/  c #A1A10E",
"(  c #A1A10F",
")  c #A0A011",
"_  c #A2A211",
"`  c #A3A311",
"'  c #A2A212",
"]  c #A3A312",
"[  c #A4A412",
"{  c #A7A713",
"}  c #A4A415",
"|  c #AAAA11",
" . c #A8A814",
".. c #ABAB15",
"X. c #ACAC15",
"o. c #AEAE16",
"O. c #B4B403",
"+. c #B4B40F",
"@. c #B9B907",
"#. c #BABA0F",
"$. c #BDBD0C",
"%. c #BBBB10",
"&. c #BFBF17",
"*. c #BDBD18",
"=. c #C9C900",
"-. c #CACA00",
";. c #C8C807",
":. c #CCCC01",
">. c #CFCF06",
",. c #CACA09",
"<. c #C7C713",
"1. c #C6C614",
"2. c #C7C714",
"3. c #C8C812",
"4. c #C8C813",
"5. c #C9C913",
"6. c #CBCB12",
"7. c #C9C914",
"8. c #D1D100",
"9. c #D4D407",
"0. c #D6D607",
"q. c #D4D409",
"w. c #D5D50A",
"e. c #DCDC07",
"r. c #E2E207",
"t. c #E5E500",
"y. c #E0E009",
"u. c #E0E00B",
"i. c #E9E900",
"p. c #EAEA00",
"a. c #E8E807",
"s. c #EAEA07",
"d. c #ECEC00",
"f. c #EDED00",
"g. c #EFEF00",
"h. c #F0F000",
"j. c #F2F200",
"k. c #F3F300",
"l. c #F5F500",
"z. c #F6F600",
"x. c #F7F703",
"c. c #F5F504",
"v. c #F6F604",
"b. c #F6F605",
"n. c #F8F800",
"m. c #F9F900",
"M. c #F9F901",
"N. c #F9F902",
"B. c #FAFA01",
"V. c #FBFB00",
"C. c #FBFB01",
"Z. c #FBFB03",
"A. c #FCFC00",
"S. c #FCFC01",
"D. c #FDFD00",
"F. c #FDFD01",
"G. c #FCFC02",
"H. c #FCFC03",
"J. c #FDFD02",
"K. c #FDFD03",
"L. c #FEFE00",
"P. c #FEFE01",
"I. c yellow",
"U. c #FEFE02",
"Y. c #FEFE03",
"T. c None",
/* pixels */
"T.T.T.T.T.T.T.T.T.T.T.T.T.  w ` ( ( ` ( ( ` ( ( ` ( ( ` ( ( ` ( ( ` ( ( ` ( ( ` ( ( ` ( ( ` ( ( 8 * T.T.T.T.T.T.T.T.T.T.T.T.T.T.",
"T.T.T.T.T.T.T.T.T.T.T.T.T.= s Z.Z.Z.Z.Z.Z.Z.Z.Z.Z.Z.Z.Z.Z.Z.Z.Z.Z.Z.Z.Z.Z.Z.Z.Z.Z.Z.Z.Z.Z.Z.Z.Z.9   T.T.T.T.T.T.T.T.T.T.T.T.T.T.",
"T.T.T.T.T.T.T.T.T.T.T.T.T.* s Z.Z.Z.Z.Z.Z.Z.Z.Z.Z.Z.Z.Z.Z.Z.Z.Z.Z.Z.Z.Z.Z.Z.Z.Z.Z.Z.Z.Z.Z.Z.Z.Z.9   T.T.T.T.T.T.T.T.T.T.T.T.T.T.",
"T.T.T.T.T.T.T.T.T.T.T.T.T.* s Z.Z.Z.Z.Z.Z.Z.Z.Z.Z.Z.Z.Z.Z.Z.Z.Z.Z.Z.Z.Z.Z.Z.Z.Z.Z.Z.Z.Z.Z.Z.Z.Z.9   T.T.T.T.T.T.T.T.T.T.T.T.T.T.",
"T.T.T.T.T.T.T.T.T.          s Z.Z.Z.Z.Z.Z.Z.Z.Z.Z.Z.Z.Z.Z.Z.Z.Z.Z.Z.Z.Z.Z.Z.Z.Z.Z.Z.Z.Z.Z.Z.Z.Z.9 *         T.T.T.T.T.T.T.T.T.T.",
"T.T.T.T.T.T.T.T.  7 n.l.k.k.8.Z.Z.Z.Z.Z.Z.Z.Z.Z.Z.Z.Z.Z.Z.Z.Z.Z.Z.Z.Z.Z.Z.Z.Z.Z.Z.Z.Z.Z.Z.Z.Z.Z.f.k.l.l.t.,   T.T.T.T.T.T.T.T.T.",
"T.T.T.T.T.T.T.T.= g Z.Z.Z.Z.Z.Z.Z.Z.Z.Z.Z.Z.Z.Z.Z.Z.Z.Z.Z.Z.Z.Z.Z.Z.Z.Z.Z.Z.Z.Z.Z.Z.Z.Z.Z.Z.Z.Z.Z.Z.Z.Z.f.2   T.T.T.T.T.T.T.T.T.",
"T.T.T.T.T.T.T.T.= g Z.Z.Z.Z.Z.Z.Z.Z.Z.Z.Z.Z.Z.Z.Z.Z.Z.Z.Z.Z.Z.Z.Z.Z.Z.Z.Z.Z.Z.Z.Z.Z.Z.Z.Z.Z.Z.Z.Z.Z.Z.Z.f.2   T.T.T.T.T.T.T.T.T.",
"T.T.T.T.T.    * * f Z.Z.Z.Z.Z.Z.Z.Z.Z.Z.Z.Z.Z.Z.Z.Z.Z.Z.Z.Z.Z.Z.Z.Z.Z.Z.Z.Z.Z.Z.Z.Z.Z.Z.Z.Z.Z.Z.Z.Z.Z.Z.f.3   *       T.T.T.T.T.",
"T.T.T.T.* j Z.Z.p.,.Z.Z.Z.Z.Z.Z.Z.Z.Z.Z.Z.Z.Z.Z.Z.Z.Z.Z.Z.Z.Z.Z.Z.Z.Z.Z.Z.Z.Z.Z.Z.Z.Z.Z.Z.Z.Z.Z.Z.Z.Z.Z.l.Z.Z.Z.Z.Z.i * T.T.T.T.",
"T.T.T.T.* ( Z.Z.Z.Z.Z.Z.Z.Z.Z.Z.Z.Z.Z.Z.Z.Z.Z.Z.Z.Z.Z.Z.Z.Z.Z.Z.Z.Z.Z.Z.Z.Z.Z.Z.Z.Z.Z.Z.Z.Z.Z.Z.Z.Z.Z.Z.Z.Z.Z.Z.Z.Z.T * T.T.T.T.",
"T.T.T.T.* ( Z.Z.Z.Z.Z.Z.Z.Z.Z.Z.Z.Z.Z.Z.Z.Z.Z.Z.Z.Z.Z.Z.Z.Z.Z.Z.Z.Z.Z.Z.Z.Z.Z.Z.Z.Z.Z.Z.Z.Z.Z.Z.Z.Z.Z.Z.Z.Z.Z.Z.Z.Z.U   T.T.T.T.",
"T.T.T.T.* ( Z.Z.Z.Z.Z.Z.Z.Z.Z.Z.Z.Z.Z.Z.Z.Z.Z.Z.Z.Z.Z.Z.Z.Z.Z.Z.Z.Z.Z.Z.Z.Z.Z.Z.Z.Z.Z.Z.Z.Z.Z.Z.Z.Z.Z.Z.Z.Z.Z.Z.Z.Z.U * T.T.T.T.",
"  = * = * ( Z.Z.Z.Z.Z.Z.Z.Z.Z.Z.Z.Z.Z.Z.Z.Z.Z.Z.Z.Z.Z.Z.Z.Z.Z.Z.Z.Z.Z.Z.Z.Z.Z.Z.Z.Z.Z.Z.Z.Z.Z.Z.Z.Z.Z.Z.Z.Z.Z.Z.Z.Z.U     = =   ",
"u A A A W @.Z.Z.Z.Z.Z.Z.Z.Z.Z.Z.Z.Z.Z.Z.Z.Z.Z.Z.Z.Z.Z.Z.Z.Z.Z.Z.Z.Z.Z.Z.Z.Z.Z.Z.Z.Z.Z.Z.Z.Z.Z.Z.Z.Z.Z.Z.Z.Z.Z.Z.Z.Z.:.W A A K 8 ",
"K l.n.n.Z.Z.Z.Z.Z.Z.Z.Z.Z.Z.Z.Z.Z.Z.Z.Z.Z.Z.Z.Z.Z.Z.Z.Z.Z.Z.Z.Z.Z.Z.Z.Z.Z.Z.Z.Z.Z.Z.Z.Z.Z.Z.Z.Z.Z.Z.Z.Z.Z.Z.Z.Z.Z.Z.Z.n.n.n.n.s ",
"Y n.Z.Z.Z.Z.Z.Z.Z.Z.Z.Z.Z.Z.Z.Z.Z.Z.Z.Z.Z.Z.Z.Z.Z.Z.Z.Z.Z.Z.Z.Z.Z.Z.Z.Z.Z.Z.Z.Z.Z.Z.Z.Z.Z.Z.Z.Z.Z.Z.Z.Z.Z.Z.Z.Z.Z.Z.Z.Z.Z.Z.Z.a ",
"Y Z.Z.Z.Z.Z.Z.Z.Z.Z.Z.Z.Z.Z.Z.Z.Z.Z.Z.Z.Z.Z.Z.Z.Z.Z.Z.Z.Z.Z.Z.Z.Z.Z.Z.Z.Z.Z.Z.Z.Z.Z.Z.Z.Z.Z.Z.Z.Z.Z.Z.Z.Z.Z.Z.Z.Z.Z.Z.Z.Z.Z.Z.a ",
"Y Z.Z.Z.Z.Z.Z.Z.Z.Z.Z.Z.Z.Z.Z.Z.Z.Z.Z.Z.Z.Z.Z.Z.Z.Z.Z.Z.Z.Z.Z.Z.Z.Z.Z.Z.Z.Z.Z.Z.Z.Z.Z.Z.Z.Z.Z.Z.Z.Z.Z.Z.Z.Z.Z.Z.Z.Z.Z.Z.Z.Z.Z.a ",
"K Z.Z.Z.Z.Z.Z.Z.Z.Z.Z.Z.Z.Z.Z.Z.Z.Z.Z.Z.Z.Z.Z.Z.Z.Z.Z.Z.Z.Z.Z.Z.Z.Z.Z.Z.Z.Z.Z.Z.Z.Z.Z.Z.Z.Z.Z.Z.Z.Z.Z.Z.Z.Z.Z.Z.Z.Z.Z.Z.Z.Z.Z.a ",
"Y Z.Z.Z.Z.Z.Z.Z.Z.Z.Z.Z.Z.Z.Z.Z.Z.Z.Z.Z.Z.Z.Z.Z.Z.Z.Z.Z.Z.Z.Z.Z.Z.Z.Z.Z.Z.Z.Z.Z.Z.Z.Z.Z.Z.Z.Z.Z.Z.Z.Z.Z.Z.Z.Z.Z.Z.Z.Z.Z.Z.Z.Z.a ",
"Y Z.Z.Z.Z.Z.Z.Z.Z.Z.Z.Z.Z.Z.Z.Z.Z.Z.Z.Z.Z.Z.Z.Z.Z.Z.Z.Z.Z.Z.Z.Z.Z.Z.Z.Z.Z.Z.Z.Z.Z.Z.Z.Z.Z.Z.Z.Z.Z.Z.Z.Z.Z.Z.Z.Z.Z.Z.Z.Z.Z.Z.Z.a ",
"Y Z.Z.Z.Z.Z.Z.Z.Z.Z.Z.Z.Z.Z.Z.Z.Z.Z.Z.Z.Z.Z.Z.Z.Z.Z.Z.Z.Z.Z.Z.Z.Z.Z.Z.Z.Z.Z.Z.Z.Z.Z.Z.Z.Z.Z.Z.Z.Z.Z.Z.Z.Z.Z.Z.Z.Z.Z.Z.Z.Z.Z.Z.a ",
"Y Z.Z.Z.Z.Z.Z.Z.Z.Z.Z.Z.Z.Z.Z.Z.Z.Z.Z.Z.Z.Z.Z.Z.Z.Z.Z.Z.Z.Z.Z.Z.Z.Z.Z.Z.Z.Z.Z.Z.Z.Z.Z.Z.Z.Z.Z.Z.Z.Z.Z.Z.Z.Z.Z.Z.Z.Z.Z.Z.Z.Z.Z.a ",
"K Z.Z.Z.Z.Z.Z.Z.Z.Z.Z.Z.Z.Z.Z.Z.Z.Z.Z.Z.Z.Z.Z.Z.Z.Z.Z.Z.Z.Z.Z.Z.Z.Z.Z.Z.Z.Z.Z.Z.Z.Z.Z.Z.Z.Z.Z.Z.Z.Z.Z.Z.Z.Z.Z.Z.Z.Z.Z.Z.Z.Z.Z.a ",
"K Z.Z.Z.Z.Z.Z.Z.Z.Z.Z.Z.Z.Z.Z.Z.Z.Z.Z.Z.Z.Z.Z.Z.Z.Z.Z.Z.Z.Z.Z.Z.Z.Z.Z.Z.Z.Z.Z.Z.Z.Z.Z.Z.Z.Z.Z.Z.Z.Z.Z.Z.Z.Z.Z.Z.Z.Z.Z.Z.Z.Z.Z.a ",
"Y Z.Z.Z.Z.Z.Z.Z.Z.Z.Z.Z.Z.Z.Z.Z.Z.Z.Z.Z.Z.Z.Z.Z.Z.Z.Z.Z.Z.Z.Z.N.Z.Z.Z.Z.Z.Z.Z.Z.Z.Z.Z.Z.Z.Z.Z.Z.Z.k.k.f.l.k.Z.Z.Z.Z.Z.Z.Z.Z.Z.a ",
"Y Z.Z.Z.Z.Z.Z.Z.Z.Z.Z.Z.Z.Z.Z.Z.Z.Z.Z.Z.Z.Z.Z.Z.Z.Z.Z.Z.Z.y.*.1.1.&.9.Z.Z.Z.Z.Z.Z.Z.Z.Z.Z.Z.Z.Z.8.4 3 3 3 3 Z.Z.Z.Z.Z.Z.Z.Z.Z.a ",
"K Z.Z.Z.Z.Z.Z.Z.Z.Z.Z.Z.Z.Z.Z.Z.Z.Z.Z.Z.Z.Z.Z.Z.Z.Z.Z.Z.Z.6.= = * = Q Z.Z.Z.Z.Z.Z.Z.Z.Z.Z.Z.Z.Z.:.*       * Z.Z.Z.Z.Z.Z.Z.Z.Z.a ",
"K Z.Z.Z.Z.Z.Z.Z.Z.Z.Z.Z.Z.Z.Z.Z.Z.Z.Z.Z.Z.Z.Z.Z.Z.Z.Z.Z.Z.e.* T.T.* ( Z.Z.Z.Z.Z.Z.Z.Z.Z.Z.Z.Z.Z.-.*       * Z.Z.Z.Z.Z.Z.Z.Z.Z.a ",
"K Z.Z.Z.Z.Z.Z.Z.Z.Z.Z.Z.Z.Z.Z.Z.Z.Z.Z.Z.Z.Z.Z.Z.Z.Z.Z.Z.Z.f.    T.=  .Z.Z.Z.Z.Z.Z.Z.Z.Z.Z.Z.Z.Z.-.*         Z.Z.Z.Z.Z.Z.Z.Z.Z.a ",
"K Z.Z.Z.Z.Z.Z.Z.Z.Z.Z.Z.Z.Z.Z.Z.Z.Z.Z.Z.Z.Z.Z.Z.Z.Z.Z.Z.Z.l.*   T.= | Z.Z.Z.Z.Z.Z.Z.Z.Z.Z.Z.Z.Z.-.*       * Z.Z.Z.Z.Z.Z.Z.Z.Z.a ",
"Y Z.Z.Z.Z.Z.Z.Z.Z.Z.Z.Z.Z.Z.Z.Z.Z.Z.Z.Z.Z.Z.Z.Z.Z.#.l v v x *   T.= y z z v ~ 9.Z.Z.Z.Z.Z.Z.Z.Z.f.W W W W W Z.Z.Z.Z.Z.Z.Z.Z.Z.a ",
"K Z.Z.Z.Z.Z.Z.Z.Z.Z.Z.Z.Z.Z.Z.Z.Z.Z.Z.Z.Z.Z.Z.Z.l.q         T.T.T.T.*       * #.Z.Z.Z.Z.Z.Z.Z.Z.Z.Z.Z.Z.Z.Z.Z.Z.Z.Z.Z.Z.Z.Z.Z.a ",
"K Z.Z.Z.Z.Z.Z.Z.Z.Z.Z.Z.Z.Z.Z.Z.Z.Z.Z.Z.Z.Z.Z.Z.N.q = T.T.T.T.T.T.T.T.T.T.T.* #.Z.Z.Z.Z.Z.Z.Z.Z.Z.Z.Z.Z.Z.Z.Z.Z.Z.Z.Z.Z.Z.Z.Z.a ",
"K Z.Z.Z.Z.Z.Z.Z.Z.Z.Z.Z.Z.Z.Z.Z.Z.Z.Z.Z.Z.Z.Z.Z.b.q = T.T.T.T.T.T.T.T.T.T.T.* #.Z.Z.Z.Z.Z.Z.Z.Z.Z.Z.Z.Z.Z.Z.Z.Z.Z.Z.Z.Z.Z.Z.Z.a ",
"K Z.Z.Z.Z.Z.Z.Z.Z.Z.Z.Z.Z.Z.Z.Z.Z.Z.Z.Z.Z.Z.Z.Z.b.<   T.T.T.T.T.T.T.T.T.T.T.  +.Z.Z.Z.Z.Z.Z.Z.Z.Z.Z.Z.Z.Z.Z.Z.Z.Z.Z.Z.Z.Z.Z.Z.a ",
"K n.Z.Z.Z.Z.Z.Z.Z.Z.Z.Z.Z.Z.Z.Z.Z.Z.Z.Z.Z.Z.Z.Z.b.q = T.T.T.T.T.T.T.T.T.T.T.= %.Z.Z.Z.Z.Z.Z.Z.Z.Z.Z.Z.Z.Z.Z.Z.Z.Z.Z.Z.Z.Z.Z.Z.a ",
"Y Z.Z.Z.Z.Z.Z.Z.Z.Z.Z.Z.Z.Z.Z.Z.Z.Z.Z.Z.Z.Z.Z.Z.b.q = T.T.T.T.T.T.T.T.T.T.T.= %.Z.Z.Z.Z.Z.Z.Z.Z.Z.Z.Z.Z.Z.Z.Z.Z.Z.Z.Z.Z.Z.Z.Z.a ",
"K Z.Z.Z.Z.Z.Z.Z.Z.Z.Z.Z.Z.Z.Z.Z.Z.Z.Z.Z.Z.Z.Z.Z.b.q = T.T.T.T.T.T.T.T.T.T.T.= %.Z.Z.Z.Z.Z.Z.Z.Z.Z.Z.Z.Z.Z.Z.Z.Z.Z.Z.Z.Z.Z.Z.Z.a ",
"K Z.Z.Z.Z.Z.Z.Z.Z.Z.Z.Z.Z.Z.Z.Z.Z.Z.Z.Z.Z.Z.Z.Z.b.q = T.T.T.T.T.T.T.T.T.T.T.= %.Z.Z.Z.Z.Z.Z.Z.Z.Z.Z.Z.Z.Z.Z.Z.Z.Z.Z.Z.Z.Z.Z.Z.a ",
"K Z.Z.Z.Z.Z.Z.Z.Z.Z.Z.Z.Z.Z.Z.Z.Z.Z.Z.Z.Z.Z.Z.Z.b.q = T.T.T.T.T.T.T.T.T.T.T.= %.Z.Z.Z.Z.Z.Z.Z.Z.Z.Z.Z.Z.Z.Z.Z.Z.Z.Z.Z.Z.Z.Z.Z.a ",
"S Z.Z.Z.Z.Z.Z.Z.Z.Z.Z.Z.Z.Z.Z.Z.Z.Z.Z.Z.;.v M M V <   T.T.T.T.T.T.T.T.T.T.T.& h M M M O.Z.Z.Z.Z.Z.Z.Z.Z.Z.Z.Z.Z.Z.Z.Z.Z.Z.Z.Z.a ",
"S Z.Z.Z.Z.Z.Z.Z.Z.Z.Z.Z.Z.Z.Z.Z.Z.Z.Z.Z.t *   * &   T.T.T.T.T.T.T.T.T.T.T.T.T.  *   * Z.Z.Z.Z.Z.Z.Z.Z.Z.Z.Z.Z.Z.Z.Z.Z.Z.Z.Z.Z.a ",
"K Z.Z.Z.Z.Z.Z.Z.Z.Z.Z.Z.Z.Z.Z.Z.Z.Z.Z.n.t * T.T.T.T.T.T.T.T.T.T.T.T.T.T.T.T.T.T.T.T.  Z.Z.Z.Z.Z.Z.Z.Z.Z.Z.Z.Z.Z.Z.Z.Z.Z.Z.Z.Z.a ",
"K Z.Z.Z.Z.Z.Z.Z.Z.Z.Z.Z.Z.Z.Z.Z.Z.Z.Z.n.t * T.T.T.T.T.T.T.T.T.T.T.T.T.T.T.T.T.T.T.T.* Z.Z.Z.Z.Z.Z.Z.Z.Z.Z.Z.Z.Z.Z.Z.Z.Z.Z.Z.Z.a ",
"S Z.Z.Z.Z.Z.Z.Z.Z.Z.Z.Z.Z.Z.Z.Z.Z.Z.Z.n.t = T.T.T.T.T.T.T.T.T.T.T.T.T.T.T.T.T.T.T.T.  Z.Z.Z.Z.Z.Z.Z.Z.Z.Z.Z.Z.Z.Z.Z.Z.Z.Z.Z.Z.a ",
"K Z.Z.Z.Z.Z.Z.Z.Z.Z.Z.Z.Z.Z.Z.Z.Z.Z.Z.n.t = T.T.T.T.T.T.T.T.T.T.T.T.T.T.T.T.T.T.T.T.  Z.Z.Z.Z.Z.Z.Z.Z.Z.Z.Z.Z.Z.Z.Z.Z.Z.Z.Z.Z.a ",
"S Z.Z.Z.Z.Z.Z.Z.Z.Z.Z.Z.Z.Z.Z.Z.Z.Z.Z.n.t * T.T.T.T.T.T.T.T.T.T.T.T.T.T.T.T.T.T.T.T.* Z.Z.Z.Z.Z.Z.Z.Z.Z.Z.Z.Z.Z.Z.Z.Z.Z.Z.Z.Z.a ",
"S Z.Z.Z.Z.Z.Z.Z.Z.Z.Z.Z.Z.Z.Z.Z.Z.Z.Z.Z.t * T.T.T.T.T.T.T.T.T.T.T.T.T.T.T.T.T.T.T.T.  Z.Z.Z.Z.Z.Z.Z.Z.Z.Z.Z.Z.Z.Z.Z.Z.Z.Z.Z.Z.a ",
"S Z.Z.Z.Z.Z.Z.Z.Z.Z.Z.Z.Z.Z.Z.Z.n.Z.Z.N.t * T.T.T.T.T.T.T.T.T.T.T.T.T.T.T.T.T.T.T.T.  Z.Z.Z.Z.Z.Z.Z.Z.Z.Z.Z.Z.Z.Z.Z.Z.Z.Z.Z.Z.a ",
"c 3.3.6.7.f.Z.Z.Z.Z.Z.Z.Z.Z.Z.0.7.3.7.7.w * T.T.T.T.T.T.T.T.T.T.T.T.T.T.T.T.T.T.T.T.  3.6.6.7.7.r.Z.Z.Z.Z.Z.Z.Z.Z.Z.f.7.6.7.,.e ",
"  = = = > ( Z.Z.Z.Z.Z.Z.Z.Z.Z.T = = = =   T.T.T.T.T.T.T.T.T.T.T.T.T.T.T.T.T.T.T.T.T.T.= = = = = m Z.Z.Z.Z.Z.Z.Z.Z.Z...= = = =   ",
"T.T.T.T.* ( Z.Z.Z.Z.Z.Z.Z.Z.Z.T = T.T.T.T.T.T.T.T.T.T.T.T.T.T.T.T.T.T.T.T.T.T.T.T.T.T.T.T.T.T.  m Z.Z.Z.Z.Z.Z.Z.Z.Z.{ & T.T.T.T.",
"T.T.T.T.* ( Z.Z.Z.Z.Z.Z.Z.Z.Z.T = T.T.T.T.T.T.T.T.T.T.T.T.T.T.T.T.T.T.T.T.T.T.T.T.T.T.T.T.T.T.  m Z.Z.Z.Z.Z.Z.Z.Z.Z...& T.T.T.T.",
"T.T.T.T.  ( Z.Z.Z.Z.Z.Z.Z.Z.Z.T = T.T.T.T.T.T.T.T.T.T.T.T.T.T.T.T.T.T.T.T.T.T.T.T.T.T.T.T.T.T.  m Z.Z.Z.Z.Z.Z.Z.Z.Z...= T.T.T.T.",
"T.T.T.T.= k ` ` ( ( e.Z.Z.Z.Z.T   T.T.T.T.T.T.T.T.T.T.T.T.T.T.T.T.T.T.T.T.T.T.T.T.T.T.T.T.T.T.* m Z.Z.Z.Z.9.` ` ( ` n * T.T.T.T.",
"T.T.T.T.    = = * > o.Z.Z.Z.Z.T = T.T.T.T.T.T.T.T.T.T.T.T.T.T.T.T.T.T.T.T.T.T.T.T.T.T.T.T.T.T.  m Z.Z.Z.Z.Z.= = * * *   T.T.T.T.",
"T.T.T.T.T.T.T.T.T.* X.Z.Z.Z.Z.T = T.T.T.T.T.T.T.T.T.T.T.T.T.T.T.T.T.T.T.T.T.T.T.T.T.T.T.T.T.T.  m Z.Z.Z.Z.Z.  T.T.T.T.T.T.T.T.T.",
"T.T.T.T.T.T.T.T.T.> X.Z.Z.Z.Z.T = T.T.T.T.T.T.T.T.T.T.T.T.T.T.T.T.T.T.T.T.T.T.T.T.T.T.T.T.T.T.  m Z.Z.Z.Z.Z.  T.T.T.T.T.T.T.T.T.",
"T.T.T.T.T.T.T.T.T.$ o.Z.Z.Z.Z.T   T.T.T.T.T.T.T.T.T.T.T.T.T.T.T.T.T.T.T.T.T.T.T.T.T.T.T.T.T.T.  m Z.Z.Z.Z.Z.* T.T.T.T.T.T.T.T.T.",
"T.T.T.T.T.T.T.T.T.* o.Z.Z.Z.Z.Y * T.T.T.T.T.T.T.T.T.T.T.T.T.T.T.T.T.T.T.T.T.T.T.T.T.T.T.T.T.T.* m Z.Z.Z.Z.G   T.T.T.T.T.T.T.T.T."
};
