/* XPM */
static char *pacman_left[] = {
/* columns rows colors chars-per-pixel */
"63 64 166 2",
"   c #000000",
".  c #010101",
"X  c #020200",
"o  c #020201",
"O  c #020202",
"+  c #030302",
"@  c #030303",
"#  c #040400",
"$  c #040403",
"%  c #040404",
"&  c #050504",
"*  c #050505",
"=  c #070705",
"-  c #060606",
";  c #090906",
":  c #0D0D0A",
">  c #0F0F0B",
",  c #10100B",
"<  c #11110C",
"1  c #13130C",
"2  c #15150E",
"3  c #202016",
"4  c #202017",
"5  c #212118",
"6  c #222219",
"7  c #232319",
"8  c #25251A",
"9  c #32320A",
"0  c #393916",
"q  c #2D2D20",
"w  c #484800",
"e  c #494900",
"r  c #4D4D00",
"t  c #4E4E00",
"y  c #4D4D17",
"u  c #4E4E18",
"i  c #4E4E1B",
"p  c #505000",
"a  c #535305",
"s  c #575705",
"d  c #5A5A00",
"f  c #525217",
"g  c #5A5A1A",
"h  c #53532C",
"j  c #55552E",
"k  c #57572C",
"l  c #656500",
"z  c #666600",
"x  c #676700",
"c  c #60600C",
"v  c #696900",
"b  c #6A6A04",
"n  c #6D6D01",
"m  c #6B6B12",
"M  c #777705",
"N  c #75750A",
"B  c #787805",
"V  c #787806",
"C  c #7C7C02",
"Z  c #7E7E00",
"A  c #7F7F00",
"S  c #757519",
"D  c #7C7C1E",
"F  c #8F8F00",
"G  c #808012",
"H  c #848413",
"J  c #858513",
"K  c #868612",
"L  c #878715",
"P  c #83831D",
"I  c #878718",
"U  c #888812",
"Y  c #8A8A15",
"T  c #8B8B16",
"R  c #8D8D15",
"E  c #8B8B18",
"W  c #8B8B19",
"Q  c #8B8B1A",
"!  c #88881E",
"~  c #88881F",
"^  c #89891F",
"/  c #8F8F19",
"(  c #939300",
")  c #9C9C03",
"_  c #949415",
"`  c #929218",
"'  c #939318",
"]  c #AAAA00",
"[  c #ABAB01",
"{  c #ADAD03",
"}  c #AEAE03",
"|  c #B3B302",
" . c #B0B005",
".. c #B4B403",
"X. c #B7B70D",
"o. c #BEBE00",
"O. c #BDBD0D",
"+. c #B3B31A",
"@. c #B4B418",
"#. c #B4B419",
"$. c #B4B41A",
"%. c #B5B51A",
"&. c #B7B71E",
"*. c #C6C600",
"=. c #CCCC02",
"-. c #C9C90D",
";. c #C3C311",
":. c #CACA13",
">. c #C9C914",
",. c #D6D600",
"<. c #D6D603",
"1. c #D7D702",
"2. c #D7D707",
"3. c #D7D70B",
"4. c #D7D70E",
"5. c #DADA07",
"6. c #DDDD00",
"7. c #DFDF02",
"8. c #D8D80B",
"9. c #E1E100",
"0. c #E2E200",
"q. c #E4E408",
"w. c #E8E800",
"e. c #E8E802",
"r. c #E8E805",
"t. c #E9E905",
"y. c #E8E806",
"u. c #EBEB06",
"i. c #EEEE00",
"p. c #EFEF00",
"a. c #EEEE03",
"s. c #EFEF03",
"d. c #F1F101",
"f. c #F2F200",
"g. c #F2F201",
"h. c #F3F303",
"j. c #F2F204",
"k. c #F3F304",
"l. c #F4F400",
"z. c #F5F500",
"x. c #F4F403",
"c. c #F5F502",
"v. c #F6F600",
"b. c #F7F700",
"n. c #F6F603",
"m. c #F8F800",
"M. c #F9F900",
"N. c #FAFA00",
"B. c #FBFB00",
"V. c #FBFB01",
"C. c #FBFB02",
"Z. c #FBFB03",
"A. c #FCFC00",
"S. c #FCFC01",
"D. c #FDFD00",
"F. c #FDFD01",
"G. c #FCFC02",
"H. c #FDFD02",
"J. c #FDFD03",
"K. c #FEFE00",
"L. c #FEFE01",
"P. c yellow",
"I. c #FFFF01",
"U. c #FEFE02",
"Y. c #FCFC04",
"T. c None",
/* pixels */
"T.T.T.T.T.T.T.T.T.$ K V.J.J.V.J.J.J.J.J.V.V.J.J.J.J.V.V.J.J.J.J.V.V.J.J.J.J.V.V.J.J.J.J.V.V.J.V.x   T.T.T.T.T.T.T.T.T.T.T.T.T.",
"T.T.T.T.T.T.T.T.T.* $.J.J.J.J.J.J.J.J.J.J.J.J.J.J.J.J.J.J.J.J.J.J.J.J.J.J.J.J.J.J.J.J.J.J.J.J.J.o.  T.T.T.T.T.T.T.T.T.T.T.T.T.",
"T.T.T.T.T.T.T.T.T.  L J.J.J.J.J.J.J.J.J.J.J.J.J.J.J.J.J.J.J.J.J.J.J.J.J.J.J.J.J.J.J.J.J.J.J.J.J.z   T.T.T.T.T.T.T.T.T.T.T.T.T.",
"T.T.T.T.T.  $   * * $.J.J.J.J.J.J.J.J.J.J.J.J.J.J.J.J.J.J.J.J.J.J.J.J.J.J.J.J.J.J.J.J.J.J.J.J.J.o.*   *   $ T.T.T.T.T.T.T.T.T.",
"T.T.T.T.  g ` ` ` ` ;.J.J.J.J.J.J.J.J.J.J.J.J.J.J.J.J.J.J.J.J.J.J.J.J.J.J.J.J.J.J.J.J.J.J.J.J.J.w.V B B B a   $ T.T.T.T.T.T.T.",
"T.T.T.T.* _ J.J.J.J.J.J.J.J.J.J.J.J.J.J.J.J.J.J.J.J.J.J.J.J.J.J.J.J.J.J.J.J.J.J.J.J.J.J.J.J.J.J.J.Y.J.J.J.}     T.T.T.T.T.T.T.",
"T.T.T.T.  G J.J.J.J.J.J.J.J.J.J.J.J.J.J.J.J.J.J.J.J.J.J.J.J.J.J.J.J.J.J.J.J.J.J.J.J.J.J.J.J.J.J.J.J.J.J.J.]     T.T.T.T.T.T.T.",
"T.T.T.T.* _ J.J.J.J.J.J.J.J.J.J.J.J.J.J.J.J.J.J.J.J.J.J.J.J.J.J.J.J.J.J.J.J.J.J.J.J.J.J.J.J.J.J.J.J.J.J.J.J.    T.T.T.T.T.T.T.",
"        $ _ J.J.J.J.J.J.J.J.J.J.J.J.J.J.J.J.J.J.J.J.J.J.J.J.J.J.J.J.J.J.J.J.J.J.J.J.J.J.J.J.J.J.J.J.J.J.J.J.    T.T.T.T.T.T.T.",
" .J.J.J.V.X.J.J.J.J.J.J.J.J.J.J.J.J.J.J.J.J.J.J.J.J.J.J.J.J.G e e e e A J.J.J.J.J.J.J.J.J.J.J.J.J.J.J.J.J.J.        T.T.T.T.T.",
"J.J.J.J.J.J.J.J.J.J.J.J.J.J.J.J.J.J.J.J.J.J.J.J.J.J.J.J.J.J.t $       t J.J.J.J.J.J.J.J.J.J.J.J.J.J.J.J.J.v.9.9.0.6.    T.T.T.",
"J.J.J.J.J.J.J.J.J.J.J.J.J.J.J.J.J.J.J.J.J.J.J.J.J.J.J.J.J.J.t         t J.J.J.J.J.J.J.J.J.J.J.J.J.J.J.J.J.J.J.J.J.V.    T.T.T.",
"J.J.J.J.J.J.J.J.J.J.J.J.J.J.J.J.J.J.J.J.J.J.J.J.J.J.J.J.J.J.t         t J.J.J.J.J.J.J.J.J.J.J.J.J.J.J.J.J.J.J.J.J.V.    T.T.T.",
"J.J.J.J.J.J.J.J.J.J.J.J.J.J.J.J.J.J.J.J.J.J.J.J.J.J.J.J.J.J.t $ $ $   t J.J.J.J.J.J.J.J.J.J.J.J.J.J.J.J.J.J.J.J.J.V.    @   @ ",
"1.1.1.1.1.1.1.1.1.9.v.J.J.J.J.J.J.J.J.J.J.J.J.J.J.J.J.J.J.J.( z x z z F J.J.J.J.J.J.J.J.J.J.J.J.J.J.J.J.J.J.J.J.J.v.* $ *   * ",
"; $   $ $ $ $   $ $ @.J.J.J.J.J.J.J.J.J.J.J.J.J.J.J.J.J.J.J.J.J.J.J.J.J.J.J.J.J.J.J.J.J.J.J.J.J.J.J.J.J.J.J.J.J.J.V.=.| ..| ..",
"        $         * &.J.J.J.J.J.J.J.J.J.J.J.J.J.J.J.J.J.J.J.J.J.J.J.J.J.J.J.J.J.J.J.J.J.J.J.J.J.J.J.J.J.J.J.J.J.J.J.J.J.J.J.J.",
"T.T.T.T.T.T.T.T.T.  K J.J.J.J.J.J.J.J.J.J.J.J.J.J.J.J.J.J.J.J.J.J.J.J.J.J.J.J.J.J.J.J.J.J.J.J.J.J.J.J.J.J.J.J.J.J.J.J.J.J.J.J.",
"T.T.T.T.T.T.T.T.T.* $.J.J.J.J.J.J.J.J.J.J.J.J.J.J.J.J.J.J.J.J.J.J.J.J.J.J.J.J.J.J.J.J.J.J.J.J.J.J.J.J.J.J.J.J.J.J.J.J.J.J.J.J.",
"T.T.T.T.T.T.T.T.T.  K J.J.J.J.J.J.J.J.V.J.J.J.J.J.J.J.J.J.J.J.J.J.J.J.J.J.J.J.J.J.J.J.J.J.J.J.J.J.J.J.J.J.J.J.J.J.J.J.J.J.J.J.",
"T.T.T.T.T.T.T.T.T.T.    $   $         : d.J.J.J.J.J.J.J.J.J.J.J.J.J.J.J.J.J.J.J.J.J.J.J.J.J.J.J.J.J.J.J.J.J.J.J.J.J.J.J.J.J.J.",
"T.T.T.T.T.T.T.T.T.T.  $         @   @ < d.J.J.J.J.J.J.J.J.J.J.J.J.J.J.J.J.J.J.J.J.J.J.J.J.J.J.J.J.J.J.J.J.J.J.J.J.J.J.J.J.J.J.",
"T.T.T.T.T.T.T.T.T.T.T.T.T.T.T.T.T.T.  < i.J.J.J.J.J.J.J.J.J.J.J.J.J.J.J.J.J.J.J.J.J.J.J.J.J.J.J.J.J.J.J.J.J.J.J.J.J.J.J.J.J.J.",
"T.T.T.T.T.T.T.T.T.T.T.T.T.T.T.T.T.T.  < i.V.J.J.J.V.J.J.J.J.J.J.J.J.J.J.J.J.J.J.J.J.J.J.J.J.J.J.J.J.J.J.J.J.J.J.J.J.J.J.J.J.J.",
"T.T.T.T.T.T.T.T.T.T.T.T.T.T.T.T.T.T.  ; I Q Q Q Q Q Q Q Q Q 5.J.J.J.J.J.J.J.J.J.J.J.J.J.J.J.J.J.J.J.J.J.J.J.J.J.J.J.J.J.J.J.J.",
"T.T.T.T.T.T.T.T.T.T.T.T.T.T.T.T.T.T.T.  * * * * * * * * * * } J.J.J.J.J.J.J.J.J.J.J.J.J.J.J.J.J.J.J.J.J.J.J.J.J.J.J.J.J.J.J.J.",
"T.T.T.T.T.T.T.T.T.T.T.T.T.T.T.T.T.T.T.T.T.T.T.T.T.T.T.T.  * } J.J.J.J.J.J.J.J.J.J.J.J.J.J.J.J.J.J.J.J.J.J.J.J.J.J.J.J.J.J.J.J.",
"T.T.T.T.T.T.T.T.T.T.T.T.T.T.T.T.T.T.T.T.T.T.T.T.T.T.T.T.  $ } J.J.J.J.J.J.J.J.J.J.J.J.J.J.J.J.J.J.J.J.J.J.J.J.J.J.J.J.J.J.J.J.",
"T.T.T.T.T.T.T.T.T.T.T.T.T.T.T.T.T.T.T.T.T.T.T.T.T.T.T.T.  @ { Y.J.J.J.J.J.J.J.J.J.J.J.J.J.J.J.J.J.J.J.J.J.J.J.J.J.J.J.J.J.J.J.",
"T.T.T.T.T.T.T.T.T.T.T.T.T.T.T.T.T.T.T.T.T.T.T.T.T.T.T.T.    c P D S m 4.J.J.J.J.J.J.J.J.J.J.J.J.J.J.J.J.J.J.J.J.J.J.J.J.J.J.J.",
"T.T.T.T.T.T.T.T.T.T.T.T.T.T.T.T.T.T.T.T.T.T.T.T.T.T.T.T.T.T.- * $   * :.J.J.J.J.J.J.J.J.J.J.J.J.J.J.J.J.J.J.J.J.J.J.J.J.J.J.J.",
"T.T.T.T.T.T.T.T.T.T.T.T.T.T.T.T.T.T.T.T.T.T.T.T.T.T.T.T.T.T.T.T.T.T.$ :.J.J.J.J.J.J.J.J.J.J.J.J.J.J.J.J.J.J.J.J.J.J.J.J.J.J.J.",
"T.T.T.T.T.T.T.T.T.T.T.T.T.T.T.T.T.T.T.T.T.T.T.T.T.T.T.T.T.T.      *   :.J.J.J.J.J.J.J.J.J.J.J.J.J.J.J.J.J.J.J.J.J.J.J.J.J.J.J.",
"T.T.T.T.T.T.T.T.T.T.T.T.T.T.T.T.T.T.T.T.T.T.T.T.T.T.T.T.  * s i.d 9 i :.J.J.J.J.J.J.J.J.J.J.J.J.J.J.J.J.J.J.J.J.J.J.J.J.J.J.J.",
"T.T.T.T.T.T.T.T.T.T.T.T.T.T.T.T.T.T.T.T.T.T.T.T.T.T.T.T.  $ } V.d.q.8.v.J.J.J.J.J.J.J.J.J.J.J.J.J.J.J.J.J.J.J.J.J.J.J.J.J.J.J.",
"T.T.T.T.T.T.T.T.T.T.T.T.T.T.T.T.T.T.T.T.T.T.T.T.T.T.T.T.  * } J.J.J.J.J.J.J.J.J.J.J.J.J.J.J.J.J.J.J.J.J.J.J.J.J.J.J.J.J.J.J.J.",
"T.T.T.T.T.T.T.T.T.T.T.T.T.T.T.T.T.T.T.T.T.T.T.T.T.T.T.T.$ $ } J.J.J.J.J.J.J.J.J.J.J.J.J.J.J.J.J.J.J.J.J.J.J.J.J.J.J.J.J.J.J.J.",
"T.T.T.T.T.T.T.T.T.T.T.T.T.T.T.T.T.T.T.  @ @ - * * * * * $ $ } J.J.J.J.J.J.J.J.J.J.J.J.J.J.J.J.J.J.J.J.J.J.J.J.J.J.J.J.J.J.J.J.",
"T.T.T.T.T.T.T.T.T.T.T.T.T.T.T.T.T.T.  @ h j j j j j k j h h -.J.J.J.J.J.J.J.J.J.J.J.J.J.J.J.J.J.J.J.J.J.J.J.J.J.J.J.J.J.J.J.J.",
"T.T.T.T.T.T.T.T.T.T.T.T.T.T.T.T.T.T.@ < i.V.V.J.V.J.J.J.J.J.J.J.J.J.J.J.J.J.J.J.J.J.J.J.J.J.J.J.J.J.J.J.J.J.J.J.J.J.J.J.J.J.J.",
"T.T.T.T.T.T.T.T.T.T.T.T.T.T.T.T.T.T.  < d.J.J.J.J.J.J.J.J.J.J.J.J.J.J.J.J.J.J.J.J.J.J.J.J.J.J.J.J.J.J.J.J.J.J.J.J.J.J.J.J.J.J.",
"T.T.T.T.T.T.T.T.T.T.T.T.T.T.T.T.T.T.  : s.J.J.J.J.J.J.J.J.J.J.J.J.J.J.J.J.J.J.J.J.J.J.J.J.J.J.J.J.J.J.J.J.J.J.J.J.J.J.J.J.J.J.",
"T.T.T.T.T.T.T.T.T.T.  * * $ * * * * @ ; d.J.J.J.J.J.J.J.J.J.J.J.J.J.J.J.J.J.J.J.J.J.J.J.J.J.J.J.J.J.J.J.J.J.J.J.J.J.J.J.J.J.J.",
"T.T.T.T.T.T.T.T.T.$ 0 y i y y y i y i f v.J.J.J.J.J.J.J.J.J.J.J.J.J.J.J.J.J.J.J.J.J.J.J.J.J.J.J.J.J.J.J.J.J.J.J.J.J.J.J.J.J.J.",
"T.T.T.T.T.T.T.T.T.* $.d.d.v.d.v.d.v.d.v.J.J.J.J.J.J.J.J.J.J.J.J.J.J.J.J.J.J.J.J.J.J.J.J.J.J.J.J.J.J.J.J.J.J.J.J.J.J.J.J.J.J.J.",
"T.T.T.T.T.T.T.T.T.* $.J.J.J.J.J.J.J.J.J.J.J.J.J.J.J.J.J.J.J.J.J.J.J.J.J.J.J.J.J.J.J.J.J.J.J.J.J.J.J.J.J.J.J.J.J.J.J.J.J.J.J.J.",
"T.T.T.T.T.T.T.T.T.* @.J.J.J.J.J.J.J.J.J.J.J.J.J.J.J.J.J.J.J.J.J.J.J.J.J.J.J.J.J.J.J.J.J.J.J.J.J.J.J.J.J.J.J.J.J.J.J.J.J.J.J.J.",
"  * $ * * *   * $ $ @.J.J.J.J.J.J.J.J.J.J.J.J.J.J.J.J.J.J.J.J.J.J.J.J.J.J.J.J.J.J.J.J.J.J.J.J.J.J.J.J.J.J.J.J.J.J.J.J.J.J.J.J.",
"b n n n n n n n n B O.J.J.J.J.J.J.J.J.J.J.J.J.J.J.J.J.J.J.J.J.J.J.J.J.J.J.J.J.J.J.J.J.J.J.J.J.J.J.J.J.J.J.J.J.J.J.J.J.J.J.J.J.",
"v.d.v.d.d.v.d.v.d.v.V.J.J.J.J.J.J.J.J.J.J.J.J.J.J.J.J.J.J.J.J.J.J.J.J.J.J.J.J.J.J.J.J.J.J.J.J.J.J.J.J.J.J.J.J.J.J.w.L L L L R ",
"J.J.J.J.J.J.J.J.J.J.J.J.J.J.J.J.J.J.J.J.J.J.J.J.J.J.J.J.J.J.J.J.J.J.J.J.J.J.J.J.J.J.J.J.J.J.J.J.J.J.J.J.J.J.J.J.J.V.  * * * $ ",
"J.J.J.J.J.J.J.J.J.J.J.J.J.J.J.J.J.J.J.J.J.J.J.J.J.J.J.J.J.J.J.J.J.J.J.J.J.J.J.J.J.J.J.J.J.J.J.J.J.J.J.J.J.J.J.J.J.,.    T.T.T.",
"J.J.J.J.J.J.J.J.J.J.J.J.J.J.J.J.J.J.J.J.J.J.J.J.J.J.J.J.J.J.J.J.J.J.J.J.J.J.J.J.J.J.J.J.J.J.J.J.J.J.J.J.J.J.J.J.J.v.    T.T.T.",
"8.8.8.8.3.i.J.J.J.J.J.J.J.J.J.J.J.J.J.J.J.J.J.J.J.J.J.J.J.J.J.J.J.J.J.J.J.J.J.J.J.J.J.J.J.J.J.J.J.J.J.J.J.J.J.J.V.V.$   T.T.T.",
"8 8 8 8 q L J.J.J.J.J.J.J.J.J.J.J.J.J.J.J.J.J.J.J.J.J.J.J.J.J.J.J.J.J.J.J.J.J.J.J.J.J.J.J.J.J.J.J.J.J.J.J.5.I ^ ~ ~     T.T.T.",
"  $   $ @ ` J.J.J.J.J.J.J.J.J.J.J.J.J.J.J.J.J.J.J.J.J.J.J.J.J.J.J.J.J.J.J.J.J.J.J.J.J.J.J.J.J.J.J.J.J.J.J.J.  * * * T.T.T.T.T.",
"T.T.T.T.$ _ J.J.J.J.J.J.J.J.J.J.J.J.J.J.J.J.J.J.J.J.J.J.J.J.J.J.J.J.J.J.J.J.J.J.J.J.J.J.J.J.J.J.J.J.J.J.J.J.    T.T.T.T.T.T.T.",
"T.T.T.T.  G J.J.J.J.J.J.J.J.J.J.J.J.J.J.J.J.J.J.J.J.J.J.J.J.J.J.J.J.J.J.J.J.J.J.J.J.J.J.J.J.J.J.J.J.J.J.J.{     T.T.T.T.T.T.T.",
"T.T.T.T.$ R t.t.w.t.v.J.J.J.J.J.J.J.J.J.J.J.J.J.J.J.J.J.J.J.J.J.J.J.J.J.J.J.J.J.J.J.J.J.J.J.J.J.d.w.w.t.t.)     T.T.T.T.T.T.T.",
"T.T.T.T.  2 3 3 3 8 Q J.J.J.J.J.J.J.J.J.J.J.J.J.J.J.J.J.J.J.J.J.J.J.J.J.J.J.J.J.J.J.J.J.J.J.J.J.N 6 3 3 3 8 T.T.T.T.T.T.T.T.T.",
"T.T.T.T.T.  * * $ $ G V.J.J.J.J.J.J.J.J.J.J.J.J.J.J.J.J.J.J.J.J.J.J.J.J.J.J.J.J.J.J.J.J.J.J.J.V.z   * * *   T.T.T.T.T.T.T.T.T.",
"T.T.T.T.T.T.T.T.T.$ $.J.J.J.J.J.J.J.J.J.J.J.J.J.J.J.J.J.J.J.J.J.J.J.J.J.J.J.J.J.J.J.J.J.J.J.J.J.o.$ T.T.T.T.T.T.T.T.T.T.T.T.T.",
"T.T.T.T.T.T.T.T.T.* $.J.J.J.J.J.J.J.J.J.J.J.J.J.J.J.J.J.J.J.J.J.J.J.J.J.J.J.J.J.J.J.J.J.J.J.J.V.o.* T.T.T.T.T.T.T.T.T.T.T.T.T.",
"T.T.T.T.T.T.T.T.T.* $.V.J.J.J.J.V.J.J.J.J.J.V.V.J.V.J.J.V.V.J.V.V.J.V.V.V.V.V.J.V.V.V.V.V.J.V.V.*.* T.T.T.T.T.T.T.T.T.T.T.T.T."
};
