/* XPM */
static char *pd[] = {
/* columns rows colors chars-per-pixel */
"64 64 257 2",
"   c black",
".  c #28193A",
"X  c #381934",
"o  c #2D2C33",
"O  c #342039",
"+  c #101445",
"@  c #191541",
"#  c #161C52",
"$  c #1C245F",
"%  c #1F2966",
"&  c #261E4B",
"*  c #221943",
"=  c #2C214C",
"-  c #21255D",
";  c #302042",
":  c #3E2141",
">  c #3D2841",
",  c #3C2C4D",
"<  c #322450",
"1  c #32265F",
"2  c #393A41",
"3  c #21316B",
"4  c #233B72",
"5  c #254478",
"6  c #43192B",
"7  c #4A1E2B",
"8  c #541D28",
"9  c #5C1C35",
"0  c #4E202C",
"q  c #47243C",
"w  c #4B283B",
"e  c #4A2438",
"r  c #572129",
"t  c #592228",
"y  c #5C292B",
"u  c #582932",
"i  c #5C342C",
"p  c #59313C",
"a  c #5F3C3B",
"s  c #701D32",
"d  c #642C29",
"f  c #6D2739",
"g  c #673028",
"h  c #6C3328",
"j  c #673131",
"k  c #673930",
"l  c #6C3432",
"z  c #6E3B31",
"x  c #723728",
"c  c #753A2C",
"v  c #7A3D2A",
"b  c #763F36",
"n  c #432A44",
"m  c #4C3B47",
"M  c #66164C",
"N  c #69164A",
"B  c #751946",
"V  c #7D1B43",
"C  c #7E412B",
"Z  c #734D3D",
"A  c #454146",
"S  c #41434A",
"D  c #564E53",
"F  c #51535B",
"G  c #565960",
"H  c #595D65",
"J  c #5E626A",
"K  c #65425D",
"L  c #6F5143",
"P  c #675458",
"I  c #635A59",
"U  c #6A5858",
"Y  c #704C41",
"T  c #61666D",
"R  c #6F6D75",
"E  c #656A71",
"W  c #6B7179",
"Q  c #776E67",
"!  c #7D6B67",
"~  c #71777D",
"^  c #767F75",
"/  c #7B7770",
"(  c #7E7B79",
")  c #737073",
"_  c #3D7885",
"`  c #747A81",
"'  c #797F86",
"]  c #2C89AF",
"[  c #2E8DB1",
"{  c #3497B7",
"}  c #3EABB7",
"|  c #2FB6C3",
" . c #33B9C5",
".. c #3BBECA",
"X. c #4E9999",
"o. c #499EA3",
"O. c #4CA1A4",
"+. c #44A3B7",
"@. c #53A7B0",
"#. c #7D8489",
"$. c #6FA7BE",
"%. c #40ADC4",
"&. c #44B3C7",
"*. c #45B5C9",
"=. c #47B8CA",
"-. c #53BBC4",
";. c #66BECF",
":. c #40C2CD",
">. c #48C7D1",
",. c #4ECBD4",
"<. c #51CCD6",
"1. c #6CD5DD",
"2. c #7DDAE1",
"3. c #901F3C",
"4. c #97233C",
"5. c #99243B",
"6. c #A12637",
"7. c #A02638",
"8. c #AB2A34",
"9. c #B22D33",
"0. c #BB3030",
"q. c #BC3B39",
"w. c #871D40",
"e. c #893342",
"r. c #81442D",
"t. c #844D3F",
"y. c #8A4D31",
"u. c #8B5233",
"i. c #905635",
"p. c #925A36",
"a. c #955D38",
"s. c #976039",
"d. c #9A653A",
"f. c #9D683D",
"g. c #8F5965",
"h. c #896F56",
"j. c #8B6D5E",
"k. c #9E6940",
"l. c #9C7971",
"z. c #BE504B",
"x. c #A26E42",
"c. c #A57344",
"v. c #A87746",
"b. c #A97947",
"n. c #AB6779",
"m. c #BB6D75",
"M. c #B8766B",
"N. c #C23532",
"B. c #C43A34",
"V. c #CC3D36",
"C. c #C63C3B",
"Z. c #C2433D",
"A. c #CB4337",
"S. c #CD4338",
"D. c #D44239",
"F. c #D34A3A",
"G. c #DB4D3C",
"H. c #D8443A",
"J. c #D7513F",
"K. c #DD533D",
"L. c #E0543F",
"P. c #CB554B",
"I. c #C35D53",
"U. c #D1574E",
"Y. c #E55C41",
"T. c #E46041",
"R. c #E96443",
"E. c #EC6A45",
"W. c #E06453",
"Q. c #9C7D81",
"!. c #928468",
"~. c #918578",
"^. c #888875",
"/. c #AB8C44",
"(. c #BE8557",
"). c #BB865B",
"_. c #A88378",
"`. c #BF9769",
"'. c #C39256",
"]. c #CC9562",
"[. c #DF8266",
"{. c #DC8C6F",
"}. c #DE8E70",
"|. c #D09767",
" X c #D59A6E",
".X c #D89E73",
"XX c #DC9E78",
"oX c #D7A352",
"OX c #DCAA7F",
"+X c #DCA47B",
"@X c #D9BD68",
"#X c #E2B34F",
"$X c #E0A07D",
"%X c #81868C",
"&X c #858C92",
"*X c #908E8B",
"=X c #9A9596",
"-X c #9DA3A7",
";X c #9DA4A9",
":X c #A29593",
">X c #BF9B89",
",X c #A6ADB0",
"<X c #A9AFB2",
"1X c #A8B1B5",
"2X c #B6B7B5",
"3X c #B1B5B8",
"4X c #B2B9BC",
"5X c #B9BFC1",
"6X c #88CAD7",
"7X c #BCC2C4",
"8X c #B3C5CD",
"9X c #BDCED3",
"0X c #C5A88C",
"qX c #C7B7A2",
"wX c #CFBEA5",
"eX c #E2A784",
"rX c #E3AA86",
"tX c #E4AC88",
"yX c #E0B697",
"uX c #C0C2BE",
"iX c #DEC5B1",
"pX c #E1C097",
"aX c #EBC69E",
"sX c #EFD595",
"dX c #E0CCAB",
"fX c #EDCDA4",
"gX c #EED1A8",
"hX c #EED9B9",
"jX c #F0DBB1",
"kX c #F0DEBC",
"lX c #C3C7C8",
"zX c #C4C8C9",
"xX c #CCCDC7",
"cX c #CDCDCB",
"vX c #CDCFD0",
"bX c #D5D5D4",
"nX c #D8D7D6",
"mX c #DADAD6",
"MX c #DEDDDA",
"NX c #D1EEEE",
"BX c #DFE2E1",
"VX c #DDF0ED",
"CX c #EFE1C2",
"ZX c #EFE3C9",
"AX c #E3E1DB",
"SX c #E9E6DD",
"DX c #EEE8D9",
"FX c #F0E0C0",
"GX c #EEEBE1",
"HX c #EEEEEE",
"JX c #E3E4E1",
"KX c #E2F3F2",
"LX c #F0EEE5",
"PX c #F7F6F3",
"IX c #F8F7F2",
"UX c #FBFBF8",
"YX c None",
/* pixels */
"YXYXYXYXYXYXYXYXYXYXYXYXYXYXYXYXYXYXYXYXYXYXYXYXYX6 6 0 7 7 7 6 7 7 6 6 YXYXYXYXYXYXYXYXYXYXYXYXYXYXYXYXYXYXYXYXYXYXYXYXYXYXYXYX",
"YXYXYXYXYXYXYXYXYXYXYXYXYXYXYXYXYXYXYXYXYXYXYXYXYX6 y g h c g 7 x h 0 6 YXYXYXYXYXYXYXYXYXYXYXYXYXYXYXYXYXYXYXYXYXYXYXYXYXYXYXYX",
"YXYXYXYXYXYXYXYXYXYXYXYXYXYXYXYXYXYXYXYXYXYXYXYXYX. . O O O ; & , , = YXYXYXYXYXYXYXYXYXYXYXYXYXYXYXYXYXYXYXYXYXYXYXYXYXYXYXYXYX",
"YXYXYXYXYXYXYXYXYXYXYXYXYXYXYXYXYXYXYXYXYXYXYXYXYX+ + + + # # $ 3 4 % YXYXYXYXYXYXYXYXYXYXYXYXYXYXYXYXYXYXYXYXYXYXYXYXYXYXYXYXYX",
"YXYXYXYXYXYXYXYXYXYXYXYXYXYXYXYXYXYXYXYXYXYXYXYXYX+ + + + # # % 3 5 % YXYXYXYXYXYXYXYXYXYXYXYXYXYXYXYXYXYXYXYXYXYXYXYXYXYXYXYXYX",
"YXYXYXYXYXYXYXYXYXYXYXYXYXYXYXYXYXYXYXYXYXYXYXYXYX+ + + + # & - 3 5 % YXYXYXYXYXYXYXYXYXYXYXYXYXYXYXYXYXYXYXYXYXYXYXYXYXYXYXYXYX",
"YXYXYXYXYXYXYXYXYXYXYXYXYXYXYXYXYXYXYXYXYXYXYXYXYX+ + + + * u q 3 5 % YXYXYXYXYXYXYXYXYXYXYXYXYXYXYXYXYXYXYXYXYXYXYXYXYXYXYXYXYX",
"YXYXYXYXYXYXYXYXYXYXYXYXYXYXYXYXYXYXYXYXYXYXYXYXYX+ + + @ y v x n 5 % YXYXYXYXYXYXYXYXYXYXYXYXYXYXYXYXYXYXYXYXYXYXYXYXYXYXYXYXYX",
"YXYXYXYXYXYXYXYXYXYXYXYXYXYXYXYXYXYXYXYXYXYXYXYXYX+ @ 0 d r.C C w 5 % YXYXYXYXYXYXYXYXYXYXYXYXYXYXYXYXYXYXYXYXYXYXYXYXYXYXYXYXYX",
"YXYXYXYXYXYXYXYXYXYXYXYXYXYXYXYXYXYXYXYXYXYXYXYXYX+ X c s.f.s.C w 4 % YXYXYXYXYXYXYXYXYXYXYXYXYXYXYXYXYXYXYXYXYXYXYXYXYXYXYXYXYX",
"YXYXYXYXYXYXYXYXYXYXYXYXYXYXYXYXYXYXYXYXYXYXYXYXYXX u u.b.v.c.k.j < % YXYXYXYXYXYXYXYXYXYXYXYXYXYXYXYXYXYXYXYXYXYXYXYXYXYXYXYXYX",
"YXYXYXYXYXYXYXYXYXYXYXYXYXYXYXYXYXYXYXYXYXYXYXYX8 d u.s.c.c.c.v.u.: % YXYXYXYXYXYXYXYXYXYXYXYXYXYXYXYXYXYXYXYXYXYXYXYXYXYXYXYXYX",
"YXYXYXYXYXYXYXYXYXYXYXYXYXYXYXYXYXYXYXYXYXYXYXYXm a C p.k.c.c.f.k.c 8 YX| YXYXYXYXYXYXYXYXYXYXYXYXYXYXYXYXYXYXYXYXYXYXYXYXYXYXYX",
"YXYXYXYXYXYXYXYXYXYXYXYXYXYXYXYXYXYXYXYXYXYXYXYX .O.L C i.c.k.a.u.b 8 | ..| YXYXYXYXYXYXYXYXYXYXYXYXYXYXYXYXYXYXYXYXYXYXYXYXYXYX",
"YXYXYXYXYXYXYXYXYXYXYXYXYXYXYXYXYXYXYXYXYXYXYX| >.,.o.Z C i.k.u.p.h _ :.<...| YXYXYXYXYXYXYXYXYXYXYXYXYXYXYXYXYXYXYXYXYXYXYXYXYX",
"YXYXYXYXYXYXYXYXYXYXYXYXYXYXYXYXYXYXYXYXYXYXYX| ..@.^.).).k.C C v t _  .-.^ `.].YXYXYXYXYXYXYXYXYXYXYXYXYXYXYXYXYXYXYXYXYXYXYXYX",
"YXYXYXYXYXYXYXYXYXYXYXYXYXYXYXYXYXYXYXYXYXYXYX].|.|.+XtXrX.XoX@X#.#.#.} X.j.tXtX].].W ` #.#.#.YXYXYXYXYXYXYXYXYXYXYXYXYXYXYXYXYX",
"YXYXYXYXYXYXYXYXYXYXYXYXYXYXYXYXYXYXYXYXYXYX].|.$XrXfXFXhXeX'.j.4XMXuX1X+XaXkXCXyX].W ;XmXxX1X1XYXYXYXYXYXYXYXYXYXYXYXYXYXYXYXYX",
"YXYXYXYXYXYXYXYXYXYXYXYXYXYXYXYXYXYXYXYXYXYX].XXrXfXFX0X( ~.!.h.#.zXAXBXdXhXDX*X*XQ J ~ 7XAXBXbXYXYXYXYXYXYXYXYXYXYXYXYXYXYXYXYX",
"YXYXYXYXYXYXYXYXYXYXYXYXYXYXYXYXYXYXYXYXYX]. X$XgXFXsX#X/.S J F T 7XAXUXmXDXGXo 2 J J F 4XMXPXBXYXYXYXYXYXYXYXYXYXYXYXYXYXYXYXYX",
"YXYXYXYXYXYXYXYXYXYXYXYXYXYXYXYXYXYXYXYXYX]. X$XjXZXl.z k i A W 7XMXLXKX9XYXF F o 2 E ,XMXGXKX9XYXYXYXYXYXYXYXYXYXYXYXYXYXYXYXYX",
"YXYXYXYXYXYXYXYXYXYXYXYXYXYXYXYXYXYXYXYXYX].]. XpX_.p R ) Y U ,XMXLXNX1.] W ~ ~ F G =XbXLXKX2.{ YXYXYXYXYXYXYXYXYXYXYXYXYXYXYXYX",
"YXYXYXYXYXYXYXYXYXYXYXYXYXYXYXYXYXYXYXYX8 j t.).(.b P 3X4X&X<XbXLXNX1. .] W ;X7X&X;XvXJXKX6X=.[ YXYXYXYXYXYXYXYXYXYXYXYXYXYXYXYX",
"YXYXYXYXYXYXYXYXYXYXYXYXYXYXYXYXYXYXYXYXt d h l l h U cXbXvXMXDXKX1.%.] YXW 2XmXvXmXJXPX1.=.[ ] YXYXYXYXYXYXYXYXYXYXYXYXYXYXYXYX",
"YXYXYXYXYXYXYXYXYXYXYXYXYXYXYXYXYXYXYXYX8 g h x x x r.! AXLXLXKX<.+.D t YXYX` xXLXLXKX1.=.] YXYXYXYXYXYXYXYXYXYXYXYXYXYXYXYXYXYX",
"YXYXYXYXYXYXYXYXYXYXYXYXYXYXYXYXYXYXYXYX8 t h x x v r.v :XHXHX;.+.D g 8 YXYXYX1XHXHX6X&.] YXYXYXYXYXYXYXYXYXYXYXYXYXYXYXYXYXYXYX",
"YXYXYXYXYXYXYXYXYXYXYXYXYXYXYXYXYXYXYXYXYX8 d y x h f f e.n.m.g.K y 8 8 YXYXYXYXbXbX$.] YXYXYXYXYXYXYXYXYXYXYXYXYXYXYXYXYXYXYXYX",
"YXYXYXYXYXYXYXYXYXYXYXYXYXYXYXYXYXYXYXYXYXYXYX8 t 9 B 3.3.9.V.V.8.s 8 YXYXYXYXYXYXYXYXYXYXYXYXYXYXYXYXYXYXYXYXYXYXYXYXYXYXYXYXYX",
"YXYXYXYXYXYXYXYXYXYXYXYXYXYXYXYXYXYXYXYX3.w.N M YX9 w.8.P.W.W.W.U.5.YXYXYXYXYXYXYXYXYXYXYXYXYXYXYXYXYXYXYXYXYXYXYXYXYXYXYXYXYXYX",
"YXYXYXYXYXYXYXYXYXYXYXYXYXYXYXYXYXYXYXYX5.q.w.N M M V z.dX=XwXjXQ.5.YXYXYXYXYXYXYXYXYXYXYXYXYXYXYXYXYXYXYXYXYXYXYXYXYXYXYXYXYXYX",
"YXYXYXYXYXYXYXYXYXYXYXYXYXYXYXYXYXYXYXYX5.P.0.w.B M s z.>X% :XjX1 B M YXYXYXYXYXYXYXYXYXYXYXYXYXYXYXYXYXYXYXYXYXYXYXYXYXYXYXYXYX",
"YXYXYXYXYXYXYXYXYXYXYXYXYXYXYXYXYXYXYXYX4.4.8.C.8.V w.9.I.qXiXjXM.6.w.YXYXYXYXYXYXYXYXYXYXYXYXYXYXYXYXYXYXYXYXYXYXYXYXYXYXYXYXYX",
"YXYXYXYXYXYXYXYXYXYXYXYXYXYXYXYXYXYXYXYXYX4.C.N.5.0.9.0.Z.{.{.{.[.S.9.YXYXYXYXYXYXYXYXYXYXYXYXYXYXYXYXYXYXYXYXYXYXYXYXYXYXYXYXYX",
"YXYXYXYXYXYXYXYXYXYXYXYXYXYXYXYXYXYXYXYXYX0.A.V.0.V.N.G.S.F.D.H.Y.q.3.YXYXYXYXYXYXYXYXYXYXYXYXYXYXYXYXYXYXYXYXYXYXYXYXYXYXYXYXYX",
"YXYXYXYXYXYXYXYXYXYXYXYXYXYXYXYXYXYXYXYXYXYX6.G.V.N.F.F.E.E.R.Y.V.0.YXYXYXYXYXYXYXYXYXYXYXYXYXYXYXYXYXYXYXYXYXYXYXYXYXYXYXYXYXYX",
"YXYXYXYXYXYXYXYXYXYXYXYXYXYXYXYXYXYXYXYXYXYX3.q.Y.K.E.T.G.B.B.B.9.YXYXYXYXYXYXYXYXYXYXYXYXYXYXYXYXYXYXYXYXYXYXYXYXYXYXYXYXYXYXYX",
"YXYXYXYXYXYXYXYXYXYXYXYXYXYXYXYXYXYXYXYXYXYXYX0.B.K.D.D.0.YXYXYXYXYXYXYXYXYXYXYXYXYXYXYXYXYXYXYXYXYXYXYXYXYXYXYXYXYXYXYXYXYXYXYX",
"YXYXYXYXYXYXYXYXYXYXYXYXYXYXYXYXYXYXYXYXYXYXYXYX0.0.0.0.YXYXYXYXYXYXYXYXYXYXYXYXYXYXYXYXYXYXYXYXYXYXYXYXYXYXYXYXYXYXYXYXYXYXYXYX",
"YXYXYXYXYXYXYXYXYXYXYXYXYXYXYXYXYXYXYXYXYXYXYXYXYXYXYXYXYXYXYXYXYXYXYXYXYXYXYXYXYXYXYXYXYXYXYXYXYXYXYXYXYXYXYXYXYXYXYXYXYXYXYXYX",
"YXYXYXYXYXYXYXYXYXYXYXYXYXYXYXYXYXYXYXYXYXYXYXYXYXYXYXYXYXYXYXYXYXYXYXYXYXYXYXYXYXYXYXYXYXYXYXYXYXYXYXYXYXYXYXYXYXYXYXYXYXYXYXYX",
"YXYXYXYXYXYXYXYXYXYXYXYXYXYXYXYXYXYXYXYXYXYXYXYXYXYXYXYXYXYXYXYXYXYXYXYXYXYXYXYXYXYXYXYXYXYXYXYXYXYXYXYXYXYXYXYXYXYXYXYXYXYXYXYX",
"YXYXYXYXYXYXYXYXYXYXYXYXYXYXYXYXYXYXYXYXYXYXYXYXYXYXYXYXYXYXYXYXYXYXYXYXYXYXYXYXYXYXYXYXYXYXYXYXYXYXYXYXYXYXYXYXYXYXYXYXYXYXYXYX",
"YXYXYXYXYXYXYXYXYXYXYXYXYXYXYXYXYXYXYXYXYXYXYXYXYXYXYXYXYXYXYXYXYXYXYXYXYXYXYXYXYXYXYXYXYXYXYXYXYXYXYXYXYXYXYXYXYXYXYXYXYXYXYXYX",
"YXYXYXYXYXYXYXYXYXYXYXYXYXYXYXYXYXYXYXYXYXYXYXYXYXYXYXYXYXYXYXYXYXYXYXYXYXYXYXYXYXYXYXYXYXYXYXYXYXYXYXYXYXYXYXYXYXYXYXYXYXYXYXYX",
"YXYXYXYXYXYXYXYXYXYXYXYXYXYXYXYXYXYXYXYXYXYXYXYXYXYXYXYXYXYXYXYXYXYXYXYXYXYXYXYXYXYXYXYXYXYXYXYXYXYXYXYXYXYXYXYXYXYXYXYXYXYXYXYX",
"YXYXYXYXYXYXYXYXYXYXYXYXYXYXYXYXYXYXYXYXYXYXYXYXYXYXYXYXYXYXYXYXYXYXYXYXYXYXYXYXYXYXYXYXYXYXYXYXYXYXYXYXYXYXYXYXYXYXYXYXYXYXYXYX",
"YXYXYXYXYXYXYXYXYXYXYXYXYXYXYXYXYXYXYXYXYXYXYXYXYXYXYXYXYXYXYXYXYXYXYXYXYXYXYXYXYXYXYXYXYXYXYXYXYXYXYXYXYXYXYXYXYXYXYXYXYXYXYXYX",
"YXYXYXYXYXYXYXYXYXYXYXYXYXYXYXYXYXYXYXYXYXYXYXYXYXYXYXYXYXYXYXYXYXYXYXYXYXYXYXYXYXYXYXYXYXYXYXYXYXYXYXYXYXYXYXYXYXYXYXYXYXYXYXYX",
"YXYXYXYXYXYXYXYXYXYXYXYXYXYXYXYXYXYXYXYXYXYXYXYXYXYXYXYXYXYXYXYXYXYXYXYXYXYXYXYXYXYXYXYXYXYXYXYXYXYXYXYXYXYXYXYXYXYXYXYXYXYXYXYX",
"YXYXYXYXYXYXYXYXYXYXYXYXYXYXYXYXYXYXYXYXYXYXYXYXYXYXYXYXYXYXYXYXYXYXYXYXYXYXYXYXYXYXYXYXYXYXYXYXYXYXYXYXYXYXYXYXYXYXYXYXYXYXYXYX",
"YXYXYXYXYXYXYXYXYXYXYXYXYXYXYXYXYXYXYXYXYXYXYXYXYXYXYXYXYXYXYXYXYXYXYXYXYXYXYXYXYXYXYXYXYXYXYXYXYXYXYXYXYXYXYXYXYXYXYXYXYXYXYXYX",
"YXYXYXYXYXYXYXYXYXYXYXYXYXYXYXYXYXYXYXYXYXYXYXYXYXYXYXYXYXYXYXYXYXYXYXYXYXYXYXYXYXYXYXYXYXYXYXYXYXYXYXYXYXYXYXYXYXYXYXYXYXYXYXYX",
"YXYXYXYXYXYXYXYXYXYXYXYXYXYXYXYXYXYXYXYXYXYXYXYXYXYXYXYXYXYXYXYXYXYXYXYXYXYXYXYXYXYXYXYXYXYXYXYXYXYXYXYXYXYXYXYXYXYXYXYXYXYXYXYX",
"YXYXYXYXYXYXYXYXYXYXYXYXYXYXYXYXYXYXYXYXYXYXYXYXYXYXYXYXYXYXYXYXYXYXYXYXYXYXYXYXYXYXYXYXYXYXYXYXYXYXYXYXYXYXYXYXYXYXYXYXYXYXYXYX",
"YXYXYXYXYXYXYXYXYXYXYXYXYXYXYXYXYXYXYXYXYXYXYXYXYXYXYXYXYXYXYXYXYXYXYXYXYXYXYXYXYXYXYXYXYXYXYXYXYXYXYXYXYXYXYXYXYXYXYXYXYXYXYXYX",
"YXYXYXYXYXYXYXYXYXYXYXYXYXYXYXYXYXYXYXYXYXYXYXYXYXYXYXYXYXYXYXYXYXYXYXYXYXYXYXYXYXYXYXYXYXYXYXYXYXYXYXYXYXYXYXYXYXYXYXYXYXYXYXYX",
"YXYXYXYXYXYXYXYXYXYXYXYXYXYXYXYXYXYXYXYXYXYXYXYXYXYXYXYXYXYXYXYXYXYXYXYXYXYXYXYXYXYXYXYXYXYXYXYXYXYXYXYXYXYXYXYXYXYXYXYXYXYXYXYX",
"YXYXYXYXYXYXYXYXYXYXYXYXYXYXYXYXYXYXYXYXYXYXYXYXYXYXYXYXYXYXYXYXYXYXYXYXYXYXYXYXYXYXYXYXYXYXYXYXYXYXYXYXYXYXYXYXYXYXYXYXYXYXYXYX",
"YXYXYXYXYXYXYXYXYXYXYXYXYXYXYXYXYXYXYXYXYXYXYXYXYXYXYXYXYXYXYXYXYXYXYXYXYXYXYXYXYXYXYXYXYXYXYXYXYXYXYXYXYXYXYXYXYXYXYXYXYXYXYXYX",
"YXYXYXYXYXYXYXYXYXYXYXYXYXYXYXYXYXYXYXYXYXYXYXYXYXYXYXYXYXYXYXYXYXYXYXYXYXYXYXYXYXYXYXYXYXYXYXYXYXYXYXYXYXYXYXYXYXYXYXYXYXYXYXYX",
"YXYXYXYXYXYXYXYXYXYXYXYXYXYXYXYXYXYXYXYXYXYXYXYXYXYXYXYXYXYXYXYXYXYXYXYXYXYXYXYXYXYXYXYXYXYXYXYXYXYXYXYXYXYXYXYXYXYXYXYXYXYXYXYX",
"YXYXYXYXYXYXYXYXYXYXYXYXYXYXYXYXYXYXYXYXYXYXYXYXYXYXYXYXYXYXYXYXYXYXYXYXYXYXYXYXYXYXYXYXYXYXYXYXYXYXYXYXYXYXYXYXYXYXYXYXYXYXYXYX",
"YXYXYXYXYXYXYXYXYXYXYXYXYXYXYXYXYXYXYXYXYXYXYXYXYXYXYXYXYXYXYXYXYXYXYXYXYXYXYXYXYXYXYXYXYXYXYXYXYXYXYXYXYXYXYXYXYXYXYXYXYXYXYXYX",
"YXYXYXYXYXYXYXYXYXYXYXYXYXYXYXYXYXYXYXYXYXYXYXYXYXYXYXYXYXYXYXYXYXYXYXYXYXYXYXYXYXYXYXYXYXYXYXYXYXYXYXYXYXYXYXYXYXYXYXYXYXYXYXYX"
};
