/* XPM */
static char *pl[] = {
/* columns rows colors chars-per-pixel */
"64 64 257 2",
"   c black",
".  c #28193A",
"X  c #381934",
"o  c #2D2C33",
"O  c #342039",
"+  c #101445",
"@  c #191541",
"#  c #161C52",
"$  c #1C245F",
"%  c #1F2966",
"&  c #261E4B",
"*  c #221943",
"=  c #2C214C",
"-  c #21255D",
";  c #302042",
":  c #3E2141",
">  c #3D2841",
",  c #3C2C4D",
"<  c #322450",
"1  c #32265F",
"2  c #393A41",
"3  c #21316B",
"4  c #233B72",
"5  c #254478",
"6  c #431A2B",
"7  c #4A1E2B",
"8  c #541D28",
"9  c #5E1F34",
"0  c #4E202C",
"q  c #47243C",
"w  c #4A2438",
"e  c #4B283B",
"r  c #572129",
"t  c #592228",
"y  c #5C292B",
"u  c #582932",
"i  c #5C342C",
"p  c #59313C",
"a  c #5F3C3B",
"s  c #701D32",
"d  c #642C29",
"f  c #6D2739",
"g  c #673028",
"h  c #6C3328",
"j  c #673131",
"k  c #673930",
"l  c #6C3432",
"z  c #6E3B31",
"x  c #723728",
"c  c #753A2C",
"v  c #7A3D2A",
"b  c #763F36",
"n  c #432A44",
"m  c #4C3B47",
"M  c #66164C",
"N  c #69164A",
"B  c #751946",
"V  c #7D1B43",
"C  c #7E412B",
"Z  c #734D3D",
"A  c #454146",
"S  c #41434A",
"D  c #564E53",
"F  c #51535B",
"G  c #565960",
"H  c #595D65",
"J  c #5E626A",
"K  c #65425D",
"L  c #6F5143",
"P  c #675458",
"I  c #635A59",
"U  c #6A5858",
"Y  c #704C41",
"T  c #61666D",
"R  c #6F6D75",
"E  c #656A71",
"W  c #6B7179",
"Q  c #776E67",
"!  c #7D6B67",
"~  c #71777D",
"^  c #767F75",
"/  c #7B7770",
"(  c #7E7B79",
")  c #737073",
"_  c #3D7885",
"`  c #747A81",
"'  c #797F86",
"]  c #2C89AF",
"[  c #2E8DB1",
"{  c #3497B7",
"}  c #2FB6C3",
"|  c #33B9C5",
" . c #3BBECA",
".. c #4E9999",
"X. c #499EA3",
"o. c #4CA1A4",
"O. c #44A3B7",
"+. c #53A7B0",
"@. c #7C8389",
"#. c #6FA7BE",
"$. c #40ADC4",
"%. c #44B3C7",
"&. c #45B5C9",
"*. c #47B8CA",
"=. c #53BBC4",
"-. c #66BECF",
";. c #40C2CD",
":. c #48C7D1",
">. c #4ECBD4",
",. c #51CCD6",
"<. c #6CD5DD",
"1. c #7DDAE1",
"2. c #901F3C",
"3. c #97233C",
"4. c #99243B",
"5. c #A12637",
"6. c #A02638",
"7. c #AB2A34",
"8. c #B22D33",
"9. c #BB3030",
"0. c #BC3B39",
"q. c #871D40",
"w. c #893342",
"e. c #81442D",
"r. c #844D3F",
"t. c #8A4D31",
"y. c #8B5233",
"u. c #905635",
"i. c #925A36",
"p. c #955D38",
"a. c #976039",
"s. c #9A653A",
"d. c #9D683D",
"f. c #8F5965",
"g. c #896F56",
"h. c #8B6D5E",
"j. c #9E6940",
"k. c #9C7971",
"l. c #BE504B",
"z. c #A26E42",
"x. c #A57344",
"c. c #A87746",
"v. c #A97947",
"b. c #AB6779",
"n. c #BB6D75",
"m. c #B8766B",
"M. c #C23532",
"N. c #C43A34",
"B. c #CC3D36",
"V. c #C63C3B",
"C. c #C2433D",
"Z. c #CB4337",
"A. c #CD4338",
"S. c #D44239",
"D. c #D34A3A",
"F. c #D8443A",
"G. c #DB4D3C",
"H. c #D7513F",
"J. c #DD533D",
"K. c #E0543F",
"L. c #CB554B",
"P. c #C35D53",
"I. c #D1574E",
"U. c #E55C41",
"Y. c #E46041",
"T. c #E96443",
"R. c #EC6A45",
"E. c #E06453",
"W. c #9C7D81",
"Q. c #928468",
"!. c #918578",
"~. c #888875",
"^. c #AB8C44",
"/. c #BE8557",
"(. c #BB865B",
"). c #A88378",
"_. c #BF9769",
"`. c #C39256",
"'. c #CC9562",
"]. c #DF8266",
"[. c #DC8C6F",
"{. c #DE8E70",
"}. c #D09767",
"|. c #D59A6E",
" X c #D89E73",
".X c #DC9E78",
"XX c #D7A352",
"oX c #DCAA7F",
"OX c #DCA47B",
"+X c #D9BD68",
"@X c #E2B34F",
"#X c #E0A07D",
"$X c #81868C",
"%X c #858C92",
"&X c #908E8B",
"*X c #959A9E",
"=X c #9D9393",
"-X c #9DA3A7",
";X c #9DA4A9",
":X c #A29593",
">X c #BF9B89",
",X c #A6ADB0",
"<X c #A9AFB2",
"1X c #A8B1B5",
"2X c #B6B7B5",
"3X c #B1B5B8",
"4X c #B2B9BC",
"5X c #B9BFC1",
"6X c #88CAD7",
"7X c #B3C5CD",
"8X c #BCC2C4",
"9X c #BBCFD5",
"0X c #C5A88C",
"qX c #C7B7A2",
"wX c #CFBEA5",
"eX c #E2A784",
"rX c #E3AA86",
"tX c #E4AC88",
"yX c #E0B697",
"uX c #C0C2BE",
"iX c #DEC5B1",
"pX c #E1C097",
"aX c #EBC69E",
"sX c #EFD595",
"dX c #E0CCAB",
"fX c #EDCDA4",
"gX c #EED1A8",
"hX c #EED9B9",
"jX c #F0DBB1",
"kX c #F0DEBC",
"lX c #C3C7C8",
"zX c #C4C8C9",
"xX c #CCCDC7",
"cX c #CDCDCB",
"vX c #CDCFD0",
"bX c #D5D5D4",
"nX c #D8D7D6",
"mX c #DADAD6",
"MX c #DEDDDA",
"NX c #D1EEEE",
"BX c #DFE2E1",
"VX c #DDF0ED",
"CX c #EFE1C2",
"ZX c #EFE3C9",
"AX c #E3E1DB",
"SX c #E9E6DD",
"DX c #EEE8D9",
"FX c #F0E0C0",
"GX c #EEECE1",
"HX c #EEEEEE",
"JX c #E3E4E1",
"KX c #E2F3F2",
"LX c #F0EEE5",
"PX c #F7F6F3",
"IX c #F8F7F2",
"UX c #FBFBF8",
"YX c None",
/* pixels */
"YXYXYXYXYXYXYXYXYXYXYXYXYXYXYXYXYXYXYXYXYXYXYXYXYXYXYXYXYXYXYXYXYXYXYXYXYXYXYXYXYXYXYXYXYXYXYXYXYXYXYXYXYXYXYXYXYXYXYXYXYXYXYXYX",
"YXYXYXYXYXYXYXYXYXYXYXYXYXYXYXYXYXYXYXYXYXYXYXYXYXYXYXYXYXYXYXYXYXYXYXYXYXYXYXYXYXYXYXYXYXYXYXYXYXYXYXYXYXYXYXYXYXYXYXYXYXYXYXYX",
"YXYXYXYXYXYXYXYXYXYXYXYXYXYXYXYXYXYXYXYXYXYXYXYXYXYXYXYXYXYXYXYXYXYXYXYXYXYXYXYXYXYXYXYXYXYXYXYXYXYXYXYXYXYXYXYXYXYXYXYXYXYXYXYX",
"YXYXYXYXYXYXYXYXYXYXYXYXYXYXYXYXYXYXYXYXYXYXYXYXYXYXYXYXYXYXYXYXYXYXYXYXYXYXYXYXYXYXYXYXYXYXYXYXYXYXYXYXYXYXYXYXYXYXYXYXYXYXYXYX",
"YXYXYXYXYXYXYXYXYXYXYXYXYXYXYXYXYXYXYXYXYXYXYXYXYXYXYXYXYXYXYXYXYXYXYXYXYXYXYXYXYXYXYXYXYXYXYXYXYXYXYXYXYXYXYXYXYXYXYXYXYXYXYXYX",
"YXYXYXYXYXYXYXYXYXYXYXYXYXYXYXYXYXYXYXYXYXYXYXYXYXYXYXYXYXYXYXYXYXYXYXYXYXYXYXYXYXYXYXYXYXYXYXYXYXYXYXYXYXYXYXYXYXYXYXYXYXYXYXYX",
"YXYXYXYXYXYXYXYXYXYXYXYXYXYXYXYXYXYXYXYXYXYXYXYXYXYXYXYXYXYXYXYXYXYXYXYXYXYXYXYXYXYXYXYXYXYXYXYXYXYXYXYXYXYXYXYXYXYXYXYXYXYXYXYX",
"YXYXYXYXYXYXYXYXYXYXYXYXYXYXYXYXYXYXYXYXYXYXYXYXYXYXYXYXYXYXYXYXYXYXYXYXYXYXYXYXYXYXYXYXYXYXYXYXYXYXYXYXYXYXYXYXYXYXYXYXYXYXYXYX",
"YXYXYXYXYXYXYXYXYXYXYXYXYXYXYXYXYXYXYXYXYXYXYXYXYXYXYXYXYXYXYXYXYXYXYXYXYXYXYXYXYXYXYXYXYXYXYXYXYXYXYXYXYXYXYXYXYXYXYXYXYXYXYXYX",
"YXYXYXYXYXYXYXYXYXYXYXYXYXYXYXYXYXYXYXYXYXYXYXYXYXYXYXYXYXYXYXYXYXYXYXYXYXYXYXYXYXYXYXYXYXYXYXYXYXYXYXYXYXYXYXYXYXYXYXYXYXYXYXYX",
"YXYXYXYXYXYXYXYXYXYXYXYXYXYXYXYXYXYXYXYXYXYXYXYXYXYXYXYXYXYXYXYXYXYXYXYXYXYXYXYXYXYXYXYXYXYXYXYXYXYXYXYXYXYXYXYXYXYXYXYXYXYXYXYX",
"YXYXYXYXYXYXYXYXYXYXYXYXYXYXYXYXYXYXYXYXYXYXYXYXYXYXYXYXYXYXYXYXYXYXYXYXYXYXYXYXYXYXYXYXYXYXYXYXYXYXYXYXYXYXYXYXYXYXYXYXYXYXYXYX",
"YXYXYXYXYXYXYXYXYXYXYXYXYXYXYXYXYXYXYXYXYXYXYXYXYXYXYXYXYXYXYXYXYXYXYXYXYXYXYXYXYXYXYXYXYXYXYXYXYXYXYXYXYXYXYXYXYXYXYXYXYXYXYXYX",
"YXYXYXYXYXYXYXYXYXYXYXYXYXYXYXYXYXYXYXYXYXYXYXYXYXYXYXYXYXYXYXYXYXYXYXYXYXYXYXYXYXYXYXYXYXYXYXYXYXYXYXYXYXYXYXYXYXYXYXYXYXYXYXYX",
"YXYXYXYXYXYXYXYXYXYXYXYXYXYXYXYXYXYXYXYXYXYXYXYXYXYXYXYXYXYXYXYXYXYXYXYXYXYXYXYXYXYXYXYXYXYXYXYXYXYXYXYXYXYXYXYXYXYXYXYXYXYXYXYX",
"YXYXYXYXYXYXYXYXYXYXYXYXYXYXYXYXYXYXYXYXYXYXYXYXYXYXYXYXYXYXYXYXYXYXYXYXYXYXYXYXYXYXYXYXYXYXYXYXYXYXYXYXYXYXYXYXYXYXYXYXYXYXYXYX",
"YXYXYXYXYXYXYXYXYXYXYXYXYXYXYXYXYXYXYXYXYXYXYXYXYXYXYXYXYXYXYXYXYXYXYXYXYXYXYXYXYXYXYXYXYXYXYXYXYXYXYXYXYXYXYXYXYXYXYXYXYXYXYXYX",
"YXYXYXYXYXYXYXYXYXYXYXYXYXYXYXYXYXYXYXYXYXYXYXYXYXYXYXYXYXYXYXYXYXYXYXYXYXYXYXYXYXYXYXYXYXYXYXYXYXYXYXYXYXYXYXYXYXYXYXYXYXYXYXYX",
"YXYXYXYXYXYXYXYXYXYXYXYXYXYXYXYXYXYXYXYXYXYXYXYXYXYXYXYXYXYXYXYXYXYXYXYXYXYXYXYXYXYXYXYXYXYXYXYXYXYXYXYXYXYXYXYXYXYXYXYXYXYXYXYX",
"YXYXYXYXYXYXYXYXYXYXYXYXYXYXYXYXYXYXYXYXYXYXYXYXYXYXYXYXYXYXYXYXYXYXYXYXYXYXYXYXYXYXYXYXYXYXYXYXYXYXYXYXYXYXYXYXYXYXYXYXYXYXYXYX",
"YXYXYXYXYXYXYXYXYXYXYXYXYXYXYXYXYXYXYXYXYXYXYXYXYXYXYXYXYXYXYXYXYXYXYXYXYXYXYXYXYXYXYXYXYXYXYXYXYXYXYXYXYXYXYXYXYXYXYXYXYXYXYXYX",
"YXYXYXYXYXYXYXYXYXYXYXYXYXYXYXYXYXYXYXYXYXYXYXYXYXYXYXYXYXYXYXYXYXYXYXYXYXYXYXYXYXYXYXYXYXYXYXYXYXYXYXYXYXYXYXYXYXYXYXYXYXYXYXYX",
"YXYXYXYXYXYXYXYXYXYXYXYXYXYXYXYXYXYXYXYXYXYXYXYXYXYXYXYXYXYXYXYXYXYXYXYXYXYXYXYXYXYXYXYXYXYXYXYXYXYXYXYXYXYXYXYXYXYXYXYXYXYXYXYX",
"YXYXYXYXYXYXYXYXYXYXYXYXYXYXYXYXYXYXYXYXYXYXYXYXYXYXYXYXYXYXYXYXYXYXYXYXYXYXYXYXYXYXYXYXYXYXYXYXYXYXYXYXYXYXYXYXYXYXYXYXYXYXYXYX",
"YXYXYXYXYXYXYXYXYXYXYXYXYXYXYXYXYXYXYXYXYXYXYXYXYXYXYXYXYXYXYXYXYXYXYXYXYXYXYXYXYXYXYXYXYXYXYXYXYXYXYXYXYXYXYXYXYXYXYXYXYXYXYXYX",
"YXYXYXYXYXYXYXYXYXYXYXYXYXYXYXYXYXYXYXYXYXYXYXYXYXYXYXYXYXYXYXYXYXYXYXYXYXYXYXYXYXYXYXYXYXYXYXYXYXYXYXYXYXYXYXYXYXYXYXYXYXYXYXYX",
"YXYXYXYXYXYXYXYXYXYXYXYXYXYXYXYXYXYXYXYXYXYXYXYXYXYXYXYXYXYXYXYXYXYXYXYX9.9.9.9.YXYXYXYXYXYXYXYXYXYXYXYXYXYXYXYXYXYXYXYXYXYXYXYX",
"YXYXYXYXYXYXYXYXYXYXYXYXYXYXYXYXYXYXYXYXYXYXYXYXYXYXYXYXYXYXYXYXYXYXYX9.S.S.J.M.9.YXYXYXYXYXYXYXYXYXYXYXYXYXYXYXYXYXYXYXYXYXYXYX",
"YXYXYXYXYXYXYXYXYXYXYXYXYXYXYXYXYXYXYXYXYXYXYXYXYXYXYXYXYXYXYX9.N.N.N.G.Y.T.G.U.0.2.YXYXYXYXYXYXYXYXYXYXYXYXYXYXYXYXYXYXYXYXYXYX",
"YXYXYXYXYXYXYXYXYXYXYXYXYXYXYXYXYXYXYXYXYXYXYXYXYXYXYXYXYXYXM.Z.U.Y.R.R.D.D.M.B.H.5.YXYXYXYXYXYXYXYXYXYXYXYXYXYXYXYXYXYXYXYXYXYX",
"YXYXYXYXYXYXYXYXYXYXYXYXYXYXYXYXYXYXYXYXYXYXYXYXYXYXYXYXYX2.0.I.F.S.D.A.G.M.B.M.B.Z.9.YXYXYXYXYXYXYXYXYXYXYXYXYXYXYXYXYXYXYXYXYX",
"YXYXYXYXYXYXYXYXYXYXYXYXYXYXYXYXYXYXYXYXYXYXYXYXYXYXYXYXYX8.A.].{.[.{.C.M.8.8.5.M.V.4.YXYXYXYXYXYXYXYXYXYXYXYXYXYXYXYXYXYXYXYXYX",
"YXYXYXYXYXYXYXYXYXYXYXYXYXYXYXYXYXYXYXYXYXYXYXYXYXYXYXYXYXq.4.m.jXdXqXP.8.q.B 7.V.8.3.2.YXYXYXYXYXYXYXYXYXYXYXYXYXYXYXYXYXYXYXYX",
"YXYXYXYXYXYXYXYXYXYXYXYXYXYXYXYXYXYXYXYXYXYXYXYXYXYXYXYXYXM B 1 jX=X% >Xl.s M V q.0.L.2.YXYXYXYXYXYXYXYXYXYXYXYXYXYXYXYXYXYXYXYX",
"YXYXYXYXYXYXYXYXYXYXYXYXYXYXYXYXYXYXYXYXYXYXYXYXYXYXYXYXYXYX4.k.jXiX&XdXl.q.M M N q.0.5.YXYXYXYXYXYXYXYXYXYXYXYXYXYXYXYXYXYXYXYX",
"YXYXYXYXYXYXYXYXYXYXYXYXYXYXYXYXYXYXYXYXYXYXYXYXYXYXYXYXYXYX4.I.E.E.E.L.7.V M YXM N q.2.YXYXYXYXYXYXYXYXYXYXYXYXYXYXYXYXYXYXYXYX",
"YXYXYXYXYXYXYXYXYXYXYXYXYXYXYXYXYXYXYXYXYXYXYXYXYXYXYXYXYX8 s 7.B.V.8.3.q.B 9 t 8 YXYXYXYXYXYXYXYXYXYXYXYXYXYXYXYXYXYXYXYXYXYXYX",
"YXYXYXYXYXYXYXYXYXYXYXYXYXYXYXYXYXYXYXYX] #.bXbXYXYXYXYX8 r y K f.n.b.w.f f x x y d 9 YXYXYXYXYXYXYXYXYXYXYXYXYXYXYXYXYXYXYXYXYX",
"YXYXYXYXYXYXYXYXYXYXYXYXYXYXYXYXYXYXYX[ | 6XHXHX1XYXYXYX8 d F O.-.HXHX:Xv v v x x h r 8 YXYXYXYXYXYXYXYXYXYXYXYXYXYXYXYXYXYXYXYX",
"YXYXYXYXYXYXYXYXYXYXYXYXYXYXYXYXYXYX] &.1.KXLXLXcX@.YXYXr D O.,.KXLXLXAX! e.x x x h g r YXYXYXYXYXYXYXYXYXYXYXYXYXYXYXYXYXYXYXYX",
"YXYXYXYXYXYXYXYXYXYXYXYXYXYXYXYX[ [ *.1.PXSXnXvXmX2XW YX[ $.<.KXDXMXvXbXcXU h l l h g 8 YXYXYXYXYXYXYXYXYXYXYXYXYXYXYXYXYXYXYXYX",
"YXYXYXYXYXYXYXYXYXYXYXYXYXYXYXYX[ &.1.KXAXvX-X%XzX;XW ] $.<.NXGXbX<X%X4X3XP b /.(.r.j 8 YXYXYXYXYXYXYXYXYXYXYXYXYXYXYXYXYXYXYXYX",
"YXYXYXYXYXYXYXYXYXYXYXYXYXYXYXYX{ 1.VXGXbX*XG F ` W W ] <.NXGXMX,XI Y ) R p ).pX|.'.'.YXYXYXYXYXYXYXYXYXYXYXYXYXYXYXYXYXYXYXYXYX",
"YXYXYXYXYXYXYXYXYXYXYXYXYXYXYXYX9XKXDXMX,XE 2 o F F YX7XKXGXAX8XW m i k z k.ZXjX#X|.'.YXYXYXYXYXYXYXYXYXYXYXYXYXYXYXYXYXYXYXYXYX",
"YXYXYXYXYXYXYXYXYXYXYXYXYXYXYXYXMXPXMX4XF H J 2 o DXDXmXUXAX8XT I J S ^.@XsXCXgX#X|.'.YXYXYXYXYXYXYXYXYXYXYXYXYXYXYXYXYXYXYXYXYX",
"YXYXYXYXYXYXYXYXYXYXYXYXYXYXYXYXnXJXMX8X~ J Q &X&XDXCXiXBXAXzX$Xg.Q.!.( 0XCXfXrX.X'.YXYXYXYXYXYXYXYXYXYXYXYXYXYXYXYXYXYXYXYXYXYX",
"YXYXYXYXYXYXYXYXYXYXYXYXYXYXYXYX1X1XcXnX-XW '.yXCXkXaX X1XlXmX4X/ `.eXhXFXfXrXOX|.'.YXYXYXYXYXYXYXYXYXYXYXYXYXYXYXYXYXYXYXYXYXYX",
"YXYXYXYXYXYXYXYXYXYXYXYXYXYXYXYXYX@.$X@.` W '.}.tXrXh...@.@.$X' +XXX XrXrXOX}.}.'.YXYXYXYXYXYXYXYXYXYXYXYXYXYXYXYXYXYXYXYXYXYXYX",
"YXYXYXYXYXYXYXYXYXYXYXYXYXYXYXYXYXYXYXYXYXYXYXYX'._.^ =.| _ r v v v z./.(.~.+. .} YXYXYXYXYXYXYXYXYXYXYXYXYXYXYXYXYXYXYXYXYXYXYX",
"YXYXYXYXYXYXYXYXYXYXYXYXYXYXYXYXYXYXYXYXYXYXYXYXYX}  .,.;._ h p.t.p.y.e.Y X.>.:.} YXYXYXYXYXYXYXYXYXYXYXYXYXYXYXYXYXYXYXYXYXYXYX",
"YXYXYXYXYXYXYXYXYXYXYXYXYXYXYXYXYXYXYXYXYXYXYXYXYXYX}  .} 8 b y.p.x.z.i.e.L o.| YXYXYXYXYXYXYXYXYXYXYXYXYXYXYXYXYXYXYXYXYXYXYXYX",
"YXYXYXYXYXYXYXYXYXYXYXYXYXYXYXYXYXYXYXYXYXYXYXYXYXYXYX} YX8 c j.d.x.x.d.i.e.a m YXYXYXYXYXYXYXYXYXYXYXYXYXYXYXYXYXYXYXYXYXYXYXYX",
"YXYXYXYXYXYXYXYXYXYXYXYXYXYXYXYXYXYXYXYXYXYXYXYXYXYXYXYXYX% : y.c.z.z.c.a.y.d 8 YXYXYXYXYXYXYXYXYXYXYXYXYXYXYXYXYXYXYXYXYXYXYXYX",
"YXYXYXYXYXYXYXYXYXYXYXYXYXYXYXYXYXYXYXYXYXYXYXYXYXYXYXYXYX% < g d.c.c.v.y.y X YXYXYXYXYXYXYXYXYXYXYXYXYXYXYXYXYXYXYXYXYXYXYXYXYX",
"YXYXYXYXYXYXYXYXYXYXYXYXYXYXYXYXYXYXYXYXYXYXYXYXYXYXYXYXYX% 4 w e.p.s.p.c X + YXYXYXYXYXYXYXYXYXYXYXYXYXYXYXYXYXYXYXYXYXYXYXYXYX",
"YXYXYXYXYXYXYXYXYXYXYXYXYXYXYXYXYXYXYXYXYXYXYXYXYXYXYXYXYX% 5 e e.e.e.d 0 @ + YXYXYXYXYXYXYXYXYXYXYXYXYXYXYXYXYXYXYXYXYXYXYXYXYX",
"YXYXYXYXYXYXYXYXYXYXYXYXYXYXYXYXYXYXYXYXYXYXYXYXYXYXYXYXYX% 5 n c v t @ + + + YXYXYXYXYXYXYXYXYXYXYXYXYXYXYXYXYXYXYXYXYXYXYXYXYX",
"YXYXYXYXYXYXYXYXYXYXYXYXYXYXYXYXYXYXYXYXYXYXYXYXYXYXYXYXYX% 5 3 q u * + + + + YXYXYXYXYXYXYXYXYXYXYXYXYXYXYXYXYXYXYXYXYXYXYXYXYX",
"YXYXYXYXYXYXYXYXYXYXYXYXYXYXYXYXYXYXYXYXYXYXYXYXYXYXYXYXYX% 5 3 - & # + + + + YXYXYXYXYXYXYXYXYXYXYXYXYXYXYXYXYXYXYXYXYXYXYXYXYX",
"YXYXYXYXYXYXYXYXYXYXYXYXYXYXYXYXYXYXYXYXYXYXYXYXYXYXYXYXYX% 5 3 $ # # + + + + YXYXYXYXYXYXYXYXYXYXYXYXYXYXYXYXYXYXYXYXYXYXYXYXYX",
"YXYXYXYXYXYXYXYXYXYXYXYXYXYXYXYXYXYXYXYXYXYXYXYXYXYXYXYXYX% 4 3 $ # # + + + + YXYXYXYXYXYXYXYXYXYXYXYXYXYXYXYXYXYXYXYXYXYXYXYXYX",
"YXYXYXYXYXYXYXYXYXYXYXYXYXYXYXYXYXYXYXYXYXYXYXYXYXYXYXYXYX= , , = ; > O O . . YXYXYXYXYXYXYXYXYXYXYXYXYXYXYXYXYXYXYXYXYXYXYXYXYX",
"YXYXYXYXYXYXYXYXYXYXYXYXYXYXYXYXYXYXYXYXYXYXYXYXYXYXYXYX6 0 g h 7 d h h h y 6 YXYXYXYXYXYXYXYXYXYXYXYXYXYXYXYXYXYXYXYXYXYXYXYXYX",
"YXYXYXYXYXYXYXYXYXYXYXYXYXYXYXYXYXYXYXYXYXYXYXYXYXYXYXYXX 7 0 0 6 0 7 7 7 6 6 YXYXYXYXYXYXYXYXYXYXYXYXYXYXYXYXYXYXYXYXYXYXYXYXYX"
};
