/* XPM */
static char *pl1[] = {
/* columns rows colors chars-per-pixel */
"64 64 257 2",
"   c black",
".  c #1D153F",
"X  c #22163C",
"o  c #221A3F",
"O  c #2B1739",
"+  c #2E1937",
"@  c #2A183B",
"#  c #3D1C32",
"$  c #352039",
"%  c #392339",
"&  c #34343B",
"*  c #101445",
"=  c #12174A",
"-  c #181541",
";  c #161C52",
":  c #1D1E51",
">  c #1A225B",
",  c #1D2662",
"<  c #1F2966",
"1  c #1F2C68",
"2  c #251C40",
"3  c #2F2552",
"4  c #30255F",
"5  c #3A3A41",
"6  c #36365C",
"7  c #233C73",
"8  c #26477A",
"9  c #274D7E",
"0  c #42192B",
"q  c #4A1E2B",
"w  c #541D28",
"e  c #571B30",
"r  c #5B1A37",
"t  c #4E212A",
"y  c #452034",
"u  c #552329",
"i  c #5A2328",
"p  c #5A292B",
"a  c #55322D",
"s  c #691D30",
"d  c #60272A",
"f  c #632A29",
"g  c #612431",
"h  c #673028",
"j  c #6C3329",
"k  c #673230",
"l  c #663933",
"z  c #742A2E",
"x  c #702B37",
"c  c #713629",
"v  c #73392A",
"b  c #7C3E2C",
"n  c #713031",
"m  c #703936",
"M  c #43334D",
"N  c #66164C",
"B  c #741A44",
"V  c #701848",
"C  c #7E1B43",
"Z  c #63403D",
"A  c #7F412C",
"S  c #7E463B",
"D  c #724134",
"F  c #41434A",
"G  c #44485E",
"H  c #4E5159",
"J  c #53555C",
"K  c #5A5E66",
"L  c #426A7E",
"P  c #5D6169",
"I  c #654840",
"U  c #6A4949",
"Y  c #685E5A",
"T  c #7F634A",
"R  c #62666E",
"E  c #6C6469",
"W  c #666B73",
"Q  c #6F6E75",
"!  c #65657C",
"~  c #6B7179",
"^  c #707479",
"/  c #7A7878",
"(  c #295583",
")  c #3D7885",
"_  c #406D85",
"`  c #467E8A",
"'  c #497889",
"]  c #737980",
"[  c #2C89AF",
"{  c #3397A5",
"}  c #3294B5",
"|  c #3599B8",
" . c #3AA1AD",
".. c #3CA5BF",
"X. c #2FB6C3",
"o. c #34BAC6",
"O. c #3ABEC9",
"+. c #52868F",
"@. c #528891",
"#. c #4DA1A8",
"$. c #7A8086",
"%. c #7B8288",
"&. c #4ABECE",
"*. c #4CC1CF",
"=. c #4EC4D1",
"-. c #4FCCD5",
";. c #53C0C9",
":. c #5AD0D9",
">. c #901F3D",
",. c #94213B",
"<. c #9F2735",
"1. c #98233A",
"2. c #A12637",
"3. c #A52A39",
"4. c #AA2A35",
"5. c #A6313E",
"6. c #B22C32",
"7. c #B92F30",
"8. c #B53139",
"9. c #BB3030",
"0. c #BF3B37",
"q. c #B83E3F",
"w. c #882040",
"e. c #82452D",
"r. c #8D532F",
"t. c #8C5233",
"y. c #935A36",
"u. c #965E38",
"i. c #9C653D",
"p. c #9D683F",
"a. c #88695D",
"s. c #89715F",
"d. c #9F6B40",
"f. c #9C654B",
"g. c #877769",
"h. c #8A7F6A",
"j. c #877366",
"k. c #877673",
"l. c #976267",
"z. c #917F6F",
"x. c #A26F41",
"c. c #A37142",
"v. c #A87746",
"b. c #AB714B",
"n. c #B0764D",
"m. c #C33633",
"M. c #C53B34",
"N. c #C73B3A",
"B. c #CE3E37",
"V. c #C1453F",
"C. c #CC4337",
"Z. c #CE4638",
"A. c #C9483C",
"S. c #D5443A",
"D. c #D44B3B",
"F. c #DA463B",
"G. c #DF4E3D",
"H. c #D6503B",
"J. c #DE533E",
"K. c #E1553F",
"L. c #C34841",
"P. c #C46258",
"I. c #C1685C",
"U. c #E55C41",
"Y. c #E46041",
"T. c #EC6A45",
"R. c #867487",
"E. c #B1944F",
"W. c #A5866B",
"Q. c #AE8D75",
"!. c #B58A63",
"~. c #B39B74",
"^. c #C28B5D",
"/. c #CC974C",
"(. c #CC9562",
"). c #CF936A",
"_. c #CE9771",
"`. c #DE8E70",
"'. c #D39A6D",
"]. c #D99C73",
"[. c #DC9E78",
"{. c #DCA17A",
"}. c #E1A17E",
"|. c #838587",
" X c #81878D",
".X c #838F81",
"XX c #868B8F",
"oX c #838A90",
"OX c #8A9096",
"+X c #8E959A",
"@X c #8F989D",
"#X c #988984",
"$X c #9D9393",
"%X c #969FA4",
"&X c #9B9EA0",
"*X c #9AA1A5",
"=X c #9DA6AA",
"-X c #AE9B83",
";X c #B98C98",
":X c #ACABA7",
">X c #AFAEAB",
",X c #A8B2B6",
"<X c #B2AEA5",
"1X c #B3BABC",
"2X c #B3B4B4",
"3X c #91B6C5",
"4X c #90D6DF",
"5X c #8ADEE4",
"6X c #90DFE4",
"7X c #91E0E6",
"8X c #BAC0C2",
"9X c #A6E6EA",
"0X c #ABE6E9",
"qX c #B2E1E7",
"wX c #C19B8C",
"eX c #C1A491",
"rX c #D5A489",
"tX c #DEAA88",
"yX c #C7B7A2",
"uX c #C0B9AB",
"iX c #CFBEA5",
"pX c #D8BBAA",
"aX c #E2A582",
"sX c #E4AC88",
"dX c #E9BF98",
"fX c #EBC69E",
"gX c #E0CCAB",
"hX c #EBC8A0",
"jX c #E9CFA8",
"kX c #E8D3AE",
"lX c #EFD8A3",
"zX c #EDD4B0",
"xX c #F0DBB2",
"cX c #F0DEBA",
"vX c #C4C6C3",
"bX c #C3C7C8",
"nX c #C6C9CA",
"mX c #CACCCD",
"MX c #D4D4D3",
"NX c #D8D7D6",
"BX c #DAD9D7",
"VX c #DDDDDA",
"CX c #DFE0DA",
"ZX c #EFE1C3",
"AX c #EEE7D4",
"SX c #E9E7DE",
"DX c #ECE8DC",
"FX c #E4E2DB",
"GX c #E5E5E5",
"HX c #E6E8E9",
"JX c #EEEBE1",
"KX c #EAF1EB",
"LX c #F0EEE9",
"PX c #F4F2EC",
"IX c #F6F6F6",
"UX c #F8F7F2",
"YX c None",
/* pixels */
"YXYXYXYXYXYXYXYXYXYXYXYXYXYXYXYXYXYXYXYXYXYXYXYXYXYXYXYXYXYXYXYXYXYXYXYXYXYXYXYXYXYXYXYXYXYXYXYXYXYXYXYXYXYXYXYXYXYXYXYXYXYXYXYX",
"YXYXYXYXYXYXYXYXYXYXYXYXYXYXYXYXYXYXYXYXYXYXYXYXYXYXYXYXYXYXYXYXYXYXYXYXYXYXYXYXYXYXYXYXYXYXYXYXYXYXYXYXYXYXYXYXYXYXYXYXYXYXYXYX",
"YXYXYXYXYXYXYXYXYXYXYXYXYXYXYXYXYXYXYXYXYXYXYXYXYXYXYXYXYXYXYXYXYXYXYXYXYXYXYXYXYXYXYXYXYXYXYXYXYXYXYXYXYXYXYXYXYXYXYXYXYXYXYXYX",
"YXYXYXYXYXYXYXYXYXYXYXYXYXYXYXYXYXYXYXYXYXYXYXYXYXYXYXYXYXYXYXYXYXYXYXYXYXYXYXYXYXYXYXYXYXYXYXYXYXYXYXYXYXYXYXYXYXYXYXYXYXYXYXYX",
"YXYXYXYXYXYXYXYXYXYXYXYXYXYXYXYXYXYXYXYXYXYXYXYXYXYXYXYXYXYXYXYXYXYXYXYXYXYXYXYXYXYXYXYXYXYXYXYXYXYXYXYXYXYXYXYXYXYXYXYXYXYXYXYX",
"YXYXYXYXYXYXYXYXYXYXYXYXYXYXYXYXYXYXYXYXYXYXYXYXYXYXYXYXYXYXYXYXYXYXYXYXYXYXYXYXYXYXYXYXYXYXYXYXYXYXYXYXYXYXYXYXYXYXYXYXYXYXYXYX",
"YXYXYXYXYXYXYXYXYXYXYXYXYXYXYXYXYXYXYXYXYXYXYXYXYXYXYXYXYXYXYXYXYXYXYXYXYXYXYXYXYXYXYXYXYXYXYXYXYXYXYXYXYXYXYXYXYXYXYXYXYXYXYXYX",
"YXYXYXYXYXYXYXYXYXYXYXYXYXYXYXYXYXYXYXYXYXYXYXYXYXYXYXYXYXYXYXYXYXYXYXYXYXYXYXYXYXYXYXYXYXYXYXYXYXYXYXYXYXYXYXYXYXYXYXYXYXYXYXYX",
"YXYXYXYXYXYXYXYXYXYXYXYXYXYXYXYXYXYXYXYXYXYXYXYXYXYXYXYXYXYXYXYXYXYXYXYXYXYXYXYXYXYXYXYXYXYXYXYXYXYXYXYXYXYXYXYXYXYXYXYXYXYXYXYX",
"YXYXYXYXYXYXYXYXYXYXYXYXYXYXYXYXYXYXYXYXYXYXYXYXYXYXYXYXYXYXYXYXYXYXYXYXYXYXYXYXYXYXYXYXYXYXYXYXYXYXYXYXYXYXYXYXYXYXYXYXYXYXYXYX",
"YXYXYXYXYXYXYXYXYXYXYXYXYXYXYXYXYXYXYXYXYXYXYXYXYXYXYXYXYXYXYXYXYXYXYXYXYXYXYXYXYXYXYXYXYXYXYXYXYXYXYXYXYXYXYXYXYXYXYXYXYXYXYXYX",
"YXYXYXYXYXYXYXYXYXYXYXYXYXYXYXYXYXYXYXYXYXYXYXYXYXYXYXYXYXYXYXYXYXYXYXYXYXYXYXYXYXYXYXYXYXYXYXYXYXYXYXYXYXYXYXYXYXYXYXYXYXYXYXYX",
"YXYXYXYXYXYXYXYXYXYXYXYXYXYXYXYXYXYXYXYXYXYXYXYXYXYXYXYXYXYXYXYXYXYXYXYXYXYXYXYXYXYXYXYXYXYXYXYXYXYXYXYXYXYXYXYXYXYXYXYXYXYXYXYX",
"YXYXYXYXYXYXYXYXYXYXYXYXYXYXYXYXYXYXYXYXYXYXYXYXYXYXYXYXYXYXYXYXYXYXYXYXYXYXYXYXYXYXYXYXYXYXYXYXYXYXYXYXYXYXYXYXYXYXYXYXYXYXYXYX",
"YXYXYXYXYXYXYXYXYXYXYXYXYXYXYXYXYXYXYXYXYXYXYXYXYXYXYXYXYXYXYXYXYXYXYXYXYXYXYXYXYXYXYXYXYXYXYXYXYXYXYXYXYXYXYXYXYXYXYXYXYXYXYXYX",
"YXYXYXYXYXYXYXYXYXYXYXYXYXYXYXYXYXYXYXYXYXYXYXYXYXYXYXYXYXYXYXYXYXYXYXYXYXYXYXYXYXYXYXYXYXYXYXYXYXYXYXYXYXYXYXYXYXYXYXYXYXYXYXYX",
"YXYXYXYXYXYXYXYXYXYXYXYXYXYXYXYXYXYXYXYXYXYXYXYXYXYXYXYXYXYXYXYXYXYXYXYXYXYXYXYXYXYXYXYXYXYXYXYXYXYXYXYXYXYXYXYXYXYXYXYXYXYXYXYX",
"YXYXYXYXYXYXYXYXYXYXYXYXYXYXYXYXYXYXYXYXYXYXYXYXYXYXYXYXYXYXYXYXYXYXYXYXYXYXYXYXYXYXYXYXYXYXYXYXYXYXYXYXYXYXYXYXYXYXYXYXYXYXYXYX",
"YXYXYXYXYXYXYXYXYXYXYXYXYXYXYXYXYXYXYXYXYXYXYXYXYXYXYXYXYXYXYXYXYXYXYXYXYXYXYXYXYXYXYXYXYXYXYXYXYXYXYXYXYXYXYXYXYXYXYXYXYXYXYXYX",
"YXYXYXYXYXYXYXYXYXYXYXYXYXYXYXYXYXYXYXYXYXYXYXYXYXYXYXYXYXYXYXYXYXYXYXYXYXYXYXYXYXYXYXYXYXYXYXYXYXYXYXYXYXYXYXYXYXYXYXYXYXYXYXYX",
"YXYXYXYXYXYXYXYXYXYXYXYXYXYXYXYXYXYXYXYXYXYXYXYXYXYXYXYXYXYXYXYXYXYXYXYXYXYXYXYXYXYXYXYXYXYXYXYXYXYXYXYXYXYXYXYXYXYXYXYXYXYXYXYX",
"YXYXYXYXYXYXYXYXYXYXYXYXYXYXYXYXYXYXYXYXYXYXYXYXYXYXYXYXYXYXYXYXYXYXYXYXYXYXYXYXYXYXYXYXYXYXYXYXYXYXYXYXYXYXYXYXYXYXYXYXYXYXYXYX",
"YXYXYXYXYXYXYXYXYXYXYXYXYXYXYXYXYXYXYXYXYXYXYXYXYXYXYXYXYXYXYXYXYXYXYXYXYXYXYXYXYXYXYXYXYXYXYXYXYXYXYXYXYXYXYXYXYXYXYXYXYXYXYXYX",
"YXYXYXYXYXYXYXYXYXYXYXYXYXYXYXYXYXYXYXYXYXYXYXYXYXYXYXYXYXYXYXYXYXYXYXYXYXYXYXYXYXYXYXYXYXYXYXYXYXYXYXYXYXYXYXYXYXYXYXYXYXYXYXYX",
"YXYXYXYXYXYXYXYXYXYXYXYXYXYXYXYXYXYXYXYXYXYXYXYXYXYXYXYXYXYXYXYXYXYXYXYXYXYXYXYXYXYXYXYXYXYXYXYXYXYXYXYXYXYXYXYXYXYXYXYXYXYXYXYX",
"YXYXYXYXYXYXYXYXYXYXYXYXYXYXYXYXYXYXYXYXYXYXYXYXYXYXYXYXYXYXYXYXYXYXYXYXYXYXYXYXYXYXYXYXYXYXYXYXYXYXYXYXYXYXYXYXYXYXYXYXYXYXYXYX",
"YXYXYXYXYXYXYXYXYXYXYXYXYXYXYXYXYXYXYXYXYXYXYXYXYXYXYXYXYXYXYXYXYXYXYXYXYXYXYXYXYXYXYXYXYXYXYXYXYXYXYXYXYXYXYXYXYXYXYXYXYXYXYXYX",
"YXYXYXYXYXYXYXYXYXYXYXYXYXYXYXYXYXYXYXYXYXYXYXYXYXYXYXYXYXYXYXYXYXYXYXYX9.7.9.9.YXYXYXYXYXYXYXYXYXYXYXYXYXYXYXYXYXYXYXYXYXYXYXYX",
"YXYXYXYXYXYXYXYXYXYXYXYXYXYXYXYXYXYXYXYXYXYXYXYXYXYXYXYXYXYXYXYX9.9.9.m.G.G.U.C.9.YXYXYXYXYXYXYXYXYXYXYXYXYXYXYXYXYXYXYXYXYXYXYX",
"YXYXYXYXYXYXYXYXYXYXYXYXYXYXYXYXYXYXYXYXYXYXYXYXYXYXYXYXYXYXYX9.Z.Z.C.J.J.Y.S.K.9.YXYXYXYXYXYXYXYXYXYXYXYXYXYXYXYXYXYXYXYXYXYXYX",
"YXYXYXYXYXYXYXYXYXYXYXYXYXYXYXYXYXYXYXYXYXYXYXYXYXYXYXYXYXYX9.D.K.K.T.T.H.M.7.M.A.,.YXYXYXYXYXYXYXYXYXYXYXYXYXYXYXYXYXYXYXYXYXYX",
"YXYXYXYXYXYXYXYXYXYXYXYXYXYXYXYXYXYXYXYXYXYXYXYXYXYXYXYXYX>.V.J.S.Z.C.M.F.m.M.7.S.6.YXYXYXYXYXYXYXYXYXYXYXYXYXYXYXYXYXYXYXYXYXYX",
"YXYXYXYXYXYXYXYXYXYXYXYXYXYXYXYXYXYXYXYXYXYXYXYXYXYXYXYXYX6.M.`.sXsXsXL.7.2.2.7.N.D.6.YXYXYXYXYXYXYXYXYXYXYXYXYXYXYXYXYXYXYXYXYX",
"YXYXYXYXYXYXYXYXYXYXYXYXYXYXYXYXYXYXYXYXYXYXYXYXYXYXYXYXYXC 1.l.xXiX$XI.6.C V 2.9.8.>.YXYXYXYXYXYXYXYXYXYXYXYXYXYXYXYXYXYXYXYXYX",
"YXYXYXYXYXYXYXYXYXYXYXYXYXYXYXYXYXYXYXYXYXYXYXYXYXYXYXYXYXN V 4 xX-X< eXP.C N V 9.0.5.>.YXYXYXYXYXYXYXYXYXYXYXYXYXYXYXYXYXYXYXYX",
"YXYXYXYXYXYXYXYXYXYXYXYXYXYXYXYXYXYXYXYXYXYXYXYXYXYXYXYXYXYX4.wXxXgXyXgXq.w.N N C 4.3.>.YXYXYXYXYXYXYXYXYXYXYXYXYXYXYXYXYXYXYXYX",
"YXYXYXYXYXYXYXYXYXYXYXYXYXYXYXYXYXYXYXYXYXYXYXYXYXYXYXYXYXYX>.N.F.S.S.9.4.C r w N w.<.>.YXYXYXYXYXYXYXYXYXYXYXYXYXYXYXYXYXYXYXYX",
"YXYXYXYXYXYXYXYXYXYXYXYXYXYXYXYXYXYXYXYXYXYXYXYXYXYXYXYXYXw s <.B.0.4.,.C B g i e C ,.>.YXYXYXYXYXYXYXYXYXYXYXYXYXYXYXYXYXYXYXYX",
"YXYXYXYXYXYXYXYXYXYXYXYXYXYXYXYXYXYXYXYX[ [ 3XMXMXYXYXYXw i p z ! R.;X;Xx z v c f f r YXYXYXYXYXYXYXYXYXYXYXYXYXYXYXYXYXYXYXYXYX",
"YXYXYXYXYXYXYXYXYXYXYXYXYXYXYXYXYXYXYXYX} =.qXIXHX,XYXYXi h j L &.4XIXIX#Xe.b c v c i w YXYXYXYXYXYXYXYXYXYXYXYXYXYXYXYXYXYXYXYX",
"YXYXYXYXYXYXYXYXYXYXYXYXYXYXYXYXYXYX[ } :.0XLXJXSXvX$.~ i l ' =.6XUXDXSXNXk.v j c j j i YXYXYXYXYXYXYXYXYXYXYXYXYXYXYXYXYXYXYXYX",
"YXYXYXYXYXYXYXYXYXYXYXYXYXYXYXYXYX[ | -.0XLXFXmXnXBX&X~ G _ &.5XPXFXMXbXNX2XU S S f f w YXYXYXYXYXYXYXYXYXYXYXYXYXYXYXYXYXYXYXYX",
"YXYXYXYXYXYXYXYXYXYXYXYXYXYXYXYX[ } &.9XLXFXnX XXX8X+X~ } &.7XKXJXmX+X^ 8X*Xa.^.^.f.m w YXYXYXYXYXYXYXYXYXYXYXYXYXYXYXYXYXYXYXYX",
"YXYXYXYXYXYXYXYXYXYXYXYXYXYXYXYX[ X.qXLXJXmX^ H J R W ~ } 5XKXJXMXoXI D R W <XjX].(.(.YXYXYXYXYXYXYXYXYXYXYXYXYXYXYXYXYXYXYXYXYX",
"YXYXYXYXYXYXYXYXYXYXYXYXYXYXYXYXMXGXPXDXvXoXK 5 & YX<XAXCXUXDXMXOXP F a r.Q.ZXxX}.].(.YXYXYXYXYXYXYXYXYXYXYXYXYXYXYXYXYXYXYXYXYX",
"YXYXYXYXYXYXYXYXYXYXYXYXYXYXYXYXNXGXPXBX%XH K K & / AXcXCXUXCX2XJ Y R F E.lXcXfX[.'.(.YXYXYXYXYXYXYXYXYXYXYXYXYXYXYXYXYXYXYXYXYX",
"YXYXYXYXYXYXYXYXYXYXYXYXYXYXYXYXMXMXCXBX8X] k.<X:X2XcXfXiXBXCXvX|.j.-X<X<XcXfXaX[.(.YXYXYXYXYXYXYXYXYXYXYXYXYXYXYXYXYXYXYXYXYXYX",
"YXYXYXYXYXYXYXYXYXYXYXYXYXYXYXYXYX,X*XNXmX@XW.sXcXxXdX'.rX=XvXBX=Xz.{.kXxXfXaX}.(.(.YXYXYXYXYXYXYXYXYXYXYXYXYXYXYXYXYXYXYXYXYXYX",
"YXYXYXYXYXYXYXYXYXYXYXYXYXYXYXYXYXYXYX~ ~ ~ YX(.{.[.g.5 o.#.~ E s./.(.{.[.'.!.~.X.YXYXYXYXYXYXYXYXYXYXYXYXYXYXYXYXYXYXYXYXYXYXYX",
"YXYXYXYXYXYXYXYXYXYXYXYXYXYXYXYXYXYXYXYXYXYXYXYX(.(..X+.-.) p v A e.i.n.b.h.+.;.O.X.YXYXYXYXYXYXYXYXYXYXYXYXYXYXYXYXYXYXYXYXYXYX",
"YXYXYXYXYXYXYXYXYXYXYXYXYXYXYXYXYXYXYXYXYXYXYXYXYXYXX.O.-.+.D ,.y.i.i.r.e.a.#.-.O.X.YXYXYXYXYXYXYXYXYXYXYXYXYXYXYXYXYXYXYXYXYXYX",
"YXYXYXYXYXYXYXYXYXYXYXYXYXYXYXYXYXYXYXYXYXYXYXYXYXYXYXX.X.) h d.i.x.x.i.y.r.Z | X.YXYXYXYXYXYXYXYXYXYXYXYXYXYXYXYXYXYXYXYXYXYXYX",
"YXYXYXYXYXYXYXYXYXYXYXYXYXYXYXYXYXYXYXYXYXYXYXYXYXYXYXYXYX( M t.v.c.c.v.u.e.p { YXYXYXYXYXYXYXYXYXYXYXYXYXYXYXYXYXYXYXYXYXYXYXYX",
"YXYXYXYXYXYXYXYXYXYXYXYXYXYXYXYXYXYXYXYXYXYXYXYXYXYXYXYXYX( 6 k i.p.c.c.t.p 2 * YXYXYXYXYXYXYXYXYXYXYXYXYXYXYXYXYXYXYXYXYXYXYXYX",
"YXYXYXYXYXYXYXYXYXYXYXYXYXYXYXYXYXYXYXYXYXYXYXYXYXYXYXYX( ( 7 3 j t.y.t.A + * * YXYXYXYXYXYXYXYXYXYXYXYXYXYXYXYXYXYXYXYXYXYXYXYX",
"YXYXYXYXYXYXYXYXYXYXYXYXYXYXYXYXYXYXYXYXYXYXYXYXYXYXYXYX( 8 1 < @ j e.f 2 - * * YXYXYXYXYXYXYXYXYXYXYXYXYXYXYXYXYXYXYXYXYXYXYXYX",
"YXYXYXYXYXYXYXYXYXYXYXYXYXYXYXYXYXYXYXYXYXYXYXYXYXYXYXYX9 8 , = * + w - * * * * YXYXYXYXYXYXYXYXYXYXYXYXYXYXYXYXYXYXYXYXYXYXYXYX",
"YXYXYXYXYXYXYXYXYXYXYXYXYXYXYXYXYXYXYXYXYXYXYXYXYXYXYXYX9 < ; * * * YX* * * * * * YXYXYXYXYXYXYXYXYXYXYXYXYXYXYXYXYXYXYXYXYXYXYX",
"YXYXYXYXYXYXYXYXYXYXYXYXYXYXYXYXYXYXYXYXYXYXYXYX0 0 YXYX9 < ; * * YXYXYX* * * * * YXYXYXYXYXYXYXYXYXYXYXYXYXYXYXYXYXYXYXYXYXYXYX",
"YXYXYXYXYXYXYXYXYXYXYXYXYXYXYXYXYXYXYXYXYXYXYXYXq p 0 0 9 > * * YXYXYXYX* * * * * * YXYXYXYXYXYXYXYXYXYXYXYXYXYXYXYXYXYXYXYXYXYX",
"YXYXYXYXYXYXYXYXYXYXYXYXYXYXYXYXYXYXYXYXYXYXYXYXq j c u y : * * YXYXYXYXYX* * * 2 + 0 YXYXYXYXYXYXYXYXYXYXYXYXYXYXYXYXYXYXYXYXYX",
"YXYXYXYXYXYXYXYXYXYXYXYXYXYXYXYXYXYXYXYXYXYXYXYX0 q p j j # X YXYXYXYXYX0 y % + h t 0 YXYXYXYXYXYXYXYXYXYXYXYXYXYXYXYXYXYXYXYXYX",
"YXYXYXYXYXYXYXYXYXYXYXYXYXYXYXYXYXYXYXYXYXYXYXYXYX0 0 t j p 0 YXYXYXYXYXq j v p t 0 YXYXYXYXYXYXYXYXYXYXYXYXYXYXYXYXYXYXYXYXYXYX",
"YXYXYXYXYXYXYXYXYXYXYXYXYXYXYXYXYXYXYXYXYXYXYXYXYXYXYX0 q 0 0 YXYXYXYXYX0 t q 0 0 YXYXYXYXYXYXYXYXYXYXYXYXYXYXYXYXYXYXYXYXYXYXYX"
};
