/* XPM */
static char *pl_idle2[] = {
/* columns rows colors chars-per-pixel */
"64 64 235 2",
"   c black",
".  c #1D153F",
"X  c #381934",
"o  c #2D2C33",
"O  c #3C262F",
"+  c #101445",
"@  c #1A1E48",
"#  c #151B51",
"$  c #1F2966",
"%  c #1F2C68",
"&  c #1E3161",
"*  c #221A45",
"=  c #32265F",
"-  c #302C59",
";  c #353643",
":  c #383840",
">  c #3A3F5A",
",  c #20306A",
"<  c #323963",
"1  c #1B426F",
"2  c #264579",
"3  c #334B71",
"4  c #541D29",
"5  c #591A34",
"6  c #5E183E",
"7  c #572028",
"8  c #5A2328",
"9  c #701D32",
"0  c #602728",
"q  c #642C28",
"w  c #692E29",
"e  c #662435",
"r  c #6D243E",
"t  c #66302E",
"y  c #6D3429",
"u  c #712F2C",
"i  c #7A2732",
"p  c #713629",
"a  c #753929",
"s  c #7A3D2B",
"d  c #703936",
"f  c #402C44",
"g  c #66164C",
"h  c #751946",
"j  c #7D1B43",
"k  c #781D49",
"l  c #7E402B",
"z  c #704236",
"x  c #754539",
"c  c #784030",
"v  c #7E453B",
"b  c #794A39",
"n  c #45485A",
"m  c #484A51",
"M  c #574854",
"N  c #51545C",
"B  c #5F5B5F",
"V  c #434B7C",
"C  c #565961",
"Z  c #595D65",
"A  c #5C616A",
"S  c #625C5F",
"D  c #7D5546",
"F  c #62666E",
"G  c #6D6E70",
"H  c #6B7179",
"J  c #70686A",
"K  c #757371",
"L  c #72777D",
"P  c #295483",
"I  c #2B7297",
"U  c #48618A",
"Y  c #4C6F94",
"T  c #767C83",
"R  c #767D88",
"E  c #767B90",
"W  c #2C89AF",
"Q  c #2D8BB0",
"!  c #3591AF",
"~  c #389FBC",
"^  c #3AA2BD",
"/  c #2FB6C3",
"(  c #3FAAC2",
")  c #34B9C5",
"_  c #4D98B6",
"`  c #7D848A",
"'  c #6DA89C",
"]  c #7DB3A5",
"[  c #40ADC4",
"{  c #5DB1C7",
"}  c #66BECF",
"|  c #4ECBD4",
" . c #51CAD5",
".. c #61D2DB",
"X. c #6AD5DD",
"o. c #901F3D",
"O. c #832535",
"+. c #96213A",
"@. c #9C2439",
"#. c #A12637",
"$. c #AB2A34",
"%. c #AF313E",
"&. c #B22C32",
"*. c #B53139",
"=. c #BB3030",
"-. c #BC3D3D",
";. c #871D40",
":. c #9E2D44",
">. c #83452E",
",. c #8B5539",
"<. c #A15F35",
"1. c #A56638",
"2. c #B0783B",
"3. c #874C44",
"4. c #825149",
"5. c #8C514B",
"6. c #866249",
"7. c #83655C",
"8. c #9C654B",
"9. c #92695F",
"0. c #8D7A72",
"q. c #BE504B",
"w. c #AB7F59",
"e. c #B47050",
"r. c #B8766B",
"t. c #C13432",
"y. c #C53B34",
"u. c #C23F39",
"i. c #CB3D36",
"p. c #C1433D",
"a. c #C7483F",
"s. c #CC4337",
"d. c #CD4338",
"f. c #D54339",
"g. c #D44B3B",
"h. c #D8443A",
"j. c #DA4B3C",
"k. c #D6503B",
"l. c #DD533D",
"z. c #E0543F",
"x. c #C54740",
"c. c #CB554B",
"v. c #C35D53",
"b. c #D55542",
"n. c #D1574E",
"m. c #E55C41",
"M. c #E56142",
"N. c #E86343",
"B. c #EC6A45",
"V. c #E06453",
"C. c #9C7D81",
"Z. c #BA853F",
"A. c #B48348",
"S. c #BC8942",
"D. c #B98A4C",
"F. c #BE914E",
"G. c #B48961",
"H. c #DF873D",
"J. c #E48D3E",
"K. c #DC8E56",
"L. c #DA9140",
"P. c #CC9562",
"I. c #C59E7C",
"U. c #DF8266",
"Y. c #DC8C6F",
"T. c #DE8E70",
"R. c #D19768",
"E. c #D69A6F",
"W. c #D89C72",
"Q. c #DCAA47",
"!. c #DDAC4A",
"~. c #DDB457",
"^. c #C2A17D",
"/. c #D9AC7D",
"(. c #E2A144",
"). c #E0B453",
"_. c #E0B25B",
"`. c #E1BB5E",
"'. c #E2BF63",
"]. c #868D92",
"[. c #9D9393",
"{. c #999C9F",
"}. c #8597A6",
"|. c #8D93AB",
" X c #9294A7",
".X c #969FA4",
"XX c #84B7A8",
"oX c #A89C8F",
"OX c #BF9B89",
"+X c #B8A299",
"@X c #A3A7BE",
"#X c #AAAFB2",
"$X c #A8B2B6",
"%X c #AFB5B8",
"&X c #B1B5B8",
"*X c #B4BABD",
"=X c #B8BBBD",
"-X c #B8BEC1",
";X c #B3C5CD",
":X c #BCC2C4",
">X c #BEEAEC",
",X c #D4AD83",
"<X c #D4AE8F",
"1X c #D3B695",
"2X c #D5BC99",
"3X c #DFB995",
"4X c #C7B7A2",
"5X c #CFBEA5",
"6X c #C3B7B3",
"7X c #CFBFB3",
"8X c #C1C1BD",
"9X c #DCCBBD",
"0X c #EAC39C",
"qX c #E0CCAB",
"wX c #EDCFA6",
"eX c #E9D5BF",
"rX c #F1DBB1",
"tX c #C1C5C6",
"yX c #C4C9CB",
"uX c #CDCDCA",
"iX c #D4D4D4",
"pX c #DADAD6",
"aX c #DFDDD9",
"sX c #C6EDEE",
"dX c #C1EDF0",
"fX c #D1EEEE",
"gX c #E4E3DB",
"hX c #EDEADF",
"jX c #E6E5E4",
"kX c #EEEEED",
"lX c #E0F4F3",
"zX c #F1EEE5",
"xX c #F4F3EC",
"cX c #FBFBF8",
"vX c None",
/* pixels */
"vXvXvXvXvXvXvXvXvXvXvXvXvXvXvXvXvXvXvXvXvXvXvXvXvXvXvXvXvXvXvXvXvXvXvXvXvXvXvXvXvXvXvXvXvXvXvXvXvXvXvXvXvXvXvXvXvXvXvXvXvXvXvXvX",
"vXvXvXvXvXvXvXvXvXvXvXvXvXvXvXvXvXvXvXvXvXvXvXvXvXvXvXvXvXvXvXvXvXvXvXvXvXvXvXvXvXvXvXvXvXvXvXvXvXvXvXvXvXvXvXvXvXvXvXvXvXvXvXvX",
"vXvXvXvXvXvXvXvXvXvXvXvXvXvXvXvXvXvXvXvXvXvXvXvXvXvXvXvXvXvXvXvXvXvXvXvXvXvXvXvXvXvXvXvXvXvXvXvXvXvXvXvXvXvXvXvXvXvXvXvXvXvXvXvX",
"vXvXvXvXvXvXvXvXvXvXvXvXvXvXvXvXvXvXvXvXvXvXvXvXvXvXvXvXvXvXvXvXvXvXvXvXvXvXvXvXvXvXvXvXvXvXvXvXvXvXvXvXvXvXvXvXvXvXvXvXvXvXvXvX",
"vXvXvXvXvXvXvXvXvXvXvXvXvXvXvXvXvXvXvXvXvXvXvXvXvXvXvXvXvXvXvXvXvXvXvXvXvXvXvXvXvXvXvXvXvXvXvXvXvXvXvXvXvXvXvXvXvXvXvXvXvXvXvXvX",
"vXvXvXvXvXvXvXvXvXvXvXvXvXvXvXvXvXvXvXvXvXvXvXvXvXvXvXvXvXvXvXvXvXvXvXvXvXvXvXvXvXvXvXvXvXvXvXvXvXvXvXvXvXvXvXvXvXvXvXvXvXvXvXvX",
"vXvXvXvXvXvXvXvXvXvXvXvXvXvXvXvXvXvXvXvXvXvXvXvXvXvXvXvXvXvXvXvXvXvXvXvXvXvXvXvXvXvXvXvXvXvXvXvXvXvXvXvXvXvXvXvXvXvXvXvXvXvXvXvX",
"vXvXvXvXvXvXvXvXvXvXvXvXvXvXvXvXvXvXvXvXvXvXvXvXvXvXvXvXvXvXvXvXvXvXvXvXvXvXvXvXvXvXvXvXvXvXvXvXvXvXvXvXvXvXvXvXvXvXvXvXvXvXvXvX",
"vXvXvXvXvXvXvXvXvXvXvXvXvXvXvXvXvXvXvXvXvXvXvXvXvXvXvXvXvXvXvXvXvXvXvXvXvXvXvXvXvXvXvXvXvXvXvXvXvXvXvXvXvXvXvXvXvXvXvXvXvXvXvXvX",
"vXvXvXvXvXvXvXvXvXvXvXvXvXvXvXvXvXvXvXvXvXvXvXvXvXvXvXvXvXvXvXvXvXvXvXvXvXvXvXvXvXvXvXvXvXvXvXvXvXvXvXvXvXvXvXvXvXvXvXvXvXvXvXvX",
"vXvXvXvXvXvXvXvXvXvXvXvXvXvXvXvXvXvXvXvXvXvXvXvXvXvXvXvXvXvXvXvXvXvXvXvXvXvXvXvXvXvXvXvXvXvXvXvXvXvXvXvXvXvXvXvXvXvXvXvXvXvXvXvX",
"vXvXvXvXvXvXvXvXvXvXvXvXvXvXvXvXvXvXvXvXvXvXvXvXvXvXvXvXvXvXvXvXvXvXvXvXvXvXvXvXvXvXvXvXvXvXvXvXvXvXvXvXvXvXvXvXvXvXvXvXvXvXvXvX",
"vXvXvXvXvXvXvXvXvXvXvXvXvXvXvXvXvXvXvXvXvXvXvXvXvXvXvXvXvXvXvXvXvXvXvXvXvXvXvXvXvXvXvXvXvXvXvXvXvXvXvXvXvXvXvXvXvXvXvXvXvXvXvXvX",
"vXvXvXvXvXvXvXvXvXvXvXvXvXvXvXvXvXvXvXvXvXvXvXvXvXvXvXvXvXvXvXvXvXvXvXvXvXvXvXvXvXvXvXvXvXvXvXvXvXvXvXvXvXvXvXvXvXvXvXvXvXvXvXvX",
"vXvXvXvXvXvXvXvXvXvXvXvXvXvXvXvXvXvXvXvXvXvXvXvXvXvXvXvXvXvXvXvXvXvXvXvX=.=.=.=.vXvXvXvXvXvXvXvXvXvXvXvXvXvXvXvXvXvXvXvXvXvXvXvX",
"vXvXvXvXvXvXvXvXvXvXvXvXvXvXvXvXvXvXvXvXvXvXvXvXvXvXvXvXvXvXvXvXvXvXvX=.h.f.l.y.vXvXvXvXvXvXvXvXvXvXvXvXvXvXvXvXvXvXvXvXvXvXvXvX",
"vXvXvXvXvXvXvXvXvXvXvXvXvXvXvXvXvXvXvXvXvXvXvXvXvXvXvXvXvXvXvX=.y.y.y.j.M.N.j.m.=.vXvXvXvXvXvXvXvXvXvXvXvXvXvXvXvXvXvXvXvXvXvXvX",
"vXvXvXvXvXvXvXvXvXvXvXvXvXvXvXvXvXvXvXvXvXvXvXvXvXvXvXvXvXvX=.d.m.N.B.B.d.s.s.i.u.o.vXvXvXvXvXvXvXvXvXvXvXvXvXvXvXvXvXvXvXvXvXvX",
"vXvXvXvXvXvXvXvXvXvXvXvXvXvXvXvXvXvXvXvXvXvXvXvXvXvXvXvXvXo.-.b.h.f.g.d.k.t.d.k.g.#.o.vXvXvXvXvXvXvXvXvXvXvXvXvXvXvXvXvXvXvXvXvX",
"vXvXvXvXvXvXvXvXvXvXvXvXvXvXvXvXvXvXvXvXvXvXvXvXvXvXvXvXvX&.d.U.T.Y.Y.p.t.&.a.d.M.x.o.vXvXvXvXvXvXvXvXvXvXvXvXvXvXvXvXvXvXvXvXvX",
"vXvXvXvXvXvXvXvXvXvXvXvXvXvXvXvXvXvXvXvXvXvXvXvXvXvXvXvXvX;.#.r.rXqX4Xv.&.j h b.h.-.o.vXvXvXvXvXvXvXvXvXvXvXvXvXvXvXvXvXvXvXvXvX",
"vXvXvXvXvXvXvXvXvXvXvXvXvXvXvXvXvXvXvXvXvXvXvXvXvXvXvXvXvXg 9 = rX[.$ OXq.;.g :.i.-.o.vXvXvXvXvXvXvXvXvXvXvXvXvXvXvXvXvXvXvXvXvX",
"vXvXvXvXvXvXvXvXvXvXvXvXvXvXvXvXvXvXvXvXvXvXvXvXvXvXvXvXvXvX@.[.wXqX[.qXq.j g g i.*.o.vXvXvXvXvXvXvXvXvXvXvXvXvXvXvXvXvXvXvXvXvX",
"vXvXvXvXvXvXvXvXvXvXvXvXvXvXvXvXvXvXvXvXvXvXvXvXvXvXvXvXvXvX@.n.V.V.V.c.&.j g g h.x.o.vXvXvXvXvXvXvXvXvXvXvXvXvXvXvXvXvXvXvXvXvX",
"vXvXvXvXvXvXvXvXvXvXvXvXvXvXvXvXvXvXvXvXvXvXvXvXvXvXvXvXvX4 9 $.d.y.&.+.;.j 5 4 k %.o.vXvXvXvXvXvXvXvXvXvXvXvXvXvXvXvXvXvXvXvXvX",
"vXvXvXvXvXvXvXvXvXvXvXvXvXvXvXvXvXvXvXvXvXvXvXvXvXvXvXvX4 8 8 i $.@.o.O.r e 8 8 4 6 vXvXvXvXvXvXvXvXvXvXvXvXvXvXvXvXvXvXvXvXvXvX",
"vXvXvXvXvXvXvXvXvXvXvXvXvXvXvXvXvXvXvXvXvXvXvXvXvXvXvXvX4 8 p y o.;.O.u s s a p q 8 4 vXvXvXvXvXvXvXvXvXvXvXvXvXvXvXvXvXvXvXvXvX",
"vXvXvXvXvXvXvXvXvXvXvXvXvXvXvXvXvXvXvXvXvXvXvXvXvXvXvXvX4 y l a w u a a >.>.s p a y 8 4 vXvXvXvXvXvXvXvXvXvXvXvXvXvXvXvXvXvXvXvX",
"vXvXvXvXvXvXvXvXvXvXvXvXvXvXvXvXvXvXvXvXvXvXvXvXvXvXvXvX7 p l >.>.>.>.a p p p y p y y 7 vXvXvXvXvXvXvXvXvXvXvXvXvXvXvXvXvXvXvXvX",
"vXvXvXvXvXvXvXvXvXvXvXvXvXvXvXvXvXvXvXvXvXvXvXvXvXvXvXvX9.4.a l l p p p l a y v v q 8 7 vXvXvXvXvXvXvXvXvXvXvXvXvXvXvXvXvXvXvXvX",
"vXvXvXvXvXvXvXvXvXvXvXvXvXvXvXvXvXvXvXvXvXvXvXvXvXvXvXvXrX<Xv a l l l l y 8 7 I.,X8.d 4 vXvXvXvXvXvXvXvXvXvXvXvXvXvXvXvXvXvXvXvX",
"vXvXvXvXvXvXvXvXvXvXvXvXvXvXvXvXvXvXvXvXvXvXvXvXvXvXvXvXrX0X5.w y p p y p q 8 7XwXE.P.vXvXvXvXvXvXvXvXvXvXvXvXvXvXvXvXvXvXvXvXvX",
"vXvXvXvXvXvXvXvXvXvXvXvXvXvXvXvXvXvXvXvXvXvXvXvXvXvXvXvXrX0XK.J.'.~.~.Q.Q.Q.H.eXwXW.P.vXvXvXvXvXvXvXvXvXvXvXvXvXvXvXvXvXvXvXvXvX",
"vXvXvXvXvXvXvXvXvXvXvXvXvXvXvXvXvXvXvXvXvXvXvXvXvXvXvXvXrXwXe.A.F.F.A.Z.Z.S.1.9XwXW.' / vXvXvXvXvXvXvXvXvXvXvXvXvXvXvXvXvXvXvXvX",
"vXvXvXvXvXvXvXvXvXvXvXvXvXvXvXvXvXvXvXvXvXvXvXvXH H H vXrX0Xe.A.F.F.F.Z.Z.2.<.9XwXW.] ) vXvXvXvXvXvXvXvXvXvXvXvXvXvXvXvXvXvXvXvX",
"vXvXvXvXvXvXvXvXvXvXvXvXvXvXvXvXvXvXvXvXvXvXvX` uX&XE G rX0XK._.`.).'.'.Q.Q.H.eXwXW.XX| / vXvXvXvXvXvXvXvXvXvXvXvXvXvXvXvXvXvXvX",
"vXvXvXvXvXvXvXvXvXvXvXvXvXvXvXvXvXvXvXvXvXiXyXgXiX=X` C K 3X3.p l c x x p t q 1XwXW.] ) vXvXvXvXvXvXvXvXvXvXvXvXvXvXvXvXvXvXvXvX",
"vXvXvXvXvXvXvXvXvXvXvXvXvXvXvXvXvXvXvXvXvXiXkXzXuX].N Z G 7.y >.,.0.{.].D l z 2XwXW.' / vXvXvXvXvXvXvXvXvXvXvXvXvXvXvXvXvXvXvXvX",
"vXvXvXvXvXvXvXvXvXvXvXvXvXvXvXvXvXvXvXvXvXiXkXzXaX#XH A : O y >.oXuXpX*XJ b S ^./.R.P.vXvXvXvXvXvXvXvXvXvXvXvXvXvXvXvXvXvXvXvXvX",
"vXvXvXvXvXvXvXvXvXvXvXvXvXvXvXvXvXvXvXvXvX_ } lXhXaX&Xm o 4 u +XkXaX:XL 6.B A G.P.P.P.vXvXvXvXvXvXvXvXvXvXvXvXvXvXvXvXvXvXvXvXvX",
"vXvXvXvXvXvXvXvXvXvXvXvXvXvXvXvXvXvXvXvXvXW (  .lXzXaX-XF M 0 6XcXgX:XL Z Z ; w.vXvXvXvXvXvXvXvXvXvXvXvXvXvXvXvXvXvXvXvXvXvXvXvX",
"vXvXvXvXvXvXvXvXvXvXvXvXvXvXvXvXvXvXvXvXvXvXW [ X.fXhXaX-XR X |.sXzXgXyXR ; @ n N vXvXvXvXvXvXvXvXvXvXvXvXvXvXvXvXvXvXvXvXvXvXvX",
"vXvXvXvXvXvXvXvXvXvXvXvXvXvXvXvXvXvXvXvXvXvXvXW [ X.fXzXgX|.+ I ..>XzXgX*XZ > R ].H vXvXvXvXvXvXvXvXvXvXvXvXvXvXvXvXvXvXvXvXvXvX",
"vXvXvXvXvXvXvXvXvXvXvXvXvXvXvXvXvXvXvXvXvXvXvXvXQ [ X.lXcX-X# f ^ ..sXzXiX=X.XtX=XH vXvXvXvXvXvXvXvXvXvXvXvXvXvXvXvXvXvXvXvXvXvX",
"vXvXvXvXvXvXvXvXvXvXvXvXvXvXvXvXvXvXvXvXvXvXvXvXvXW W ;XiX|.% # : !  .dXzXgXpXiX6XH vXvXvXvXvXvXvXvXvXvXvXvXvXvXvXvXvXvXvXvXvXvX",
"vXvXvXvXvXvXvXvXvXvXvXvXvXvXvXvXvXvXvXvXvXvXvXvXvXvXvXvXvXP 2 % + 1 ~  .sXxXxXiX` vXvXvXvXvXvXvXvXvXvXvXvXvXvXvXvXvXvXvXvXvXvXvX",
"vXvXvXvXvXvXvXvXvXvXvXvXvXvXvXvXvXvXvXvXvXvXvXvXvXvXvXvXvXP 2 % + vXW ~ } jXjX*XvXvXvXvXvXvXvXvXvXvXvXvXvXvXvXvXvXvXvXvXvXvXvXvX",
"vXvXvXvXvXvXvXvXvXvXvXvXvXvXvXvXvXvXvXvXvXvXvXvXvXvXvXvXvXP P , + vXvXW & V U Y vXvXvXvXvXvXvXvXvXvXvXvXvXvXvXvXvXvXvXvXvXvXvXvX",
"vXvXvXvXvXvXvXvXvXvXvXvXvXvXvXvXvXvXvXvXvXvXvXvXvXvXvXvXvX3 < - @ vXvXvX* < 3 3 vXvXvXvXvXvXvXvXvXvXvXvXvXvXvXvXvXvXvXvXvXvXvXvX",
"vXvXvXvXvXvXvXvXvXvXvXvXvXvXvXvXvXvXvXvXvXvXvXvXvXvXvXvXvX4 8 w 4 vXvXvX8 w 8 4 vXvXvXvXvXvXvXvXvXvXvXvXvXvXvXvXvXvXvXvXvXvXvXvX",
"vXvXvXvXvXvXvXvXvXvXvXvXvXvXvXvXvXvXvXvXvXvXvXvXvXvXvXvXvX4 0 w 4 vXvXvX8 w 8 4 vXvXvXvXvXvXvXvXvXvXvXvXvXvXvXvXvXvXvXvXvXvXvXvX",
"vXvXvXvXvXvXvXvXvXvXvXvXvXvXvXvXvXvXvXvXvXvXvXvXvXvXvXvXvX4 8 8 4 vXvXvX4 8 7 4 vXvXvXvXvXvXvXvXvXvXvXvXvXvXvXvXvXvXvXvXvXvXvXvX",
"vXvXvXvXvXvXvXvXvXvXvXvXvXvXvXvXvXvXvXvXvXvXvXvXvXvXvXvXvXvXvXvXvXvXvXvXvXvXvXvXvXvXvXvXvXvXvXvXvXvXvXvXvXvXvXvXvXvXvXvXvXvXvXvX",
"vXvXvXvXvXvXvXvXvXvXvXvXvXvXvXvXvXvXvXvXvXvXvXvXvXvXvXvXvXvXvXvXvXvXvXvXvXvXvXvXvXvXvXvXvXvXvXvXvXvXvXvXvXvXvXvXvXvXvXvXvXvXvXvX",
"vXvXvXvXvXvXvXvXvXvXvXvXvXvXvXvXvXvXvXvXvXvXvXvXvXvXvXvXvXvXvXvXvXvXvXvXvXvXvXvXvXvXvXvXvXvXvXvXvXvXvXvXvXvXvXvXvXvXvXvXvXvXvXvX",
"vXvXvXvXvXvXvXvXvXvXvXvXvXvXvXvXvXvXvXvXvXvXvXvXvXvXvXvXvXvXvXvXvXvXvXvXvXvXvXvXvXvXvXvXvXvXvXvXvXvXvXvXvXvXvXvXvXvXvXvXvXvXvXvX",
"vXvXvXvXvXvXvXvXvXvXvXvXvXvXvXvXvXvXvXvXvXvXvXvXvXvXvXvXvXvXvXvXvXvXvXvXvXvXvXvXvXvXvXvXvXvXvXvXvXvXvXvXvXvXvXvXvXvXvXvXvXvXvXvX",
"vXvXvXvXvXvXvXvXvXvXvXvXvXvXvXvXvXvXvXvXvXvXvXvXvXvXvXvXvXvXvXvXvXvXvXvXvXvXvXvXvXvXvXvXvXvXvXvXvXvXvXvXvXvXvXvXvXvXvXvXvXvXvXvX",
"vXvXvXvXvXvXvXvXvXvXvXvXvXvXvXvXvXvXvXvXvXvXvXvXvXvXvXvXvXvXvXvXvXvXvXvXvXvXvXvXvXvXvXvXvXvXvXvXvXvXvXvXvXvXvXvXvXvXvXvXvXvXvXvX",
"vXvXvXvXvXvXvXvXvXvXvXvXvXvXvXvXvXvXvXvXvXvXvXvXvXvXvXvXvXvXvXvXvXvXvXvXvXvXvXvXvXvXvXvXvXvXvXvXvXvXvXvXvXvXvXvXvXvXvXvXvXvXvXvX",
"vXvXvXvXvXvXvXvXvXvXvXvXvXvXvXvXvXvXvXvXvXvXvXvXvXvXvXvXvXvXvXvXvXvXvXvXvXvXvXvXvXvXvXvXvXvXvXvXvXvXvXvXvXvXvXvXvXvXvXvXvXvXvXvX",
"vXvXvXvXvXvXvXvXvXvXvXvXvXvXvXvXvXvXvXvXvXvXvXvXvXvXvXvXvXvXvXvXvXvXvXvXvXvXvXvXvXvXvXvXvXvXvXvXvXvXvXvXvXvXvXvXvXvXvXvXvXvXvXvX",
"vXvXvXvXvXvXvXvXvXvXvXvXvXvXvXvXvXvXvXvXvXvXvXvXvXvXvXvXvXvXvXvXvXvXvXvXvXvXvXvXvXvXvXvXvXvXvXvXvXvXvXvXvXvXvXvXvXvXvXvXvXvXvXvX",
"vXvXvXvXvXvXvXvXvXvXvXvXvXvXvXvXvXvXvXvXvXvXvXvXvXvXvXvXvXvXvXvXvXvXvXvXvXvXvXvXvXvXvXvXvXvXvXvXvXvXvXvXvXvXvXvXvXvXvXvXvXvXvXvX"
};
