/* XPM */
static char *pl_idle3[] = {
/* columns rows colors chars-per-pixel */
"64 64 208 2",
"   c black",
".  c #381934",
"X  c #101445",
"o  c #12174A",
"O  c #131B4E",
"+  c #1D1845",
"@  c #161D52",
"#  c #1B275F",
"$  c #1A2E5E",
"%  c #1E2A66",
"&  c #2A1A40",
"*  c #26264D",
"=  c #33265E",
"-  c #202E69",
";  c #20346B",
":  c #213B6F",
">  c #233C72",
",  c #244075",
"<  c #274B7D",
"1  c #541D29",
"2  c #56252C",
"3  c #5C2429",
"4  c #5B292E",
"5  c #562830",
"6  c #621E39",
"7  c #602729",
"8  c #632A28",
"9  c #692E29",
"0  c #6C3329",
"q  c #7F2235",
"w  c #792B30",
"e  c #72362A",
"r  c #753A2A",
"t  c #7A3D2A",
"y  c #66164C",
"u  c #691D45",
"i  c #7E1B43",
"p  c #7B2245",
"a  c #7E402B",
"s  c #7E4630",
"d  c #41434A",
"f  c #494B52",
"g  c #51545C",
"h  c #595158",
"j  c #5E636A",
"k  c #5B6275",
"l  c #664E5B",
"z  c #705A4A",
"x  c #705258",
"c  c #6C4D65",
"v  c #62676E",
"b  c #646971",
"n  c #6B7179",
"m  c #7C646A",
"M  c #776076",
"N  c #75777E",
"B  c #295583",
"V  c #737084",
"C  c #737980",
"Z  c #7D7F81",
"A  c #35858F",
"S  c #2C89AF",
"D  c #3294B5",
"F  c #35A0AB",
"G  c #2FB6C3",
"H  c #30B7C3",
"J  c #34B9C5",
"K  c #3ABEC9",
"L  c #4D98B6",
"P  c #53B1BA",
"I  c #6DA89C",
"U  c #6FA7BE",
"Y  c #76AEA1",
"T  c #40ADC4",
"R  c #44B3C7",
"E  c #45B5C9",
"W  c #4ABECE",
"Q  c #6EB0C3",
"!  c #42C3CD",
"~  c #4CC1CF",
"^  c #4DC3D1",
"/  c #4DCAD4",
"(  c #53C0C9",
")  c #6ECBD7",
"_  c #6FD6DE",
"`  c #901F3D",
"'  c #862337",
"]  c #892239",
"[  c #96213A",
"{  c #A22637",
"}  c #A02638",
"|  c #A83039",
" . c #B22C32",
".. c #B73034",
"X. c #882040",
"o. c #82442D",
"O. c #84482E",
"+. c #874C31",
"@. c #894E31",
"#. c #8D5333",
"$. c #905634",
"%. c #925A36",
"&. c #9B6036",
"*. c #9C643B",
"=. c #A16D3F",
"-. c #AB763D",
";. c #B86837",
":. c #BD783B",
">. c #8F4846",
",. c #824954",
"<. c #8F5844",
"1. c #835355",
"2. c #9A5C5B",
"3. c #8F6E52",
"4. c #9C654B",
"5. c #85686D",
"6. c #9E7F64",
"7. c #A36259",
"8. c #AE6A55",
"9. c #A57140",
"0. c #AC7A44",
"q. c #AB7654",
"w. c #C13432",
"e. c #D13F38",
"r. c #DC473C",
"t. c #CA6048",
"y. c #C46258",
"u. c #D66F60",
"i. c #D47765",
"p. c #828B7C",
"a. c #AD815A",
"s. c #B28F7A",
"d. c #DA833C",
"f. c #C59040",
"g. c #CC9843",
"h. c #CE9D48",
"j. c #CB9B52",
"k. c #D89741",
"l. c #C48868",
"z. c #CC9562",
"x. c #D19768",
"c. c #D4996D",
"v. c #D89C72",
"b. c #DC9E78",
"n. c #CEA04C",
"m. c #CFA555",
"M. c #D7A444",
"N. c #D5A74A",
"B. c #D7AE55",
"V. c #D0A859",
"C. c #C1A07C",
"Z. c #D9AC7D",
"A. c #D8B560",
"S. c #E4826A",
"D. c #868385",
"F. c #84898E",
"G. c #8A9093",
"H. c #8E959A",
"J. c #9BA2A6",
"K. c #9BA5A9",
"L. c #A3A19E",
"P. c #B7A19E",
"I. c #BEB09F",
"U. c #AAB1B4",
"Y. c #AFB7BA",
"T. c #B3B4B4",
"R. c #B3B8BB",
"E. c #B7BFC2",
"W. c #AFC2BF",
"Q. c #90D6DF",
"!. c #8ADEE4",
"~. c #90DFE4",
"^. c #91E0E6",
"/. c #A1D5D4",
"(. c #A7D9D7",
"). c #BBC1C4",
"_. c #D3B08F",
"`. c #DAB285",
"'. c #D9B794",
"]. c #DBB79B",
"[. c #D3C2A2",
"{. c #D7C5A8",
"}. c #EDCFA6",
"|. c #EAD2AB",
" X c #F1DBB1",
".X c #F0DEBA",
"XX c #C6C7C2",
"oX c #C3C7C8",
"OX c #C6C9CB",
"+X c #CBCBC7",
"@X c #CACCCD",
"#X c #CFD0D1",
"$X c #D2C0C2",
"%X c #D4D4D3",
"&X c #D8D7D6",
"*X c #D9D8D6",
"=X c #DDDDDA",
"-X c #D4E9EA",
";X c #E4E2DB",
":X c #EEE7D6",
">X c #E9E6DD",
",X c #EBE8DE",
"<X c #EEEBE0",
"1X c #E9F1ED",
"2X c #F5F3EE",
"3X c #F6F6F6",
"4X c #F8F7F3",
"5X c None",
/* pixels */
"5X5X5X5X5X5X5X5X5X5X5X5X5X5X5X5X5X5X5X5X5X5X5X5X5X5X5X5X5X5X5X5X5X5X5X5X5X5X5X5X5X5X5X5X5X5X5X5X5X5X5X5X5X5X5X5X5X5X5X5X5X5X5X5X",
"5X5X5X5X5X5X5X5X5X5X5X5X5X5X5X5X5X5X5X5X5X5X5X5X5X5X5X5X5X5X5X5X5X5X5X5X5X5X5X5X5X5X5X5X5X5X5X5X5X5X5X5X5X5X5X5X5X5X5X5X5X5X5X5X",
"5X5X5X5X5X5X5X5X5X5X5X5X5X5X5X5X5X5X5X5X5X5X5X5X5X5X5X5X5X5X5X5X5X5X5X5X5X5X5X5X5X5X5X5X5X5X5X5X5X5X5X5X5X5X5X5X5X5X5X5X5X5X5X5X",
"5X5X5X5X5X5X5X5X5X5X5X5X5X5X5X5X5X5X5X5X5X5X5X5X5X5X5X5X5X5X5X5X5X5X5X5X5X5X5X5X5X5X5X5X5X5X5X5X5X5X5X5X5X5X5X5X5X5X5X5X5X5X5X5X",
"5X5X5X5X5X5X5X5X5X5X5X5X5X5X5X5X5X5X5X5X5X5X5X5X5X5X5X5X5X5X5X5X5X5X5X5X5X5X5X5X5X5X5X5X5X5X5X5X5X5X5X5X5X5X5X5X5X5X5X5X5X5X5X5X",
"5X5X5X5X5X5X5X5X5X5X5X5X5X5X5X5X5X5X5X5X5X5X5X5X5X5X5X5X5X5X5X5X5X5X5X5X5X5X5X5X5X5X5X5X5X5X5X5X5X5X5X5X5X5X5X5X5X5X5X5X5X5X5X5X",
"5X5X5X5X5X5X5X5X5X5X5X5X5X5X5X5X5X5X5X5X5X5X5X5X5X5X5X5X5X5X5X5X5X5X5X5X5X5X5X5X5X5X5X5X5X5X5X5X5X5X5X5X5X5X5X5X5X5X5X5X5X5X5X5X",
"5X5X5X5X5X5X5X5X5X5X5X5X5X5X5X5X5X5X5X5X5X5X5X5X5X5X5X5X5X5X5X5X5X5X5X5X5X5X5X5X5X5X5X5X5X5X5X5X5X5X5X5X5X5X5X5X5X5X5X5X5X5X5X5X",
"5X5X5X5X5X5X5X5X5X5X5X5X5X5X5X5X5X5X5X5X5X5X5X5X5X5X5X5X5X5X5X5X5X5X5X5X5X5X5X5X5X5X5X5X5X5X5X5X5X5X5X5X5X5X5X5X5X5X5X5X5X5X5X5X",
"5X5X5X5X5X5X5X5X5X5X5X5X5X5X5X5X5X5X5X5X5X5X5X5X5X5X5X5X5X5X5X5X5X5X5X5X5X5X5X5X5X5X5X5X5X5X5X5X5X5X5X5X5X5X5X5X5X5X5X5X5X5X5X5X",
"5X5X5X5X5X5X5X5X5X5X5X5X5X5X5X5X5X5X5X5X5X5X5X5X5X5X5X5X5X5X5X5X5X5X5X5X5X5X5X5X5X5X5X5X5X5X5X5X5X5X5X5X5X5X5X5X5X5X5X5X5X5X5X5X",
"5X5X5X5X5X5X5X5X5X5X5X5X5X5X5X5X5X5X5X5X5X5X5X5X5X5X5X5X5X5X5X5X5X5X5X5X5X5X5X5X5X5X5X5X5X5X5X5X5X5X5X5X5X5X5X5X5X5X5X5X5X5X5X5X",
"5X5X5X5X5X5X5X5X5X5X5X5X5X5X5X5X5X5X5X5X5X5X5X5X5X5X5X5X5X5X5X5X5X5X5X5X5X5X5X5X5X5X5X5X5X5X5X5X5X5X5X5X5X5X5X5X5X5X5X5X5X5X5X5X",
"5X5X5X5X5X5X5X5X5X5X5X5X5X5X5X5X5X5X5X5X5X5X5X5X5X5X5X5X5X5X5X5X5X5X5X5X5X5X5X5X5X5X5X5X5X5X5X5X5X5X5X5X5X5X5X5X5X5X5X5X5X5X5X5X",
"5X5X5X5X5X5X5X5X5X5X5X5X5X5X5X5X5X5X5X5X5X5X5X5X5X5X5X5X%X%X%XL S 5X5X5XS U %X%X5X5X5X5X5X5X5X5X5X5X5X5X5X5X5X5X5X5X5X5X5X5X5X5X",
"5X5X5X5X5X5X5X5X5X5X5X5X5X5X5X5X5X5X5X5X5X5X5X5X5X5X5X5XE.3X3X) E S 5XS ^ ~.3X3XU.5X5X5X5X5X5X5X5X5X5X5X5X5X5X5X5X5X5X5X5X5X5X5X",
"5X5X5X5X5X5X5X5X5X5X5X5X5X5X5X5X5X5X5X5X5X5X5X5X5X5Xn G.>X>X,X4X_ T D ^ ^.2X,X>X%XF.n 5X5X5X5X5X5X5X5X5X5X5X5X5X5X5X5X5X5X5X5X5X",
"5X5X5X5X5X5X5X5X5X5X5X5X5X5X5X5X5X5X5X5X5X5X5X5X5X5Xn +X%XoX%X;X-XJ W !.2X;X#XOX*XT.n 5X5X5X5X5X5X5X5X5X5X5X5X5X5X5X5X5X5X5X5X5X",
"5X5X5X5X5X5X5X5X5X5X5X5X5X5X5X5X5X5X5X5X5X5X5X5X5X5Xn U.U.N K.%XQ W ^.1X>X@XH.C E.J.n 5X5X5X5X5X5X5X5X5X5X5X5X5X5X5X5X5X5X5X5X5X",
"5X5X5X5X5X5X5X5X5X5X5X5X5X5X5X5X5X5X5X5X5X5X5X5X5X5Xn b j g f J.D ~.1X<X%XF.>.t.v b n 5X5X5X5X5X5X5X5X5X5X5X5X5X5X5X5X5X5X5X5X5X",
"5X5X5X5X5X5X5X5X5X5X5X5X5X5X5X5X5X5X5X5X5X5X5X5X5X5Xz.z.z.3.f v =X4X<X#XH.v d q.j.z.z.5X5X5X5X5X5X5X5X5X5X5X5X5X5X5X5X5X5X5X5X5X",
"5X5X5X5X5X5X5X5X5X5X5X5X5X5X5X5X5X5X5X5X5X5X5X5X5X5X'.`.x.6.k 1.=X4X=XR.h x j C.`.x.z.5X5X5X5X5X5X5X5X5X5X5X5X5X5X5X5X5X5X5X5X5X",
"5X5X5X5X5X5X5X5X5X5X5X5X5X5X5X5X5X5X5X5X5X5X5X5X5X5X<X.Xb.6.1.2.).=X=XOXD.,.l [.}.v.z.5X5X5X5X5X5X5X5X5X5X5X5X5X5X5X5X5X5X5X5X5X",
"5X5X5X5X5X5X5X5X5X5X5X5X5X5X5X5X5X5X5X5X5X5X5X5X5X5X<X.Xb.8.| m R.R.XX*XK.c p ].}.v.z.5X5X5X5X5X5X5X5X5X5X5X5X5X5X5X5X5X5X5X5X5X",
"5X5X5X5X5X5X5X5X5X5X5X5X5X5X5X5X5X5X5X5X5X5X5X5XH A L..Xb.7.i = D.N k Z 5.i y $X}.v.z F H 5X5X5X5X5X5X5X5X5X5X5X5X5X5X5X5X5X5X5X",
"5X5X5X5X5X5X5X5X5X5X5X5X5X5X5X5X5X5X5X5X5X5X5XG ! P W..Xb.z.X.M  XI.V {.y.X.y <X}.v.p.( K G 5X5X5X5X5X5X5X5X5X5X5X5X5X5X5X5X5X5X",
"5X5X5X5X5X5X5X5X5X5X5X5X5X5X5X5X5X5X5X5X5X5X5XG ! / (..Xb.z.[ u.i.S.S.i. .i y <X}.v.Y / K G 5X5X5X5X5X5X5X5X5X5X5X5X5X5X5X5X5X5X",
"5X5X5X5X5X5X5X5X5X5X5X5X5X5X5X5X5X5X5X5X5X5X5X5XG J /..Xb.j.[  .r.r.w.{ ` i y <X|.v.I J G 5X5X5X5X5X5X5X5X5X5X5X5X5X5X5X5X5X5X5X",
"5X5X5X5X5X5X5X5X5X5X5X5X5X5X5X5X5X5X5X5X5X5X5X5X5X5X:X|.l.<.3 q  .{ ` ] u 6 1 P._.v.z.5X5X5X5X5X5X5X5X5X5X5X5X5X5X5X5X5X5X5X5X5X",
"5X5X5X5X5X5X5X5X5X5X5X5X5X5X5X5X5X5X5X5X5X5X5X5X5X5Xs.q.9 9 r 0 ` ` ] 9 t t e 9 0 4.4.5X5X5X5X5X5X5X5X5X5X5X5X5X5X5X5X5X5X5X5X5X",
"5X5X5X5X5X5X5X5X5X5X5X5X5X5X5X5X5X5X5X5X5X5X5X5X5X5X1 3 e r t r w w e e o.o.t 0 9 3 1 5X5X5X5X5X5X5X5X5X5X5X5X5X5X5X5X5X5X5X5X5X",
"5X5X5X5X5X5X5X5X5X5X5X5X5X5X5X5X5X5X5X5X5X5X5X5X5X5X5X1 3 r a a o.o.o.t e r e e e 1 1 5X5X5X5X5X5X5X5X5X5X5X5X5X5X5X5X5X5X5X5X5X",
"5X5X5X5X5X5X5X5X5X5X5X5X5X5X5X5X5X5X5X5X5X5X5X5X5X5X5X5X1 7 a s o.e r 0 a a e 9 1 5X5X5X5X5X5X5X5X5X5X5X5X5X5X5X5X5X5X5X5X5X5X5X",
"5X5X5X5X5X5X5X5X5X5X5X5X5X5X5X5X5X5X5X5X5X5X5X5X5X5X5X5X5X1 8 ' t r r a r 3 3 2 5X5X5X5X5X5X5X5X5X5X5X5X5X5X5X5X5X5X5X5X5X5X5X5X",
"5X5X5X5X5X5X5X5X5X5X5X5X5X5X5X5X5X5X5X5X5X5X5X5X5X5X5X5X5X5X3 0 t r r e 0 8 3 2 5X5X5X5X5X5X5X5X5X5X5X5X5X5X5X5X5X5X5X5X5X5X5X5X",
"5X5X5X5X5X5X5X5X5X5X5X5X5X5X5X5X5X5X5X5X5X5X5X5X5X5X5X5X5X5Xt.k.A.B.B.M.M.d.d.d.5X5X5X5X5X5X5X5X5X5X5X5X5X5X5X5X5X5X5X5X5X5X5X5X",
"5X5X5X5X5X5X5X5X5X5X5X5X5X5X5X5X5X5X5X5X5X5X5X5X5X5X5X5X5X5Xe 9.a.=.&.&.-.-.#.r 5X5X5X5X5X5X5X5X5X5X5X5X5X5X5X5X5X5X5X5X5X5X5X5X",
"5X5X5X5X5X5X5X5X5X5X5X5X5X5X5X5X5X5X5X5X5X5X5X5X5X5X5X5X5X5X;.j.N.V.V.n.g.f.:.;.5X5X5X5X5X5X5X5X5X5X5X5X5X5X5X5X5X5X5X5X5X5X5X5X",
"5X5X5X5X5X5X5X5X5X5X5X5X5X5X5X5X5X5X5X5X5X5X5X5X5X5X5X5X5X5X;.j.m.n.V.V.g.f.:.;.5X5X5X5X5X5X5X5X5X5X5X5X5X5X5X5X5X5X5X5X5X5X5X5X",
"5X5X5X5X5X5X5X5X5X5X5X5X5X5X5X5X5X5X5X5X5X5X5X5X5X5X5X5X5X5Xe #.$.#.%.%.+.s a r 5X5X5X5X5X5X5X5X5X5X5X5X5X5X5X5X5X5X5X5X5X5X5X5X",
"5X5X5X5X5X5X5X5X5X5X5X5X5X5X5X5X5X5X5X5X5X5X5X5X5X5X5X5X5X1 e t +.s O.O.o.o.t 3 5X5X5X5X5X5X5X5X5X5X5X5X5X5X5X5X5X5X5X5X5X5X5X5X",
"5X5X5X5X5X5X5X5X5X5X5X5X5X5X5X5X5X5X5X5X5X5X5X5X5X5X5X5X5X1 9 a $.@.$.O.O.O.+.3 5X5X5X5X5X5X5X5X5X5X5X5X5X5X5X5X5X5X5X5X5X5X5X5X",
"5X5X5X5X5X5X5X5X5X5X5X5X5X5X5X5X5X5X5X5X5X5X5X5X5X5X5X5X5X1 0 #.%.@.O.#.%.$.O.3 5X5X5X5X5X5X5X5X5X5X5X5X5X5X5X5X5X5X5X5X5X5X5X5X",
"5X5X5X5X5X5X5X5X5X5X5X5X5X5X5X5X5X5X5X5X5X5X5X5X5X5X5X5X5X1 e %.@.O.O.r #.%.a 3 5X5X5X5X5X5X5X5X5X5X5X5X5X5X5X5X5X5X5X5X5X5X5X5X",
"5X5X5X5X5X5X5X5X5X5X5X5X5X5X5X5X5X5X5X5X5X5X5X5X5X5X5X5X5XX . +.a @.$.%.%.a 2 1 5X5X5X5X5X5X5X5X5X5X5X5X5X5X5X5X5X5X5X5X5X5X5X5X",
"5X5X5X5X5X5X5X5X5X5X5X5X5X5X5X5X5X5X5X5X5X5X5X5X5X5X5X5X5X@ & e o.@.#.a a 2 * $ 5X5X5X5X5X5X5X5X5X5X5X5X5X5X5X5X5X5X5X5X5X5X5X5X",
"5X5X5X5X5X5X5X5X5X5X5X5X5X5X5X5X5X5X5X5X5X5X5X5X5X5X5X5X5X% @ 5 a #.O.t 4 * : : 5X5X5X5X5X5X5X5X5X5X5X5X5X5X5X5X5X5X5X5X5X5X5X5X",
"5X5X5X5X5X5X5X5X5X5X5X5X5X5X5X5X5X5X5X5X5X5X5X5X5X5X5X5X5XB ; + 3 3 3 3 + $ , < 5X5X5X5X5X5X5X5X5X5X5X5X5X5X5X5X5X5X5X5X5X5X5X5X",
"5X5X5X5X5X5X5X5X5X5X5X5X5X5X5X5X5X5X5X5X5X5X5X5X5X5X5X5X5XB , - o X X X @ > B B 5X5X5X5X5X5X5X5X5X5X5X5X5X5X5X5X5X5X5X5X5X5X5X5X",
"5X5X5X5X5X5X5X5X5X5X5X5X5X5X5X5X5X5X5X5X5X5X5X5X5X5X5X5X5XB < - @ X 5XX # > < B 5X5X5X5X5X5X5X5X5X5X5X5X5X5X5X5X5X5X5X5X5X5X5X5X",
"5X5X5X5X5X5X5X5X5X5X5X5X5X5X5X5X5X5X5X5X5X5X5X5X5X5X5X5X5XB < - X 5X5X5XO > < B 5X5X5X5X5X5X5X5X5X5X5X5X5X5X5X5X5X5X5X5X5X5X5X5X",
"5X5X5X5X5X5X5X5X5X5X5X5X5X5X5X5X5X5X5X5X5X5X5X5X5X5X5X5X5XB > - X 5X5X5XO > B B 5X5X5X5X5X5X5X5X5X5X5X5X5X5X5X5X5X5X5X5X5X5X5X5X",
"5X5X5X5X5X5X5X5X5X5X5X5X5X5X5X5X5X5X5X5X5X5X5X5X5X5X5X5X5X1 8 e 1 5X5X5X3 e 3 1 5X5X5X5X5X5X5X5X5X5X5X5X5X5X5X5X5X5X5X5X5X5X5X5X",
"5X5X5X5X5X5X5X5X5X5X5X5X5X5X5X5X5X5X5X5X5X5X5X5X5X5X5X5X5X1 3 8 1 5X5X5X1 8 3 1 5X5X5X5X5X5X5X5X5X5X5X5X5X5X5X5X5X5X5X5X5X5X5X5X",
"5X5X5X5X5X5X5X5X5X5X5X5X5X5X5X5X5X5X5X5X5X5X5X5X5X5X5X5X5X1 3 7 1 5X5X5X1 7 3 1 5X5X5X5X5X5X5X5X5X5X5X5X5X5X5X5X5X5X5X5X5X5X5X5X",
"5X5X5X5X5X5X5X5X5X5X5X5X5X5X5X5X5X5X5X5X5X5X5X5X5X5X5X5X5X1 1 1 1 5X5X5X1 1 1 1 5X5X5X5X5X5X5X5X5X5X5X5X5X5X5X5X5X5X5X5X5X5X5X5X",
"5X5X5X5X5X5X5X5X5X5X5X5X5X5X5X5X5X5X5X5X5X5X5X5X5X5X5X5X5X5X5X5X5X5X5X5X5X5X5X5X5X5X5X5X5X5X5X5X5X5X5X5X5X5X5X5X5X5X5X5X5X5X5X5X",
"5X5X5X5X5X5X5X5X5X5X5X5X5X5X5X5X5X5X5X5X5X5X5X5X5X5X5X5X5X5X5X5X5X5X5X5X5X5X5X5X5X5X5X5X5X5X5X5X5X5X5X5X5X5X5X5X5X5X5X5X5X5X5X5X",
"5X5X5X5X5X5X5X5X5X5X5X5X5X5X5X5X5X5X5X5X5X5X5X5X5X5X5X5X5X5X5X5X5X5X5X5X5X5X5X5X5X5X5X5X5X5X5X5X5X5X5X5X5X5X5X5X5X5X5X5X5X5X5X5X",
"5X5X5X5X5X5X5X5X5X5X5X5X5X5X5X5X5X5X5X5X5X5X5X5X5X5X5X5X5X5X5X5X5X5X5X5X5X5X5X5X5X5X5X5X5X5X5X5X5X5X5X5X5X5X5X5X5X5X5X5X5X5X5X5X",
"5X5X5X5X5X5X5X5X5X5X5X5X5X5X5X5X5X5X5X5X5X5X5X5X5X5X5X5X5X5X5X5X5X5X5X5X5X5X5X5X5X5X5X5X5X5X5X5X5X5X5X5X5X5X5X5X5X5X5X5X5X5X5X5X",
"5X5X5X5X5X5X5X5X5X5X5X5X5X5X5X5X5X5X5X5X5X5X5X5X5X5X5X5X5X5X5X5X5X5X5X5X5X5X5X5X5X5X5X5X5X5X5X5X5X5X5X5X5X5X5X5X5X5X5X5X5X5X5X5X",
"5X5X5X5X5X5X5X5X5X5X5X5X5X5X5X5X5X5X5X5X5X5X5X5X5X5X5X5X5X5X5X5X5X5X5X5X5X5X5X5X5X5X5X5X5X5X5X5X5X5X5X5X5X5X5X5X5X5X5X5X5X5X5X5X",
"5X5X5X5X5X5X5X5X5X5X5X5X5X5X5X5X5X5X5X5X5X5X5X5X5X5X5X5X5X5X5X5X5X5X5X5X5X5X5X5X5X5X5X5X5X5X5X5X5X5X5X5X5X5X5X5X5X5X5X5X5X5X5X5X"
};
