/* XPM */
static char *pr1[] = {
/* columns rows colors chars-per-pixel */
"64 64 257 2",
"   c black",
".  c #1D153F",
"X  c #22163C",
"o  c #221A3F",
"O  c #2B1739",
"+  c #2E1937",
"@  c #2A183B",
"#  c #3D1C32",
"$  c #352039",
"%  c #392339",
"&  c #34343B",
"*  c #101445",
"=  c #12174A",
"-  c #181541",
";  c #161C52",
":  c #1D1E51",
">  c #1A225B",
",  c #1D2662",
"<  c #1F2966",
"1  c #1F2C68",
"2  c #251C40",
"3  c #2F2552",
"4  c #30255F",
"5  c #3A3A41",
"6  c #36365C",
"7  c #233C73",
"8  c #26477A",
"9  c #274D7E",
"0  c #42192B",
"q  c #4A1E2B",
"w  c #541D28",
"e  c #571B30",
"r  c #5B1A37",
"t  c #4E212A",
"y  c #452034",
"u  c #552329",
"i  c #5A2328",
"p  c #5A292B",
"a  c #55322D",
"s  c #691D30",
"d  c #60272A",
"f  c #632A29",
"g  c #612431",
"h  c #673028",
"j  c #6C3329",
"k  c #673230",
"l  c #663933",
"z  c #742A2E",
"x  c #702B37",
"c  c #713629",
"v  c #73392A",
"b  c #7C3E2C",
"n  c #713031",
"m  c #703936",
"M  c #43334D",
"N  c #66164C",
"B  c #741A44",
"V  c #701848",
"C  c #7E1B43",
"Z  c #63403D",
"A  c #7F412C",
"S  c #7E463B",
"D  c #724134",
"F  c #41434A",
"G  c #44485E",
"H  c #4E5159",
"J  c #53555C",
"K  c #5A5E66",
"L  c #426A7E",
"P  c #5D6169",
"I  c #654840",
"U  c #6A4949",
"Y  c #685E5A",
"T  c #7F634A",
"R  c #62666E",
"E  c #6C6469",
"W  c #666B73",
"Q  c #6F6E75",
"!  c #65657C",
"~  c #6B7179",
"^  c #707479",
"/  c #7A7878",
"(  c #295583",
")  c #3D7885",
"_  c #406D85",
"`  c #467E8A",
"'  c #497889",
"]  c #737980",
"[  c #2C89AF",
"{  c #3397A5",
"}  c #3294B5",
"|  c #3599B8",
" . c #3AA1AD",
".. c #3CA5BF",
"X. c #2FB6C3",
"o. c #34BAC6",
"O. c #3ABEC9",
"+. c #52868F",
"@. c #528891",
"#. c #4DA1A8",
"$. c #7A8086",
"%. c #7B8288",
"&. c #4ABECE",
"*. c #4CC1CF",
"=. c #4EC4D1",
"-. c #4FCCD5",
";. c #53C0C9",
":. c #5AD0D9",
">. c #901F3D",
",. c #94213B",
"<. c #9F2735",
"1. c #98233A",
"2. c #A12637",
"3. c #A52A39",
"4. c #AA2A35",
"5. c #A6313E",
"6. c #B22C32",
"7. c #B92F30",
"8. c #B53139",
"9. c #BB3030",
"0. c #BF3B37",
"q. c #B83E3F",
"w. c #882040",
"e. c #82452D",
"r. c #8D532F",
"t. c #8C5233",
"y. c #935A36",
"u. c #965E38",
"i. c #9C653D",
"p. c #9D683F",
"a. c #88695D",
"s. c #89715F",
"d. c #9F6B40",
"f. c #9C654B",
"g. c #877769",
"h. c #8A7F6A",
"j. c #877366",
"k. c #877673",
"l. c #976267",
"z. c #917F6F",
"x. c #A26F41",
"c. c #A37142",
"v. c #A87746",
"b. c #AB714B",
"n. c #B0764D",
"m. c #C33633",
"M. c #C53B34",
"N. c #C73B3A",
"B. c #CE3E37",
"V. c #C1453F",
"C. c #CC4337",
"Z. c #CE4638",
"A. c #C9483C",
"S. c #D5443A",
"D. c #D44B3B",
"F. c #DA463B",
"G. c #DF4E3D",
"H. c #D6503B",
"J. c #DE533E",
"K. c #E1553F",
"L. c #C34841",
"P. c #C46258",
"I. c #C1685C",
"U. c #E55C41",
"Y. c #E46041",
"T. c #EC6A45",
"R. c #867487",
"E. c #B1944F",
"W. c #A5866B",
"Q. c #AE8D75",
"!. c #B58A63",
"~. c #B39B74",
"^. c #C28B5D",
"/. c #CC974C",
"(. c #CC9562",
"). c #CF936A",
"_. c #CE9771",
"`. c #DE8E70",
"'. c #D39A6D",
"]. c #D99C73",
"[. c #DC9E78",
"{. c #DCA17A",
"}. c #E1A17E",
"|. c #838587",
" X c #81878D",
".X c #838F81",
"XX c #868B8F",
"oX c #838A90",
"OX c #8A9096",
"+X c #8E959A",
"@X c #8F989D",
"#X c #988984",
"$X c #9D9393",
"%X c #969FA4",
"&X c #9B9EA0",
"*X c #9AA1A5",
"=X c #9DA6AA",
"-X c #AE9B83",
";X c #B98C98",
":X c #ACABA7",
">X c #AFAEAB",
",X c #A8B2B6",
"<X c #B2AEA5",
"1X c #B3BABC",
"2X c #B3B4B4",
"3X c #91B6C5",
"4X c #90D6DF",
"5X c #8ADEE4",
"6X c #90DFE4",
"7X c #91E0E6",
"8X c #BAC0C2",
"9X c #A6E6EA",
"0X c #ABE6E9",
"qX c #B2E1E7",
"wX c #C19B8C",
"eX c #C1A491",
"rX c #D5A489",
"tX c #DEAA88",
"yX c #C7B7A2",
"uX c #C0B9AB",
"iX c #CFBEA5",
"pX c #D8BBAA",
"aX c #E2A582",
"sX c #E4AC88",
"dX c #E9BF98",
"fX c #EBC69E",
"gX c #E0CCAB",
"hX c #EBC8A0",
"jX c #E9CFA8",
"kX c #E8D3AE",
"lX c #EFD8A3",
"zX c #EDD4B0",
"xX c #F0DBB2",
"cX c #F0DEBA",
"vX c #C4C6C3",
"bX c #C3C7C8",
"nX c #C6C9CA",
"mX c #CACCCD",
"MX c #D4D4D3",
"NX c #D8D7D6",
"BX c #DAD9D7",
"VX c #DDDDDA",
"CX c #DFE0DA",
"ZX c #EFE1C3",
"AX c #EEE7D4",
"SX c #E9E7DE",
"DX c #ECE8DC",
"FX c #E4E2DB",
"GX c #E5E5E5",
"HX c #E6E8E9",
"JX c #EEEBE1",
"KX c #EAF1EB",
"LX c #F0EEE9",
"PX c #F4F2EC",
"IX c #F6F6F6",
"UX c #F8F7F2",
"YX c None",
/* pixels */
"YXYXYXYXYXYXYXYXYXYXYXYXYXYXYXYXYXYXYXYXYXYXYXYXYXYXYXYXYXYXYXYXYXYXYXYXYXYXYXYXYXYXYXYXYXYXYXYXYXYXYXYXYXYXYXYXYXYXYXYXYXYXYXYX",
"YXYXYXYXYXYXYXYXYXYXYXYXYXYXYXYXYXYXYXYXYXYXYXYXYXYXYXYXYXYXYXYXYXYXYXYXYXYXYXYXYXYXYXYXYXYXYXYXYXYXYXYXYXYXYXYXYXYXYXYXYXYXYXYX",
"YXYXYXYXYXYXYXYXYXYXYXYXYXYXYXYXYXYXYXYXYXYXYXYXYXYXYXYXYXYXYXYXYXYXYXYXYXYXYXYXYXYXYXYXYXYXYXYXYXYXYXYXYXYXYXYXYXYXYXYXYXYXYXYX",
"YXYXYXYXYXYXYXYXYXYXYXYXYXYXYXYXYXYXYXYXYXYXYXYXYXYXYXYXYXYXYXYXYXYXYXYXYXYXYXYXYXYXYXYXYXYXYXYXYXYXYXYXYXYXYXYXYXYXYXYXYXYXYXYX",
"YXYXYXYXYXYXYXYXYXYXYXYXYXYXYXYXYXYXYXYXYXYXYXYXYXYXYXYXYXYXYXYXYXYXYXYXYXYXYXYXYXYXYXYXYXYXYXYXYXYXYXYXYXYXYXYXYXYXYXYXYXYXYXYX",
"YXYXYXYXYXYXYXYXYXYXYXYXYXYXYXYXYXYXYXYXYXYXYXYXYXYXYXYXYXYXYXYXYXYXYXYXYXYXYXYXYXYXYXYXYXYXYXYXYXYXYXYXYXYXYXYXYXYXYXYXYXYXYXYX",
"YXYXYXYXYXYXYXYXYXYXYXYXYXYXYXYXYXYXYXYXYXYXYXYXYXYXYXYXYXYXYXYXYXYXYXYXYXYXYXYXYXYXYXYXYXYXYXYXYXYXYXYXYXYXYXYXYXYXYXYXYXYXYXYX",
"YXYXYXYXYXYXYXYXYXYXYXYXYXYXYXYXYXYXYXYXYXYXYXYXYXYXYXYXYXYXYXYXYXYXYXYXYXYXYXYXYXYXYXYXYXYXYXYXYXYXYXYXYXYXYXYXYXYXYXYXYXYXYXYX",
"YXYXYXYXYXYXYXYXYXYXYXYXYXYXYXYXYXYXYXYXYXYXYXYXYXYXYXYXYXYXYXYXYXYXYXYXYXYXYXYXYXYXYXYXYXYXYXYXYXYXYXYXYXYXYXYXYXYXYXYXYXYXYXYX",
"YXYXYXYXYXYXYXYXYXYXYXYXYXYXYXYXYXYXYXYXYXYXYXYXYXYXYXYXYXYXYXYXYXYXYXYXYXYXYXYXYXYXYXYXYXYXYXYXYXYXYXYXYXYXYXYXYXYXYXYXYXYXYXYX",
"YXYXYXYXYXYXYXYXYXYXYXYXYXYXYXYXYXYXYXYXYXYXYXYXYXYXYXYXYXYXYXYXYXYXYXYXYXYXYXYXYXYXYXYXYXYXYXYXYXYXYXYXYXYXYXYXYXYXYXYXYXYXYXYX",
"YXYXYXYXYXYXYXYXYXYXYXYXYXYXYXYXYXYXYXYXYXYXYXYXYXYXYXYXYXYXYXYXYXYXYXYXYXYXYXYXYXYXYXYXYXYXYXYXYXYXYXYXYXYXYXYXYXYXYXYXYXYXYXYX",
"YXYXYXYXYXYXYXYXYXYXYXYXYXYXYXYXYXYXYXYXYXYXYXYXYXYXYXYXYXYXYXYXYXYXYXYXYXYXYXYXYXYXYXYXYXYXYXYXYXYXYXYXYXYXYXYXYXYXYXYXYXYXYXYX",
"YXYXYXYXYXYXYXYXYXYXYXYXYXYXYXYXYXYXYXYXYXYXYXYXYXYXYXYXYXYXYXYXYXYXYXYXYXYXYXYXYXYXYXYXYXYXYXYXYXYXYXYXYXYXYXYXYXYXYXYXYXYXYXYX",
"YXYXYXYXYXYXYXYXYXYXYXYXYXYXYXYXYXYXYXYXYXYXYXYXYXYXYXYXYXYXYXYXYXYXYXYXYXYXYXYXYXYXYXYXYXYXYXYXYXYXYXYXYXYXYXYXYXYXYXYXYXYXYXYX",
"YXYXYXYXYXYXYXYXYXYXYXYXYXYXYXYXYXYXYXYXYXYXYXYXYXYXYXYXYXYXYXYXYXYXYXYXYXYXYXYXYXYXYXYXYXYXYXYXYXYXYXYXYXYXYXYXYXYXYXYXYXYXYXYX",
"YXYXYXYXYXYXYXYXYXYXYXYXYXYXYXYXYXYXYXYXYXYXYXYXYXYXYXYXYXYXYXYXYXYXYXYXYXYXYXYXYXYXYXYXYXYXYXYXYXYXYXYXYXYXYXYXYXYXYXYXYXYXYXYX",
"YXYXYXYXYXYXYXYXYXYXYXYXYXYXYXYXYXYXYXYXYXYXYXYXYXYXYXYXYXYXYXYXYXYXYXYXYXYXYXYXYXYXYXYXYXYXYXYXYXYXYXYXYXYXYXYXYXYXYXYXYXYXYXYX",
"YXYXYXYXYXYXYXYXYXYXYXYXYXYXYXYXYXYXYXYXYXYXYXYXYXYXYXYXYXYXYXYXYXYXYXYXYXYXYXYXYXYXYXYXYXYXYXYXYXYXYXYXYXYXYXYXYXYXYXYXYXYXYXYX",
"YXYXYXYXYXYXYXYXYXYXYXYXYXYXYXYXYXYXYXYXYXYXYXYXYXYXYXYXYXYXYXYXYXYXYXYXYXYXYXYXYXYXYXYXYXYXYXYXYXYXYXYXYXYXYXYXYXYXYXYXYXYXYXYX",
"YXYXYXYXYXYXYXYXYXYXYXYXYXYXYXYXYXYXYXYXYXYXYXYXYXYXYXYXYXYXYXYXYXYXYXYXYXYXYXYXYXYXYXYXYXYXYXYXYXYXYXYXYXYXYXYXYXYXYXYXYXYXYXYX",
"YXYXYXYXYXYXYXYXYXYXYXYXYXYXYXYXYXYXYXYXYXYXYXYXYXYXYXYXYXYXYXYXYXYXYXYXYXYXYXYXYXYXYXYXYXYXYXYXYXYXYXYXYXYXYXYXYXYXYXYXYXYXYXYX",
"YXYXYXYXYXYXYXYXYXYXYXYXYXYXYXYXYXYXYXYXYXYXYXYXYXYXYXYXYXYXYXYXYXYXYXYXYXYXYXYXYXYXYXYXYXYXYXYXYXYXYXYXYXYXYXYXYXYXYXYXYXYXYXYX",
"YXYXYXYXYXYXYXYXYXYXYXYXYXYXYXYXYXYXYXYXYXYXYXYXYXYXYXYXYXYXYXYXYXYXYXYXYXYXYXYXYXYXYXYXYXYXYXYXYXYXYXYXYXYXYXYXYXYXYXYXYXYXYXYX",
"YXYXYXYXYXYXYXYXYXYXYXYXYXYXYXYXYXYXYXYXYXYXYXYXYXYXYXYXYXYXYXYXYXYXYXYXYXYXYXYXYXYXYXYXYXYXYXYXYXYXYXYXYXYXYXYXYXYXYXYXYXYXYXYX",
"YXYXYXYXYXYXYXYXYXYXYXYXYXYXYXYXYXYXYXYXYXYXYXYXYXYXYXYXYXYXYXYXYXYXYXYXYXYXYXYXYXYXYXYXYXYXYXYXYXYXYXYXYXYXYXYXYXYXYXYXYXYXYXYX",
"YXYXYXYXYXYXYXYXYXYXYXYXYXYXYXYXYXYXYXYXYXYXYXYXYXYXYXYXYXYXYXYXYXYXYXYXYXYXYXYXYXYXYXYXYXYXYXYXYXYXYXYXYXYXYXYXYXYXYXYXYXYXYXYX",
"YXYXYXYXYXYXYXYXYXYXYXYXYXYXYXYXYXYXYXYXYXYXYXYX9.9.9.9.YXYXYXYXYXYXYXYXYXYXYXYXYXYXYXYXYXYXYXYXYXYXYXYXYXYXYXYXYXYXYXYXYXYXYXYX",
"YXYXYXYXYXYXYXYXYXYXYXYXYXYXYXYXYXYXYXYXYXYXYX9.C.U.J.G.9.9.9.9.YXYXYXYXYXYXYXYXYXYXYXYXYXYXYXYXYXYXYXYXYXYXYXYXYXYXYXYXYXYXYXYX",
"YXYXYXYXYXYXYXYXYXYXYXYXYXYXYXYXYXYXYXYXYXYXYX9.J.S.Y.J.J.Z.Z.Z.9.YXYXYXYXYXYXYXYXYXYXYXYXYXYXYXYXYXYXYXYXYXYXYXYXYXYXYXYXYXYXYX",
"YXYXYXYXYXYXYXYXYXYXYXYXYXYXYXYXYXYXYXYXYXYX>.A.M.9.M.H.T.T.K.K.D.9.YXYXYXYXYXYXYXYXYXYXYXYXYXYXYXYXYXYXYXYXYXYXYXYXYXYXYXYXYXYX",
"YXYXYXYXYXYXYXYXYXYXYXYXYXYXYXYXYXYXYXYXYXYX6.S.9.m.M.F.M.Z.Z.F.J.V.>.YXYXYXYXYXYXYXYXYXYXYXYXYXYXYXYXYXYXYXYXYXYXYXYXYXYXYXYXYX",
"YXYXYXYXYXYXYXYXYXYXYXYXYXYXYXYXYXYXYXYXYX6.D.M.9.2.<.9.L.sXsXsX`.M.4.YXYXYXYXYXYXYXYXYXYXYXYXYXYXYXYXYXYXYXYXYXYXYXYXYXYXYXYXYX",
"YXYXYXYXYXYXYXYXYXYXYXYXYXYXYXYXYXYXYXYXYX,.8.9.2.V C 6.I.$XiXxXl.1.w.YXYXYXYXYXYXYXYXYXYXYXYXYXYXYXYXYXYXYXYXYXYXYXYXYXYXYXYXYX",
"YXYXYXYXYXYXYXYXYXYXYXYXYXYXYXYXYXYXYXYXw.5.0.9.V N C P.eX1 $XzX4 V N YXYXYXYXYXYXYXYXYXYXYXYXYXYXYXYXYXYXYXYXYXYXYXYXYXYXYXYXYX",
"YXYXYXYXYXYXYXYXYXYXYXYXYXYXYXYXYXYXYXYXw.4.4.C N N w.q.kXyXgXzXwX4.YXYXYXYXYXYXYXYXYXYXYXYXYXYXYXYXYXYXYXYXYXYXYXYXYXYXYXYXYXYX",
"YXYXYXYXYXYXYXYXYXYXYXYXYXYXYXYXYXYXYXYX>.2.>.N w r w.4.7.F.F.F.N.>.YXYXYXYXYXYXYXYXYXYXYXYXYXYXYXYXYXYXYXYXYXYXYXYXYXYXYXYXYXYX",
"YXYXYXYXYXYXYXYXYXYXYXYXYXYXYXYXYXYXYXYX>.,.B e i d B C >.4.m.B.2.s w YXYXYXYXYXYXYXYXYXYXYXYXYXYXYXYXYXYXYXYXYXYXYXYXYXYXYXYXYX",
"YXYXYXYXYXYXYXYXYXYXYXYXYXYXYXYXYXYXYXYXYXr f h c c x x ;X;XR.! z f i w YXYXYXMXMX3X[ [ YXYXYXYXYXYXYXYXYXYXYXYXYXYXYXYXYXYXYXYX",
"YXYXYXYXYXYXYXYXYXYXYXYXYXYXYXYXYXYXYXYXw i j c c b e.#XIXIX6X*.L h f i YXYX,XHXIXqX=.} YXYXYXYXYXYXYXYXYXYXYXYXYXYXYXYXYXYXYXYX",
"YXYXYXYXYXYXYXYXYXYXYXYXYXYXYXYXYXYXYXYXi j j c c m k.NXSXSXPX5X*.' l i ~ $.vXDXDXPX0X:.} [ YXYXYXYXYXYXYXYXYXYXYXYXYXYXYXYXYXYX",
"YXYXYXYXYXYXYXYXYXYXYXYXYXYXYXYXYXYXYXYXw f f e.e.U 2XNXbXMXFXPX5X*._ G ~ @XVXnXmXFXLX0X=.| [ YXYXYXYXYXYXYXYXYXYXYXYXYXYXYXYXYX",
"YXYXYXYXYXYXYXYXYXYXYXYXYXYXYXYXYXYXYXYXw m f.^.^.a.*X8X^ @XmXSXKX7X&.} ~ OX8X X XbXFXLX9X&.| [ YXYXYXYXYXYXYXYXYXYXYXYXYXYXYXYX",
"YXYXYXYXYXYXYXYXYXYXYXYXYXYXYXYXYXYXYXYXYX(.(.[.jX<XW R D I XXMXJXKX5X} ~ W R K H ^ mXDXLXqXX.[ YXYXYXYXYXYXYXYXYXYXYXYXYXYXYXYX",
"YXYXYXYXYXYXYXYXYXYXYXYXYXYXYXYXYXYXYXYXYX(.].aXxXZXQ.r.a F P +XMXSXUXCXDX>XYX& 5 P oX8XJXPXGXMXYXYXYXYXYXYXYXYXYXYXYXYXYXYXYXYX",
"YXYXYXYXYXYXYXYXYXYXYXYXYXYXYXYXYXYXYXYXYX(.'.[.hXcXlXE.F P Y J 1XVXUXCXxXAX/ & P K J *XBXPXGXMXYXYXYXYXYXYXYXYXYXYXYXYXYXYXYXYX",
"YXYXYXYXYXYXYXYXYXYXYXYXYXYXYXYXYXYXYXYXYXYX(.[.aXfXcX<X<X-Xj.|.nXVXBXpXfXxX2X<X<Xg.%.1XBXFXMXMXYXYXYXYXYXYXYXYXYXYXYXYXYXYXYXYX",
"YXYXYXYXYXYXYXYXYXYXYXYXYXYXYXYXYXYXYXYXYXYX(.(.}.aXfXcXkX{.z.*XNXvX=XrX'.dXxXcXaXW.@XmXNX*X,XYXYXYXYXYXYXYXYXYXYXYXYXYXYXYXYXYX",
"YXYXYXYXYXYXYXYXYXYXYXYXYXYXYXYXYXYXYXYXYXYXYXX.~.!._.[.[.)./.j.E Q #.o.5 g.[.[.(.YX~ ~ ] YXYXYXYXYXYXYXYXYXYXYXYXYXYXYXYXYXYXYX",
"YXYXYXYXYXYXYXYXYXYXYXYXYXYXYXYXYXYXYXYXYXYXX.O.;.@.h.b.n.u.e.e.c p ` -.@..X(.(.YXYXYXYXYXYXYXYXYXYXYXYXYXYXYXYXYXYXYXYXYXYXYXYX",
"YXYXYXYXYXYXYXYXYXYXYXYXYXYXYXYXYXYXYXYXYXYXX.O.-.#.T e.y.u.i.y.e.j ` -.O.X.YXYXYXYXYXYXYXYXYXYXYXYXYXYXYXYXYXYXYXYXYXYXYXYXYXYX",
"YXYXYXYXYXYXYXYXYXYXYXYXYXYXYXYXYXYXYXYXYXYXYXX. .Z r.i.i.x.x.i.d.c ' o.X.YXYXYXYXYXYXYXYXYXYXYXYXYXYXYXYXYXYXYXYXYXYXYXYXYXYXYX",
"YXYXYXYXYXYXYXYXYXYXYXYXYXYXYXYXYXYXYXYXYXYXYXYX{ p A u.v.c.x.v.t.6 9 YXYXYXYXYXYXYXYXYXYXYXYXYXYXYXYXYXYXYXYXYXYXYXYXYXYXYXYXYX",
"YXYXYXYXYXYXYXYXYXYXYXYXYXYXYXYXYXYXYXYXYXYXYXYX* X p t.c.c.d.d.k 6 ( YXYXYXYXYXYXYXYXYXYXYXYXYXYXYXYXYXYXYXYXYXYXYXYXYXYXYXYXYX",
"YXYXYXYXYXYXYXYXYXYXYXYXYXYXYXYXYXYXYXYXYXYXYXYX* * # b t.y.t.j 3 7 ( ( YXYXYXYXYXYXYXYXYXYXYXYXYXYXYXYXYXYXYXYXYXYXYXYXYXYXYXYX",
"YXYXYXYXYXYXYXYXYXYXYXYXYXYXYXYXYXYXYXYXYXYXYXYX* * - 2 f A m @ < 1 8 ( YXYXYXYXYXYXYXYXYXYXYXYXYXYXYXYXYXYXYXYXYXYXYXYXYXYXYXYX",
"YXYXYXYXYXYXYXYXYXYXYXYXYXYXYXYXYXYXYXYXYXYXYXYX* * * * . w O * = , 7 ( YXYXYXYXYXYXYXYXYXYXYXYXYXYXYXYXYXYXYXYXYXYXYXYXYXYXYXYX",
"YXYXYXYXYXYXYXYXYXYXYXYXYXYXYXYXYXYXYXYXYXYXYX* * * * * * YX* * * ; < 9 YXYXYXYXYXYXYXYXYXYXYXYXYXYXYXYXYXYXYXYXYXYXYXYXYXYXYXYX",
"YXYXYXYXYXYXYXYXYXYXYXYXYXYXYXYXYXYXYXYXYXYXYX* * * * * YXYXYX* * ; < 9 YXYX0 0 YXYXYXYXYXYXYXYXYXYXYXYXYXYXYXYXYXYXYXYXYXYXYXYX",
"YXYXYXYXYXYXYXYXYXYXYXYXYXYXYXYXYXYXYXYXYXYX* * * * * * YXYXYXYX* * > 9 0 0 d q YXYXYXYXYXYXYXYXYXYXYXYXYXYXYXYXYXYXYXYXYXYXYXYX",
"YXYXYXYXYXYXYXYXYXYXYXYXYXYXYXYXYXYXYXYXYX0 + o * * * YXYXYXYXYX* * : y u v j q YXYXYXYXYXYXYXYXYXYXYXYXYXYXYXYXYXYXYXYXYXYXYXYX",
"YXYXYXYXYXYXYXYXYXYXYXYXYXYXYXYXYXYXYXYXYX0 t h $ % # 0 YXYXYXYXYXo 0 j j p q 0 YXYXYXYXYXYXYXYXYXYXYXYXYXYXYXYXYXYXYXYXYXYXYXYX",
"YXYXYXYXYXYXYXYXYXYXYXYXYXYXYXYXYXYXYXYXYXYX0 t p c j q YXYXYXYXYX0 p h t 0 0 YXYXYXYXYXYXYXYXYXYXYXYXYXYXYXYXYXYXYXYXYXYXYXYXYX",
"YXYXYXYXYXYXYXYXYXYXYXYXYXYXYXYXYXYXYXYXYXYXYX0 0 q t 0 YXYXYXYXYX0 0 q 0 YXYXYXYXYXYXYXYXYXYXYXYXYXYXYXYXYXYXYXYXYXYXYXYXYXYXYX"
};
