/* XPM */
static char *pr_idle1[] = {
/* columns rows colors chars-per-pixel */
"64 64 235 2",
"   c black",
".  c #1B1D3D",
"X  c #311A3A",
"o  c #3A1A34",
"O  c #2D2C33",
"+  c #28293D",
"@  c #3C262F",
"#  c #101445",
"$  c #13184B",
"%  c #161C52",
"&  c #192053",
"*  c #19215A",
"=  c #1F2966",
"-  c #282044",
";  c #282940",
":  c #202E69",
">  c #2E2560",
",  c #21316B",
"<  c #1B426F",
"1  c #244075",
"2  c #274B7C",
"3  c #541D29",
"4  c #571B30",
"5  c #4F2531",
"6  c #5A2228",
"7  c #543B3E",
"8  c #621D2D",
"9  c #642B28",
"0  c #6C3328",
"q  c #772C2F",
"w  c #71352A",
"e  c #753929",
"r  c #7A3D2A",
"t  c #743230",
"y  c #43334D",
"u  c #4D3346",
"i  c #4B3A4D",
"p  c #543341",
"a  c #543C46",
"s  c #66164C",
"d  c #6B174A",
"f  c #6B1940",
"g  c #6F194A",
"h  c #761946",
"j  c #701848",
"k  c #7F1B43",
"l  c #781D49",
"z  c #7D402C",
"x  c #7C4138",
"c  c #794C3E",
"v  c #464A5C",
"b  c #4E5159",
"n  c #52555C",
"m  c #565961",
"M  c #5E636B",
"N  c #694A43",
"B  c #6C5048",
"V  c #765E4E",
"C  c #705B59",
"Z  c #615D6E",
"A  c #774E64",
"S  c #74625E",
"D  c #62666E",
"F  c #6C727A",
"G  c #756761",
"H  c #716F6D",
"J  c #707479",
"K  c #7D7C7A",
"L  c #295483",
"P  c #2C6084",
"I  c #286A8F",
"U  c #3D6E89",
"Y  c #4F7F9A",
"T  c #427EA1",
"R  c #737084",
"E  c #2C89AF",
"W  c #3193B5",
"Q  c #3599B8",
"!  c #2FB6C3",
"~  c #31B8C4",
"^  c #3CBFCA",
"/  c #7C8288",
"(  c #6DA89C",
")  c #76AEA1",
"_  c #44B3C7",
"`  c #4ABECE",
"'  c #4DC5D2",
"]  c #5AD0D9",
"[  c #901F3D",
"{  c #882338",
"}  c #962436",
"|  c #92203C",
" . c #98223A",
".. c #A22637",
"X. c #A92935",
"o. c #AF3037",
"O. c #B32D32",
"+. c #BB3030",
"@. c #BF3B3D",
"#. c #932542",
"$. c #AA3842",
"%. c #B83B42",
"&. c #81442D",
"*. c #844630",
"=. c #844D3F",
"-. c #9C5432",
";. c #9B6034",
":. c #9F6D39",
">. c #A15932",
",. c #A46235",
"<. c #A66E36",
"1. c #A16D3F",
"2. c #A0703E",
"3. c #A8713B",
"4. c #B0793D",
"5. c #B9733A",
"6. c #8C514B",
"7. c #925E49",
"8. c #916344",
"9. c #A0604D",
"0. c #A26A4D",
"q. c #A17444",
"w. c #AB7943",
"e. c #B17D42",
"r. c #B47050",
"t. c #A27A6A",
"y. c #BE7366",
"u. c #C13533",
"i. c #C23738",
"p. c #C53934",
"a. c #C93C36",
"s. c #D03E37",
"d. c #C3433F",
"f. c #CE4037",
"g. c #CA483C",
"h. c #D44239",
"j. c #D34C3A",
"k. c #DC473C",
"l. c #DC4D3D",
"z. c #DA543D",
"x. c #E2553F",
"c. c #E05C3F",
"v. c #C34B43",
"b. c #CD4C42",
"n. c #D45343",
"m. c #DF5B48",
"M. c #C87F53",
"N. c #CA7464",
"B. c #E45A40",
"V. c #EC6A45",
"C. c #B7833E",
"Z. c #BE823F",
"A. c #BD883E",
"S. c #B88746",
"D. c #BC8841",
"F. c #B0845D",
"G. c #BE914E",
"H. c #B78C65",
"J. c #C08F46",
"K. c #C08E4D",
"L. c #C1944E",
"P. c #C29752",
"I. c #DC8E56",
"U. c #DB9341",
"Y. c #CC9562",
"T. c #DD8D6F",
"R. c #D89C72",
"E. c #DDAC49",
"W. c #DEB961",
"Q. c #E0B25B",
"!. c #E1BE63",
"~. c #84888D",
"^. c #808397",
"/. c #858C92",
"(. c #8E959B",
"). c #91989C",
"_. c #9D9393",
"`. c #8E9BAF",
"'. c #9C9FB5",
"]. c #84B7A8",
"[. c #9DA2A4",
"{. c #A09B98",
"}. c #BEB09F",
"|. c #A2A9AD",
" X c #A9ADAD",
".X c #A8B2B6",
"XX c #AAB3B8",
"oX c #B0B2BE",
"OX c #BFB3B3",
"+X c #B1B8C2",
"@X c #8ADEE4",
"#X c #90DFE4",
"$X c #91E0E6",
"%X c #B3C5CD",
"&X c #BAC0C2",
"*X c #A6E6EA",
"=X c #ABE6E9",
"-X c #C8A488",
";X c #C4AE99",
":X c #D1B595",
">X c #D1B79D",
",X c #D5B895",
"<X c #D2BE9D",
"1X c #C5B8B3",
"2X c #E1A085",
"3X c #E7B893",
"4X c #ECBD99",
"5X c #D5C6BC",
"6X c #DCCBBD",
"7X c #EAC39C",
"8X c #E4CBAF",
"9X c #EDCFA6",
"0X c #E9D5BF",
"qX c #F1DBB1",
"wX c #C3C7C8",
"eX c #C7C8C6",
"rX c #C4C9CA",
"tX c #CACDCD",
"yX c #CDCFD0",
"uX c #CFD0D1",
"iX c #D2D3D2",
"pX c #DDDDDA",
"aX c #CCE2E6",
"sX c #E1DFDA",
"dX c #E4E2DB",
"fX c #E9E6DD",
"gX c #EBE8DE",
"hX c #ECEAE0",
"jX c #EEEEEE",
"kX c #EBF0EB",
"lX c #F1EFE6",
"zX c #F0EEE8",
"xX c #F4F3EC",
"cX c #FBFBF8",
"vX c None",
/* pixels */
"vXvXvXvXvXvXvXvXvXvXvXvXvXvXvXvXvXvXvXvXvXvXvXvXvXvXvXvXvXvXvXvXvXvXvXvXvXvXvXvXvXvXvXvXvXvXvXvXvXvXvXvXvXvXvXvXvXvXvXvXvXvXvXvX",
"vXvXvXvXvXvXvXvXvXvXvXvXvXvXvXvXvXvXvXvXvXvXvXvXvXvXvXvXvXvXvXvXvXvXvXvXvXvXvXvXvXvXvXvXvXvXvXvXvXvXvXvXvXvXvXvXvXvXvXvXvXvXvXvX",
"vXvXvXvXvXvXvXvXvXvXvXvXvXvXvXvXvXvXvXvXvXvXvXvXvXvXvXvXvXvXvXvXvXvXvXvXvXvXvXvXvXvXvXvXvXvXvXvXvXvXvXvXvXvXvXvXvXvXvXvXvXvXvXvX",
"vXvXvXvXvXvXvXvXvXvXvXvXvXvXvXvXvXvXvXvXvXvXvXvXvXvXvXvXvXvXvXvXvXvXvXvXvXvXvXvXvXvXvXvXvXvXvXvXvXvXvXvXvXvXvXvXvXvXvXvXvXvXvXvX",
"vXvXvXvXvXvXvXvXvXvXvXvXvXvXvXvXvXvXvXvXvXvXvXvXvXvXvXvXvXvXvXvXvXvXvXvXvXvXvXvXvXvXvXvXvXvXvXvXvXvXvXvXvXvXvXvXvXvXvXvXvXvXvXvX",
"vXvXvXvXvXvXvXvXvXvXvXvXvXvXvXvXvXvXvXvXvXvXvXvXvXvXvXvXvXvXvXvXvXvXvXvXvXvXvXvXvXvXvXvXvXvXvXvXvXvXvXvXvXvXvXvXvXvXvXvXvXvXvXvX",
"vXvXvXvXvXvXvXvXvXvXvXvXvXvXvXvXvXvXvXvXvXvXvXvXvXvXvXvXvXvXvXvXvXvXvXvXvXvXvXvXvXvXvXvXvXvXvXvXvXvXvXvXvXvXvXvXvXvXvXvXvXvXvXvX",
"vXvXvXvXvXvXvXvXvXvXvXvXvXvXvXvXvXvXvXvXvXvXvXvXvXvXvXvXvXvXvXvXvXvXvXvXvXvXvXvXvXvXvXvXvXvXvXvXvXvXvXvXvXvXvXvXvXvXvXvXvXvXvXvX",
"vXvXvXvXvXvXvXvXvXvXvXvXvXvXvXvXvXvXvXvXvXvXvXvXvXvXvXvXvXvXvXvXvXvXvXvXvXvXvXvXvXvXvXvXvXvXvXvXvXvXvXvXvXvXvXvXvXvXvXvXvXvXvXvX",
"vXvXvXvXvXvXvXvXvXvXvXvXvXvXvXvXvXvXvXvXvXvXvXvXvXvXvXvXvXvXvXvXvXvXvXvXvXvXvXvXvXvXvXvXvXvXvXvXvXvXvXvXvXvXvXvXvXvXvXvXvXvXvXvX",
"vXvXvXvXvXvXvXvXvXvXvXvXvXvXvXvXvXvXvXvXvXvXvXvXvXvXvXvXvXvXvXvXvXvXvXvXvXvXvXvXvXvXvXvXvXvXvXvXvXvXvXvXvXvXvXvXvXvXvXvXvXvXvXvX",
"vXvXvXvXvXvXvXvXvXvXvXvXvXvXvXvXvXvXvXvXvXvXvXvXvXvXvXvXvXvXvXvXvXvXvXvXvXvXvXvXvXvXvXvXvXvXvXvXvXvXvXvXvXvXvXvXvXvXvXvXvXvXvXvX",
"vXvXvXvXvXvXvXvXvXvXvXvXvXvXvXvXvXvXvXvXvXvXvXvXvXvXvXvXvXvXvXvXvXvXvXvXvXvXvXvXvXvXvXvXvXvXvXvXvXvXvXvXvXvXvXvXvXvXvXvXvXvXvXvX",
"vXvXvXvXvXvXvXvXvXvXvXvXvXvXvXvXvXvXvXvXvXvXvXvXvXvXvXvXvXvXvXvXvXvXvXvXvXvXvXvXvXvXvXvXvXvXvXvXvXvXvXvXvXvXvXvXvXvXvXvXvXvXvXvX",
"vXvXvXvXvXvXvXvXvXvXvXvXvXvXvXvXvXvXvXvXvXvXvXvXvXvXvXvXvXvXvXvXvXvXvXvXvXvXvXvXvXvXvXvXvXvXvXvXvXvXvXvXvXvXvXvXvXvXvXvXvXvXvXvX",
"vXvXvXvXvXvXvXvXvXvXvXvXvXvXvXvXvXvXvXvXvXvXvXvXvXvXvXvXvXvXvXvXvXvXvXvXvXvXvXvXvXvXvXvXvXvXvXvXvXvXvXvXvXvXvXvXvXvXvXvXvXvXvXvX",
"vXvXvXvXvXvXvXvXvXvXvXvXvXvXvXvXvXvXvXvXvXvXvXvXvXvXvXvXvXvXvXvXvXvXvXvXvXvXvXvXvXvXvXvXvXvXvXvXvXvXvXvXvXvXvXvXvXvXvXvXvXvXvXvX",
"vXvXvXvXvXvXvXvXvXvXvXvXvXvXvXvXvXvXvXvXvXvXvXvXvXvXvXvXvXvXvXvXvXvXvXvXvXvXvXvXvXvXvXvXvXvXvXvXvXvXvXvXvXvXvXvXvXvXvXvXvXvXvXvX",
"vXvXvXvXvXvXvXvXvXvXvXvXvXvXvXvXvXvXvXvXvXvXvXvXvXvXvXvXvXvXvXvXvXvXvXvXvXvXvXvXvXvXvXvXvXvXvXvXvXvXvXvXvXvXvXvXvXvXvXvXvXvXvXvX",
"vXvXvXvXvXvXvXvXvXvXvXvXvXvXvXvXvXvXvXvXvXvXvXvXvXvXvXvXvXvXvXvXvXvXvXvXvXvXvXvXvXvXvXvXvXvXvXvXvXvXvXvXvXvXvXvXvXvXvXvXvXvXvXvX",
"vXvXvXvXvXvXvXvXvXvXvXvXvXvXvXvXvXvXvXvXvXvXvXvX+.p.u.u.+.vXvXvXvXvXvXvXvXvXvXvXvXvXvXvXvXvXvXvXvXvXvXvXvXvXvXvXvXvXvXvXvXvXvXvX",
"vXvXvXvXvXvXvXvXvXvXvXvXvXvXvXvXvXvXvXvXvXvXvX+.j.x.x.x.p.+.+.+.vXvXvXvXvXvXvXvXvXvXvXvXvXvXvXvXvXvXvXvXvXvXvXvXvXvXvXvXvXvXvXvX",
"vXvXvXvXvXvXvXvXvXvXvXvXvXvXvXvXvXvXvXvXvXvXvX+.z.a.c.l.x.z.l.z.+.vXvXvXvXvXvXvXvXvXvXvXvXvXvXvXvXvXvXvXvXvXvXvXvXvXvXvXvXvXvXvX",
"vXvXvXvXvXvXvXvXvXvXvXvXvXvXvXvXvXvXvXvXvXvX{ j.a.j.u.z.V.V.x.n.z.+.vXvXvXvXvXvXvXvXvXvXvXvXvXvXvXvXvXvXvXvXvXvXvXvXvXvXvXvXvXvX",
"vXvXvXvXvXvXvXvXvXvXvXvXvXvXvXvXvXvXvXvXvX[ o.k.z.a.u.s.@.b.b.n.m.g. .vXvXvXvXvXvXvXvXvXvXvXvXvXvXvXvXvXvXvXvXvXvXvXvXvXvXvXvXvX",
"vXvXvXvXvXvXvXvXvXvXvXvXvXvXvXvXvXvXvXvXvX[ v.B.g.$. .+.v.3X3X3XT.@.X.vXvXvXvXvXvXvXvXvXvXvXvXvXvXvXvXvXvXvXvXvXvXvXvXvXvXvXvXvX",
"vXvXvXvXvXvXvXvXvXvXvXvXvXvXvXvXvXvXvXvXvX[ v.s.g.g k O.y.R ;XqXA [ h vXvXvXvXvXvXvXvXvXvXvXvXvXvXvXvXvXvXvXvXvXvXvXvXvXvXvXvXvX",
"vXvXvXvXvXvXvXvXvXvXvXvXvXvXvXvXvXvXvXvXvX[ o.s.l s k N.;X= _.qX> d s vXvXvXvXvXvXvXvXvXvXvXvXvXvXvXvXvXvXvXvXvXvXvXvXvXvXvXvXvX",
"vXvXvXvXvXvXvXvXvXvXvXvXvXvXvXvXvXvXvXvXvX[ @.a.s s k O.3X4X4X4X2XO.vXvXvXvXvXvXvXvXvXvXvXvXvXvXvXvXvXvXvXvXvXvXvXvXvXvXvXvXvXvX",
"vXvXvXvXvXvXvXvXvXvXvXvXvXvXvXvXvXvXvXvXvX[ v.%.s s k ..o.s.s.k.i.[ vXvXvXvXvXvXvXvXvXvXvXvXvXvXvXvXvXvXvXvXvXvXvXvXvXvXvXvXvXvX",
"vXvXvXvXvXvXvXvXvXvXvXvXvXvXvXvXvXvXvXvXvX[ #.j 3 3 f h [ ..+.a.} 8 3 vXvXvXvXvXvXvXvXvXvXvXvXvXvXvXvXvXvXvXvXvXvXvXvXvXvXvXvXvX",
"vXvXvXvXvXvXvXvXvXvXvXvXvXvXvXvXvXvXvXvXvXvX4 3 9 9 t t q [ |  .q 0 6 3 vXvXvXvXvXvXvXvXvXvXvXvXvXvXvXvXvXvXvXvXvXvXvXvXvXvXvXvX",
"vXvXvXvXvXvXvXvXvXvXvXvXvXvXvXvXvXvXvXvX3 6 9 0 e r &.r 0 w { { 0 w 9 6 vXvXvXvXvXvXvXvXvXvXvXvXvXvXvXvXvXvXvXvXvXvXvXvXvXvXvXvX",
"vXvXvXvXvXvXvXvXvXvXvXvXvXvXvXvXvXvXvXvX3 9 w e 0 r z r e z e e z z w 6 vXvXvXvXvXvXvXvXvXvXvXvXvXvXvXvXvXvXvXvXvXvXvXvXvXvXvXvX",
"vXvXvXvXvXvXvXvXvXvXvXvXvXvXvXvXvXvXvXvX6 9 0 9 9 e r r e r z *.z z 0 6 vXvXvXvXvXvXvXvXvXvXvXvXvXvXvXvXvXvXvXvXvXvXvXvXvXvXvXvX",
"vXvXvXvXvXvXvXvXvXvXvXvXvXvXvXvXvXvXvXvX6 6 6 0.0.6 0 r z 0 0 r z 0 t.:XvXvXvXvXvXvXvXvXvXvXvXvXvXvXvXvXvXvXvXvXvXvXvXvXvXvXvXvX",
"vXvXvXvXvXvXvXvXvXvXvXvXvXvXvXvXvXvXvXvXvX=.Y.9X>X6 6 9 e z z z 0 6.7XqXvXvXvXvXvXvXvXvXvXvXvXvXvXvXvXvXvXvXvXvXvXvXvXvXvXvXvXvX",
"vXvXvXvXvXvXvXvXvXvXvXvXvXvXvXvXvXvXvXvXvXY.R.9X6X-.,.<.:.:.q.q.>.r.7XqXvXvXvXvXvXvXvXvXvXvXvXvXvXvXvXvXvXvXvXvXvXvXvXvXvXvXvXvX",
"vXvXvXvXvXvXvXvXvXvXvXvXvXvXvXvXvXvXvXvXvXY.R.9X6X,.A.D.4.S.S.G.5.r.7XqXvXvXvXvXvXvXvXvXvXvXvXvXvXvXvXvXvXvXvXvXvXvXvXvXvXvXvXvX",
"vXvXvXvXvXvXvXvXvXvXvXvXvXvXvXvXvXvXvXvX~ ( R.9X0XU.E.E.E.W.!.!.Q.I.7XqXvXvXvXvXvXvXvXvXvXvXvXvXvXvXvXvXvXvXvXvXvXvXvXvXvXvXvXvX",
"vXvXvXvXvXvXvXvXvXvXvXvXvXvXvXvXvXvXvX! ^ ].R.9X5X*.;.3.w.w.w.w.q.9.4XqXF F / ~./ vXvXvXvXvXvXvXvXvXvXvXvXvXvXvXvXvXvXvXvXvXvXvX",
"vXvXvXvXvXvXvXvXvXvXvXvXvXvXvXvXvXvXvX! ' ].R.9X8X5.C.A.P.P.J.G.K.M.7XH F /.rXsX X.XvXvXvXvXvXvXvXvXvXvXvXvXvXvXvXvXvXvXvXvXvXvX",
"vXvXvXvXvXvXvXvXvXvXvXvXvXvXvXvXvXvXvXvX~ ) R.9X,X0 e z C C c *.t r -XK m F [.uXhXpXiXvXvXvXvXvXvXvXvXvXvXvXvXvXvXvXvXvXvXvXvXvX",
"vXvXvXvXvXvXvXvXvXvXvXvXvXvXvXvXvXvXvXvX! ( R.9X<XN *.S  XeX_.8.*.0 7 n D n /.tXzXjXiXvXvXvXvXvXvXvXvXvXvXvXvXvXvXvXvXvXvXvXvXvX",
"vXvXvXvXvXvXvXvXvXvXvXvXvXvXvXvXvXvXvXvXvXY.Y.Y.H.M B S |.uXdXwX8.t @ O n (.tXfXkXaX%XvXvXvXvXvXvXvXvXvXvXvXvXvXvXvXvXvXvXvXvXvX",
"vXvXvXvXvXvXvXvXvXvXvXvXvXvXvXvXvXvXvXvXvXvXY.Y.F.b M V D &XdXcX1Xt a n J tXfXlX*X_ E vXvXvXvXvXvXvXvXvXvXvXvXvXvXvXvXvXvXvXvXvX",
"vXvXvXvXvXvXvXvXvXvXvXvXvXvXvXvXvXvXvXvXvXvXvXvX. + b D ).uXfXcXOX5 Z ~.rXsXxX=X' Q E vXvXvXvXvXvXvXvXvXvXvXvXvXvXvXvXvXvXvXvXvX",
"vXvXvXvXvXvXvXvXvXvXvXvXvXvXvXvXvXvXvXvXvXvXvXn v & + /.iXgXxX@XE 3 ^.tXfXzX=X] Q E vXvXvXvXvXvXvXvXvXvXvXvXvXvXvXvXvXvXvXvXvXvX",
"vXvXvXvXvXvXvXvXvXvXvXvXvXvXvXvXvXvXvXvXvXvXF |.|.D ).iXhXjX@X' L % '.xXkX*X' W vXvXvXvXvXvXvXvXvXvXvXvXvXvXvXvXvXvXvXvXvXvXvXvX",
"vXvXvXvXvXvXvXvXvXvXvXvXvXvXvXvXvXvXvXvXvXvXF eXtX+XuXsXjX#X' U X * '.jXaX_ Q E vXvXvXvXvXvXvXvXvXvXvXvXvXvXvXvXvXvXvXvXvXvXvXvX",
"vXvXvXvXvXvXvXvXvXvXvXvXvXvXvXvXvXvXvXvXvXvXF [.dXdXgXxX@X` I - * , `.iX%XE E vXvXvXvXvXvXvXvXvXvXvXvXvXvXvXvXvXvXvXvXvXvXvXvXvX",
"vXvXvXvXvXvXvXvXvXvXvXvXvXvXvXvXvXvXvXvXvXvXvX/ eXcXcX$X' W < # , L L vXvXvXvXvXvXvXvXvXvXvXvXvXvXvXvXvXvXvXvXvXvXvXvXvXvXvXvXvX",
"vXvXvXvXvXvXvXvXvXvXvXvXvXvXvXvXvXvXvXvXvXvXvXvXXX+XoXE E vXvX# : 1 L vXvXvXvXvXvXvXvXvXvXvXvXvXvXvXvXvXvXvXvXvXvXvXvXvXvXvXvXvX",
"vXvXvXvXvXvXvXvXvXvXvXvXvXvXvXvXvXvXvXvXvXvXvXvXL 2 , $ vXvXvX# : 2 L vXvXvXvXvXvXvXvXvXvXvXvXvXvXvXvXvXvXvXvXvXvXvXvXvXvXvXvXvX",
"vXvXvXvXvXvXvXvXvXvXvXvXvXvXvXvXvXvXvXvXvXvXvXvXy i a o vXvXvXo p u y vXvXvXvXvXvXvXvXvXvXvXvXvXvXvXvXvXvXvXvXvXvXvXvXvXvXvXvXvX",
"vXvXvXvXvXvXvXvXvXvXvXvXvXvXvXvXvXvXvXvXvXvXvXvX3 6 6 3 vXvXvX3 6 6 6 vXvXvXvXvXvXvXvXvXvXvXvXvXvXvXvXvXvXvXvXvXvXvXvXvXvXvXvXvX",
"vXvXvXvXvXvXvXvXvXvXvXvXvXvXvXvXvXvXvXvXvXvXvXvX3 6 w 6 vXvXvX3 w 9 3 vXvXvXvXvXvXvXvXvXvXvXvXvXvXvXvXvXvXvXvXvXvXvXvXvXvXvXvXvX",
"vXvXvXvXvXvXvXvXvXvXvXvXvXvXvXvXvXvXvXvXvXvXvXvX3 3 3 3 vXvXvX3 3 3 3 vXvXvXvXvXvXvXvXvXvXvXvXvXvXvXvXvXvXvXvXvXvXvXvXvXvXvXvXvX",
"vXvXvXvXvXvXvXvXvXvXvXvXvXvXvXvXvXvXvXvXvXvXvXvXvXvXvXvXvXvXvXvXvXvXvXvXvXvXvXvXvXvXvXvXvXvXvXvXvXvXvXvXvXvXvXvXvXvXvXvXvXvXvXvX",
"vXvXvXvXvXvXvXvXvXvXvXvXvXvXvXvXvXvXvXvXvXvXvXvXvXvXvXvXvXvXvXvXvXvXvXvXvXvXvXvXvXvXvXvXvXvXvXvXvXvXvXvXvXvXvXvXvXvXvXvXvXvXvXvX",
"vXvXvXvXvXvXvXvXvXvXvXvXvXvXvXvXvXvXvXvXvXvXvXvXvXvXvXvXvXvXvXvXvXvXvXvXvXvXvXvXvXvXvXvXvXvXvXvXvXvXvXvXvXvXvXvXvXvXvXvXvXvXvXvX",
"vXvXvXvXvXvXvXvXvXvXvXvXvXvXvXvXvXvXvXvXvXvXvXvXvXvXvXvXvXvXvXvXvXvXvXvXvXvXvXvXvXvXvXvXvXvXvXvXvXvXvXvXvXvXvXvXvXvXvXvXvXvXvXvX",
"vXvXvXvXvXvXvXvXvXvXvXvXvXvXvXvXvXvXvXvXvXvXvXvXvXvXvXvXvXvXvXvXvXvXvXvXvXvXvXvXvXvXvXvXvXvXvXvXvXvXvXvXvXvXvXvXvXvXvXvXvXvXvXvX",
"vXvXvXvXvXvXvXvXvXvXvXvXvXvXvXvXvXvXvXvXvXvXvXvXvXvXvXvXvXvXvXvXvXvXvXvXvXvXvXvXvXvXvXvXvXvXvXvXvXvXvXvXvXvXvXvXvXvXvXvXvXvXvXvX"
};
