/* XPM */
static char *pr_idle2[] = {
/* columns rows colors chars-per-pixel */
"64 64 234 2",
"   c black",
".  c #1D153F",
"X  c #381934",
"o  c #2D2C33",
"O  c #3C262F",
"+  c #101445",
"@  c #1A1E48",
"#  c #151B51",
"$  c #1F2966",
"%  c #1F2C68",
"&  c #1E3161",
"*  c #221A45",
"=  c #32265F",
"-  c #302C59",
";  c #353643",
":  c #383840",
">  c #3A3F5A",
",  c #20306A",
"<  c #323963",
"1  c #1B426F",
"2  c #264579",
"3  c #334B71",
"4  c #541D29",
"5  c #591A34",
"6  c #5E183E",
"7  c #572028",
"8  c #5A2328",
"9  c #701D32",
"0  c #602728",
"q  c #642C28",
"w  c #692E29",
"e  c #662435",
"r  c #6D243E",
"t  c #66302E",
"y  c #6D3429",
"u  c #712F2C",
"i  c #7A2732",
"p  c #713629",
"a  c #753929",
"s  c #7A3D2B",
"d  c #703936",
"f  c #402C44",
"g  c #66164C",
"h  c #751946",
"j  c #7D1B43",
"k  c #781D49",
"l  c #7E402B",
"z  c #704236",
"x  c #754539",
"c  c #784030",
"v  c #7E453B",
"b  c #794A39",
"n  c #45485A",
"m  c #484A51",
"M  c #574854",
"N  c #51545C",
"B  c #5F5B5F",
"V  c #434B7C",
"C  c #565961",
"Z  c #595D65",
"A  c #5C616A",
"S  c #625C5F",
"D  c #7D5546",
"F  c #62666E",
"G  c #6D6E70",
"H  c #6B7179",
"J  c #70686A",
"K  c #757371",
"L  c #72777D",
"P  c #295483",
"I  c #2B7297",
"U  c #48618A",
"Y  c #4C6F94",
"T  c #767C83",
"R  c #767D88",
"E  c #767B90",
"W  c #2C89AF",
"Q  c #2D8BB0",
"!  c #3591AF",
"~  c #389FBC",
"^  c #3AA2BD",
"/  c #2FB6C3",
"(  c #3FAAC2",
")  c #34B9C5",
"_  c #4D98B6",
"`  c #7D848A",
"'  c #6DA89C",
"]  c #7DB3A5",
"[  c #40ADC4",
"{  c #5DB1C7",
"}  c #66BECF",
"|  c #4ECBD4",
" . c #51CAD5",
".. c #61D2DB",
"X. c #6AD5DD",
"o. c #901F3D",
"O. c #832535",
"+. c #96213A",
"@. c #9C2439",
"#. c #A12637",
"$. c #AB2A34",
"%. c #AF313E",
"&. c #B22C32",
"*. c #B53139",
"=. c #BB3030",
"-. c #BC3D3D",
";. c #871D40",
":. c #9E2D44",
">. c #83452E",
",. c #8B5539",
"<. c #A15F35",
"1. c #A56638",
"2. c #B0783B",
"3. c #874C44",
"4. c #825149",
"5. c #8C514B",
"6. c #866249",
"7. c #83655C",
"8. c #9C654B",
"9. c #92695F",
"0. c #8D7A72",
"q. c #BE504B",
"w. c #AB7F59",
"e. c #B47050",
"r. c #B8766B",
"t. c #C13432",
"y. c #C53B34",
"u. c #C23F39",
"i. c #CB3D36",
"p. c #C1433D",
"a. c #C7483F",
"s. c #CC4337",
"d. c #CD4338",
"f. c #D54339",
"g. c #D44B3B",
"h. c #D8443A",
"j. c #DA4B3C",
"k. c #D6503B",
"l. c #DD533D",
"z. c #E0543F",
"x. c #C54740",
"c. c #CB554B",
"v. c #C35D53",
"b. c #D55542",
"n. c #D1574E",
"m. c #E55C41",
"M. c #E56142",
"N. c #E86343",
"B. c #EC6A45",
"V. c #E06453",
"C. c #9C7D81",
"Z. c #BA853F",
"A. c #B48348",
"S. c #BC8942",
"D. c #B98A4C",
"F. c #BE914E",
"G. c #B48961",
"H. c #DF873D",
"J. c #E48D3E",
"K. c #DC8E56",
"L. c #DA9140",
"P. c #CC9562",
"I. c #C59E7C",
"U. c #DF8266",
"Y. c #DC8C6F",
"T. c #DE8E70",
"R. c #D19768",
"E. c #D69A6F",
"W. c #D89C72",
"Q. c #DCAA47",
"!. c #DDAC4A",
"~. c #DDB457",
"^. c #C2A17D",
"/. c #D9AC7D",
"(. c #E2A144",
"). c #E0B453",
"_. c #E0B25B",
"`. c #E1BB5E",
"'. c #E2BF63",
"]. c #868D92",
"[. c #9D9393",
"{. c #999C9F",
"}. c #8597A6",
"|. c #8D93AB",
" X c #9294A7",
".X c #969FA4",
"XX c #84B7A8",
"oX c #A89C8F",
"OX c #BF9B89",
"+X c #B8A299",
"@X c #A3A7BE",
"#X c #AAAFB2",
"$X c #AFB5B8",
"%X c #B1B5B8",
"&X c #B4BABD",
"*X c #B8BBBD",
"=X c #B8BEC1",
"-X c #B3C5CD",
";X c #BCC2C4",
":X c #BEEAEC",
">X c #D4AD83",
",X c #D4AE8F",
"<X c #D3B695",
"1X c #D5BC99",
"2X c #DFB995",
"3X c #C7B7A2",
"4X c #CFBEA5",
"5X c #C3B7B3",
"6X c #CFBFB3",
"7X c #C1C1BD",
"8X c #DCCBBD",
"9X c #EAC39C",
"0X c #E0CCAB",
"qX c #EDCFA6",
"wX c #E9D5BF",
"eX c #F1DBB1",
"rX c #C1C5C6",
"tX c #C4C9CB",
"yX c #CDCDCA",
"uX c #D4D4D4",
"iX c #DADAD6",
"pX c #DFDDD9",
"aX c #C6EDEE",
"sX c #C1EDF0",
"dX c #D1EEEE",
"fX c #E4E3DB",
"gX c #EDEADF",
"hX c #E6E5E4",
"jX c #EEEEED",
"kX c #E0F4F3",
"lX c #F1EEE5",
"zX c #F4F3EC",
"xX c #FBFBF8",
"cX c None",
/* pixels */
"cXcXcXcXcXcXcXcXcXcXcXcXcXcXcXcXcXcXcXcXcXcXcXcXcXcXcXcXcXcXcXcXcXcXcXcXcXcXcXcXcXcXcXcXcXcXcXcXcXcXcXcXcXcXcXcXcXcXcXcXcXcXcXcX",
"cXcXcXcXcXcXcXcXcXcXcXcXcXcXcXcXcXcXcXcXcXcXcXcXcXcXcXcXcXcXcXcXcXcXcXcXcXcXcXcXcXcXcXcXcXcXcXcXcXcXcXcXcXcXcXcXcXcXcXcXcXcXcXcX",
"cXcXcXcXcXcXcXcXcXcXcXcXcXcXcXcXcXcXcXcXcXcXcXcXcXcXcXcXcXcXcXcXcXcXcXcXcXcXcXcXcXcXcXcXcXcXcXcXcXcXcXcXcXcXcXcXcXcXcXcXcXcXcXcX",
"cXcXcXcXcXcXcXcXcXcXcXcXcXcXcXcXcXcXcXcXcXcXcXcXcXcXcXcXcXcXcXcXcXcXcXcXcXcXcXcXcXcXcXcXcXcXcXcXcXcXcXcXcXcXcXcXcXcXcXcXcXcXcXcX",
"cXcXcXcXcXcXcXcXcXcXcXcXcXcXcXcXcXcXcXcXcXcXcXcXcXcXcXcXcXcXcXcXcXcXcXcXcXcXcXcXcXcXcXcXcXcXcXcXcXcXcXcXcXcXcXcXcXcXcXcXcXcXcXcX",
"cXcXcXcXcXcXcXcXcXcXcXcXcXcXcXcXcXcXcXcXcXcXcXcXcXcXcXcXcXcXcXcXcXcXcXcXcXcXcXcXcXcXcXcXcXcXcXcXcXcXcXcXcXcXcXcXcXcXcXcXcXcXcXcX",
"cXcXcXcXcXcXcXcXcXcXcXcXcXcXcXcXcXcXcXcXcXcXcXcXcXcXcXcXcXcXcXcXcXcXcXcXcXcXcXcXcXcXcXcXcXcXcXcXcXcXcXcXcXcXcXcXcXcXcXcXcXcXcXcX",
"cXcXcXcXcXcXcXcXcXcXcXcXcXcXcXcXcXcXcXcXcXcXcXcXcXcXcXcXcXcXcXcXcXcXcXcXcXcXcXcXcXcXcXcXcXcXcXcXcXcXcXcXcXcXcXcXcXcXcXcXcXcXcXcX",
"cXcXcXcXcXcXcXcXcXcXcXcXcXcXcXcXcXcXcXcXcXcXcXcXcXcXcXcXcXcXcXcXcXcXcXcXcXcXcXcXcXcXcXcXcXcXcXcXcXcXcXcXcXcXcXcXcXcXcXcXcXcXcXcX",
"cXcXcXcXcXcXcXcXcXcXcXcXcXcXcXcXcXcXcXcXcXcXcXcXcXcXcXcXcXcXcXcXcXcXcXcXcXcXcXcXcXcXcXcXcXcXcXcXcXcXcXcXcXcXcXcXcXcXcXcXcXcXcXcX",
"cXcXcXcXcXcXcXcXcXcXcXcXcXcXcXcXcXcXcXcXcXcXcXcXcXcXcXcXcXcXcXcXcXcXcXcXcXcXcXcXcXcXcXcXcXcXcXcXcXcXcXcXcXcXcXcXcXcXcXcXcXcXcXcX",
"cXcXcXcXcXcXcXcXcXcXcXcXcXcXcXcXcXcXcXcXcXcXcXcXcXcXcXcXcXcXcXcXcXcXcXcXcXcXcXcXcXcXcXcXcXcXcXcXcXcXcXcXcXcXcXcXcXcXcXcXcXcXcXcX",
"cXcXcXcXcXcXcXcXcXcXcXcXcXcXcXcXcXcXcXcXcXcXcXcXcXcXcXcXcXcXcXcXcXcXcXcXcXcXcXcXcXcXcXcXcXcXcXcXcXcXcXcXcXcXcXcXcXcXcXcXcXcXcXcX",
"cXcXcXcXcXcXcXcXcXcXcXcXcXcXcXcXcXcXcXcXcXcXcXcXcXcXcXcXcXcXcXcXcXcXcXcXcXcXcXcXcXcXcXcXcXcXcXcXcXcXcXcXcXcXcXcXcXcXcXcXcXcXcXcX",
"cXcXcXcXcXcXcXcXcXcXcXcXcXcXcXcXcXcXcXcXcXcXcXcX=.=.=.=.cXcXcXcXcXcXcXcXcXcXcXcXcXcXcXcXcXcXcXcXcXcXcXcXcXcXcXcXcXcXcXcXcXcXcXcX",
"cXcXcXcXcXcXcXcXcXcXcXcXcXcXcXcXcXcXcXcXcXcXcXcXy.l.f.f.=.cXcXcXcXcXcXcXcXcXcXcXcXcXcXcXcXcXcXcXcXcXcXcXcXcXcXcXcXcXcXcXcXcXcXcX",
"cXcXcXcXcXcXcXcXcXcXcXcXcXcXcXcXcXcXcXcXcXcXcX=.m.j.B.M.g.y.y.y.=.cXcXcXcXcXcXcXcXcXcXcXcXcXcXcXcXcXcXcXcXcXcXcXcXcXcXcXcXcXcXcX",
"cXcXcXcXcXcXcXcXcXcXcXcXcXcXcXcXcXcXcXcXcXcXo.u.s.y.s.g.B.B.N.m.s.=.cXcXcXcXcXcXcXcXcXcXcXcXcXcXcXcXcXcXcXcXcXcXcXcXcXcXcXcXcXcX",
"cXcXcXcXcXcXcXcXcXcXcXcXcXcXcXcXcXcXcXcXcXo.@.j.j.d.t.j.s.g.f.h.l.-.o.cXcXcXcXcXcXcXcXcXcXcXcXcXcXcXcXcXcXcXcXcXcXcXcXcXcXcXcXcX",
"cXcXcXcXcXcXcXcXcXcXcXcXcXcXcXcXcXcXcXcXcXo.p.N.s.x.&.=.p.Y.Y.Y.U.d.&.cXcXcXcXcXcXcXcXcXcXcXcXcXcXcXcXcXcXcXcXcXcXcXcXcXcXcXcXcX",
"cXcXcXcXcXcXcXcXcXcXcXcXcXcXcXcXcXcXcXcXcXo.-.h.b.j j &.v.3X0XeXr.@.o.cXcXcXcXcXcXcXcXcXcXcXcXcXcXcXcXcXcXcXcXcXcXcXcXcXcXcXcXcX",
"cXcXcXcXcXcXcXcXcXcXcXcXcXcXcXcXcXcXcXcXcXo.-.i.:.g j q.OX$ [.eX= h g cXcXcXcXcXcXcXcXcXcXcXcXcXcXcXcXcXcXcXcXcXcXcXcXcXcXcXcXcX",
"cXcXcXcXcXcXcXcXcXcXcXcXcXcXcXcXcXcXcXcXcXo.*.i.g g j c.0X[.4XeXC.@.cXcXcXcXcXcXcXcXcXcXcXcXcXcXcXcXcXcXcXcXcXcXcXcXcXcXcXcXcXcX",
"cXcXcXcXcXcXcXcXcXcXcXcXcXcXcXcXcXcXcXcXcXo.x.j.g g j &.n.V.V.V.n.+.cXcXcXcXcXcXcXcXcXcXcXcXcXcXcXcXcXcXcXcXcXcXcXcXcXcXcXcXcXcX",
"cXcXcXcXcXcXcXcXcXcXcXcXcXcXcXcXcXcXcXcXcX+.%.k 4 5 k o.o.&.i.i.$.9 7 cXcXcXcXcXcXcXcXcXcXcXcXcXcXcXcXcXcXcXcXcXcXcXcXcXcXcXcXcX",
"cXcXcXcXcXcXcXcXcXcXcXcXcXcXcXcXcXcXcXcXcXcX6 4 8 8 e r O.o.@.$.i 8 8 4 cXcXcXcXcXcXcXcXcXcXcXcXcXcXcXcXcXcXcXcXcXcXcXcXcXcXcXcX",
"cXcXcXcXcXcXcXcXcXcXcXcXcXcXcXcXcXcXcXcXcX4 8 8 p p a a y O.+.+.y p 8 4 cXcXcXcXcXcXcXcXcXcXcXcXcXcXcXcXcXcXcXcXcXcXcXcXcXcXcXcX",
"cXcXcXcXcXcXcXcXcXcXcXcXcXcXcXcXcXcXcXcX7 8 a a p l >.>.a p t p a l p 4 cXcXcXcXcXcXcXcXcXcXcXcXcXcXcXcXcXcXcXcXcXcXcXcXcXcXcXcX",
"cXcXcXcXcXcXcXcXcXcXcXcXcXcXcXcXcXcXcXcX7 y y y y a a y a >.l >.>.l p 4 cXcXcXcXcXcXcXcXcXcXcXcXcXcXcXcXcXcXcXcXcXcXcXcXcXcXcXcX",
"cXcXcXcXcXcXcXcXcXcXcXcXcXcXcXcXcXcXcXcX7 8 w v b w p l a a a l l s 4.9.cXcXcXcXcXcXcXcXcXcXcXcXcXcXcXcXcXcXcXcXcXcXcXcXcXcXcXcX",
"cXcXcXcXcXcXcXcXcXcXcXcXcXcXcXcXcXcXcXcX4 d 8.>XI.7 8 y l c l l a v ,XeXcXcXcXcXcXcXcXcXcXcXcXcXcXcXcXcXcXcXcXcXcXcXcXcXcXcXcXcX",
"cXcXcXcXcXcXcXcXcXcXcXcXcXcXcXcXcXcXcXcXcXP.E.qX6X8 w a y y y y w 5.9XeXcXcXcXcXcXcXcXcXcXcXcXcXcXcXcXcXcXcXcXcXcXcXcXcXcXcXcXcX",
"cXcXcXcXcXcXcXcXcXcXcXcXcXcXcXcXcXcXcXcXcXP.W.qXwXJ.L.Q.!.~.~.'.J.K.9XeXcXcXcXcXcXcXcXcXcXcXcXcXcXcXcXcXcXcXcXcXcXcXcXcXcXcXcXcX",
"cXcXcXcXcXcXcXcXcXcXcXcXcXcXcXcXcXcXcXcX/ ' W.qX8X1.S.S.2.A.D.F.A.e.9XeXcXcXcXcXcXcXcXcXcXcXcXcXcXcXcXcXcXcXcXcXcXcXcXcXcXcXcXcX",
"cXcXcXcXcXcXcXcXcXcXcXcXcXcXcXcXcXcXcXcX) ] W.qX8X<.2.S.S.F.F.F.A.e.9XeXcXH H H cXcXcXcXcXcXcXcXcXcXcXcXcXcXcXcXcXcXcXcXcXcXcXcX",
"cXcXcXcXcXcXcXcXcXcXcXcXcXcXcXcXcXcXcX/ | XXW.qXwXL.Q.!.'.'.~.`._.K.9XeXH ` %XyX` cXcXcXcXcXcXcXcXcXcXcXcXcXcXcXcXcXcXcXcXcXcXcX",
"cXcXcXcXcXcXcXcXcXcXcXcXcXcXcXcXcXcXcXcX) XXE.qX<Xw w p x x s s a 3.2XK C ` *XuXfXtXuXcXcXcXcXcXcXcXcXcXcXcXcXcXcXcXcXcXcXcXcXcX",
"cXcXcXcXcXcXcXcXcXcXcXcXcXcXcXcXcXcXcXcX/ ' W.qX1Xz >.D ].{.0.,.l d 7.K Z N ].yXlXjXuXcXcXcXcXcXcXcXcXcXcXcXcXcXcXcXcXcXcXcXcXcX",
"cXcXcXcXcXcXcXcXcXcXcXcXcXcXcXcXcXcXcXcXcXP.R./.^.S b J %XiXyXoX>.y O o A H #XiXlXjXuXcXcXcXcXcXcXcXcXcXcXcXcXcXcXcXcXcXcXcXcXcX",
"cXcXcXcXcXcXcXcXcXcXcXcXcXcXcXcXcXcXcXcXcXP.P.P.G.A Z 6.L rXfXjX+Xp 4 o m $XiXlXkX} _ cXcXcXcXcXcXcXcXcXcXcXcXcXcXcXcXcXcXcXcXcX",
"cXcXcXcXcXcXcXcXcXcXcXcXcXcXcXcXcXcXcXcXcXcXcXcXw.; Z Z L rXfXxX5Xt M F *XpXlXkX .( W cXcXcXcXcXcXcXcXcXcXcXcXcXcXcXcXcXcXcXcXcX",
"cXcXcXcXcXcXcXcXcXcXcXcXcXcXcXcXcXcXcXcXcXcXcXN n @ ; T rXfXlXsX}.X E ;XpXhXdXX.( W cXcXcXcXcXcXcXcXcXcXcXcXcXcXcXcXcXcXcXcXcXcX",
"cXcXcXcXcXcXcXcXcXcXcXcXcXcXcXcXcXcXcXcXcXcXH ` R > A %XfXlXaX..I *  XfXlXdXX.[ W cXcXcXcXcXcXcXcXcXcXcXcXcXcXcXcXcXcXcXcXcXcXcX",
"cXcXcXcXcXcXcXcXcXcXcXcXcXcXcXcXcXcXcXcXcXcXH *XrX.X=XuXlXaX..^ ; # @XxXkXX.[ Q cXcXcXcXcXcXcXcXcXcXcXcXcXcXcXcXcXcXcXcXcXcXcXcX",
"cXcXcXcXcXcXcXcXcXcXcXcXcXcXcXcXcXcXcXcXcXcXH 7XiXiXfXlXsX .! f # $ |.iX-XW Q cXcXcXcXcXcXcXcXcXcXcXcXcXcXcXcXcXcXcXcXcXcXcXcXcX",
"cXcXcXcXcXcXcXcXcXcXcXcXcXcXcXcXcXcXcXcXcXcXcX` uXzXzXsX .^ 1 + % 2 P cXcXcXcXcXcXcXcXcXcXcXcXcXcXcXcXcXcXcXcXcXcXcXcXcXcXcXcXcX",
"cXcXcXcXcXcXcXcXcXcXcXcXcXcXcXcXcXcXcXcXcXcXcXcX=XhXhX{ ~ W cX+ % 2 P cXcXcXcXcXcXcXcXcXcXcXcXcXcXcXcXcXcXcXcXcXcXcXcXcXcXcXcXcX",
"cXcXcXcXcXcXcXcXcXcXcXcXcXcXcXcXcXcXcXcXcXcXcXcXY U V & W cXcX+ , P P cXcXcXcXcXcXcXcXcXcXcXcXcXcXcXcXcXcXcXcXcXcXcXcXcXcXcXcXcX",
"cXcXcXcXcXcXcXcXcXcXcXcXcXcXcXcXcXcXcXcXcXcXcXcX3 3 < * cXcXcX. - < 3 cXcXcXcXcXcXcXcXcXcXcXcXcXcXcXcXcXcXcXcXcXcXcXcXcXcXcXcXcX",
"cXcXcXcXcXcXcXcXcXcXcXcXcXcXcXcXcXcXcXcXcXcXcXcX4 8 w 7 cXcXcX4 w 0 4 cXcXcXcXcXcXcXcXcXcXcXcXcXcXcXcXcXcXcXcXcXcXcXcXcXcXcXcXcX",
"cXcXcXcXcXcXcXcXcXcXcXcXcXcXcXcXcXcXcXcXcXcXcXcX4 0 w 7 cXcXcX4 w 0 4 cXcXcXcXcXcXcXcXcXcXcXcXcXcXcXcXcXcXcXcXcXcXcXcXcXcXcXcXcX",
"cXcXcXcXcXcXcXcXcXcXcXcXcXcXcXcXcXcXcXcXcXcXcXcX4 7 8 4 cXcXcX4 8 4 4 cXcXcXcXcXcXcXcXcXcXcXcXcXcXcXcXcXcXcXcXcXcXcXcXcXcXcXcXcX",
"cXcXcXcXcXcXcXcXcXcXcXcXcXcXcXcXcXcXcXcXcXcXcXcXcXcXcXcXcXcXcXcXcXcXcXcXcXcXcXcXcXcXcXcXcXcXcXcXcXcXcXcXcXcXcXcXcXcXcXcXcXcXcXcX",
"cXcXcXcXcXcXcXcXcXcXcXcXcXcXcXcXcXcXcXcXcXcXcXcXcXcXcXcXcXcXcXcXcXcXcXcXcXcXcXcXcXcXcXcXcXcXcXcXcXcXcXcXcXcXcXcXcXcXcXcXcXcXcXcX",
"cXcXcXcXcXcXcXcXcXcXcXcXcXcXcXcXcXcXcXcXcXcXcXcXcXcXcXcXcXcXcXcXcXcXcXcXcXcXcXcXcXcXcXcXcXcXcXcXcXcXcXcXcXcXcXcXcXcXcXcXcXcXcXcX",
"cXcXcXcXcXcXcXcXcXcXcXcXcXcXcXcXcXcXcXcXcXcXcXcXcXcXcXcXcXcXcXcXcXcXcXcXcXcXcXcXcXcXcXcXcXcXcXcXcXcXcXcXcXcXcXcXcXcXcXcXcXcXcXcX",
"cXcXcXcXcXcXcXcXcXcXcXcXcXcXcXcXcXcXcXcXcXcXcXcXcXcXcXcXcXcXcXcXcXcXcXcXcXcXcXcXcXcXcXcXcXcXcXcXcXcXcXcXcXcXcXcXcXcXcXcXcXcXcXcX",
"cXcXcXcXcXcXcXcXcXcXcXcXcXcXcXcXcXcXcXcXcXcXcXcXcXcXcXcXcXcXcXcXcXcXcXcXcXcXcXcXcXcXcXcXcXcXcXcXcXcXcXcXcXcXcXcXcXcXcXcXcXcXcXcX",
"cXcXcXcXcXcXcXcXcXcXcXcXcXcXcXcXcXcXcXcXcXcXcXcXcXcXcXcXcXcXcXcXcXcXcXcXcXcXcXcXcXcXcXcXcXcXcXcXcXcXcXcXcXcXcXcXcXcXcXcXcXcXcXcX",
"cXcXcXcXcXcXcXcXcXcXcXcXcXcXcXcXcXcXcXcXcXcXcXcXcXcXcXcXcXcXcXcXcXcXcXcXcXcXcXcXcXcXcXcXcXcXcXcXcXcXcXcXcXcXcXcXcXcXcXcXcXcXcXcX",
"cXcXcXcXcXcXcXcXcXcXcXcXcXcXcXcXcXcXcXcXcXcXcXcXcXcXcXcXcXcXcXcXcXcXcXcXcXcXcXcXcXcXcXcXcXcXcXcXcXcXcXcXcXcXcXcXcXcXcXcXcXcXcXcX",
"cXcXcXcXcXcXcXcXcXcXcXcXcXcXcXcXcXcXcXcXcXcXcXcXcXcXcXcXcXcXcXcXcXcXcXcXcXcXcXcXcXcXcXcXcXcXcXcXcXcXcXcXcXcXcXcXcXcXcXcXcXcXcXcX",
"cXcXcXcXcXcXcXcXcXcXcXcXcXcXcXcXcXcXcXcXcXcXcXcXcXcXcXcXcXcXcXcXcXcXcXcXcXcXcXcXcXcXcXcXcXcXcXcXcXcXcXcXcXcXcXcXcXcXcXcXcXcXcXcX",
"cXcXcXcXcXcXcXcXcXcXcXcXcXcXcXcXcXcXcXcXcXcXcXcXcXcXcXcXcXcXcXcXcXcXcXcXcXcXcXcXcXcXcXcXcXcXcXcXcXcXcXcXcXcXcXcXcXcXcXcXcXcXcXcX"
};
