/* XPM */
static char *sc_coin[] = {
/* columns rows colors chars-per-pixel */
"32 32 6 1",
"  c black",
". c #25131A",
"X c #C09344",
"o c #FFD569",
"O c #FFF1CC",
"+ c None",
/* pixels */
"++++++++++++++++++++++++++++++++",
"++++++++++++++++++++++++++++++++",
"++++++++++++++++++++++++++++++++",
"++++++++++++++++++++++++++++++++",
"++++++++++++++++++++++++++++++++",
"++++++++++++++++++++++++++++++++",
"++++++++++++........++++++++++++",
"++++++++++++........++++++++++++",
"++++++++++..XXXXXXXX..++++++++++",
"++++++++++..XXXXXXXX..++++++++++",
"++++++++..XXOOOOOOooXX..++++++++",
"++++++++..XXOOOOOOooXX..++++++++",
"++++++..XXOOOOXXXXooOOXX..++++++",
"++++++..XXOOOOXXXXooOOXX..++++++",
"++++++..XXOOXXOOooXXooXX..++++++",
"++++++..XXOOXXOOooXXooXX..++++++",
"++++++..XXooXXooooXXooXX..++++++",
"++++++..XXooXXooooXXooXX..++++++",
"++++++..XXOOooXXXXooooXX..++++++",
"++++++..XXOOooXXXXooooXX..++++++",
"++++++++..XXooooooooXX..++++++++",
"++++++++..XXooooooooXX..++++++++",
"++++++++++..XXXXXXXX..++++++++++",
"++++++++++..XXXXXXXX..++++++++++",
"++++++++++++........++++++++++++",
"++++++++++++........++++++++++++",
"++++++++++++++++++++++++++++++++",
"++++++++++++++++++++++++++++++++",
"++++++++++++++++++++++++++++++++",
"++++++++++++++++++++++++++++++++",
"++++++++++++++++++++++++++++++++",
"++++++++++++++++++++++++++++++++"
};
