/* XPM */
static char *skull[] = {
/* columns rows colors chars-per-pixel */
"64 59 245 2",
"   c black",
".  c #000000",
"X  c #000000",
"o  c #000000",
"O  c #000000",
"+  c #000000",
"@  c #010101",
"#  c #010101",
"$  c #030303",
"%  c #030303",
"&  c #040404",
"*  c #040404",
"=  c #040404",
"-  c #040404",
";  c #040404",
":  c #040404",
">  c #040404",
",  c #050505",
"<  c #070707",
"1  c #090909",
"2  c #0C0C0C",
"3  c #0E0E0E",
"4  c #0F0F0F",
"5  c #0F0F0F",
"6  c #101010",
"7  c #181818",
"8  c #181818",
"9  c #181818",
"0  c #191919",
"q  c #1E1E1E",
"w  c #1E1E1E",
"e  c #1E1E1E",
"r  c #212121",
"t  c #232323",
"y  c #242424",
"u  c #282828",
"i  c #303030",
"p  c #303030",
"a  c #303030",
"s  c #313131",
"d  c #313131",
"f  c #313131",
"g  c #313131",
"h  c #333333",
"j  c #383838",
"k  c #393939",
"l  c #393939",
"z  c #3B3B3B",
"x  c #3B3B3B",
"c  c #3C3C3C",
"v  c #3E3E3E",
"b  c #3E3E3E",
"n  c #3F3F3F",
"m  c #3F3F3F",
"M  c #404040",
"N  c #414141",
"B  c #444444",
"V  c #444444",
"C  c #454545",
"Z  c #484848",
"A  c #494949",
"S  c #4B4B4B",
"D  c #515151",
"F  c #525252",
"G  c #535353",
"H  c #545454",
"J  c #545454",
"K  c #555555",
"L  c #585858",
"P  c #595959",
"I  c #5B5B5B",
"U  c #5B5B5B",
"Y  c #5C5C5C",
"T  c #646464",
"R  c #656565",
"E  c #676767",
"W  c #696969",
"Q  c #696969",
"!  c #6B6B6B",
"~  c #6B6B6B",
"^  c #6B6B6B",
"/  c #737373",
"(  c #737373",
")  c #747474",
"_  c #757575",
"`  c #767676",
"'  c #777777",
"]  c #777777",
"[  c #797979",
"{  c #7A7A7A",
"}  c #7B7B7B",
"|  c #7B7B7B",
" . c #7E7E7E",
".. c #7F7F7F",
"X. c #808080",
"o. c #818181",
"O. c #818181",
"+. c #828282",
"@. c #838383",
"#. c #868686",
"$. c #878787",
"%. c #878787",
"&. c #878787",
"*. c #878787",
"=. c #898989",
"-. c #8D8D8D",
";. c #8F8F8F",
":. c #8F8F8F",
">. c #939393",
",. c #959595",
"<. c #979797",
"1. c #979797",
"2. c #979797",
"3. c #999999",
"4. c #999999",
"5. c #9B9B9B",
"6. c #9C9C9C",
"7. c #9C9C9C",
"8. c #9D9D9D",
"9. c #9F9F9F",
"0. c #9F9F9F",
"q. c #A2A2A2",
"w. c #A4A4A4",
"e. c #A7A7A7",
"r. c #A7A7A7",
"t. c #A7A7A7",
"y. c #A7A7A7",
"u. c #AAAAAA",
"i. c #AAAAAA",
"p. c #AAAAAA",
"a. c #ABABAB",
"s. c #ACACAC",
"d. c #AEAEAE",
"f. c #AEAEAE",
"g. c #AEAEAE",
"h. c #AFAFAF",
"j. c #B3B3B3",
"k. c #B3B3B3",
"l. c #B3B3B3",
"z. c #B3B3B3",
"x. c #B3B3B3",
"c. c #B4B4B4",
"v. c #B5B5B5",
"b. c #B6B6B6",
"n. c #B7B7B7",
"m. c #B8B8B8",
"M. c #B9B9B9",
"N. c #B9B9B9",
"B. c #B9B9B9",
"V. c #B9B9B9",
"C. c #BABABA",
"Z. c #BABABA",
"A. c #BABABA",
"S. c #BABABA",
"D. c #BBBBBB",
"F. c #BBBBBB",
"G. c #BBBBBB",
"H. c #BBBBBB",
"J. c #BBBBBB",
"K. c #BCBCBC",
"L. c #BCBCBC",
"P. c #BDBDBD",
"I. c #BDBDBD",
"U. c #C0C0C0",
"Y. c #C3C3C3",
"T. c #C4C4C4",
"R. c #C5C5C5",
"E. c #C5C5C5",
"W. c #C8C8C8",
"Q. c #C9C9C9",
"!. c #C9C9C9",
"~. c #C9C9C9",
"^. c #CACACA",
"/. c #CACACA",
"(. c #CACACA",
"). c #CCCCCC",
"_. c #CDCDCD",
"`. c #CDCDCD",
"'. c #CECECE",
"]. c #CECECE",
"[. c #CFCFCF",
"{. c #CFCFCF",
"}. c #D0D0D0",
"|. c #D0D0D0",
" X c #D1D1D1",
".X c #D3D3D3",
"XX c #D4D4D4",
"oX c #D7D7D7",
"OX c #D9D9D9",
"+X c #D9D9D9",
"@X c #DBDBDB",
"#X c #DBDBDB",
"$X c #DDDDDD",
"%X c #DEDEDE",
"&X c #DFDFDF",
"*X c #E0E0E0",
"=X c #E0E0E0",
"-X c #E2E2E2",
";X c #E5E5E5",
":X c #E6E6E6",
">X c #E7E7E7",
",X c #E7E7E7",
"<X c #E8E8E8",
"1X c #E9E9E9",
"2X c #EAEAEA",
"3X c #EBEBEB",
"4X c #ECECEC",
"5X c #EFEFEF",
"6X c #F0F0F0",
"7X c #F4F4F4",
"8X c #F4F4F4",
"9X c #F5F5F5",
"0X c #F5F5F5",
"qX c #F5F5F5",
"wX c #F5F5F5",
"eX c #F6F6F6",
"rX c #F6F6F6",
"tX c #F8F8F8",
"yX c #F8F8F8",
"uX c #F9F9F9",
"iX c #FAFAFA",
"pX c #FAFAFA",
"aX c #FAFAFA",
"sX c #FAFAFA",
"dX c #FBFBFB",
"fX c #FCFCFC",
"gX c #FCFCFC",
"hX c #FCFCFC",
"jX c #FCFCFC",
"kX c #FDFDFD",
"lX c #FDFDFD",
"zX c #FDFDFD",
"xX c #FDFDFD",
"cX c #FDFDFD",
"vX c #FDFDFD",
"bX c #FEFEFE",
"nX c #FEFEFE",
"mX c #FEFEFE",
"MX c #FEFEFE",
"NX c #FEFEFE",
"BX c #FEFEFE",
"VX c #FEFEFE",
"CX c #FEFEFE",
"ZX c gray100",
"AX c None",
/* pixels */
"AXAXAXAXAXAXAXAXAXAXAXAXAXAXAXAXAXAXAXAXAXAXAXAXAXAXAXAXAXAXAXAXAXAXAXAXAXAXAXAXAXAXAXAXAXAXAXAXAXAXAXAXAXAXAXAXAXAXAXAXAXAXAXAX",
"AXAXAXAXAXAXAXAXAXAXAXAXAXAXAXAXAXAXAX                                                    AXAXAXAXAXAXAXAXAXAXAXAXAXAXAXAXAXAXAX",
"AXAXAXAXAXAXAXAXAXAXAXAXAXAXAXAXAXAXAX                                                    AXAXAXAXAXAXAXAXAXAXAXAXAXAXAXAXAXAXAX",
"AXAXAXAXAXAXAXAXAXAXAXAXAXAXAXAXAXAXAX                                                    AXAXAXAXAXAXAXAXAXAXAXAXAXAXAXAXAXAXAX",
"AXAXAXAXAXAXAXAXAXAXAXAXAXAX          O a.g.g.g.g.g.g.g.g.g.g.g.g.g.g.g.g.g.g.g.g.g.g.a.O           AXAXAXAXAXAXAXAXAXAXAXAXAXAX",
"AXAXAXAXAXAXAXAXAXAXAXAXAXAX          o b.D.D.D.D.D.D.D.D.D.D.D.D.D.D.D.D.D.D.D.D.D.D.b.o           AXAXAXAXAXAXAXAXAXAXAXAXAXAX",
"AXAXAXAXAXAXAXAXAXAXAX      3 i i i i a n.D.D.D.D.D.D.D.D.D.U.).).).).).).).).).).).).Q.b v l i i 3       AXAXAXAXAXAXAXAXAXAXAX",
"AXAXAXAXAXAXAXAXAXAXAX      j D.D.D.D.D.D.D.D.D.D.D.D.D.D.D. XZXZXZXZXZXZXZXZXZXZXZXZXZXZXZX>XD.D.j       AXAXAXAXAXAXAXAXAXAXAX",
"AXAXAXAXAXAXAXAXAXAXAX      j D.D.D.D.D.D.D.D.D.D.D.D.D.D.D. XZXZXZXZXZXZXZXZXZXZXZXZXZXZXZX>XD.D.j       AXAXAXAXAXAXAXAXAXAXAX",
"AXAXAXAXAXAXAXAXAX    @ E ~ @.D.D.D.D.D.D.D.D.D.D.XX-X-X-X-X3XZXZXZXZXZXZXZXZXZXZXZXZXZXZXZX8X-X-X:.~ E @     AXAXAXAXAXAXAXAXAX",
"AXAXAXAXAXAXAXAXAX    # z.D.D.D.D.D.D.D.D.D.D.D.D.,XZXZXZXZXZXZXZXZXZXZXZXZXZXZXZXZXZXZXZXZXZXZXZX}.D.z.#     AXAXAXAXAXAXAXAXAX",
"AXAXAXAXAXAXAXAXAX    # z.D.D.D.D.D.D.D.D.D.D.D.D.,XZXZXZXZXZXZXZXZXZXZXZXZXZXZXZXZXZXZXZXZXZXZXZX}.D.z.#     AXAXAXAXAXAXAXAXAX",
"AXAXAXAXAXAX      ! e.r.C.D.D.D.D.D.D.D.D.D.].tXtXjXZXZXZXZXZXZXZXZXZXZXZXZXZXZXZXZXZXZXZXZXZXZXZXiXtX0Xy.e.!       AXAXAXAXAXAX",
"AXAXAXAXAXAX      ] D.D.D.D.D.D.D.D.D.D.D.D.|.ZXZXZXZXZXZXZXZXZXZXZXZXZXZXZXZXZXZXZXZXZXZXZXZXZXZXZXZXhXJ.D.]       AXAXAXAXAXAX",
"AXAXAXAX    2 u u #.D.D.D.D.D.D.D.D.D.F.~.^.@XZXZXZXZXZXZXZXZXZXZXZXZXZXZXZXZXZXZXZXZXZXZXZXZXZXZXZXZXkX(.^.;.u u 2     AXAXAXAX",
"AXAXAXAX    k D.D.D.D.D.D.D.D.D.D.D.D.H.zXZXZXZXZXZXZXZXZXZXZXZXZXZXZXZXZXZXZXZXZXZXZXZXZXZXZXZXZXZXZXZXZXZX:XD.D.k     AXAXAXAX",
"AXAXAXAX    k D.D.D.D.D.D.D.D.D.D.D.D.H.zXZXZXZXZXZXZXZXZXZXZXZXZXZXZXZXZXZXZXZXZXZXZXZXZXZXZXZXZXZXZXZXZXZX:XD.D.k     AXAXAXAX",
"AXAXAXAX    k D.D.D.D.D.D.D.D.D.D..X*X=XMXZXZXZXZXZXZXZXZXZXZXZXZXZXZXZXZXZXZXZXZXZXZXZXZXZXZXZXZXZXZXZXZXZX:XD.D.k     AXAXAXAX",
"AXAXAXAX    k D.D.D.D.D.D.D.D.D.D.>XZXZXZXZXZXZXZXZXZXZXZXZXZXZXZXZXZXZXZXZXZXZXZXZXZXZXZXZXZXZXZXZXZXZXZXZX:XD.D.k     AXAXAXAX",
"AXAXAXAX    k D.D.D.D.D.D.D.D.D.D.>XZXZXZXZXZXZXZXZXZXZXZXZXZXZXZXZXZXZXZXZXZXZXZXZXZXZXZXZXZXZXZXZXZXZXZXZX:XD.D.k     AXAXAXAX",
"AX      8.q.u.D.D.D.D.D.D.D.=.9 9 q r r r r r r r k.ZXZXZXZXZXZXZXZXZXZXZXZXj.r r r r r r r r r r B.ZXZXZXZXdXeXeXK.q.8.      AX",
"AX      c.D.D.D.D.D.D.D.D.D.+.                    t.ZXZXZXZXZXZXZXZXZXZXZXZXt.                    h.ZXZXZXZXZXZXZX[.D.c.      AX",
"AX      c.D.D.D.D.D.D.S.3.1.Q                     &.`.'.vXZXZXZXZXZXZXcX'.`.%.                    -.`.{.NXZXZXZXZX[.D.c.      AX",
"AX      c.D.D.D.D.D.D.N.<                             & uXZXZXZXZXZXZXuX&                             1 fXZXZXZXZX[.D.c.      AX",
"AX      c.D.D.D.D.D.D.N.<                             & uXZXZXZXZXZXZXuX&                             1 fXZXZXZXZX[.D.c.      AX",
"AX      c.D.D.D.D. .U I $                             & uXZXZXZXZXZXZXuX&                             = { } p.ZXZX[.D.c.      AX",
"AX      c.D.D.D.D.C                                   & uXZXZXZXZXZXZXuX&                                   Y ZXZX[.D.c.      AX",
"AX      c.D.D.D.D.C                                   & uXZXZXZXZXZXZXuX&                                   Y ZXZX[.D.c.      AX",
"AX      c.D.D.D.D.C                                   & uXZXZXZXZXZXZXuX&                                   Y ZXZX[.D.c.      AX",
"AX      c.D.D.D.D.C                                   & uXZXZXZXZXZXZXuX&                                   Y ZXZX[.D.c.      AX",
"AX      c.D.D.D.D.C                                   & uXZXZXZXZXZXZXuX&                                   Y ZXZX[.D.c.      AX",
"AX      c.D.D.D.D.C                                   & uXZXZXZXZXZXZXuX&                                   Y ZXZX[.D.c.      AX",
"AX      c.D.D.D.D.C                                   & uXZXZXZXZXZXZXuX&                                   Y ZXZX[.D.c.      AX",
"AX      c.D.D.D.D.C                                   & uXZXZXZXZXZXZXuX&                                   Y ZXZX[.D.c.      AX",
"AX      c.D.D.D.D.C                                   & uXZXZXZXZXZXZXuX&                                   Y ZXZX[.D.c.      AX",
"AX      c.D.D.D.D.C                                   & uXZXZXZXZXZXZXuX&                                   Y ZXZX[.D.c.      AX",
"AX      t y F D.D.w.1.1.1.1.Q               d 1.1.G.`.'.vXZXA.f f A.ZXcX'.`.G.1.1.s               W 1.4._.`.&XZXZXR y t       AX",
"AXAXAXAX    k D.D.D.D.D.D.D.+.              c D.D.,XZXZXZXZXi.    i.ZXZXZXZX,XD.D.c               +.D.I.nXZXZXZXZXS     AXAXAXAX",
"AXAXAXAX    k D.D.D.D.D.D.D.o.    5 9 8 +   n Y.Y.2XZXBX%X$X7.9 9 7.$X%XBXZX2XY.Y.n   + 7 9 4     *.Y.E.mXZXdXeXeXA     AXAXAXAX",
"AXAXAXAX    k D.D.D.D.D.D.D.X.    [ D.V.%   D ZXZXZXZXsX,   m D.D.m   , sXZXZXZXZXD   % V.D.[     d.ZXZXZXZX:XD.D.k     AXAXAXAX",
"AXAXAXAX    k D.D.D.D.D.D.D.X.    [ D.V.%   D ZXZXZXZXsX,   m D.D.m   , sXZXZXZXZXD   % V.D.[     d.ZXZXZXZX:XD.D.k     AXAXAXAX",
"AXAXAXAX    e T T 6.D.D.D.D.5.H H <.D.Z.) / 0.ZXZXZXZXgXL K O.+X+XZ   ; aXZXZXZXZX9./ _ OX+Xv./ / P.*X*X*X*Xl.T T e     AXAXAXAX",
"AXAXAXAXAXAX      ] D.D.D.D.D.D.D.D.D.H.zXZXZXZXZXZXZXxXL.D. XZXZXG   * pXZXZXZXZXZXZXZXZXZXZXZXZX}.D.D.D.D.]       AXAXAXAXAXAX",
"AXAXAXAXAXAX      ] D.D.D.D.D.D.D.D.D.H.zXZXZXZXZXZXZXxXL.D. XZXZXG   * pXZXZXZXZXZXZXZXZXZXZXZXZX}.D.D.D.D.]       AXAXAXAXAXAX",
"AXAXAXAXAXAX      0 u u u u J D.D.D.D.F.~.^.@XZXZXZXZXVX6X5X7XZXZXoXT.R.bXZXZXZXZXZXZXZXZXZX4X^.^.P u u u u 0       AXAXAXAXAXAX",
"AXAXAXAXAXAXAXAXAX          j D.D.D.D.D.D.D.|.ZXZXZXZXZXZXZXZXZXZXZXZXZXZXZXZXZXZXZXZXZXZXZX>XD.D.j           AXAXAXAXAXAXAXAXAX",
"AXAXAXAXAXAXAXAXAX          h e.e.x.D.D.D.D.W.;X;XrXZXZXZXZXZXZXZXZXZXZXZXZXZXZXZXZXZXCXyXtX#Xe.e.h           AXAXAXAXAXAXAXAXAX",
"AXAXAXAXAXAXAXAXAXAXAXAXAXAX      ' D.D.D.D...    t.ZXZXZXZXZXZXZXZXZXZXZXZXZXZXZXZXZXzXH.D.'       AXAXAXAXAXAXAXAXAXAXAXAXAXAX",
"AXAXAXAXAXAXAXAXAXAXAXAXAXAX      ' D.D.D.D...    t.ZXZXZXZXZXZXZXZXZXZXZXZXZXZXZXZXZXzXH.D.'       AXAXAXAXAXAXAXAXAXAXAXAXAXAX",
"AXAXAXAXAXAXAXAXAXAXAXAXAXAX      B ~ ^ M.D...    t.ZXZXZXZXqX-X-Xf.>.,.lXZX9X-X-XwXZXzXH.D.'       AXAXAXAXAXAXAXAXAXAXAXAXAXAX",
"AXAXAXAXAXAXAXAXAXAXAXAXAXAX          o b.D...    t.ZXZXZXZX<XD.D.m   , sXZX,XD.D.1XZXzXH.D.'       AXAXAXAXAXAXAXAXAXAXAXAXAXAX",
"AXAXAXAXAXAXAXAXAXAXAXAXAXAX          o b.D...    t.ZXZXZXZX<XD.D.m   , sXZX,XD.D.1XZXzXH.D.'       AXAXAXAXAXAXAXAXAXAXAXAXAXAX",
"AXAXAXAXAXAXAXAXAXAXAXAXAXAX          o b.D...    $.)./.V N z g g 6   > !.).2.g g x N M p i w       AXAXAXAXAXAXAXAXAXAXAXAXAXAX",
"AXAXAXAXAXAXAXAXAXAXAXAXAXAXAXAXAX    o b.D...    | D.m.:             : m.D.|                 AXAXAXAXAXAXAXAXAXAXAXAXAXAXAXAXAX",
"AXAXAXAXAXAXAXAXAXAXAXAXAXAXAXAXAX    O a.g.`     ( g.s.-             - s.g.(         . X     AXAXAXAXAXAXAXAXAXAXAXAXAXAXAXAXAX",
"AXAXAXAXAXAXAXAXAXAXAXAXAXAXAXAXAXAXAX                                                    AXAXAXAXAXAXAXAXAXAXAXAXAXAXAXAXAXAXAX",
"AXAXAXAXAXAXAXAXAXAXAXAXAXAXAXAXAXAXAX                                                    AXAXAXAXAXAXAXAXAXAXAXAXAXAXAXAXAXAXAX",
"AXAXAXAXAXAXAXAXAXAXAXAXAXAXAXAXAXAXAX                                                    AXAXAXAXAXAXAXAXAXAXAXAXAXAXAXAXAXAXAX",
"AXAXAXAXAXAXAXAXAXAXAXAXAXAXAXAXAXAXAXAXAXAXAXAXAXAXAXAXAXAXAXAXAXAXAXAXAXAXAXAXAXAXAXAXAXAXAXAXAXAXAXAXAXAXAXAXAXAXAXAXAXAXAXAX"
};
