/* XPM */
static char *Skull_Pixel_Art_resized[] = {
/* columns rows colors chars-per-pixel */
"64 64 230 2 ",
"   c #000000",
".  c #010101",
"X  c #020202",
"o  c #030303",
"O  c #040404",
"+  c #050505",
"@  c #060606",
"#  c #070707",
"$  c #080808",
"%  c #090909",
"&  c #0A0A0A",
"*  c #0B0B0B",
"=  c #0C0C0C",
"-  c #0D0D0D",
";  c #0E0E0E",
":  c #0F0F0F",
">  c #101010",
",  c #111111",
"<  c #121212",
"1  c #131313",
"2  c #141414",
"3  c #151515",
"4  c #161616",
"5  c #171717",
"6  c #181818",
"7  c #191919",
"8  c #1A1A1A",
"9  c #1B1B1B",
"0  c #1C1C1C",
"q  c #1D1D1D",
"w  c #1E1E1E",
"e  c #202020",
"r  c #222222",
"t  c #232323",
"y  c #252525",
"u  c #262626",
"i  c #272727",
"p  c #282828",
"a  c #292929",
"s  c #2A2A2A",
"d  c #2B2B2B",
"f  c #2C2C2C",
"g  c #2D2D2D",
"h  c #2E2E2E",
"j  c #2F2F2F",
"k  c #303030",
"l  c #313131",
"z  c #323232",
"x  c #333333",
"c  c #343434",
"v  c #353535",
"b  c #363636",
"n  c #373737",
"m  c #383838",
"M  c #393939",
"N  c #3A3A3A",
"B  c #3B3B3B",
"V  c #3C3C3C",
"C  c #3D3D3D",
"Z  c #3E3E3E",
"A  c #3F3F3F",
"S  c #404040",
"D  c #414141",
"F  c #424242",
"G  c #444444",
"H  c #454545",
"J  c #474747",
"K  c #484848",
"L  c #494949",
"P  c #4A4A4A",
"I  c #4C4C4C",
"U  c #4D4D4D",
"Y  c #4E4E4E",
"T  c #4F4F4F",
"R  c #515151",
"E  c #525252",
"W  c #535353",
"Q  c #545454",
"!  c #555555",
"~  c #565656",
"^  c #575757",
"/  c #585858",
"(  c #595959",
")  c #5A5A5A",
"_  c #5B5B5B",
"`  c #5E5E5E",
"'  c #5F5F5F",
"]  c #606060",
"[  c #626262",
"{  c #636363",
"}  c #646464",
"|  c #656565",
" . c #666666",
".. c #676767",
"X. c #686868",
"o. c #696969",
"O. c #6A6A6A",
"+. c #6B6B6B",
"@. c #6C6C6C",
"#. c #6E6E6E",
"$. c #707070",
"%. c #717171",
"&. c #737373",
"*. c #747474",
"=. c #777777",
"-. c #787878",
";. c #7B7B7B",
":. c #7C7C7C",
">. c #7D7D7D",
",. c #7F7F7F",
"<. c #808080",
"1. c #818181",
"2. c #828282",
"3. c #838383",
"4. c #848484",
"5. c #858585",
"6. c #878787",
"7. c #888888",
"8. c #898989",
"9. c #8A8A8A",
"0. c #8B8B8B",
"q. c #8C8C8C",
"w. c #8D8D8D",
"e. c #8E8E8E",
"r. c #8F8F8F",
"t. c #909090",
"y. c #919191",
"u. c #929292",
"i. c #939393",
"p. c #949494",
"a. c #969696",
"s. c #979797",
"d. c #989898",
"f. c #999999",
"g. c #9A9A9A",
"h. c #9B9B9B",
"j. c #9C9C9C",
"k. c #9D9D9D",
"l. c #9E9E9E",
"z. c #9F9F9F",
"x. c #A0A0A0",
"c. c #A2A2A2",
"v. c #A3A3A3",
"b. c #A4A4A4",
"n. c #A5A5A5",
"m. c #A6A6A6",
"M. c #A7A7A7",
"N. c #A8A8A8",
"B. c #A9A9A9",
"V. c #AAAAAA",
"C. c #ABABAB",
"Z. c #ACACAC",
"A. c #ADADAD",
"S. c #AEAEAE",
"D. c #AFAFAF",
"F. c #B0B0B0",
"G. c #B3B3B3",
"H. c #B4B4B4",
"J. c #B5B5B5",
"K. c #B6B6B6",
"L. c #B7B7B7",
"P. c #B8B8B8",
"I. c #B9B9B9",
"U. c #BABABA",
"Y. c #BBBBBB",
"T. c #BCBCBC",
"R. c #BDBDBD",
"E. c #BEBEBE",
"W. c #BFBFBF",
"Q. c #C0C0C0",
"!. c #C1C1C1",
"~. c #C2C2C2",
"^. c #C3C3C3",
"/. c #C4C4C4",
"(. c #C5C5C5",
"). c #C6C6C6",
"_. c #C7C7C7",
"`. c #C8C8C8",
"'. c #C9C9C9",
"]. c #CACACA",
"[. c #CBCBCB",
"{. c #CCCCCC",
"}. c #CDCDCD",
"|. c #CECECE",
" X c #CFCFCF",
".X c #D0D0D0",
"XX c #D1D1D1",
"oX c #D2D2D2",
"OX c #D3D3D3",
"+X c #D4D4D4",
"@X c #D5D5D5",
"#X c #D6D6D6",
"$X c #D7D7D7",
"%X c #D8D8D8",
"&X c #D9D9D9",
"*X c #DADADA",
"=X c #DBDBDB",
"-X c #DCDCDC",
";X c #DDDDDD",
":X c #DEDEDE",
">X c #DFDFDF",
",X c #E0E0E0",
"<X c #E1E1E1",
"1X c #E2E2E2",
"2X c #E3E3E3",
"3X c #E4E4E4",
"4X c #E5E5E5",
"5X c #E6E6E6",
"6X c #E7E7E7",
"7X c #E8E8E8",
"8X c #E9E9E9",
"9X c #EAEAEA",
"0X c #EBEBEB",
"qX c #ECECEC",
"wX c #EDEDED",
"eX c #EEEEEE",
"rX c #EFEFEF",
"tX c #F0F0F0",
"yX c #F1F1F1",
"uX c #F2F2F2",
"iX c #F3F3F3",
"pX c #F4F4F4",
"aX c #F5F5F5",
"sX c #F6F6F6",
"dX c #F7F7F7",
"fX c #F8F8F8",
"gX c #F9F9F9",
"hX c #FAFAFA",
"jX c #FBFBFB",
"kX c #FDFDFD",
/* pixels */
"^.!.^./.!.~.(.~.~.(.^.!./.^.!././.!.^./.!.~.(.~.~.(.^.!./.^.!././.!.^./.!.~.(.~.~.(.^.!./.^.!././.!.^./.!.~.(.~.~.(.^.!./.^.!.^.",
"|.{.|..X{.}..X}.{..X|.{. X|.{. X X{.|..X{.}..X}.{..X|.{. X|.{. X X{.|..X{.}..X}.{..X|.{. X|.{. X X{.|..X{.}..X}.{..X|.{. X|.{.|.",
"Q.E.Q.!.E.W.!.W.E.!.W.E.!.Q.E.Q.!.E.Q.!.E.W.!.W.E.!.W.E.!.Q.E.Q.!.E.Q.!.E.W.!.W.E.!.W.E.!.Q.E.Q.!.E.Q.!.E.W.!.W.E.!.W.E.!.Q.E.Q.",
"XX XXXOX X.XOX.X XOXXX XoXoX XoXoX XXXOX X.XOX.X XOXXX XoXoX XoXoX XXXOX X.XOX.X XOXXX XoXoX XoXoX XXXOX X.XOX.X XOXXX XoXoX XXX",
"E.T.E.W.T.R.Q.R.T.W.E.T.W.E.T.E.W.T.E.W.T.R.Q.R.T.W.E.T.W.E.T.E.W.T.E.W.T.R.Q.R.T.W.E.T.W.E.T.E.W.T.E.W.T.R.Q.R.T.W.E.T.W.E.T.E.",
"XX XXXOX X.XOX.X.XOXXX XOXoX XoXoX XXXOX X.XOX.X.XOXXX XOXoX XoXoX XXXOX X.XOX.X.XOXXX XOXoX XoXoX XXXOX X.XOX.X.XOXXX XOXoX XXX",
"Q.E.W.!.E.W.!.E.E.!.W.E.!.Q.R.Q.Q.R.W.!.E.W.!.E.E.!.W.E.!.Q.R.Q.Q.R.W.!.E.W.!.E.E.!.W.E.!.Q.R.Q.Q.R.W.!.E.W.!.E.E.!.W.E.!.Q.R.Q.",
" X{.|..X}.}..X}.}..X|.{..X X{. X.X{.|..X}.}..X}.}..X X|.XXXX|.XXXX|..XoX|. XoX|.}..X|.{..X X{. X.X{.|..X}.}..X}.}..X|.{..X X{. X",
"/.~.^.(.~.^.(.^.~.(.^.~.(./.!./.(.~.^.(.~.^.(.^.~./.S.M.V.B.M.B.V.M.B.V.M.N.C.Y.^.(.^.~.(./.!./.(.~.^.(.~.^.(.^.~.(.^.~.(./.!./.",
"]._.'.[.`.`.[.`.`.[.'._.[.]._.].]._.'.[.`.`.[.`.`./.b : > , , > > , > > , > 2 s.[.[.'._.[.]._.].]._.'.[.`.`.[.`.`.[.'._.[.]._.].",
"'._.'.[._.`.[.`.`.[.'._.].]._.].]._.'.[._.`.[.`.(.Y.s # : : > : : > : : > - # w.(.[.'._.].]._.].]._.'.[._.`.[.`.`.[.'._.].]._.'.",
"/.~./.(.~.^.(.^.~.(.^.~.(./.~./.(.~./.(.~.^.(.(.y.u * R /.~.W.~.~.W.!.^.^.i.= 9 / (./.~.(./.~./.(.~./.(.~.^.(.^.~.(.^.~.(./.~./.",
"|.{.|..X{.}..X}.}..X|.{. X X{. X X{.|..X{.}..XXXq.X   [ aXuXrXuXiXrXyXiXiXK.$   F  X|.{. X X{. X X{.|..X{.}..X}.}..X|.{. X X{.|.",
"Q.E.W.!.E.W.!.W.E.!.W.E.!.Q.R.Q.!.E.W.!.E.W.!.~.4.: >.L.1X<X:X<X<X:X,X1X>X|.h.g S Q.W.E.!.Q.R.Q.!.E.W.!.E.W.!.W.E.!.W.E.!.Q.R.Q.",
"XX XXXOX X.XOX.X.XOXXX XOXoX XoXoX XXXOX X.XOX#Xy.; ).aXpXiXtXiXpXtXuXpXtXiXpXD D #XoX XOXoX XoXoX XXXOX X.XOX.X.XOXXX XOXoX XXX",
"E.T.E.W.T.R.Q.R.T.W.E.T.W.E.T.E.W.T.E.W.T.R.E.<.J < H.>X,X>X-X>X>X-X:X,X;X:X-XS t @.Z.R.W.E.T.E.W.T.E.W.T.R.Q.R.T.W.E.T.W.E.T.E.",
"XX XXXOX X.XOX.X XOXXX XoXoX XoXoX XXXOX X.X.Xm   & ~.iXpXiXtXiXpXtXuXpXyXuXtXD   $ M.oXoXoX XoXoX XXXOX X.XOX.X XOXXX XoXoX XXX",
"Q.E.Q.!.E.W.!.W.E.!.W.E.!.Q.E.Q.!.E.W.!.E.W.E.m 7 Y !.,X<X<X:X<X<X:X,X1X:X>X>X%.k : h.Q.!.Q.E.Q.!.E.W.!.E.W.!.W.E.!.W.E.!.Q.E.Q.",
"|.{.|..X{.}..X}.{..X|.{. X|.{. X X{.|..X{.}.}.n I tXrXeXiXuXrXuXyXeXyXiXtXtXyXuXc.- n.|. X|.{. X X{.|..X{.}..X}.{..X|.{. X|.{.|.",
"/.~./.(.~.^.).^.~.)./.~.(./.~.(.(.~./.(.~.^.^.b P 4X4X#X).).^.].2XXX/._.^.{.4X6Xj.: l./.(./.~.(.(.~./.(.~.^.).^.~.)./.~.(./.~./.",
"'._.'.]._.`.[.`._.].'._.].'._.'.]._.'.]._.`.`.n I qXeXi.< 2 1 j *X$.> 2 , L 6XeXx.: c.'.].'._.'.]._.'.]._.`.[.`._.].'._.].'._.'.",
"].`.'.[.`.'.[.`.`.[.'.`.[.]._.].[._.'.[.`.'.`.b K 1XqXw.X O o e &X..  O . V 6X5Xd.- c.].[.]._.].[._.'.[.`.'.[.`.`.[.'.`.[.]._.].",
"/.~.^.(.~.^.(.~.~.(.^.!.(./.!././.!.^.(.~.^.~.N , v /.w.@ $ # t +X..O $ + Z :X' w : k./.(./.!././.!.^.(.~.^.(.~.~.(.^.!.(./.!./.",
" X{.|..X}.|..X}.}..X|.{..X X{. X.X{.|..X}.|.}.M   * /.u.  O X e :Xo.  o   C 7XD   & n. X.X X{. X.X{.|..X}.|..X}.}..X|.{..X X{. X",
"Q.E.W.!.E.E.!.E.E.!.W.R.Q.Q.R.Q.Q.R.W.!.E.W.Q.i.( < K.(.w.9 I v.=XL.>.> | Z.-XD d 4.G.E.Q.Q.R.Q.Q.R.W.!.E.E.!.E.E.!.W.R.Q.Q.R.Q.",
"oX XXXOX.X.XOX.X.XOXXX XOXoX XoXoX XXXOX.X.XOX#Xy.; ^.sX3Xq *.jXfXdX].* z.gXyXS D #XoX XOXoX XoXoX XXXOX.X.XOX.X.XOXXX XOXoX XoX",
"E.T.E.W.T.R.Q.R.T.W.E.T.W.E.T.E.W.T.E.W.T.R.Q.Q.3.< H.,X$X;.c.+X3.G.{.&.K.,X-XA Z W.E.T.W.E.T.E.W.T.E.W.T.R.Q.R.T.W.E.T.W.E.T.E.",
"XX XXXOX X.XOX.X XOXXX XoXXX XoXoX XXXOX X.XOXOXe.; ).aXpXsXpX@X> 6.dXdXuXuXpXD S oXXX XoXXX XoXoX XXXOX X.XOX.X XOXXX XoXXX XXX",
"Q.E.Q.!.E.W.!.W.E.!.Q.E.!.Q.E.Q.!.E.Q.!.E.W.!.~.4.: 4.T.1X<X>X}.R h.2X1X>XXXb.j A !.Q.E.!.Q.E.Q.!.E.Q.!.E.W.!.W.E.!.Q.E.!.Q.E.Q.",
"|.{.|. X{.}. X}.{. X}.{. X|.[.|. X{.|. X{.}.XXoXe.+ X } pXtXeXyXyXeXtXyXuXL.= X H .X X}. X|.[.|. X{.|. X{.}. X}.{. X}.{. X|.{.|.",
"(.^./.).^.^.).^.^.)./.~.).(.~.(.(.~./.).^.E.D.D.=.# o W }.1X@X`.'.).}.4XOXs.& O B S.Z.J.).(.~.(.(.~./.).^.^.).^.^.)./.~.).(.~.(.",
"'._.`.]._.`.]._._.].`.).].'.).'.].).`.].].j.6 2 : @ # = u .X3.< 3 1 B <X' ; # # * 1 > _ {.'.).'.].).`.]._.`.]._._.].`.).].'.).'.",
"].`.].[.`.'.{.'.`.{.].`.[.].`.[.[.`.'.(.(.p.$ & & O + O 4  X,.% = & c <XQ   O + $ = X T )././.[.[.`.].[.`.'.{.'.`.{.].`.[.].`.].",
"^.!.^./.!.~.(.~.~.(.^.!./.^.!././.^.N.x d r = e.4.$ $ # 7 )..XT.R.U.^.3XQ O $ + F J.d 2 d p &.)./.!.^./.!.~.(.~.~.(.^.!./.^.!.^.",
" X}. X.X}.|.XX|.}.XX|.}..X X}. X.X XC.=     @ K.N.o o o 4 XXuXpXaXyXiXiX!   o   T 8Xz       } OX.X}. X.X}.|.XX|.}.XX|.}..X X}. X",
"Q.R.W.!.E.E.!.E.E.!.W.R.Q.Q.R.Q.Q.W.z.< { s.s.{.`.t.y # : P Q Q Q W Q Q t $ * #.S.:Xb.i.0.8 ' ^.Q.R.W.!.E.E.!.E.E.!.W.R.Q.Q.R.W.",
"oX XXXOX.X.XOX.X.XOXXX XOXoX XoXOXXXA.- b.kXgXuXiXeXk                       o H.dXaXaXdX8Xr } @XOX XXXOX.X.XOX.X.XOXXX XOXoX XoX",
"E.T.E.W.T.R.Q.R.T.W.E.T.W.E.T.W.W.E.l.< W s.:X:X;X=X1.X.O.O.O.` , A +.O.o.o.@.E.>X,X,XK.*.4 ` !.W.T.E.W.T.R.Q.R.T.W.E.T.W.E.T.E.",
"XX XXXOX X.XOX.X XOXXX XoXXX XXXoXXXZ.=   V uXaXpXfXfXaXdXsXaX%X2 9.hXdXpXaXjXaXpXdXhXu.    | @XoX XXXOX X.XOX.X XOXXX XoXXX XXX",
"!.W.Q.~.W.W.~.W.W.~.Q.E.!.!.E.!.!.Q.N.Z 4 h b.m.m.N.m.T.1X<X,X}.Y g.2X1X,XXXB.m.m.N.V. .& h -.^.!.E.Q.~.W.W.~.W.W.~.Q.E.!.!.E.Q.",
"|.[.}. X{.{. X{.{. X}.[. X|.[.|.|.[.}.}.L . @ @ @ @ o | pXyXwXrXeX0XrXuXuXK.= @ @ @ @ O < F.{.|.|.[.}. X{.{. X{.{. X}.[. X|.[.|.",
"(.^.(.).^./.)./.^.)./.^.).(.^.(.).^.(._.~ 7 0 0 0 9 # Q }.].@X5X6X2X,X}.[.f.* 4 0 9 0 9 p S./.(.).^.(.).^./.)./.^.)./.^.).(.^.(.",
"`.).`.].)._.]._.).].`.).'.`.).'.'.).`.].R.I.Y.I.I.H.s * 5 2 :.wX0X9X^.r 5 1 % 8.Y.Y.I.P.T.).).'.'.).`.].)._.]._.).].`.).'.`.).`.",
"[.`.].{.'.'.{.'.'.{.].`.{.[.`.[.[.`.].{.).(._.(.(.W.d + * # =.eX4X7X^.5 * % # y._._.(./._.].`.[.[.`.].{.'.'.{.'.'.{.].`.{.[.`.[.",
"^.!.~./.!.~./.~.!./.~.!./.^.!.^./.!.^./.] s g g g d = Y T.I.}. XD a.>XR.U.w.- t g g g f m S.~.^./.!.~./.!.~./.~.!./.~.!./.^.!.^.",
" X}. XXX}.|.XX|.|.XX X}..X.X}..X.X}. XOXL             [ dXaXiX@X2 7.sXsXaXL.#           , H..X.X.X}. XXX}.|.XX|.|.XX X}..X.X}. X",
"W.R.W.Q.R.E.Q.E.R.Q.W.R.Q.W.R.W.Q.E.C.W w a r.y.y.u.t.F.$XO.~ U : v / ^ F.|.p.y.y.u.p.) - D 3.!.Q.R.W.Q.R.E.Q.E.R.Q.W.R.Q.W.R.W.",
"oX XXXOX.X.XOX.X.XOXXX XOXoX XoXOXoXZ.&   V iXsXaXgXhXfX4Xr             x.jXkXdXaXgXjXu.    } @XOX XXXOX.X.XOX.X.XOXXX XOXoX XoX",
"W.T.E.W.T.R.Q.R.R.Q.E.T.W.E.T.W.W.E.l.< G 5.;X:X;X-Xi.,.-.6 g / ^ ^ L - ^ 2.3./.:X,X,XA.` 1 ' !.W.T.E.W.T.R.Q.R.R.Q.E.T.W.E.T.E.",
"XX XXXoX X.XOX.X XoX.X XoXXX|.XXoXXXZ.; v.jXdXuXuXwXl        .$X@X+XS.=     O G.sXpXpXsX6Xr } @XoX|.XXoX X.XOX.X XoX.X XoXXX|.XX",
"!.W.Q.~.W.Q.~.W.W.~.Q.W.~.!.E.!.!.!.x., %.Z.Z.oX Xb.i 6 v z =.^.!.Q.N.V c a * >.R.,XJ.N.l.9 ' /.!.E.Q.~.W.Q.~.W.W.~.Q.W.~.!.E.!.",
"}.[.}. X[.{. X{.[. X}.[.|.}.[.|.|.}.V.; @ # = J.N.$ . E }.[.'.|.|.[.{.{.[.g.$ o W 6Xb + @ . } XX|.[.}. X[.{. X{.[. X}.[.|.}.[.}.",
").^.(._././._././._.(.^.).).^.).).(.M.t 8 3 % g.r.# 1 ` `.).^.).).^.(._.).h.q $ H (.g = 8 5 @.`.).^.(._././._././._.(.^.).).^.(.",
"`.)._.'.)._.'._.).'._.).'.`.(.`.'.).(.U.I.q.* 2 1 ; p.E.'.`.(.`.'.)._.'.).^.L.b & 6 # I U.P.R.`.'.)._.'.)._.'._.).'._.).'.`.).`.",
"[.'.[.{.'.].{.].'.{.].'.{.[.'.[.{.'.[.}.}.j.- $ $ , n.{.{.[.'.[.{.'.[.{.'.].[.C @ $ @ ~  X{.'.[.{.'.[.{.'.].{.].'.{.].'.{.[.'.[.",
"^.!.~./.!.!./.!.!./.~.Q.^.^.Q.^.^.Q.~./.!.P.k.g.g.l.U.!.^.^.Q.^.^.Q.~./.!.!.^.n.f.j.g.B./.^.Q.^.^.Q.~./.!.!./.!.!./.~.Q.^.^.Q.^.",
".X}. XXX|.|.XX|.|.XX X}.XX.X}..XXX}. XXX|. X+XXX.XOX.X}.XX.X}..XXX}. XXX|.|.XX.X.X+XoX XXX.X}..XXX}. XXX|.|.XX|.|.XX X}.XX.X}..X",
"W.R.W.Q.R.E.Q.E.R.Q.E.R.Q.W.R.W.Q.R.W.Q.R.E.Q.E.R.Q.E.R.Q.W.R.W.Q.R.W.Q.R.E.Q.E.R.Q.E.R.Q.W.R.W.Q.R.W.Q.R.E.Q.E.R.Q.E.R.Q.W.R.W.",
"oX XXXOX.XXXOX.X.XOXXX XOXoX XoXOX XXXOX.XXXOX.X.XOXXX XOXoX XoXOX XXXOX.XXXOX.X.XOXXX XOXoX XoXOX XXXOX.XXXOX.X.XOXXX XOXoX XoX",
"W.T.E.Q.T.R.Q.R.R.Q.E.T.W.W.T.W.W.T.E.Q.T.R.Q.R.R.Q.E.T.W.W.T.W.W.T.E.Q.T.R.Q.R.R.Q.E.T.W.W.T.W.W.T.E.Q.T.R.Q.R.R.Q.E.T.W.W.T.E.",
"XX|..XoX X.XoX X XoX.X|.oXXX|.XXoX|..XoX X.XoX X XoX.X|.oXXX|.XXoX|..XoX X.XoX X XoX.X|.oXXX|.XXoX|..XoX X.XoX X XoX.X|.oXXX|.XX",
"!.W.!.~.W.Q.~.Q.W.~.Q.W.~.!.W.!.~.W.!.~.W.Q.~.Q.W.~.Q.W.~.!.W.!.~.W.!.~.W.Q.~.Q.W.~.Q.W.~.!.W.!.~.W.!.~.W.Q.~.Q.W.~.Q.W.~.!.W.!.",
"}.[.{.|.[.{.|.[.[.|.{.].|.}.].}.|.].{.|.[.{.|.[.[.|.{.].|.}.].}.|.].{.|.[.{.|.[.[.|.{.].|.}.].}.|.].{.|.[.{.|.[.[.|.{.].|.}.].}.",
"_.(._.`.(.).'.).(.`._.(.`._.(._.`.(._.`.(.).'.).(.`._.(.`._.(._.`.(._.`.(.).'.).(.`._.(.`._.(._.`.(._.`.(.).'.).(.`._.(.`._.(._."
};
