/* XPM */
static char *spikes[] = {
/* columns rows colors chars-per-pixel */
"64 64 2 1",
"  c #181425",
". c #514047",
/* pixels */
"................................................................",
"................................................................",
"................................................................",
"................................................................",
"................................................................",
"................................................................",
"................................................................",
"................................................................",
"................................................................",
"................................................................",
"................................................................",
"................................................................",
"................................................................",
"................................................................",
"................................................................",
"................................................................",
"........            ........................            ........",
"........            ........................            ........",
"........            ........................            ........",
"........            ........................            ........",
"....                    ................                    ....",
"....                    ................                    ....",
"....                    ................                    ....",
"....                    ................                    ....",
"....                    ................                    ....",
"....                    ................                    ....",
"....                    ................                    ....",
"....                    ................                    ....",
"........            ........................            ........",
"........            ........................            ........",
"........            ........................            ........",
"........            ........................            ........",
"................................................................",
"................................................................",
"................................................................",
"................................................................",
"................................................................",
"................................................................",
"................................................................",
"................................................................",
"................................................................",
"................................................................",
"................................................................",
"................................................................",
"................................................................",
"................................................................",
"................................................................",
"................................................................",
"........            ........................            ........",
"........            ........................            ........",
"........            ........................            ........",
"........            ........................            ........",
"....                    ................                    ....",
"....                    ................                    ....",
"....                    ................                    ....",
"....                    ................                    ....",
"....                    ................                    ....",
"....                    ................                    ....",
"....                    ................                    ....",
"....                    ................                    ....",
"........            ........................            ........",
"........            ........................            ........",
"........            ........................            ........",
"........            ........................            ........"
};
