/* XPM */
static char *wall3[] = {
/* columns rows colors chars-per-pixel */
"64 64 8 1",
"  c black",
". c #3E2E39",
"X c #353E50",
"o c #574251",
"O c #434F65",
"+ c #5A6988",
"@ c #627293",
"# c #6F7F9F",
/* pixels */
"OOOOXXXXXXXXXXXXXXXXXXXXXXXXXXXXOOOOXXXXXXXXXXXXXXXXXXXXXXXXXXXX",
"OOOOXXXXXXXXXXXXXXXXXXXXXXXXXXXXOOOOXXXXXXXXXXXXXXXXXXXXXXXXXXXX",
"OOOOXXXXXXXXXXXXXXXXXXXXXXXXXXXXOOOOXXXXXXXXXXXXXXXXXXXXXXXXXXXX",
"OOOOXXXXXXXXXXXXXXXXXXXXXXXXXXXXOOOOXXXXXXXXXXXXXXXXXXXXXXXXXXXX",
"OOOO############################OOOO############################",
"OOOO############################OOOO############################",
"OOOO############################OOOO############################",
"OOOO############################OOOO############################",
"OOOO####++++++++++++++++++++####OOOO####++++++++++++++++++++####",
"OOOO####++++++++++++++++++++####OOOO####++++++++++++++++++++####",
"OOOO####++++++++++++++++++++####OOOO####++++++++++++++++++++####",
"OOOO####++++++++++++++++++++####OOOO####++++++++++++++++++++####",
"XXXXXXXXOOOOOOOOXXXXXXXXXXXXXXXXXXXXXXXXXXXXXXXXOOOOOOOOXXXXXXXX",
"XXXXXXXXOOOOOOOOXXXXXXXXXXXXXXXXXXXXXXXXXXXXXXXXOOOOOOOOXXXXXXXX",
"XXXXXXXXOOOOOOOOXXXXXXXXXXXXXXXXXXXXXXXXXXXXXXXXOOOOOOOOXXXXXXXX",
"XXXXXXXXOOOOOOOOXXXXXXXXXXXXXXXXXXXXXXXXXXXXXXXXOOOOOOOOXXXXXXXX",
"########OOOOXXXX########@@@@@@@@@@@@@@@@########XXXXOOOO########",
"########OOOOXXXX########@@@@@@@@@@@@@@@@########XXXXOOOO########",
"########OOOOXXXX########@@@@@@@@@@@@@@@@########XXXXOOOO########",
"########OOOOXXXX########@@@@@@@@@@@@@@@@########XXXXOOOO########",
"++++####XXXX####@@@@@@@@@@@@@@@@@@@@@@@@@@@@@@@@####XXXX####++++",
"++++####XXXX####@@@@@@@@@@@@@@@@@@@@@@@@@@@@@@@@####XXXX####++++",
"++++####XXXX####@@@@@@@@@@@@@@@@@@@@@@@@@@@@@@@@####XXXX####++++",
"++++####XXXX####@@@@@@@@@@@@@@@@@@@@@@@@@@@@@@@@####XXXX####++++",
"++++########@@@@@@@@....    ....    ....    @@@@@@@@########++++",
"++++########@@@@@@@@....    ....    ....    @@@@@@@@########++++",
"++++########@@@@@@@@....    ....    ....    @@@@@@@@########++++",
"++++########@@@@@@@@....    ....    ....    @@@@@@@@########++++",
"OOOOOOOO####@@@@    ....    ....    oooo    ....@@@@####OOOOOOOO",
"OOOOOOOO####@@@@    ....    ....    oooo    ....@@@@####OOOOOOOO",
"OOOOOOOO####@@@@    ....    ....    oooo    ....@@@@####OOOOOOOO",
"OOOOOOOO####@@@@    ....    ....    oooo    ....@@@@####OOOOOOOO",
"OOOOOOOO@@@@@@@@    ....    oooo    oooo    oooo@@@@@@@@OOOOOOOO",
"OOOOOOOO@@@@@@@@    ....    oooo    oooo    oooo@@@@@@@@OOOOOOOO",
"OOOOOOOO@@@@@@@@    ....    oooo    oooo    oooo@@@@@@@@OOOOOOOO",
"OOOOOOOO@@@@@@@@    ....    oooo    oooo    oooo@@@@@@@@OOOOOOOO",
"OOOOOOOO@@@@@@@@    oooo    oooo    oooo    oooo@@@@@@@@OOOOOOOO",
"OOOOOOOO@@@@@@@@    oooo    oooo    oooo    oooo@@@@@@@@OOOOOOOO",
"OOOOOOOO@@@@@@@@    oooo    oooo    oooo    oooo@@@@@@@@OOOOOOOO",
"OOOOOOOO@@@@@@@@    oooo    oooo    oooo    oooo@@@@@@@@OOOOOOOO",
"OOOOOOOO@@@@@@@@    ....    ....    ....    oooo@@@@@@@@OOOOOOOO",
"OOOOOOOO@@@@@@@@    ....    ....    ....    oooo@@@@@@@@OOOOOOOO",
"OOOOOOOO@@@@@@@@    ....    ....    ....    oooo@@@@@@@@OOOOOOOO",
"OOOOOOOO@@@@@@@@    ....    ....    ....    oooo@@@@@@@@OOOOOOOO",
"XXXXXXXX@@@@@@@@    oooo    oooo    ....    oooo@@@@@@@@XXXXXXXX",
"XXXXXXXX@@@@@@@@    oooo    oooo    ....    oooo@@@@@@@@XXXXXXXX",
"XXXXXXXX@@@@@@@@    oooo    oooo    ....    oooo@@@@@@@@XXXXXXXX",
"XXXXXXXX@@@@@@@@    oooo    oooo    ....    oooo@@@@@@@@XXXXXXXX",
"########@@@@@@@@    oooo    ....    oooo    ....@@@@@@@@########",
"########@@@@@@@@    oooo    ....    oooo    ....@@@@@@@@########",
"########@@@@@@@@    oooo    ....    oooo    ....@@@@@@@@########",
"########@@@@@@@@    oooo    ....    oooo    ....@@@@@@@@########",
"++++####@@@@@@@@@@@@@@@@@@@@@@@@@@@@@@@@@@@@@@@@@@@@@@@@####++++",
"++++####@@@@@@@@@@@@@@@@@@@@@@@@@@@@@@@@@@@@@@@@@@@@@@@@####++++",
"++++####@@@@@@@@@@@@@@@@@@@@@@@@@@@@@@@@@@@@@@@@@@@@@@@@####++++",
"++++####@@@@@@@@@@@@@@@@@@@@@@@@@@@@@@@@@@@@@@@@@@@@@@@@####++++",
"++++####@@@@@@@@@@@@@@@@@@@@@@@@@@@@@@@@@@@@@@@@@@@@@@@@####++++",
"++++####@@@@@@@@@@@@@@@@@@@@@@@@@@@@@@@@@@@@@@@@@@@@@@@@####++++",
"++++####@@@@@@@@@@@@@@@@@@@@@@@@@@@@@@@@@@@@@@@@@@@@@@@@####++++",
"++++####@@@@@@@@@@@@@@@@@@@@@@@@@@@@@@@@@@@@@@@@@@@@@@@@####++++",
"OOOOOOOOOOOOOOOOOOOOOOOOOOOOOOOOOOOOOOOOOOOOOOOOOOOOOOOOOOOOOOOO",
"OOOOOOOOOOOOOOOOOOOOOOOOOOOOOOOOOOOOOOOOOOOOOOOOOOOOOOOOOOOOOOOO",
"OOOOOOOOOOOOOOOOOOOOOOOOOOOOOOOOOOOOOOOOOOOOOOOOOOOOOOOOOOOOOOOO",
"OOOOOOOOOOOOOOOOOOOOOOOOOOOOOOOOOOOOOOOOOOOOOOOOOOOOOOOOOOOOOOOO"
};
